<?xml version="1.0" encoding="UTF-8" standalone="no"?>
<!DOCTYPE svg PUBLIC "-//W3C//DTD SVG 1.1//EN" "http://www.w3.org/Graphics/SVG/1.1/DTD/svg11.dtd">
<svg width="100%" height="100%" viewBox="0 0 256 256" version="1.1" xmlns="http://www.w3.org/2000/svg" xmlns:xlink="http://www.w3.org/1999/xlink" xml:space="preserve" xmlns:serif="http://www.serif.com/" style="fill-rule:evenodd;clip-rule:evenodd;stroke-linecap:round;stroke-linejoin:round;stroke-miterlimit:1.5;">
    <g transform="matrix(1,0,0,1,-3840,0)">
        <g transform="matrix(1.6,0,0,1.70667,-14397.5,-373.411)">
            <rect id="eating_healthy" x="11398.4" y="218.796" width="160" height="150" style="fill:none;"/>
            <g id="eating_healthy1" serif:id="eating_healthy">
                <g transform="matrix(1,0,0,1,1.87497,13.8672)">
                    <g transform="matrix(-0.625,0,0,0.585937,13753.6,196.725)">
                        <path d="M3653.06,116.049C3661.14,115.042 3675.51,111.071 3684.4,111.382C3692.03,111.649 3706.36,117.914 3706.36,117.914L3691.73,182.382C3673.13,191.006 3661.99,191.202 3648.73,179.382L3635.91,117.419C3635.91,117.419 3647.37,116.757 3653.06,116.049Z" style="fill:rgb(122,197,234);"/>
                    </g>
                    <g transform="matrix(0.625,0,0,0.585937,9164.66,200.436)">
                        <path d="M3660.06,115.049C3668.31,113.765 3676.68,105.182 3684.4,105.049C3692.11,104.915 3706.36,114.247 3706.36,114.247L3691.73,182.382C3673.13,191.006 3656.99,190.202 3643.73,178.382L3634.91,112.753C3634.91,112.753 3651.82,116.333 3660.06,115.049Z" style="fill:rgb(211,241,255);"/>
                    </g>
                    <g transform="matrix(0.625,0,0,0.585937,9164.66,200.436)">
                        <path d="M3630.4,74.382C3664.21,61.125 3695.92,61.193 3716.4,73.715L3691.73,182.382C3671.5,190.363 3655.08,189.956 3643.73,178.382L3630.4,74.382Z" style="fill:none;stroke:rgb(255,250,211);stroke-width:4px;"/>
                    </g>
                    <g transform="matrix(0.625,0,0,0.585937,9164.66,200.436)">
                        <path d="M3630.4,74.382C3654.47,95.654 3682.54,92.443 3716.4,73.715" style="fill:none;stroke:rgb(255,250,211);stroke-width:2px;"/>
                    </g>
                </g>
                <g transform="matrix(0.85207,-0.490713,0.558323,0.85207,1547.19,5690.22)">
                    <g transform="matrix(0.625,0,0,0.585937,9137.57,201.218)">
                        <path d="M3809.06,80.049C3803.23,87.437 3797.23,114.715 3786.06,126.715C3774.9,138.715 3755.9,148.826 3742.06,152.049C3729.25,155.032 3713.01,148.993 3703.06,146.049C3695.48,143.803 3689.62,137.612 3682.4,134.382C3673.95,130.604 3658.67,123.937 3652.4,123.382C3648.8,123.063 3644.49,127.443 3644.73,131.049C3645.17,137.604 3648.49,153.77 3655.06,162.715C3662.01,172.16 3674.14,182.389 3686.4,187.715C3699.56,193.437 3717.88,197.38 3734.06,197.049C3750.34,196.715 3770.51,192.604 3784.06,185.715C3796.95,179.164 3809.51,165.771 3815.4,155.715C3820.55,146.915 3819.17,133.66 3819.4,125.382C3819.57,118.879 3816.48,112.549 3816.73,106.049C3817.01,98.882 3822.34,86.715 3821.06,82.382C3819.91,78.473 3811.59,76.85 3809.06,80.049Z" style="fill:rgb(255,241,127);"/>
                        <clipPath id="_clip1">
                            <path d="M3809.06,80.049C3803.23,87.437 3797.23,114.715 3786.06,126.715C3774.9,138.715 3755.9,148.826 3742.06,152.049C3729.25,155.032 3713.01,148.993 3703.06,146.049C3695.48,143.803 3689.62,137.612 3682.4,134.382C3673.95,130.604 3658.67,123.937 3652.4,123.382C3648.8,123.063 3644.49,127.443 3644.73,131.049C3645.17,137.604 3648.49,153.77 3655.06,162.715C3662.01,172.16 3674.14,182.389 3686.4,187.715C3699.56,193.437 3717.88,197.38 3734.06,197.049C3750.34,196.715 3770.51,192.604 3784.06,185.715C3796.95,179.164 3809.51,165.771 3815.4,155.715C3820.55,146.915 3819.17,133.66 3819.4,125.382C3819.57,118.879 3816.48,112.549 3816.73,106.049C3817.01,98.882 3822.34,86.715 3821.06,82.382C3819.91,78.473 3811.59,76.85 3809.06,80.049Z"/>
                        </clipPath>
                        <g clip-path="url(#_clip1)">
                            <g transform="matrix(0.995054,0.0993391,-0.114666,1.14858,60.4632,-354.488)">
                                <path d="M3804.4,43.299C3804.4,40.217 3801.51,37.715 3797.95,37.715L3756.18,37.715C3752.62,37.715 3749.73,40.217 3749.73,43.299L3749.73,54.465C3749.73,57.547 3752.62,60.049 3756.18,60.049L3797.95,60.049C3801.51,60.049 3804.4,57.547 3804.4,54.465L3804.4,43.299Z" style="fill:rgb(192,132,38);"/>
                            </g>
                            <g transform="matrix(0.565312,-0.824877,0.824877,0.565312,1466.86,3210.2)">
                                <path d="M3804.4,43.299C3804.4,40.217 3801.89,37.715 3798.81,37.715L3755.31,37.715C3752.23,37.715 3749.73,40.217 3749.73,43.299L3749.73,54.465C3749.73,57.547 3752.23,60.049 3755.31,60.049L3798.81,60.049C3801.89,60.049 3804.4,57.547 3804.4,54.465L3804.4,43.299Z" style="fill:rgb(192,132,38);"/>
                            </g>
                        </g>
                        <path d="M3802.78,75.091C3805.61,71.507 3811.41,69.589 3817.11,70.698C3822.79,71.804 3827.45,75.748 3828.74,80.119C3829.38,82.309 3829.4,85.699 3828.58,89.68C3827.51,94.799 3824.9,101.701 3824.72,106.358C3824.62,108.92 3825.27,111.435 3825.84,113.962C3826.71,117.819 3827.5,121.687 3827.39,125.597C3827.14,134.941 3828.12,149.823 3822.3,159.758C3815.8,170.858 3801.92,185.616 3787.69,192.847C3773.19,200.215 3751.64,204.69 3734.23,205.047C3716.9,205.402 3697.3,201.177 3683.21,195.052C3669.68,189.173 3656.28,177.88 3648.62,167.454C3641.16,157.309 3637.25,139.024 3636.75,131.59C3636.49,127.744 3638.26,123.314 3641.45,120.103C3644.7,116.83 3649.19,115.067 3653.1,115.413C3659.9,116.014 3676.52,122.99 3685.66,127.079C3689.69,128.88 3693.36,131.459 3697.06,133.948C3699.7,135.722 3702.32,137.485 3705.33,138.378C3714.26,141.02 3728.75,146.934 3740.25,144.257C3752.81,141.331 3770.07,132.161 3780.21,121.265C3786.31,114.704 3790.49,103.014 3794.19,93.351C3797.26,85.325 3800.14,78.447 3802.78,75.091ZM3809.06,80.049C3803.23,87.437 3797.23,114.715 3786.06,126.715C3774.9,138.715 3755.9,148.826 3742.06,152.049C3729.25,155.032 3713.01,148.993 3703.06,146.049C3695.48,143.803 3689.62,137.612 3682.4,134.382C3673.95,130.604 3658.67,123.937 3652.4,123.382C3648.8,123.063 3644.49,127.443 3644.73,131.049C3645.17,137.604 3648.49,153.77 3655.06,162.715C3662.01,172.16 3674.14,182.389 3686.4,187.715C3699.56,193.437 3717.88,197.38 3734.06,197.049C3750.34,196.715 3770.51,192.604 3784.06,185.715C3796.95,179.164 3809.51,165.771 3815.4,155.715C3820.55,146.915 3819.17,133.66 3819.4,125.382C3819.57,118.879 3816.48,112.549 3816.73,106.049C3817.01,98.882 3822.34,86.715 3821.06,82.382C3819.91,78.473 3811.59,76.85 3809.06,80.049Z"/>
                    </g>
                    <g transform="matrix(0.625,0,0,0.585937,9157.78,219.382)">
                        <path d="M3643.15,109.882C3643.15,109.882 3676.15,131.882 3697.65,129.382C3712.05,127.707 3729.15,123.382 3739.65,117.382C3750.15,111.382 3763.15,100.382 3763.15,100.382" style="fill:none;stroke:rgb(192,132,38);stroke-width:2px;"/>
                    </g>
                </g>
            </g>
        </g>
    </g>
</svg>
