<?xml version="1.0" encoding="utf-8"?>
<!-- Generator: Adobe Illustrator 18.0.0, SVG Export Plug-In . SVG Version: 6.00 Build 0)  -->
<!DOCTYPE svg PUBLIC "-//W3C//DTD SVG 1.1//EN" "http://www.w3.org/Graphics/SVG/1.1/DTD/svg11.dtd">
<svg version="1.1" id="Layer_1" xmlns="http://www.w3.org/2000/svg" xmlns:xlink="http://www.w3.org/1999/xlink" x="0px" y="0px"
	 viewBox="0 0 500 500" enable-background="new 0 0 500 500" xml:space="preserve">
<path fill="#434343" d="M55,145c15.6-17.4,67.5-37.8,89-28.6c8.4,3.6,16,32.6,16,32.6L47,184C47,184,48.4,152.4,55,145z"/>
<path fill="#434343" d="M462.5,155c-13.7-18.9-63.2-44.5-85.6-37.7c-8.7,2.7-19.3,30.8-19.3,30.8l108.8,46.5
	C466.4,194.6,468.4,163.1,462.5,155z"/>
<path fill="#FECA84" d="M105,431.7c51.6,7,99-180.3,99-180.3h110c0,0,26.7,182,75,180.3c68.1-2.5,112.4-206.7,80-266.7
	c-13-24-96.2-38.7-122-47.4c-61.6-20.9-116.9-24.2-178-2c-23.4,8.5-119.6,25.8-130,48.4C11.6,223.5,40.1,422.9,105,431.7z"/>
<circle fill="#FAEF60" cx="409" cy="178" r="15"/>
<circle fill="#6BA4D9" cx="359.7" cy="227.3" r="15"/>
<circle fill="#62BB46" cx="407.7" cy="275.4" r="15"/>
<circle fill="#EF4343" cx="452.8" cy="230.3" r="15"/>
<circle fill="#DCDBDB" cx="120.5" cy="205.5" r="52.5"/>
<circle fill="#EF4343" cx="120.5" cy="205.5" r="42.5"/>
</svg>
