<?xml version="1.0" encoding="utf-8"?>
<!-- Generator: Adobe Illustrator 18.0.0, SVG Export Plug-In . SVG Version: 6.00 Build 0)  -->
<!DOCTYPE svg PUBLIC "-//W3C//DTD SVG 1.1//EN" "http://www.w3.org/Graphics/SVG/1.1/DTD/svg11.dtd">
<svg version="1.1" id="Layer_1" xmlns="http://www.w3.org/2000/svg" xmlns:xlink="http://www.w3.org/1999/xlink" x="0px" y="0px"
	 viewBox="0 0 500 500" enable-background="new 0 0 500 500" xml:space="preserve">
<g>
	<g enable-background="new    ">
		<g>
			<polygon fill="#58587A" points="148.9,443.5 147,447.7 147,330.7 148.9,341.9 			"/>
		</g>
		<g>
			<polygon fill="#58587A" points="150.4,150.3 148.5,156.5 148.5,37.1 150.4,43.3 			"/>
		</g>
		<g enable-background="new    ">
			<defs>
				<path id="SVGID_1_" enable-background="new    " d="M147,330.7h17.3c16.6,10.9,31,16.4,43.3,16.4h-17.3
					C178.1,347.1,163.7,341.7,147,330.7z"/>
			</defs>
			<clipPath id="SVGID_2_">
				<use xlink:href="#SVGID_1_"  overflow="visible"/>
			</clipPath>
			<g clip-path="url(#SVGID_2_)" enable-background="new    ">
				<path fill="#71719A" d="M147,330.7h17.3c3,2,5.9,3.8,8.8,5.4h-17.3C153,334.5,150,332.7,147,330.7"/>
				<path fill="#6F6F96" d="M155.8,336.1h17.3c2.9,1.6,5.7,3.1,8.4,4.3h-17.3C161.5,339.2,158.7,337.8,155.8,336.1"/>
				<path fill="#6C6C93" d="M164.3,340.5h17.3c2.2,1,4.4,2,6.6,2.8h-17.3C168.7,342.4,166.5,341.5,164.3,340.5"/>
				<path fill="#6A6A90" d="M170.9,343.2h17.3c1.9,0.7,3.7,1.3,5.5,1.8h-17.3C174.5,344.5,172.7,343.9,170.9,343.2"/>
				<path fill="#67678D" d="M176.3,345h17.3c1.6,0.5,3.2,0.8,4.7,1.1H181C179.5,345.8,177.9,345.5,176.3,345"/>
				<path fill="#65658A" d="M181,346.2h17.3c1.5,0.3,2.9,0.5,4.3,0.7h-17.3C183.9,346.7,182.5,346.4,181,346.2"/>
				<path fill="#626286" d="M185.3,346.8h17.3c1.4,0.2,2.7,0.2,4.1,0.3h-17.3C188.1,347.1,186.7,347,185.3,346.8"/>
				<path fill="#606083" d="M189.4,347.1h17.3c0.3,0,0.6,0,0.9,0h-17.3C190,347.1,189.7,347.1,189.4,347.1"/>
			</g>
		</g>
		<g>
			<polygon fill="#58587A" points="167.3,231.8 162.8,238 191.7,156.5 196.2,150.3 			"/>
		</g>
		<g>
			<polygon fill="#5A5A7C" points="196.2,150.3 191.7,156.5 148.5,156.5 150.4,150.3 			"/>
		</g>
		<g enable-background="new    ">
			<defs>
				<path id="SVGID_3_" enable-background="new    " d="M148.9,341.9l-1.9-11.2c16.6,10.9,31,16.4,43.3,16.4
					c13.4,0,24.6-5.1,33.7-15.2c9.1-10.1,13.6-22.6,13.6-37.6c0-17.2-6.8-30.9-20.3-41.1c-13.6-10.2-31.7-15.3-54.4-15.3l4.5-6.2
					c16.8-0.8,34.6,5.4,49.4,16.5c17.6,12.7,23.2,23.9,22.8,46.1c0.6,18.7-3.2,29.3-15.2,41.9c-11.4,13.5-20.7,17.7-37.9,17.1
					C172.7,353.3,158,348.8,148.9,341.9z"/>
			</defs>
			<clipPath id="SVGID_4_">
				<use xlink:href="#SVGID_3_"  overflow="visible"/>
			</clipPath>
			<g clip-path="url(#SVGID_4_)" enable-background="new    ">
				<path fill="#8687B5" d="M148.9,341.9l-1.9-11.2c4,2.6,7.8,4.9,11.5,6.9l-2.3,8.8C153.6,345.1,151.1,343.5,148.9,341.9"/>
				<path fill="#8484B2" d="M156.3,346.4l2.3-8.8c1.8,1,3.7,1.9,5.4,2.7l-3.5,7.9C159.1,347.7,157.7,347.1,156.3,346.4"/>
				<path fill="#8282AF" d="M160.5,348.3l3.5-7.9c1.5,0.7,2.9,1.3,4.4,1.9l-4.2,7.4C163,349.2,161.7,348.8,160.5,348.3"/>
				<path fill="#7F80AC" d="M164.2,349.6l4.2-7.4c1.3,0.5,2.6,1,3.8,1.4l-4.5,7C166.5,350.4,165.3,350,164.2,349.6"/>
				<path fill="#7D7DA9" d="M167.7,350.7l4.5-7c1.2,0.4,2.3,0.8,3.5,1.1l-4.7,6.7C169.9,351.3,168.8,351,167.7,350.7"/>
				<path fill="#7B7BA6" d="M171,351.5l4.7-6.7c1.1,0.3,2.2,0.6,3.3,0.9l-4.7,6.5C173.1,352,172.1,351.8,171,351.5"/>
				<path fill="#7879A3" d="M174.2,352.2l4.7-6.5c1,0.2,2.1,0.5,3.1,0.6l-4.6,6.4C176.3,352.6,175.3,352.4,174.2,352.2"/>
				<path fill="#7676A0" d="M177.4,352.7l4.6-6.4c1,0.2,2,0.3,3,0.4l-4.5,6.3C179.5,353,178.5,352.8,177.4,352.7"/>
				<path fill="#74749D" d="M180.6,353.1l4.5-6.3c1,0.1,2,0.2,2.9,0.3l-4.2,6.2C182.7,353.2,181.6,353.2,180.6,353.1"/>
				<path fill="#71719A" d="M183.8,353.3l4.2-6.2c0.8,0,1.6,0.1,2.3,0.1c0.7,0,1.5,0,2.2,0l-3.4,6.3c-0.9,0-1.8,0-2.8-0.1
					C185.5,353.3,184.6,353.3,183.8,353.3"/>
				<path fill="#6F6F96" d="M189.1,353.4l3.4-6.3c1.3-0.1,2.7-0.2,4-0.3l-2.5,6.5C192.4,353.3,190.8,353.4,189.1,353.4"/>
				<path fill="#6C6C93" d="M193.9,353.2l2.5-6.5c1.2-0.1,2.3-0.3,3.5-0.6l-2,6.6C196.6,353,195.3,353.1,193.9,353.2"/>
				<path fill="#6A6A90" d="M197.9,352.8l2-6.6c1-0.2,2.1-0.5,3.1-0.7l-1.6,6.7C200.2,352.4,199.1,352.6,197.9,352.8"/>
				<path fill="#67678D" d="M201.3,352.2l1.6-6.7c1-0.3,1.9-0.6,2.8-0.9l-1.4,6.8C203.4,351.6,202.4,351.9,201.3,352.2"/>
				<path fill="#65658A" d="M204.4,351.3l1.4-6.8c0.9-0.3,1.8-0.7,2.7-1.1l-1.3,6.8C206.3,350.6,205.4,351,204.4,351.3"/>
				<path fill="#626286" d="M207.3,350.2l1.3-6.8c0.9-0.4,1.9-0.9,2.8-1.4l-1.1,6.7C209.2,349.3,208.3,349.7,207.3,350.2"/>
				<path fill="#606083" d="M210.2,348.7l1.1-6.7c1-0.5,2-1.1,3-1.8l-1,6.4C212.3,347.5,211.2,348.1,210.2,348.7"/>
				<path fill="#5D5D80" d="M213.3,346.7l1-6.4c1.3-0.8,2.5-1.7,3.7-2.7l-0.7,5.9C216,344.7,214.7,345.8,213.3,346.7"/>
				<path fill="#5B5B7D" d="M217.4,343.5l0.7-5.9c2.1-1.7,4-3.5,5.9-5.6c9.1-10.1,13.6-22.6,13.6-37.6c0-17.2-6.8-30.9-20.3-41.1
					c-13.6-10.2-31.7-15.3-54.4-15.3l4.5-6.2c16.8-0.8,34.6,5.4,49.4,16.5c17.6,12.7,23.2,23.9,22.8,46.1
					c0.6,18.7-3.2,29.3-15.2,41.9C221.9,339,219.6,341.4,217.4,343.5"/>
			</g>
		</g>
		<g>
			<polygon fill="#5F5F82" points="148.5,37.1 165.8,37.1 373,37.1 355.7,37.1 			"/>
		</g>
		<g>
			<polygon fill="#6C6C93" points="355.7,37.1 373,37.1 309.1,196.2 291.8,196.2 			"/>
		</g>
		<g enable-background="new    ">
			<defs>
				<path id="SVGID_5_" enable-background="new    " d="M291.8,196.2h17.3c22.9,16.4,39.6,34.3,50,53.8
					c10.4,19.5,15.6,42.6,15.6,69.3c0,39.8-13.9,73.4-41.5,100.8c-13.9,13.7-29.3,24-46.4,30.8s-35.7,10.3-56,10.3h-17.3
					c20.2,0,38.9-3.4,56-10.3c17.1-6.8,32.5-17.1,46.4-30.8c27.7-27.4,41.5-61,41.5-100.8c0-26.7-5.2-49.7-15.6-69.3
					C331.3,230.5,314.7,212.5,291.8,196.2z"/>
			</defs>
			<clipPath id="SVGID_6_">
				<use xlink:href="#SVGID_5_"  overflow="visible"/>
			</clipPath>
			<g clip-path="url(#SVGID_6_)" enable-background="new    ">
				<path fill="#74749D" d="M291.8,196.2l17.3,0c4.5,3.2,8.7,6.4,12.7,9.7h-17.3C300.4,202.6,296.2,199.4,291.8,196.2"/>
				<path fill="#7676A0" d="M304.4,205.9h17.3c5.3,4.4,10.3,9,14.8,13.6h-17.3C314.7,214.9,309.8,210.3,304.4,205.9"/>
				<path fill="#7879A3" d="M319.2,219.5h17.3c5.6,5.8,10.5,11.7,14.8,17.8H334C329.7,231.2,324.8,225.3,319.2,219.5"/>
				<path fill="#7B7BA6" d="M334,237.3h17.3c2.9,4.1,5.5,8.3,7.8,12.6c3.8,7,6.8,14.6,9.3,22.5H351c-2.4-8-5.5-15.5-9.3-22.5
					C339.5,245.7,336.9,241.5,334,237.3"/>
				<path fill="#7879A3" d="M351,272.5h17.3c2.1,6.8,3.6,14,4.7,21.5h-17.3C354.6,286.5,353.1,279.4,351,272.5"/>
				<path fill="#7676A0" d="M355.7,294H373c0.8,5.8,1.3,11.7,1.6,17.9h-17.3C357,305.8,356.5,299.8,355.7,294"/>
				<path fill="#74749D" d="M357.2,312h17.3c0.1,2.4,0.1,4.8,0.1,7.3c0,2.8-0.1,5.5-0.2,8.2h-17.3c0.1-2.7,0.2-5.5,0.2-8.2
					C357.4,316.8,357.3,314.3,357.2,312"/>
				<path fill="#71719A" d="M357.2,327.5h17.3c-0.2,4.1-0.6,8.1-1.1,12.1h-17.3C356.6,335.6,357,331.5,357.2,327.5"/>
				<path fill="#6F6F96" d="M356.1,339.5h17.3c-0.5,3.6-1,7.1-1.7,10.5h-17.3C355.1,346.6,355.6,343.1,356.1,339.5"/>
				<path fill="#6C6C93" d="M354.4,350h17.3c-0.7,3.2-1.4,6.5-2.3,9.6H352C352.9,356.5,353.7,353.3,354.4,350"/>
				<path fill="#6A6A90" d="M352,359.6h17.3c-0.9,3.1-1.8,6.1-2.9,9.1h-17.3C350.2,365.7,351.2,362.7,352,359.6"/>
				<path fill="#67678D" d="M349.1,368.7h17.3c-1.1,3-2.3,6-3.6,8.9h-17.3C346.9,374.7,348,371.7,349.1,368.7"/>
				<path fill="#65658A" d="M345.6,377.6h17.3c-1.4,3.1-2.8,6.1-4.4,9h-17.3C342.7,383.7,344.2,380.7,345.6,377.6"/>
				<path fill="#626286" d="M341.1,386.6h17.3c-1.7,3.2-3.6,6.4-5.7,9.5h-17.3C337.5,393,339.4,389.8,341.1,386.6"/>
				<path fill="#606083" d="M335.5,396.1h17.3c-2.4,3.6-5,7.2-7.7,10.7h-17.3C330.5,403.3,333.1,399.8,335.5,396.1"/>
				<path fill="#5D5D80" d="M327.7,406.8h17.3c-3.6,4.6-7.6,9-11.9,13.2c-0.1,0.1-0.1,0.1-0.2,0.2h-17.3c0.1-0.1,0.1-0.1,0.2-0.2
					C320.1,415.7,324.1,411.3,327.7,406.8"/>
				<path fill="#5B5B7D" d="M315.6,420.2h17.3c-13.8,13.6-29.2,23.8-46.1,30.6c-17.1,6.8-35.7,10.3-56,10.3h-17.3
					c20.2,0,38.9-3.4,56-10.3C286.4,444,301.8,433.8,315.6,420.2"/>
			</g>
		</g>
		<g>
			<polygon fill="#8080AD" points="342.8,43.3 355.7,37.1 291.8,196.2 280.5,198.5 			"/>
		</g>
		<g>
			<polygon fill="#7778A2" points="150.4,43.3 148.5,37.1 355.7,37.1 342.8,43.3 			"/>
		</g>
		<g>
			<path fill="#7B7BA6" d="M342.8,43.3l-62.3,155.2c25,18.7,42.3,36,52.2,54.6c9.9,18.5,14.2,41.9,14.9,66.2
				c-0.6,35.6-15.3,71.3-39.7,96.2c-13,12.1-28.1,23-44.4,29.5c-16.4,6.6-35.1,9.3-53.9,9.9c-21.6,0-43.7-5.2-60.6-11.4V341.9
				c9.1,6.9,23.8,11.4,37.4,11.4c17.3,0.6,26.5-3.6,37.9-17.1c12-12.5,15.8-23.1,15.2-41.9c0.4-22.2-5.2-33.4-22.8-46.1
				c-14.7-11.1-32.5-17.2-49.4-16.5l28.9-81.5h-45.9v-107L342.8,43.3z"/>
		</g>
		<g enable-background="new    ">
			<defs>
				<path id="SVGID_7_" enable-background="new    " d="M280.5,198.5l11.3-2.3c22.9,16.4,39.6,34.3,50,53.8
					c10.4,19.5,15.6,42.6,15.6,69.3c0,39.8-13.9,73.4-41.5,100.8c-13.9,13.7-29.3,24-46.4,30.8c-17.1,6.8-35.7,10.3-56,10.3
					c-22.4,0-44.5-4.5-66.5-13.3l1.9-4.3c16.9,6.2,39,11.4,60.6,11.4c18.7-0.6,37.5-3.3,53.9-9.9c16.3-6.6,31.4-17.5,44.4-29.5
					c24.4-24.9,39.1-60.6,39.7-96.2c-0.7-24.3-5-47.7-14.9-66.2C322.8,234.5,305.5,217.1,280.5,198.5z"/>
			</defs>
			<clipPath id="SVGID_8_">
				<use xlink:href="#SVGID_7_"  overflow="visible"/>
			</clipPath>
			<g clip-path="url(#SVGID_8_)" enable-background="new    ">
				<path fill="#8989B8" d="M280.5,198.5l11.3-2.3c1.5,1.1,3,2.2,4.4,3.3l-10.9,2.7C283.8,200.9,282.1,199.7,280.5,198.5"/>
				<path fill="#8B8BBB" d="M285.3,202.1l10.9-2.7c4,3,7.8,6.1,11.4,9.2l-10,3.5C293.8,208.8,289.7,205.5,285.3,202.1"/>
				<path fill="#8D8DBE" d="M297.6,212.1l10-3.5c4.6,4,8.9,8.1,12.8,12.2l-9.2,3.9C307.1,220.5,302.6,216.3,297.6,212.1"/>
				<path fill="#8F8FC1" d="M311.2,224.7l9.2-3.9c5.7,6,10.6,12.1,14.9,18.4l-8.9,3.5C322.2,236.7,317.1,230.7,311.2,224.7"/>
				<path fill="#9292C5" d="M326.4,242.8l8.9-3.5c2.4,3.5,4.5,7.1,6.5,10.7c5.2,9.8,9.1,20.5,11.7,32.1l-9.9,2
					c-2.4-11.2-6-21.8-10.9-31C330.8,249.6,328.7,246.2,326.4,242.8"/>
				<path fill="#8F8FC1" d="M343.6,284.1l9.9-2c1.1,5.1,2,10.3,2.7,15.8l-10.1,1.4C345.5,294.1,344.6,289,343.6,284.1"/>
				<path fill="#8D8DBE" d="M346.1,299.3l10.1-1.4c0.5,3.9,0.8,8,1,12.1l-10,0.7C346.9,306.8,346.5,303,346.1,299.3"/>
				<path fill="#8B8BBB" d="M347.1,310.6l10-0.7c0.1,2.8,0.2,5.6,0.2,8.4l-9.9,0.1C347.4,315.8,347.3,313.2,347.1,310.6"/>
				<path fill="#8989B8" d="M347.5,318.4l9.9-0.1c0,0.3,0,0.6,0,0.9c0,3.7-0.1,7.3-0.4,10.8l-10-1c0.3-3.3,0.5-6.5,0.5-9.8
					C347.5,319,347.5,318.7,347.5,318.4"/>
				<path fill="#8687B5" d="M347,329l10,1c-0.3,3.9-0.7,7.7-1.2,11.5l-10.2-1.8C346.3,336.2,346.7,332.6,347,329"/>
				<path fill="#8484B2" d="M345.7,339.7l10.2,1.8c-0.5,3.3-1.1,6.6-1.8,9.8l-10.3-2.3C344.5,346,345.1,342.9,345.7,339.7"/>
				<path fill="#8282AF" d="M343.8,349.1l10.3,2.3c-0.6,2.9-1.3,5.8-2.1,8.6l-10.3-2.6C342.4,354.6,343.1,351.9,343.8,349.1"/>
				<path fill="#7F80AC" d="M341.6,357.4l10.3,2.6c-0.7,2.6-1.5,5.1-2.4,7.7l-10.4-2.8C340,362.4,340.8,359.9,341.6,357.4"/>
				<path fill="#7D7DA9" d="M339.1,364.9l10.4,2.8c-0.8,2.4-1.7,4.7-2.7,7l-10.3-2.9C337.4,369.4,338.3,367.2,339.1,364.9"/>
				<path fill="#7B7BA6" d="M336.5,371.7l10.3,2.9c-0.9,2.2-1.9,4.3-2.9,6.4l-10.3-3.1C334.7,376,335.6,373.8,336.5,371.7"/>
				<path fill="#7879A3" d="M333.7,378l10.3,3.1c-1,2-2,4.1-3.1,6l-10.1-3.2C331.7,382,332.7,380,333.7,378"/>
				<path fill="#7676A0" d="M330.7,384l10.1,3.2c-1.1,1.9-2.2,3.8-3.3,5.7l-10-3.3C328.6,387.8,329.7,385.9,330.7,384"/>
				<path fill="#74749D" d="M327.6,389.6l10,3.3c-1.1,1.9-2.3,3.7-3.6,5.5l-9.7-3.4C325.4,393.2,326.5,391.4,327.6,389.6"/>
				<path fill="#71719A" d="M324.2,395l9.7,3.4c-1.2,1.8-2.5,3.6-3.9,5.4l-9.4-3.6C321.9,398.5,323.1,396.8,324.2,395"/>
				<path fill="#6F6F96" d="M320.6,400.2l9.4,3.6c-1.4,1.8-2.8,3.6-4.3,5.4l-9-3.8C318.1,403.7,319.4,402,320.6,400.2"/>
				<path fill="#6C6C93" d="M316.7,405.4l9,3.8c-1.6,1.9-3.2,3.7-4.8,5.5l-8.6-4.1C313.9,408.9,315.3,407.2,316.7,405.4"/>
				<path fill="#6A6A90" d="M312.4,410.6l8.6,4.1c-1.6,1.8-3.3,3.5-5.1,5.3c-0.1,0.1-0.3,0.2-0.4,0.4l-8-4.6
					c0.1-0.1,0.2-0.2,0.4-0.3C309.4,413.9,310.9,412.3,312.4,410.6"/>
				<path fill="#67678D" d="M307.5,415.8l8,4.6c-2.6,2.6-5.3,5.1-8.1,7.4l-7.5-5.3C302.5,420.3,305,418.1,307.5,415.8"/>
				<path fill="#65658A" d="M299.8,422.5l7.5,5.3c-3.2,2.7-6.5,5.3-9.9,7.7l-7.1-5.6C293.6,427.5,296.8,425.1,299.8,422.5"/>
				<path fill="#626286" d="M290.4,429.9l7.1,5.6c-3.1,2.2-6.4,4.3-9.6,6.3l-6.8-5.7C284.2,434.1,287.3,432,290.4,429.9"/>
				<path fill="#606083" d="M281.1,436l6.8,5.7c-3.5,2.1-7,3.9-10.7,5.7l-6.4-5.7C274.3,440,277.7,438.1,281.1,436"/>
				<path fill="#5D5D80" d="M270.8,441.7l6.4,5.7c-2.5,1.2-5.1,2.3-7.7,3.4c-2.5,1-5,1.9-7.6,2.8l-5.8-5.9c2.5-0.8,4.9-1.7,7.3-2.6
					C265.9,444,268.4,442.9,270.8,441.7"/>
				<path fill="#5B5B7D" d="M256.1,447.6l5.8,5.9c-15,5-31.1,7.5-48.4,7.5c-22.4,0-44.5-4.5-66.5-13.3l1.9-4.3
					c16.9,6.2,39,11.4,60.6,11.4C225.5,454.4,241.6,452.3,256.1,447.6"/>
			</g>
		</g>
	</g>
</g>
</svg>
