<?xml version="1.0" encoding="UTF-8" standalone="no"?>
<!DOCTYPE svg PUBLIC "-//W3C//DTD SVG 1.1//EN" "http://www.w3.org/Graphics/SVG/1.1/DTD/svg11.dtd">
<svg width="100%" height="100%" viewBox="0 0 256 256" version="1.1" xmlns="http://www.w3.org/2000/svg" xmlns:xlink="http://www.w3.org/1999/xlink" xml:space="preserve" xmlns:serif="http://www.serif.com/" style="fill-rule:evenodd;clip-rule:evenodd;stroke-linecap:round;stroke-linejoin:round;stroke-miterlimit:1.5;">
    <g transform="matrix(1,0,0,1,-1024,-512)">
        <g transform="matrix(1.6,0,0,1.70667,-17213.5,138.589)">
            <rect id="Publishing" x="11398.4" y="218.796" width="160" height="150" style="fill:none;"/>
            <g id="Publishing1" serif:id="Publishing">
                <g transform="matrix(1,0,0,1,-0.417151,7.91016)">
                    <g transform="matrix(0.625,0,0,0.585937,11398,-72.7082)">
                        <path d="M37.872,708.319L38.167,673.654C83.625,662.163 112.549,667.479 128.667,690.654L129.667,699.654L130.167,699.654L131.167,690.654C147.285,667.479 176.21,662.163 221.667,673.654L221.84,708.867L145.667,709.154C145.667,709.154 139.891,721.722 129.667,721.487C120.779,721.282 113.001,709.154 113.001,709.154L37.872,708.319Z" style="fill:rgb(234,184,255);"/>
                    </g>
                    <g transform="matrix(0.620363,0.0712386,-0.0690491,0.528483,11447.9,-43.2115)">
                        <path d="M128.001,700.154C128.001,700.154 107.157,687.639 92.001,686.154C79.019,684.881 61.334,688.82 61.334,688.82" style="fill:none;stroke:black;stroke-width:4.19px;"/>
                    </g>
                    <g transform="matrix(-0.620363,0.0712386,0.0690491,0.528483,11511.3,-43.2115)">
                        <path d="M128.001,700.154C128.001,700.154 107.157,687.639 92.001,686.154C79.019,684.881 61.334,688.82 61.334,688.82" style="fill:none;stroke:black;stroke-width:4.19px;"/>
                    </g>
                    <g transform="matrix(0.623864,-0.035319,0.0376736,0.584872,11372.7,-67.1321)">
                        <path d="M128.001,700.154C128.001,700.154 103.03,689.712 87.962,687.513C70.548,684.97 54.147,688.386 54.147,688.386" style="fill:none;stroke:black;stroke-width:4px;"/>
                    </g>
                    <g transform="matrix(-0.623864,-0.035319,-0.0376736,0.584872,11586.5,-67.1321)">
                        <path d="M128.001,700.154C128.001,700.154 103.03,689.712 87.962,687.513C70.548,684.97 54.147,688.386 54.147,688.386" style="fill:none;stroke:black;stroke-width:4px;"/>
                    </g>
                    <g transform="matrix(0.625,0,0,0.585937,11398.4,-73.2941)">
                        <path d="M130.167,699.654L131.167,690.654C147.285,667.479 176.21,662.163 221.667,673.654L222.167,693.654" style="fill:none;stroke:black;stroke-width:8px;"/>
                    </g>
                    <g transform="matrix(-0.625,0,0,0.585937,11560.8,-73.2941)">
                        <path d="M130.167,699.654L131.167,690.654C147.285,667.479 176.21,662.163 221.667,673.654L222.167,693.654" style="fill:none;stroke:black;stroke-width:8px;"/>
                    </g>
                    <g transform="matrix(0.625,0,0,0.585937,11398.4,-73.2941)">
                        <path d="M23.001,708.154L113.001,709.154C113.001,709.154 120.779,721.282 129.667,721.487C139.891,721.722 145.667,709.154 145.667,709.154L234.334,708.82" style="fill:none;stroke:black;stroke-width:8px;"/>
                    </g>
                </g>
                <g transform="matrix(0.641244,0,0,0.601166,10737.8,-97.7733)">
                    <circle cx="1155.74" cy="626.303" r="67.333" style="fill:rgb(112,235,244);"/>
                    <clipPath id="_clip1">
                        <circle cx="1155.74" cy="626.303" r="67.333"/>
                    </clipPath>
                    <g clip-path="url(#_clip1)">
                        <g transform="matrix(1,0,0,1,3.99999,12)">
                            <path d="M1212.4,581.636C1212.4,581.636 1192.4,568.97 1186.4,582.303C1180.4,595.636 1169.74,598.303 1177.07,609.636C1184.4,620.97 1186.4,611.636 1192.4,625.636C1198.4,639.636 1192.4,639.636 1200.4,642.97C1208.4,646.303 1213.74,649.636 1213.74,649.636C1213.74,649.636 1240.4,607.636 1235.74,592.97C1231.07,578.303 1212.4,581.636 1212.4,581.636" style="fill:rgb(49,190,35);"/>
                        </g>
                        <g transform="matrix(1,0,0,1,-73.3333,57.3333)">
                            <path d="M1212.4,581.636C1212.4,581.636 1192.4,568.97 1186.4,582.303C1180.4,595.636 1157.07,595.636 1164.4,606.97C1171.74,618.303 1169.74,640.97 1177.74,644.303C1185.74,647.636 1220.4,662.97 1220.4,662.97C1220.4,662.97 1240.4,607.636 1235.74,592.97C1231.07,578.303 1212.4,581.636 1212.4,581.636" style="fill:rgb(49,190,35);"/>
                        </g>
                        <g transform="matrix(1,0,0,1,-95.3334,-46)">
                            <path d="M1212.4,581.636C1212.4,581.636 1169.74,640.97 1177.74,644.303C1185.74,647.636 1209.74,652.303 1209.74,652.303C1209.74,652.303 1238.16,645.486 1245.99,629.419C1251.18,618.766 1237.6,598.817 1235.74,592.97C1231.07,578.303 1212.4,581.636 1212.4,581.636" style="fill:rgb(49,190,35);"/>
                        </g>
                    </g>
                    <path d="M1155.74,551.172C1197.2,551.172 1230.87,584.837 1230.87,626.303C1230.87,667.769 1197.2,701.434 1155.74,701.434C1114.27,701.434 1080.61,667.769 1080.61,626.303C1080.61,584.837 1114.27,551.172 1155.74,551.172ZM1155.74,558.97C1118.58,558.97 1088.4,589.141 1088.4,626.303C1088.4,663.465 1118.58,693.636 1155.74,693.636C1192.9,693.636 1223.07,663.465 1223.07,626.303C1223.07,589.141 1192.9,558.97 1155.74,558.97Z"/>
                </g>
                <g transform="matrix(1.84753e-17,-0.282866,0.625,3.58783e-17,11067.3,650.015)">
                    <path d="M1134.4,669.47L1109.03,659.22L1134.4,648.47L1207.6,648.47L1207.6,628.97L1269.74,658.97L1207.6,688.97L1207.6,669.47L1134.4,669.47Z" style="fill:rgb(35,180,190);"/>
                    <path d="M1123.77,675.605L1098.4,665.355C1094.68,663.856 1092.52,661.649 1092.46,659.314C1092.4,656.978 1094.46,654.747 1098.1,653.207L1123.48,642.457C1126.5,641.176 1130.38,640.47 1134.4,640.47L1191.02,640.47L1191.02,628.97C1191.02,625.734 1195.06,622.817 1201.25,621.579C1207.45,620.34 1214.57,621.025 1219.31,623.313L1281.46,653.313C1287.93,656.437 1287.93,661.502 1281.46,664.627L1219.31,694.627C1214.57,696.915 1207.45,697.599 1201.25,696.361C1195.06,695.122 1191.02,692.205 1191.02,688.97L1191.02,677.47L1134.4,677.47C1130.52,677.47 1126.75,676.81 1123.77,675.605ZM1134.4,669.47L1207.6,669.47L1207.6,688.97L1269.74,658.97L1207.6,628.97L1207.6,648.47L1134.4,648.47L1109.03,659.22L1134.4,669.47Z"/>
                </g>
            </g>
        </g>
    </g>
</svg>
