<?xml version="1.0" encoding="utf-8"?>
<!-- Generator: Adobe Illustrator 18.0.0, SVG Export Plug-In . SVG Version: 6.00 Build 0)  -->
<svg version="1.2" baseProfile="tiny" id="Layer_1" xmlns="http://www.w3.org/2000/svg" xmlns:xlink="http://www.w3.org/1999/xlink"
	 x="0px" y="0px" viewBox="0 0 500 500" xml:space="preserve">
<ellipse fill="#F5ED61" cx="167.8" cy="408.8" rx="108.4" ry="78.6"/>
<g>
	<path fill="#F5ED61" d="M275.2,414.4c-8.5,10.2-50.2,17.7-50.2,17.7s24.3-238.2,3.5-365.1c-2.1-12.5,49.6-19.8,48.8-7.1
		C270.1,170.8,290.4,396.1,275.2,414.4z"/>
</g>
<g>
	<path fill="#F5ED61" d="M403,122.8c-5,0-9.5-0.5-13.2-1.7c-15.9-5.2-27.3-20.4-39.3-36.5c-5.5-7.4-15.7-21-20.4-23
		c-0.3,0-0.4-0.1-0.6-0.1c-1.1,0.4-3.4,1.7-5.2,2.8C314,70,296.9,79.5,257.3,88.4c-10.8,2.4-21.5-4.4-23.9-15.1
		c-2.4-10.8,4.4-21.5,15.1-23.9c33.8-7.6,47.3-15.1,56.2-20.1c8.9-5,18.2-10.2,33.8-6.9c18.3,3.8,31.3,21.3,43.9,38.1
		c5.6,7.5,14.8,19.8,19.4,22.2c5.8,0.5,24.1-3,39.4-7.5c10.6-3.1,21.7,2.9,24.9,13.5c3.1,10.6-2.9,21.7-13.5,24.9
		C439.9,117.5,419.2,122.8,403,122.8z"/>
</g>
</svg>
