<?xml version="1.0" encoding="UTF-8" standalone="no"?>
<!DOCTYPE svg PUBLIC "-//W3C//DTD SVG 1.1//EN" "http://www.w3.org/Graphics/SVG/1.1/DTD/svg11.dtd">
<svg width="100%" height="100%" viewBox="0 0 256 256" version="1.1" xmlns="http://www.w3.org/2000/svg" xmlns:xlink="http://www.w3.org/1999/xlink" xml:space="preserve" xmlns:serif="http://www.serif.com/" style="fill-rule:evenodd;clip-rule:evenodd;stroke-linejoin:round;stroke-miterlimit:2;">
    <g transform="matrix(1,0,0,1,0,-1536)">
        <g transform="matrix(1.00787,0,0,1.024,-34.0186,82.2681)">
            <rect id="audio" x="33.753" y="1419.66" width="254" height="250" style="fill:none;"/>
            <g id="audio1" serif:id="audio">
                <g transform="matrix(0.992188,0,0,0.976563,26.7295,33.8452)">
                    <path d="M141.696,1628.62C140.107,1649.88 115.8,1666.79 86.089,1666.79C55.354,1666.79 30.4,1648.69 30.4,1626.4C30.4,1604.12 55.354,1586.03 86.089,1586.03C98.404,1586.03 109.79,1588.93 119.015,1593.85C121.666,1552.27 123.826,1490.79 117.273,1450.81C116.995,1449.15 118.553,1447.68 121.011,1446.51C122.406,1444.18 124.71,1442.4 127.548,1441.77C144.913,1437.86 151.848,1434.01 156.42,1431.44C160.993,1428.87 165.771,1426.2 173.785,1427.9C183.186,1429.85 189.865,1438.84 196.338,1447.47C199.215,1451.32 203.941,1457.64 206.305,1458.88C209.284,1459.13 218.686,1457.33 226.546,1455.02C231.992,1453.43 237.694,1456.51 239.338,1461.96C240.931,1467.4 237.848,1473.11 232.403,1474.75C225.878,1476.75 215.244,1479.48 206.921,1479.48C204.352,1479.48 202.041,1479.22 200.14,1478.6C191.971,1475.93 186.115,1468.12 179.95,1459.85C177.124,1456.05 171.884,1449.06 169.469,1448.04C169.315,1448.04 169.264,1447.98 169.161,1447.98C168.596,1448.19 167.415,1448.86 166.49,1449.42C162.13,1451.84 155.397,1455.57 141.781,1459.37C140,1517.95 148.2,1616.35 141.696,1628.62Z" style="fill:rgb(245,237,97);stroke:rgb(52,37,0);stroke-width:8px;"/>
                </g>
            </g>
        </g>
    </g>
</svg>
