<?xml version="1.0" encoding="UTF-8" standalone="no"?>
<!DOCTYPE svg PUBLIC "-//W3C//DTD SVG 1.1//EN" "http://www.w3.org/Graphics/SVG/1.1/DTD/svg11.dtd">
<svg width="100%" height="100%" viewBox="0 0 256 256" version="1.1" xmlns="http://www.w3.org/2000/svg" xmlns:xlink="http://www.w3.org/1999/xlink" xml:space="preserve" xmlns:serif="http://www.serif.com/" style="fill-rule:evenodd;clip-rule:evenodd;stroke-linecap:round;stroke-linejoin:round;stroke-miterlimit:1.5;">
    <g transform="matrix(1,0,0,1,-6912,0)">
        <g transform="matrix(1.6,0,0,1.70667,-11325.5,-373.411)">
            <rect id="websites" x="11398.4" y="218.796" width="160" height="150" style="fill:none;"/>
            <g id="websites1" serif:id="websites">
                <g transform="matrix(0.625,0,0,0.585937,7068.56,220.327)">
                    <circle cx="7055.75" cy="125.386" r="96.5" style="fill:rgb(108,234,205);"/>
                    <clipPath id="_clip1">
                        <circle cx="7055.75" cy="125.386" r="96.5"/>
                    </clipPath>
                    <g clip-path="url(#_clip1)">
                        <g transform="matrix(1,0,0,1,12.7526,-16.6137)">
                            <path d="M7121.25,54.886C7121.25,54.886 7072.25,71.886 7085.25,87.886C7098.25,103.886 7108.25,124.886 7108.25,124.886C7108.25,124.886 7098.25,165.886 7110.25,170.886C7122.25,175.886 7151.25,167.886 7151.25,167.886C7151.25,167.886 7155.25,122.886 7152.25,97.886C7149.25,72.886 7121.25,54.886 7121.25,54.886Z" style="fill:rgb(109,182,25);"/>
                        </g>
                        <g transform="matrix(-1.33878,-0.605509,-0.412094,0.911141,16595.5,4289.73)">
                            <path d="M7130.1,27.886C7130.1,27.886 7097.43,73.886 7110.43,89.886C7123.43,105.886 7084.98,113.272 7084.43,128.886C7083.84,145.886 7094.85,186.886 7106.85,191.886C7118.85,196.886 7151.25,167.886 7151.25,167.886C7151.25,167.886 7155.25,122.886 7152.25,97.886C7149.25,72.886 7130.1,27.886 7130.1,27.886Z" style="fill:rgb(109,182,25);"/>
                        </g>
                        <g transform="matrix(-1.43829,0.300489,-0.128785,-0.616433,17331.3,-1842.54)">
                            <path d="M7130.1,27.886C7130.1,27.886 7097.43,73.886 7110.43,89.886C7123.43,105.886 7084.98,113.272 7084.43,128.886C7083.84,145.886 7094.85,186.886 7106.85,191.886C7118.85,196.886 7151.25,167.886 7151.25,167.886C7151.25,167.886 7155.25,122.886 7152.25,97.886C7149.25,72.886 7130.1,27.886 7130.1,27.886Z" style="fill:rgb(109,182,25);"/>
                        </g>
                    </g>
                    <path d="M7055.75,20.886C7113.43,20.886 7160.25,67.711 7160.25,125.386C7160.25,183.061 7113.43,229.886 7055.75,229.886C6998.08,229.886 6951.25,183.061 6951.25,125.386C6951.25,67.711 6998.08,20.886 7055.75,20.886ZM7055.75,28.886C7002.49,28.886 6959.25,72.126 6959.25,125.386C6959.25,178.646 7002.49,221.886 7055.75,221.886C7109.01,221.886 7152.25,178.646 7152.25,125.386C7152.25,72.126 7109.01,28.886 7055.75,28.886Z" style="fill:rgb(0,49,60);"/>
                </g>
                <g transform="matrix(0.611159,0,0,0.572962,8140.95,221.125)">
                    <g transform="matrix(129.679,0,0,129.679,5549.81,164.703)">
                    </g>
                    <text x="5375.39px" y="164.703px" style="font-family:'Dosis-ExtraBold', 'Dosis';font-weight:800;font-size:129.679px;fill:rgb(49,92,0);">&lt;/&gt;</text>
                </g>
                <g transform="matrix(1,0,0,1,-6.87504,-3.90624)">
                    <g transform="matrix(0.210943,-0.0121713,0.0129827,0.197759,10126.1,317.735)">
                        <path d="M6181.19,80.5C6181.19,80.5 6181.79,58.067 6198.68,43.862C6213.43,31.453 6237.19,31.833 6237.19,31.833" style="fill:none;stroke:rgb(235,235,235);stroke-width:11.83px;"/>
                    </g>
                    <g transform="matrix(0.311776,-0.0179892,0.0191885,0.29229,9496.05,344.741)">
                        <path d="M6181.19,80.5C6181.19,80.5 6181.79,58.067 6198.68,43.862C6213.43,31.453 6237.19,31.833 6237.19,31.833" style="fill:none;stroke:rgb(235,235,235);stroke-opacity:0.75;stroke-width:8px;"/>
                    </g>
                    <g transform="matrix(0.4433,-0.0255781,0.0272833,0.415593,8675.82,381.811)">
                        <path d="M6181.19,80.5C6181.19,80.5 6181.79,58.067 6198.68,43.862C6213.43,31.453 6237.19,31.833 6237.19,31.833" style="fill:none;stroke:rgb(235,235,235);stroke-opacity:0.5;stroke-width:5.63px;"/>
                    </g>
                    <g transform="matrix(0.628562,-0.0362676,0.0386854,0.589277,7522.03,435.793)">
                        <path d="M6181.19,80.5C6181.19,80.5 6181.79,58.067 6198.68,43.862C6213.43,31.453 6237.19,31.833 6237.19,31.833" style="fill:none;stroke:rgb(235,235,235);stroke-opacity:0.25;stroke-width:3.97px;"/>
                    </g>
                </g>
                <g transform="matrix(1,0,0,-1,-6.87504,593.06)">
                    <g transform="matrix(0.210943,-0.0121713,0.0129827,0.197759,10126.1,317.735)">
                        <path d="M6181.19,80.5C6181.19,80.5 6181.79,58.067 6198.68,43.862C6213.43,31.453 6237.19,31.833 6237.19,31.833" style="fill:none;stroke:rgb(235,235,235);stroke-width:11.83px;"/>
                    </g>
                    <g transform="matrix(0.311776,-0.0179892,0.0191885,0.29229,9496.05,344.741)">
                        <path d="M6181.19,80.5C6181.19,80.5 6181.79,58.067 6198.68,43.862C6213.43,31.453 6237.19,31.833 6237.19,31.833" style="fill:none;stroke:rgb(235,235,235);stroke-opacity:0.75;stroke-width:8px;"/>
                    </g>
                    <g transform="matrix(0.4433,-0.0255781,0.0272833,0.415593,8675.82,381.811)">
                        <path d="M6181.19,80.5C6181.19,80.5 6181.79,58.067 6198.68,43.862C6213.43,31.453 6237.19,31.833 6237.19,31.833" style="fill:none;stroke:rgb(235,235,235);stroke-opacity:0.5;stroke-width:5.63px;"/>
                    </g>
                    <g transform="matrix(0.628562,-0.0362676,0.0386854,0.589277,7522.03,435.793)">
                        <path d="M6181.19,80.5C6181.19,80.5 6181.79,58.067 6198.68,43.862C6213.43,31.453 6237.19,31.833 6237.19,31.833" style="fill:none;stroke:rgb(235,235,235);stroke-opacity:0.25;stroke-width:3.97px;"/>
                    </g>
                </g>
                <g transform="matrix(-1,0,0,1,22963.5,-3.90624)">
                    <g transform="matrix(0.210943,-0.0121713,0.0129827,0.197759,10126.1,317.735)">
                        <path d="M6181.19,80.5C6181.19,80.5 6181.79,58.067 6198.68,43.862C6213.43,31.453 6237.19,31.833 6237.19,31.833" style="fill:none;stroke:rgb(235,235,235);stroke-width:11.83px;"/>
                    </g>
                    <g transform="matrix(0.311776,-0.0179892,0.0191885,0.29229,9496.05,344.741)">
                        <path d="M6181.19,80.5C6181.19,80.5 6181.79,58.067 6198.68,43.862C6213.43,31.453 6237.19,31.833 6237.19,31.833" style="fill:none;stroke:rgb(235,235,235);stroke-opacity:0.75;stroke-width:8px;"/>
                    </g>
                    <g transform="matrix(0.4433,-0.0255781,0.0272833,0.415593,8675.82,381.811)">
                        <path d="M6181.19,80.5C6181.19,80.5 6181.79,58.067 6198.68,43.862C6213.43,31.453 6237.19,31.833 6237.19,31.833" style="fill:none;stroke:rgb(235,235,235);stroke-opacity:0.5;stroke-width:5.63px;"/>
                    </g>
                    <g transform="matrix(0.628562,-0.0362676,0.0386854,0.589277,7522.03,435.793)">
                        <path d="M6181.19,80.5C6181.19,80.5 6181.79,58.067 6198.68,43.862C6213.43,31.453 6237.19,31.833 6237.19,31.833" style="fill:none;stroke:rgb(235,235,235);stroke-opacity:0.25;stroke-width:3.97px;"/>
                    </g>
                </g>
                <g transform="matrix(-1,0,0,-1,22963.5,593.06)">
                    <g transform="matrix(0.210943,-0.0121713,0.0129827,0.197759,10126.1,317.735)">
                        <path d="M6181.19,80.5C6181.19,80.5 6181.79,58.067 6198.68,43.862C6213.43,31.453 6237.19,31.833 6237.19,31.833" style="fill:none;stroke:rgb(235,235,235);stroke-width:11.83px;"/>
                    </g>
                    <g transform="matrix(0.311776,-0.0179892,0.0191885,0.29229,9496.05,344.741)">
                        <path d="M6181.19,80.5C6181.19,80.5 6181.79,58.067 6198.68,43.862C6213.43,31.453 6237.19,31.833 6237.19,31.833" style="fill:none;stroke:rgb(235,235,235);stroke-opacity:0.75;stroke-width:8px;"/>
                    </g>
                    <g transform="matrix(0.4433,-0.0255781,0.0272833,0.415593,8675.82,381.811)">
                        <path d="M6181.19,80.5C6181.19,80.5 6181.79,58.067 6198.68,43.862C6213.43,31.453 6237.19,31.833 6237.19,31.833" style="fill:none;stroke:rgb(235,235,235);stroke-opacity:0.5;stroke-width:5.63px;"/>
                    </g>
                    <g transform="matrix(0.628562,-0.0362676,0.0386854,0.589277,7522.03,435.793)">
                        <path d="M6181.19,80.5C6181.19,80.5 6181.79,58.067 6198.68,43.862C6213.43,31.453 6237.19,31.833 6237.19,31.833" style="fill:none;stroke:rgb(235,235,235);stroke-opacity:0.25;stroke-width:3.97px;"/>
                    </g>
                </g>
            </g>
        </g>
    </g>
</svg>
