<?xml version="1.0" encoding="UTF-8" standalone="no"?>
<!DOCTYPE svg PUBLIC "-//W3C//DTD SVG 1.1//EN" "http://www.w3.org/Graphics/SVG/1.1/DTD/svg11.dtd">
<svg width="100%" height="100%" viewBox="0 0 256 256" version="1.1" xmlns="http://www.w3.org/2000/svg" xmlns:xlink="http://www.w3.org/1999/xlink" xml:space="preserve" xmlns:serif="http://www.serif.com/" style="fill-rule:evenodd;clip-rule:evenodd;stroke-linejoin:round;stroke-miterlimit:2;">
    <g transform="matrix(1,0,0,1,-1024,-1536)">
        <g transform="matrix(1.6,0,0,1.70667,-17213.5,1162.59)">
            <rect id="visual" x="11398.4" y="218.796" width="160" height="150" style="fill:none;"/>
            <g id="visual1" serif:id="visual">
                <g transform="matrix(0.581782,0,0,0.545421,10808.2,-613.784)">
                    <path d="M1030.13,1772.78L1069.38,1680.82L1069.4,1680.79L1069.55,1680.66L1069.38,1680.46L1069.71,1680.52L1194,1572.84L1194.01,1572.85L1201.61,1566.27L1201.6,1566.26L1214.34,1555.23L1273.87,1623.93L1261.48,1634.66L1261.49,1634.67L1253.44,1641.64L1253.43,1641.62L1128.92,1749.49L1128.07,1748.51L1128.07,1748.57L1128.92,1749.55L1127.99,1749.77L1127.98,1749.92L1127.88,1749.8L1065.31,1764.51L1065.62,1764.84L1030.13,1772.78Z" style="fill:rgb(178,225,229);"/>
                    <path d="M1187.5,1578.47C1186.85,1577.71 1186.32,1576.83 1185.95,1575.86C1184.7,1572.49 1185.67,1568.71 1188.38,1566.36L1195.73,1559.99C1195.81,1559.91 1195.89,1559.84 1195.97,1559.77L1208.71,1548.73C1212.3,1545.62 1217.73,1546.01 1220.84,1549.6L1280.36,1618.31C1283.47,1621.89 1283.08,1627.32 1279.5,1630.43L1267.11,1641.16L1261.49,1643.25L1261.49,1643.26L1267.12,1641.16L1259.07,1648.13C1258.94,1648.25 1258.8,1648.36 1258.66,1648.46L1135.15,1755.47C1134.02,1756.66 1132.54,1757.53 1130.89,1757.92L1129.96,1758.14L1128.15,1758.35L1128.14,1758.36L1129.84,1758.16L1067.28,1772.87L1065.86,1773.04C1065.71,1773.29 1065.62,1773.44 1065.62,1773.44L1067.49,1773.23L1032.01,1781.16C1028.86,1781.87 1025.59,1780.75 1023.52,1778.27C1021.46,1775.79 1020.96,1772.37 1022.23,1769.4L1061.33,1677.8C1061.16,1678.23 1061.04,1678.65 1060.96,1679.06C1060.5,1681.29 1060.93,1683.63 1062.2,1685.56C1063.15,1686.99 1064.48,1688.08 1066,1688.73L1030.13,1772.78L1065.62,1764.84L1065.31,1764.51L1119.51,1751.76C1119.83,1753.13 1120.47,1754.36 1121.34,1755.38C1122.89,1757.19 1125.18,1758.35 1127.72,1758.39L1127.49,1758.28C1127.59,1758.3 1127.67,1758.32 1127.74,1758.33L1127.88,1758.39L1127.88,1758.37L1127.86,1758.35C1127.86,1758.35 1127.87,1758.35 1127.88,1758.35C1127.88,1758.29 1127.88,1758.18 1127.88,1758.02C1127.78,1758.01 1127.68,1758 1127.59,1757.98C1127.41,1757.75 1127.17,1757.44 1126.9,1757.08C1127.21,1757.12 1127.53,1757.15 1127.85,1757.16L1127.84,1757.07C1127.86,1757.07 1127.88,1757.07 1127.9,1757.08L1127.9,1757.03L1128,1757.07C1127.97,1757.04 1127.94,1757 1127.91,1756.95C1127.96,1755.27 1128.1,1752.39 1128.51,1749.65L1128.92,1749.55L1128.59,1749.16C1128.59,1749.15 1128.59,1749.13 1128.59,1749.11L1128.92,1749.49L1134.6,1744.58C1135.09,1746.39 1132.13,1751.77 1130,1755.29L1136.65,1749.06L1129.94,1755.39C1129.56,1756.02 1129.21,1756.59 1128.91,1757.06C1129.1,1757.04 1129.28,1757.02 1129.46,1756.99L1136.45,1750.43C1136.55,1749.98 1136.62,1749.52 1136.65,1749.06C1136.75,1747.27 1136.29,1745.49 1135.32,1743.95L1246.94,1647.25L1253.43,1641.62L1253.44,1641.64L1261.49,1634.67L1261.48,1634.66L1273.87,1623.93L1214.34,1555.23L1201.6,1566.26L1201.61,1566.27L1194.01,1572.85L1194,1572.84L1187.5,1578.47ZM1061.33,1677.8C1061.51,1677.32 1061.74,1676.84 1062.04,1676.35C1062.09,1676.27 1062.14,1676.21 1062.2,1676.18C1062.6,1675.5 1063.15,1674.83 1063.91,1674.17C1063.93,1674.15 1063.94,1674.14 1063.95,1674.13C1063.3,1674.73 1062.75,1675.41 1062.31,1676.14C1063.37,1676.01 1065.84,1681.16 1067.56,1685.09L1066.68,1687.13C1064.06,1684.93 1060.72,1681.29 1061.62,1677.63C1061.04,1679.24 1060.95,1681.02 1061.41,1682.73C1060.92,1681.63 1060.72,1680.4 1060.96,1679.06C1061.08,1678.52 1061.25,1677.98 1061.47,1677.45L1061.33,1677.8ZM1063.95,1674.13C1064,1674.1 1064.04,1674.06 1064.09,1674.02L1188.37,1566.34C1185.66,1568.69 1184.69,1572.48 1185.94,1575.84C1186.31,1576.82 1186.84,1577.71 1187.5,1578.47L1069.71,1680.52L1069.38,1680.46L1069.55,1680.66L1069.4,1680.79L1069.38,1680.82L1067.61,1684.97C1066.53,1682.16 1065.39,1678.46 1065.59,1675.71C1065.01,1674.45 1064.44,1673.77 1063.95,1674.13ZM1066.17,1688.34C1065.09,1687.86 1064.13,1687.15 1063.34,1686.28L1062.84,1686.04L1063.32,1686.26C1062.61,1685.48 1062.05,1684.55 1061.66,1683.52C1061.56,1683.26 1061.48,1682.99 1061.41,1682.73C1062.26,1684.65 1063.95,1686.19 1065.57,1687.3L1066.44,1687.7L1066.42,1687.75L1065.82,1687.47C1066.01,1687.59 1066.2,1687.72 1066.39,1687.83L1066.17,1688.34ZM1121.34,1755.38L1121.86,1755.62L1121.88,1755.63L1121.34,1755.38ZM1121.86,1755.62C1120.83,1754.67 1119.96,1753.41 1119.59,1751.75L1123.11,1750.92C1123.27,1751.11 1123.44,1751.31 1123.61,1751.51L1123.86,1750.74L1127.02,1750L1127.81,1756.82C1127.85,1756.87 1127.88,1756.91 1127.91,1756.95C1127.9,1756.97 1127.9,1757 1127.9,1757.03L1127.83,1756.99L1127.84,1757.07C1127.6,1757.03 1127.2,1756.95 1126.7,1756.82C1126.77,1756.91 1126.84,1757 1126.9,1757.08C1125.26,1756.86 1123.71,1756.16 1122.46,1755.08L1122.53,1754.84C1122.29,1754.66 1122.06,1754.47 1121.84,1754.26L1121.58,1754.13L1122.16,1754.81C1121.96,1754.62 1121.76,1754.41 1121.57,1754.19L1122.42,1755.18L1122.44,1755.13C1123,1755.77 1123.63,1756.31 1124.31,1756.75L1121.86,1755.62ZM1127.49,1758.28C1126.42,1758.07 1123.84,1757.41 1121.88,1755.63L1124.54,1756.89C1125.01,1757.16 1125.49,1757.39 1126,1757.58L1127.49,1758.28ZM1127.74,1758.33L1126.4,1757.71C1126.79,1757.83 1127.18,1757.92 1127.59,1757.98C1127.7,1758.13 1127.79,1758.26 1127.86,1758.35C1127.82,1758.34 1127.78,1758.33 1127.74,1758.33ZM1126.4,1757.71C1126.26,1757.67 1126.13,1757.62 1126,1757.58L1124.54,1756.89C1124.46,1756.84 1124.38,1756.79 1124.31,1756.75L1126.4,1757.71ZM1122.46,1755.08L1122.44,1755.13L1122.43,1755.12L1122.16,1754.81C1122.26,1754.9 1122.36,1754.99 1122.46,1755.08ZM1136.44,1750.44L1129.6,1756.96C1132.34,1756.47 1134.71,1754.66 1135.89,1752.08C1136.13,1751.54 1136.32,1750.99 1136.44,1750.44Z" style="fill:rgb(0,52,56);"/>
                </g>
                <g transform="matrix(0.930851,0,0,0.930851,792.687,18.8333)">
                    <g transform="matrix(0.213569,0.231104,-0.246511,0.200221,11485.6,181.788)">
                        <rect x="189.3" y="82.1" width="174.2" height="315.9" style="fill:rgb(178,225,229);"/>
                    </g>
                    <g transform="matrix(0.213569,0.231104,-0.246511,0.200221,11470.8,134.636)">
                        <rect x="335.5" y="97.3" width="174.2" height="32.3" style="fill:rgb(246,145,115);"/>
                    </g>
                    <g transform="matrix(0.213569,0.231104,-0.246511,0.200221,11472.7,140.837)">
                        <rect x="316.3" y="119.9" width="174.2" height="20.4" style="fill:rgb(81,82,81);"/>
                    </g>
                    <g transform="matrix(0.326158,0,0,0.305774,11395.3,220.333)">
                        <path d="M24.8,453.9L214.1,409.4L100,277.7L24.8,453.9Z" style="fill:rgb(255,242,166);fill-rule:nonzero;"/>
                    </g>
                    <g transform="matrix(0.326158,0,0,0.305774,11395.3,220.333)">
                        <path d="M160.3,287L100,277L156.7,343.5L160.3,287Z" style="fill:rgb(255,242,166);fill-rule:nonzero;"/>
                    </g>
                    <g transform="matrix(0.326158,0,0,0.305774,11395.3,220.333)">
                        <path d="M215.9,353.6L155.6,343.6L212.3,410.1L215.9,353.6Z" style="fill:rgb(255,242,166);fill-rule:nonzero;"/>
                    </g>
                    <g transform="matrix(0.326158,0,0,0.305774,11395.3,220.333)">
                        <path d="M24.8,453.9L92.8,438.7L51.8,393.7L24.8,453.9Z" style="fill:rgb(81,82,81);fill-rule:nonzero;"/>
                    </g>
                </g>
            </g>
        </g>
    </g>
</svg>
