<?xml version="1.0" encoding="UTF-8" standalone="no"?>
<!DOCTYPE svg PUBLIC "-//W3C//DTD SVG 1.1//EN" "http://www.w3.org/Graphics/SVG/1.1/DTD/svg11.dtd">
<svg width="100%" height="100%" viewBox="0 0 256 256" version="1.1" xmlns="http://www.w3.org/2000/svg" xmlns:xlink="http://www.w3.org/1999/xlink" xml:space="preserve" xmlns:serif="http://www.serif.com/" style="fill-rule:evenodd;clip-rule:evenodd;stroke-linecap:round;stroke-linejoin:round;stroke-miterlimit:1.5;">
    <g transform="matrix(1,0,0,1,-4864,0)">
        <g transform="matrix(1.6,0,0,1.70667,-13373.5,-373.411)">
            <rect id="how_to_learn_anything" x="11398.4" y="218.796" width="160" height="150" style="fill:none;"/>
            <g id="how_to_learn_anything1" serif:id="how_to_learn_anything">
                <g transform="matrix(0.847353,0,0,0.794393,7461.32,191.069)">
                    <path d="M4738.16,191C4738.16,191 4733.91,206.667 4717.41,207.583C4705.41,208.25 4698.49,197.333 4698.49,197.333C4698.49,197.333 4686.49,191.667 4682.82,183.667C4679.16,175.667 4682.16,170.333 4682.16,170.333C4682.16,170.333 4671.31,163.215 4669.82,154C4668.32,144.667 4674.16,141.833 4674.16,141.833C4674.16,141.833 4667.6,136.845 4668.41,125.333C4669.22,113.665 4676.49,111.333 4676.49,111.333C4676.49,111.333 4671.39,102.047 4678.24,93.083C4685.68,83.344 4693.82,83.833 4693.82,83.833C4693.82,83.833 4688.73,73.701 4694.07,68.083C4700.57,61.25 4704.6,63.097 4706.99,59C4710.14,53.592 4717.82,52.417 4717.82,52.417C4717.82,52.417 4722.66,50.333 4729.24,51.25C4734.28,51.952 4737.82,56.333 4737.82,62C4737.82,67.667 4738.16,191 4738.16,191Z" style="fill:rgb(177,247,212);"/>
                    <clipPath id="_clip1">
                        <path d="M4738.16,191C4738.16,191 4733.91,206.667 4717.41,207.583C4705.41,208.25 4698.49,197.333 4698.49,197.333C4698.49,197.333 4686.49,191.667 4682.82,183.667C4679.16,175.667 4682.16,170.333 4682.16,170.333C4682.16,170.333 4671.31,163.215 4669.82,154C4668.32,144.667 4674.16,141.833 4674.16,141.833C4674.16,141.833 4667.6,136.845 4668.41,125.333C4669.22,113.665 4676.49,111.333 4676.49,111.333C4676.49,111.333 4671.39,102.047 4678.24,93.083C4685.68,83.344 4693.82,83.833 4693.82,83.833C4693.82,83.833 4688.73,73.701 4694.07,68.083C4700.57,61.25 4704.6,63.097 4706.99,59C4710.14,53.592 4717.82,52.417 4717.82,52.417C4717.82,52.417 4722.66,50.333 4729.24,51.25C4734.28,51.952 4737.82,56.333 4737.82,62C4737.82,67.667 4738.16,191 4738.16,191Z"/>
                    </clipPath>
                    <g clip-path="url(#_clip1)">
                        <g transform="matrix(1.6,0,0,1.70667,-13629.5,-373.411)">
                            <g transform="matrix(0.625,0,0,0.585937,8519.66,221.374)">
                                <path d="M4718.01,187.5C4718.01,187.5 4717.51,178.201 4711.21,172.5C4704.48,166.415 4697.01,167.5 4697.01,167.5" style="fill:none;stroke:rgb(105,173,160);stroke-width:6px;"/>
                            </g>
                            <g transform="matrix(-0.0574817,-0.583454,0.622351,-0.0538891,11625.2,3069.13)">
                                <path d="M4718.01,187.5C4718.01,187.5 4717.51,178.201 4711.21,172.5C4704.48,166.415 4697.01,167.5 4697.01,167.5" style="fill:none;stroke:rgb(105,173,160);stroke-width:6px;"/>
                            </g>
                            <g transform="matrix(0.625,4.85723e-17,1.04083e-16,0.585937,8514.55,168.249)">
                                <path d="M4718.01,187.5C4718.01,187.5 4717.51,178.201 4711.21,172.5C4704.48,166.415 4697.01,167.5 4697.01,167.5" style="fill:none;stroke:rgb(105,173,160);stroke-width:6px;"/>
                            </g>
                            <g transform="matrix(0.543623,-0.289107,0.308381,0.509647,8844.57,1528.75)">
                                <path d="M4718.01,187.5C4718.01,187.5 4717.51,178.201 4711.21,172.5" style="fill:none;stroke:rgb(105,173,160);stroke-width:6px;"/>
                            </g>
                            <g transform="matrix(0.59668,0.174379,-0.186004,0.559388,8701.5,-644.258)">
                                <path d="M4711.21,172.5C4704.48,166.415 4697.01,167.5 4697.01,167.5" style="fill:none;stroke:rgb(105,173,160);stroke-width:6px;"/>
                            </g>
                            <g transform="matrix(0.0924798,0.579488,-0.61812,0.0866998,11134.6,-2449.65)">
                                <path d="M4718.01,187.5C4718.01,187.5 4717.51,178.201 4711.21,172.5C4709.97,171.377 4708.7,170.498 4707.46,169.811" style="fill:none;stroke:rgb(105,173,160);stroke-width:6px;"/>
                            </g>
                            <g transform="matrix(-0.623618,-0.0389478,0.0415444,-0.584642,14368.5,586.303)">
                                <path d="M4718.01,187.5C4718.01,187.5 4717.51,178.201 4711.21,172.5C4704.48,166.415 4697.01,167.5 4697.01,167.5" style="fill:none;stroke:rgb(105,173,160);stroke-width:6px;"/>
                            </g>
                            <g transform="matrix(-0.61652,0.0961918,-0.102605,-0.577988,14379.8,-63.1195)">
                                <path d="M4717.41,190.103C4717.41,190.103 4719.67,178.259 4708.6,170.884C4697.19,163.277 4686.54,171.503 4686.54,171.503" style="fill:none;stroke:rgb(105,173,160);stroke-width:6px;"/>
                            </g>
                        </g>
                    </g>
                    <path d="M4738.16,191C4738.16,191 4733.91,206.667 4717.41,207.583C4705.41,208.25 4698.49,197.333 4698.49,197.333C4698.49,197.333 4686.49,191.667 4682.82,183.667C4679.16,175.667 4682.16,170.333 4682.16,170.333C4682.16,170.333 4671.31,163.215 4669.82,154C4668.32,144.667 4674.16,141.833 4674.16,141.833C4674.16,141.833 4667.6,136.845 4668.41,125.333C4669.22,113.665 4676.49,111.333 4676.49,111.333C4676.49,111.333 4671.39,102.047 4678.24,93.083C4685.68,83.344 4693.82,83.833 4693.82,83.833C4693.82,83.833 4688.73,73.701 4694.07,68.083C4700.57,61.25 4704.6,63.097 4706.99,59C4710.14,53.592 4717.82,52.417 4717.82,52.417C4717.82,52.417 4722.66,50.333 4729.24,51.25C4734.28,51.952 4737.82,56.333 4737.82,62C4737.82,67.667 4738.16,191 4738.16,191Z" style="fill:none;stroke:rgb(0,60,71);stroke-width:5.9px;"/>
                </g>
                <g transform="matrix(-0.847353,0,0,0.794393,15495.5,191.069)">
                    <path d="M4738.16,191C4738.16,191 4733.91,206.667 4717.41,207.583C4705.41,208.25 4698.49,197.333 4698.49,197.333C4698.49,197.333 4686.49,191.667 4682.82,183.667C4679.16,175.667 4682.16,170.333 4682.16,170.333C4682.16,170.333 4671.31,163.215 4669.82,154C4668.32,144.667 4674.16,141.833 4674.16,141.833C4674.16,141.833 4667.6,136.845 4668.41,125.333C4669.22,113.665 4676.49,111.333 4676.49,111.333C4676.49,111.333 4671.39,102.047 4678.24,93.083C4685.68,83.344 4693.82,83.833 4693.82,83.833C4693.82,83.833 4688.73,73.701 4694.07,68.083C4700.57,61.25 4704.6,63.097 4706.99,59C4710.14,53.592 4717.82,52.417 4717.82,52.417C4717.82,52.417 4722.66,50.333 4729.24,51.25C4734.28,51.952 4737.82,56.333 4737.82,62C4737.82,67.667 4738.16,191 4738.16,191Z" style="fill:rgb(177,247,212);"/>
                    <clipPath id="_clip2">
                        <path d="M4738.16,191C4738.16,191 4733.91,206.667 4717.41,207.583C4705.41,208.25 4698.49,197.333 4698.49,197.333C4698.49,197.333 4686.49,191.667 4682.82,183.667C4679.16,175.667 4682.16,170.333 4682.16,170.333C4682.16,170.333 4671.31,163.215 4669.82,154C4668.32,144.667 4674.16,141.833 4674.16,141.833C4674.16,141.833 4667.6,136.845 4668.41,125.333C4669.22,113.665 4676.49,111.333 4676.49,111.333C4676.49,111.333 4671.39,102.047 4678.24,93.083C4685.68,83.344 4693.82,83.833 4693.82,83.833C4693.82,83.833 4688.73,73.701 4694.07,68.083C4700.57,61.25 4704.6,63.097 4706.99,59C4710.14,53.592 4717.82,52.417 4717.82,52.417C4717.82,52.417 4722.66,50.333 4729.24,51.25C4734.28,51.952 4737.82,56.333 4737.82,62C4737.82,67.667 4738.16,191 4738.16,191Z"/>
                    </clipPath>
                    <g clip-path="url(#_clip2)">
                        <g transform="matrix(1.6,0,0,1.70667,-13629.5,-373.411)">
                            <g transform="matrix(0.625,0,0,0.585937,8519.66,221.374)">
                                <path d="M4718.01,187.5C4718.01,187.5 4717.51,178.201 4711.21,172.5C4704.48,166.415 4697.01,167.5 4697.01,167.5" style="fill:none;stroke:rgb(105,173,160);stroke-width:6px;"/>
                            </g>
                            <g transform="matrix(-0.0574817,-0.583454,0.622351,-0.0538891,11625.2,3069.13)">
                                <path d="M4718.01,187.5C4718.01,187.5 4717.51,178.201 4711.21,172.5C4704.48,166.415 4697.01,167.5 4697.01,167.5" style="fill:none;stroke:rgb(105,173,160);stroke-width:6px;"/>
                            </g>
                            <g transform="matrix(0.625,4.85723e-17,1.04083e-16,0.585937,8514.55,168.249)">
                                <path d="M4718.01,187.5C4718.01,187.5 4717.51,178.201 4711.21,172.5C4704.48,166.415 4697.01,167.5 4697.01,167.5" style="fill:none;stroke:rgb(105,173,160);stroke-width:6px;"/>
                            </g>
                            <g transform="matrix(0.543623,-0.289107,0.308381,0.509647,8844.57,1528.75)">
                                <path d="M4718.01,187.5C4718.01,187.5 4717.51,178.201 4711.21,172.5" style="fill:none;stroke:rgb(105,173,160);stroke-width:6px;"/>
                            </g>
                            <g transform="matrix(0.59668,0.174379,-0.186004,0.559388,8701.5,-644.258)">
                                <path d="M4711.21,172.5C4704.48,166.415 4697.01,167.5 4697.01,167.5" style="fill:none;stroke:rgb(105,173,160);stroke-width:6px;"/>
                            </g>
                            <g transform="matrix(0.0924798,0.579488,-0.61812,0.0866998,11134.6,-2449.65)">
                                <path d="M4718.01,187.5C4718.01,187.5 4717.51,178.201 4711.21,172.5C4709.97,171.377 4708.7,170.498 4707.46,169.811" style="fill:none;stroke:rgb(105,173,160);stroke-width:6px;"/>
                            </g>
                            <g transform="matrix(-0.623618,-0.0389478,0.0415444,-0.584642,14368.5,586.303)">
                                <path d="M4718.01,187.5C4718.01,187.5 4717.51,178.201 4711.21,172.5C4704.48,166.415 4697.01,167.5 4697.01,167.5" style="fill:none;stroke:rgb(105,173,160);stroke-width:6px;"/>
                            </g>
                            <g transform="matrix(-0.61652,0.0961918,-0.102605,-0.577988,14379.8,-63.1195)">
                                <path d="M4717.41,190.103C4717.41,190.103 4719.67,178.259 4708.6,170.884C4697.19,163.277 4686.54,171.503 4686.54,171.503" style="fill:none;stroke:rgb(105,173,160);stroke-width:6px;"/>
                            </g>
                        </g>
                    </g>
                    <path d="M4738.16,191C4738.16,191 4733.91,206.667 4717.41,207.583C4705.41,208.25 4698.49,197.333 4698.49,197.333C4698.49,197.333 4686.49,191.667 4682.82,183.667C4679.16,175.667 4682.16,170.333 4682.16,170.333C4682.16,170.333 4671.31,163.215 4669.82,154C4668.32,144.667 4674.16,141.833 4674.16,141.833C4674.16,141.833 4667.6,136.845 4668.41,125.333C4669.22,113.665 4676.49,111.333 4676.49,111.333C4676.49,111.333 4671.39,102.047 4678.24,93.083C4685.68,83.344 4693.82,83.833 4693.82,83.833C4693.82,83.833 4688.73,73.701 4694.07,68.083C4700.57,61.25 4704.6,63.097 4706.99,59C4710.14,53.592 4717.82,52.417 4717.82,52.417C4717.82,52.417 4722.66,50.333 4729.24,51.25C4734.28,51.952 4737.82,56.333 4737.82,62C4737.82,67.667 4738.16,191 4738.16,191Z" style="fill:none;stroke:rgb(0,60,71);stroke-width:5.9px;"/>
                </g>
            </g>
        </g>
    </g>
</svg>
