<?xml version="1.0" encoding="utf-8"?>
<!-- Generator: Adobe Illustrator 18.0.0, SVG Export Plug-In . SVG Version: 6.00 Build 0)  -->
<!DOCTYPE svg PUBLIC "-//W3C//DTD SVG 1.1//EN" "http://www.w3.org/Graphics/SVG/1.1/DTD/svg11.dtd">
<svg version="1.1" id="Layer_1" xmlns="http://www.w3.org/2000/svg" xmlns:xlink="http://www.w3.org/1999/xlink" x="0px" y="0px"
	 viewBox="0 0 500 500" enable-background="new 0 0 500 500" xml:space="preserve">
<g>
	<path fill="#FFFFFF" stroke="#D1D3D4" stroke-width="8" stroke-miterlimit="10" d="M421,258.8c-58,22-133.9,37.4-232.8,37.4
		c-46.6,0-86.6-6.5-120.9-17.2c-17.8-35.8-25.6-69.3-27.7-78.9c-0.2,0.1-0.4,0.1-0.6,0.2c0,0,34,187.5,174.3,187.5
		C407,387.8,444,200.3,444,200.3c-0.2-0.1-0.4-0.2-0.6-0.2C441.5,207.8,435.3,231.2,421,258.8z"/>
	<path fill="#FFFFFF" stroke="#D1D3D4" stroke-width="8" stroke-miterlimit="10" d="M443.4,200.1c0.4-1.8,0.6-2.8,0.6-2.8
		c-105-42.8-347-20.2-405,0c0,0,0.2,1,0.6,2.8C98.4,180,338.4,157.7,443.4,200.1z"/>
</g>
<path fill="#FFFFFF" stroke="#D1D3D4" stroke-width="8" stroke-miterlimit="10" d="M39,197.3c0,0,7.1,39.2,28.2,81.8
	c34.3,10.6,74.3,17.2,120.9,17.2c98.9,0,174.8-15.4,232.8-37.4c17.6-34,23-61.5,23-61.5C339,154.5,97,177.1,39,197.3z"/>
<path fill="none" stroke="#EF4B65" stroke-width="30" stroke-miterlimit="10" d="M39,200.3c58-20.2,300-42.8,405,0
	c0,0-37,187.5-230.7,187.5C73,387.8,39,200.3,39,200.3z"/>
<polygon fill="#FFFFFF" stroke="#D1D3D4" stroke-width="10" stroke-miterlimit="10" points="421.7,132.3 445.8,163.8 485.5,161.8 
	463,194.4 477.1,231.5 439.1,220.2 408.2,245.1 407.2,205.5 374,183.8 411.4,170.6 "/>
</svg>
