<?xml version="1.0" encoding="UTF-8" standalone="no"?>
<!DOCTYPE svg PUBLIC "-//W3C//DTD SVG 1.1//EN" "http://www.w3.org/Graphics/SVG/1.1/DTD/svg11.dtd">
<svg width="100%" height="100%" viewBox="0 0 256 256" version="1.1" xmlns="http://www.w3.org/2000/svg" xmlns:xlink="http://www.w3.org/1999/xlink" xml:space="preserve" xmlns:serif="http://www.serif.com/" style="fill-rule:evenodd;clip-rule:evenodd;stroke-miterlimit:10;">
    <g transform="matrix(1,0,0,1,-1792,0)">
        <g transform="matrix(1.00787,0,0,1.024,1757.98,-1453.73)">
            <rect id="personal_hygiene" x="33.753" y="1419.66" width="254" height="250" style="fill:none;"/>
            <clipPath id="_clip1">
                <rect id="personal_hygiene1" serif:id="personal_hygiene" x="33.753" y="1419.66" width="254" height="250"/>
            </clipPath>
            <g clip-path="url(#_clip1)">
                <g transform="matrix(1,0,0,1,15.3514,-16.2949)">
                    <g transform="matrix(0.468996,0,0,0.46161,34.3136,1440.91)">
                        <path d="M34.067,186.135C93.584,165.406 341.915,142.49 449.662,186.41L461.109,191.076L458.716,203.204C458.716,203.204 419.412,402.8 213.3,402.8C151.727,402.8 108.622,370.24 79.294,330.742C37.127,273.955 24.241,202.976 24.241,202.976L21.952,190.354L34.067,186.135Z" style="fill:rgb(239,75,101);"/>
                        <path d="M28.5,170.152C89.73,148.827 345.204,125.554 456.05,170.737L467.498,175.403C474.999,178.461 479.282,186.405 477.714,194.352L475.322,206.474C475.322,206.474 433.419,419.724 213.3,419.724C145.574,419.724 97.965,384.277 65.706,340.832C21.205,280.9 7.588,206 7.588,206L5.299,193.374C3.812,185.174 8.515,177.112 16.385,174.371L28.5,170.152ZM34.067,186.135L21.952,190.354L24.241,202.976C24.241,202.976 37.127,273.955 79.294,330.742C108.622,370.24 151.727,402.8 213.3,402.8C419.412,402.8 458.716,203.204 458.716,203.204L461.109,191.076L449.662,186.41C341.915,142.49 93.584,165.406 34.067,186.135Z" style="fill:rgb(81,0,13);"/>
                    </g>
                    <g transform="matrix(0.468996,0,0,0.46161,34.3136,1440.91)">
                        <path d="M421,258.8C363,280.8 287.1,296.2 188.2,296.2C141.6,296.2 101.6,289.7 67.3,279C49.5,243.2 41.7,209.7 39.6,200.1C39.4,200.2 39.2,200.2 39,200.3C39,200.3 73,387.8 213.3,387.8C407,387.8 444,200.3 444,200.3C443.8,200.2 443.6,200.1 443.4,200.1C441.5,207.8 435.3,231.2 421,258.8Z" style="fill:white;fill-rule:nonzero;stroke:rgb(209,211,212);stroke-width:8px;"/>
                    </g>
                    <g transform="matrix(0.468996,0,0,0.46161,34.3136,1440.91)">
                        <path d="M443.4,200.1C443.8,198.3 444,197.3 444,197.3C339,154.5 97,177.1 39,197.3C39,197.3 39.2,198.3 39.6,200.1C98.4,180 338.4,157.7 443.4,200.1Z" style="fill:white;fill-rule:nonzero;stroke:rgb(209,211,212);stroke-width:8px;"/>
                    </g>
                    <g transform="matrix(0.468996,0,0,0.46161,34.3136,1440.91)">
                        <path d="M39,197.3C39,197.3 46.1,236.5 67.2,279.1C101.5,289.7 141.5,296.3 188.1,296.3C287,296.3 362.9,280.9 420.9,258.9C438.5,224.9 443.9,197.4 443.9,197.4C339,154.5 97,177.1 39,197.3Z" style="fill:white;fill-rule:nonzero;stroke:rgb(209,211,212);stroke-width:8px;"/>
                    </g>
                    <g transform="matrix(0.468996,0,0,0.46161,34.3136,1440.91)">
                        <path d="M34.067,186.135C93.584,165.406 341.915,142.49 449.662,186.41L461.109,191.076L458.716,203.204C458.716,203.204 419.412,402.8 213.3,402.8C151.727,402.8 108.622,370.24 79.294,330.742C37.127,273.955 24.241,202.976 24.241,202.976L21.952,190.354L34.067,186.135ZM56.74,210.714C62.205,232.09 75.881,275.823 103.38,312.858C127.514,345.36 162.633,372.8 213.3,372.8C365.239,372.8 414.208,249.592 426.081,209.699C325.469,176.542 126.758,192.981 56.74,210.714Z" style="fill:rgb(239,75,101);"/>
                    </g>
                    <g transform="matrix(0.468996,0,0,0.46161,34.3136,1440.91)">
                        <path d="M421.7,132.3L445.8,163.8L485.5,161.8L463,194.4L477.1,231.5L439.1,220.2L408.2,245.1L407.2,205.5L374,183.8L411.4,170.6L421.7,132.3Z" style="fill:white;fill-rule:nonzero;stroke:rgb(54,54,54);stroke-width:16.92px;"/>
                    </g>
                </g>
            </g>
        </g>
    </g>
</svg>
