<?xml version="1.0" encoding="UTF-8" standalone="no"?>
<!DOCTYPE svg PUBLIC "-//W3C//DTD SVG 1.1//EN" "http://www.w3.org/Graphics/SVG/1.1/DTD/svg11.dtd">
<svg width="100%" height="100%" viewBox="0 0 256 256" version="1.1" xmlns="http://www.w3.org/2000/svg" xmlns:xlink="http://www.w3.org/1999/xlink" xml:space="preserve" xmlns:serif="http://www.serif.com/" style="fill-rule:evenodd;clip-rule:evenodd;stroke-linejoin:round;stroke-miterlimit:2;">
    <g transform="matrix(1,0,0,1,-768,-1536)">
        <g transform="matrix(1.6,0,0,1.70667,-17469.5,1162.59)">
            <rect id="programming" x="11398.4" y="218.796" width="160" height="150" style="fill:none;"/>
            <g id="programming1" serif:id="programming">
                <g transform="matrix(1,0,0,1,-11.8832,2.84217e-14)">
                    <g transform="matrix(0.362642,0,0,0.339977,11383.9,206.354)">
                        <path d="M383.3,257.4C374.8,251.9 369,245.8 365.8,239.1C362.6,232.4 361,222.9 361,210.5L361,166C361,156.8 359.2,151 355.6,148.6C352,146.3 343.4,145.1 329.7,145.1L324,145.3L324,97C328.3,97 332.5,96.9 336.5,96.6L359.2,95.4L373.1,96C406.6,96 423.3,113.8 423.3,149.5L423.3,202C423.3,212 424.8,219.5 427.9,224.3C431,229.1 436.2,232.2 443.6,233.7L443.6,284.9C432.1,287.2 425.8,292.8 424.7,301.7L423.7,310.3C423.4,311.9 423.3,312.8 423.3,313L423.3,365.1C423.3,385.3 418.8,399.3 409.9,407.2C401,415.1 385.1,419 362.3,419L351.2,418.8L336.6,418.2L324.1,417.8L324.1,368.4L332.7,368.6C344.7,368.6 352.4,367.3 355.8,364.7C359.2,362.1 361,356.4 361,347.7L361,304.5C361,291.7 362.5,282.3 365.4,276.1C368.4,270 374.4,263.8 383.3,257.4Z" style="fill:rgb(0,64,36);fill-rule:nonzero;"/>
                        <path d="M437.088,313.799L437.088,365.1C437.088,390.442 430.218,407.6 419.053,417.511C408.387,426.979 389.625,432.788 362.3,432.788C362.217,432.788 362.134,432.787 362.052,432.785L350.952,432.585C350.846,432.584 350.74,432.58 350.634,432.576L336.096,431.979L323.659,431.581C316.22,431.343 310.312,425.243 310.312,417.8L310.312,368.4C310.312,364.688 311.809,361.132 314.465,358.538C317.12,355.944 320.709,354.53 324.421,354.616C324.421,354.616 332.85,354.812 332.9,354.812C338.159,354.792 343.932,353.99 346.579,353.575C346.845,352.109 347.212,349.717 347.212,347.7L347.212,304.5C347.212,289.039 349.408,277.747 352.911,270.258C352.949,270.177 352.988,270.096 353.028,270.015C355.022,265.96 357.987,261.792 361.991,257.574C358.282,253.572 355.429,249.377 353.359,245.042C349.487,236.936 347.212,225.502 347.212,210.5L347.212,166C347.212,164.074 346.903,161.749 346.655,160.197C343.39,159.732 336.665,158.907 329.932,158.888L324.483,159.079C320.745,159.21 317.114,157.817 314.423,155.219C311.732,152.621 310.212,149.041 310.212,145.3L310.212,97C310.212,89.385 316.385,83.212 324,83.212C327.945,83.212 331.799,83.126 335.469,82.851C335.57,82.843 335.671,82.837 335.772,82.832L358.472,81.632C358.913,81.608 359.354,81.606 359.795,81.625C359.795,81.625 373.409,82.213 373.367,82.213C394.565,82.266 410.21,88.624 420.817,99.928C431.193,110.986 437.088,127.353 437.088,149.5L437.088,202C437.088,208.593 437.438,213.655 439.482,216.82C440.776,218.824 443.25,219.561 446.339,220.187C452.767,221.49 457.388,227.141 457.388,233.7L457.388,284.9C457.388,291.472 452.749,297.131 446.304,298.42C442.065,299.268 438.812,300.095 438.388,303.359L437.395,311.892C437.358,312.21 437.31,312.527 437.252,312.841C437.187,313.185 437.128,313.543 437.088,313.799ZM383.3,257.4C374.4,263.8 368.4,270 365.4,276.1C362.5,282.3 361,291.7 361,304.5L361,347.7C361,356.4 359.2,362.1 355.8,364.7C352.4,367.3 344.7,368.6 332.7,368.6L324.1,368.4L324.1,417.8L336.6,418.2L351.2,418.8L362.3,419C385.1,419 401,415.1 409.9,407.2C418.8,399.3 423.3,385.3 423.3,365.1L423.3,313C423.3,312.8 423.4,311.9 423.7,310.3L424.7,301.7C425.8,292.8 432.1,287.2 443.6,284.9L443.6,233.7C436.2,232.2 431,229.1 427.9,224.3C424.8,219.5 423.3,212 423.3,202L423.3,149.5C423.3,113.8 406.6,96 373.1,96L359.2,95.4L336.5,96.6C332.5,96.9 328.3,97 324,97L324,145.3L329.7,145.1C343.4,145.1 352,146.3 355.6,148.6C359.2,151 361,156.8 361,166L361,210.5C361,222.9 362.6,232.4 365.8,239.1C369,245.8 374.8,251.9 383.3,257.4Z" style="fill:rgb(222,222,222);"/>
                    </g>
                    <g transform="matrix(-0.362642,0,0,0.339977,11596.7,206.354)">
                        <path d="M383.3,257.4C374.8,251.9 369,245.8 365.8,239.1C362.6,232.4 361,222.9 361,210.5L361,166C361,156.8 359.2,151 355.6,148.6C352,146.3 343.4,145.1 329.7,145.1L324,145.3L324,97C328.3,97 332.5,96.9 336.5,96.6L359.2,95.4L373.1,96C406.6,96 423.3,113.8 423.3,149.5L423.3,202C423.3,212 424.8,219.5 427.9,224.3C431,229.1 436.2,232.2 443.6,233.7L443.6,284.9C432.1,287.2 425.8,292.8 424.7,301.7L423.7,310.3C423.4,311.9 423.3,312.8 423.3,313L423.3,365.1C423.3,385.3 418.8,399.3 409.9,407.2C401,415.1 385.1,419 362.3,419L351.2,418.8L336.6,418.2L324.1,417.8L324.1,368.4L332.7,368.6C344.7,368.6 352.4,367.3 355.8,364.7C359.2,362.1 361,356.4 361,347.7L361,304.5C361,291.7 362.5,282.3 365.4,276.1C368.4,270 374.4,263.8 383.3,257.4Z" style="fill:rgb(0,64,36);fill-rule:nonzero;"/>
                        <path d="M346.655,160.197C346.903,161.749 347.212,164.074 347.212,166L347.212,210.5C347.212,225.502 349.487,236.936 353.359,245.042C355.429,249.377 358.282,253.572 361.991,257.574C357.987,261.792 355.022,265.96 353.028,270.015C352.988,270.096 352.949,270.177 352.911,270.258C349.408,277.747 347.212,289.039 347.212,304.5L347.212,347.7C347.212,349.717 346.845,352.109 346.579,353.575C343.924,353.992 338.122,354.797 332.85,354.812L324.421,354.616C320.709,354.53 317.12,355.944 314.465,358.538C311.809,361.132 310.312,364.688 310.312,368.4L310.312,417.8C310.312,425.243 316.22,431.343 323.659,431.581L336.096,431.979L350.634,432.576C350.74,432.58 350.846,432.584 350.952,432.585L362.052,432.785C362.134,432.787 362.217,432.788 362.3,432.788C389.625,432.788 408.387,426.979 419.053,417.511C430.218,407.6 437.088,390.442 437.088,365.1L437.088,313.799C437.128,313.543 437.187,313.185 437.252,312.841C437.31,312.527 437.358,312.21 437.395,311.892C437.395,311.892 438.388,303.359 438.396,303.295C438.855,300.084 442.093,299.262 446.304,298.42C452.749,297.131 457.388,291.472 457.388,284.9L457.388,233.7C457.388,227.141 452.767,221.49 446.339,220.187C443.25,219.561 440.776,218.824 439.482,216.82C437.438,213.655 437.088,208.593 437.088,202L437.088,149.5C437.088,127.353 431.193,110.986 420.817,99.928C410.217,88.631 394.584,82.273 373.409,82.213L359.795,81.625C359.354,81.606 358.913,81.608 358.472,81.632L335.772,82.832C335.671,82.837 335.57,82.843 335.469,82.851C331.799,83.126 327.945,83.212 324,83.212C316.385,83.212 310.212,89.385 310.212,97L310.212,145.3C310.212,149.041 311.732,152.621 314.423,155.219C317.114,157.817 320.745,159.21 324.483,159.079C324.483,159.079 329.932,158.888 329.97,158.888C336.69,158.91 343.396,159.733 346.655,160.197ZM383.3,257.4C374.8,251.9 369,245.8 365.8,239.1C362.6,232.4 361,222.9 361,210.5L361,166C361,156.8 359.2,151 355.6,148.6C352,146.3 343.4,145.1 329.7,145.1L324,145.3L324,97C328.3,97 332.5,96.9 336.5,96.6L359.2,95.4L373.1,96C406.6,96 423.3,113.8 423.3,149.5L423.3,202C423.3,212 424.8,219.5 427.9,224.3C431,229.1 436.2,232.2 443.6,233.7L443.6,284.9C432.1,287.2 425.8,292.8 424.7,301.7L423.7,310.3C423.4,311.9 423.3,312.8 423.3,313L423.3,365.1C423.3,385.3 418.8,399.3 409.9,407.2C401,415.1 385.1,419 362.3,419L351.2,418.8L336.6,418.2L324.1,417.8L324.1,368.4L332.7,368.6C344.7,368.6 352.4,367.3 355.8,364.7C359.2,362.1 361,356.4 361,347.7L361,304.5C361,291.7 362.5,282.3 365.4,276.1C368.4,270 374.4,263.8 383.3,257.4Z" style="fill:rgb(222,222,222);"/>
                    </g>
                </g>
            </g>
        </g>
    </g>
</svg>
