<?xml version="1.0" encoding="UTF-8" standalone="no"?>
<!DOCTYPE svg PUBLIC "-//W3C//DTD SVG 1.1//EN" "http://www.w3.org/Graphics/SVG/1.1/DTD/svg11.dtd">
<svg width="100%" height="100%" viewBox="0 0 256 256" version="1.1" xmlns="http://www.w3.org/2000/svg" xmlns:xlink="http://www.w3.org/1999/xlink" xml:space="preserve" xmlns:serif="http://www.serif.com/" style="fill-rule:evenodd;clip-rule:evenodd;stroke-linejoin:round;stroke-miterlimit:2;">
    <g transform="matrix(1,0,0,1,-6400,0)">
        <g id="Programming" transform="matrix(1.6,0,0,1.70667,-11837.5,-373.411)">
            <rect x="11398.4" y="218.796" width="160" height="150" style="fill:none;"/>
            <g transform="matrix(1,0,0,1,-11.8832,2.84217e-14)">
                <g transform="matrix(0.362642,0,0,0.339977,11383.9,206.354)">
                    <path d="M383.3,257.4C374.8,251.9 369,245.8 365.8,239.1C362.6,232.4 361,222.9 361,210.5L361,166C361,156.8 359.2,151 355.6,148.6C352,146.3 343.4,145.1 329.7,145.1L324,145.3L324,97C328.3,97 332.5,96.9 336.5,96.6L359.2,95.4L373.1,96C406.6,96 423.3,113.8 423.3,149.5L423.3,202C423.3,212 424.8,219.5 427.9,224.3C431,229.1 436.2,232.2 443.6,233.7L443.6,284.9C432.1,287.2 425.8,292.8 424.7,301.7L423.7,310.3C423.4,311.9 423.3,312.8 423.3,313L423.3,365.1C423.3,385.3 418.8,399.3 409.9,407.2C401,415.1 385.1,419 362.3,419L351.2,418.8L336.6,418.2L324.1,417.8L324.1,368.4L332.7,368.6C344.7,368.6 352.4,367.3 355.8,364.7C359.2,362.1 361,356.4 361,347.7L361,304.5C361,291.7 362.5,282.3 365.4,276.1C368.4,270 374.4,263.8 383.3,257.4Z" style="fill:rgb(0,64,36);fill-rule:nonzero;"/>
                </g>
                <g transform="matrix(-0.362642,0,0,0.339977,11596.7,206.354)">
                    <path d="M383.3,257.4C374.8,251.9 369,245.8 365.8,239.1C362.6,232.4 361,222.9 361,210.5L361,166C361,156.8 359.2,151 355.6,148.6C352,146.3 343.4,145.1 329.7,145.1L324,145.3L324,97C328.3,97 332.5,96.9 336.5,96.6L359.2,95.4L373.1,96C406.6,96 423.3,113.8 423.3,149.5L423.3,202C423.3,212 424.8,219.5 427.9,224.3C431,229.1 436.2,232.2 443.6,233.7L443.6,284.9C432.1,287.2 425.8,292.8 424.7,301.7L423.7,310.3C423.4,311.9 423.3,312.8 423.3,313L423.3,365.1C423.3,385.3 418.8,399.3 409.9,407.2C401,415.1 385.1,419 362.3,419L351.2,418.8L336.6,418.2L324.1,417.8L324.1,368.4L332.7,368.6C344.7,368.6 352.4,367.3 355.8,364.7C359.2,362.1 361,356.4 361,347.7L361,304.5C361,291.7 362.5,282.3 365.4,276.1C368.4,270 374.4,263.8 383.3,257.4Z" style="fill:rgb(0,64,36);fill-rule:nonzero;"/>
                </g>
            </g>
        </g>
    </g>
</svg>
