<?xml version="1.0" encoding="UTF-8" standalone="no"?>
<!DOCTYPE svg PUBLIC "-//W3C//DTD SVG 1.1//EN" "http://www.w3.org/Graphics/SVG/1.1/DTD/svg11.dtd">
<svg width="100%" height="100%" viewBox="0 0 256 256" version="1.1" xmlns="http://www.w3.org/2000/svg" xmlns:xlink="http://www.w3.org/1999/xlink" xml:space="preserve" xmlns:serif="http://www.serif.com/" style="fill-rule:evenodd;clip-rule:evenodd;stroke-linejoin:round;stroke-miterlimit:2;">
    <g transform="matrix(1,0,0,1,-4096,0)">
        <g id="Sleeping-Hygiene" transform="matrix(1.6,0,0,1.70667,-14141.5,-373.411)">
            <rect x="11398.4" y="218.796" width="160" height="150" style="fill:none;"/>
            <g transform="matrix(0.604365,-0.059006,0.0629397,0.566592,8916.53,501.708)">
                <path d="M4152,149.882C4151.16,149.882 4150.55,149.679 4150.18,149.273C4149.81,148.868 4149.62,148.347 4149.62,147.713C4149.62,146.795 4149.92,145.825 4150.52,144.802L4165.44,118.4L4153.17,118.4C4152.39,118.4 4151.78,118.039 4151.34,117.316C4150.9,116.593 4150.68,115.755 4150.68,114.802C4150.68,113.921 4150.88,113.101 4151.26,112.342C4151.65,111.584 4152.29,111.205 4153.17,111.205L4173.59,111.205C4174.4,111.205 4175,111.407 4175.39,111.813C4175.78,112.219 4175.97,112.739 4175.97,113.374C4175.97,114.22 4175.67,115.19 4175.07,116.284L4160.15,142.686L4174.54,142.686C4175.36,142.686 4175.97,143.074 4176.4,143.85C4176.82,144.626 4177.03,145.437 4177.03,146.284C4177.03,147.131 4176.82,147.942 4176.4,148.718C4175.97,149.494 4175.36,149.882 4174.54,149.882L4152,149.882Z" style="fill:rgb(242,194,178);fill-rule:nonzero;"/>
            </g>
            <g transform="matrix(0.968539,0.0611288,-0.0652041,0.908006,7445.33,-65.0588)">
                <path d="M4152,149.882C4151.16,149.882 4150.55,149.679 4150.18,149.273C4149.81,148.868 4149.62,148.347 4149.62,147.713C4149.62,146.795 4149.92,145.825 4150.52,144.802L4165.44,118.4L4153.17,118.4C4152.39,118.4 4151.78,118.039 4151.34,117.316C4150.9,116.593 4150.68,115.755 4150.68,114.802C4150.68,113.921 4150.88,113.101 4151.26,112.342C4151.65,111.584 4152.29,111.205 4153.17,111.205L4173.59,111.205C4174.4,111.205 4175,111.407 4175.39,111.813C4175.78,112.219 4175.97,112.739 4175.97,113.374C4175.97,114.22 4175.67,115.19 4175.07,116.284L4160.15,142.686L4174.54,142.686C4175.36,142.686 4175.97,143.074 4176.4,143.85C4176.82,144.626 4177.03,145.437 4177.03,146.284C4177.03,147.131 4176.82,147.942 4176.4,148.718C4175.97,149.494 4175.36,149.882 4174.54,149.882L4152,149.882Z" style="fill:rgb(242,194,178);fill-rule:nonzero;"/>
            </g>
            <g transform="matrix(1.46575,-0.1035,0.1104,1.37414,5392.4,521.823)">
                <path d="M4152,149.882C4151.16,149.882 4150.55,149.679 4150.18,149.273C4149.81,148.868 4149.62,148.347 4149.62,147.713C4149.62,146.795 4149.92,145.825 4150.52,144.802L4165.44,118.4L4153.17,118.4C4152.39,118.4 4151.78,118.039 4151.34,117.316C4150.9,116.593 4150.68,115.755 4150.68,114.802C4150.68,113.921 4150.88,113.101 4151.26,112.342C4151.65,111.584 4152.29,111.205 4153.17,111.205L4173.59,111.205C4174.4,111.205 4175,111.407 4175.39,111.813C4175.78,112.219 4175.97,112.739 4175.97,113.374C4175.97,114.22 4175.67,115.19 4175.07,116.284L4160.15,142.686L4174.54,142.686C4175.36,142.686 4175.97,143.074 4176.4,143.85C4176.82,144.626 4177.03,145.437 4177.03,146.284C4177.03,147.131 4176.82,147.942 4176.4,148.718C4175.97,149.494 4175.36,149.882 4174.54,149.882L4152,149.882Z" style="fill:rgb(242,194,178);fill-rule:nonzero;"/>
            </g>
        </g>
    </g>
</svg>
