<?xml version="1.0" encoding="UTF-8" standalone="no"?>
<!DOCTYPE svg PUBLIC "-//W3C//DTD SVG 1.1//EN" "http://www.w3.org/Graphics/SVG/1.1/DTD/svg11.dtd">
<svg width="100%" height="100%" viewBox="0 0 256 256" version="1.1" xmlns="http://www.w3.org/2000/svg" xmlns:xlink="http://www.w3.org/1999/xlink" xml:space="preserve" xmlns:serif="http://www.serif.com/" style="fill-rule:evenodd;clip-rule:evenodd;stroke-linejoin:round;stroke-miterlimit:2;">
    <g transform="matrix(1,0,0,1,-4352,0)">
        <g transform="matrix(1.6,0,0,1.70667,-13885.5,-373.411)">
            <rect id="sleeping_hygiene" x="11398.4" y="218.796" width="160" height="150" style="fill:none;"/>
            <g id="sleeping_hygiene1" serif:id="sleeping_hygiene">
                <g>
                    <g transform="matrix(0.604365,-0.059006,0.0629397,0.566592,8916.53,501.708)">
                        <path d="M4152,149.882C4151.16,149.882 4150.55,149.679 4150.18,149.273C4149.81,148.868 4149.62,148.347 4149.62,147.713C4149.62,146.795 4149.92,145.825 4150.52,144.802L4165.44,118.4L4153.17,118.4C4152.39,118.4 4151.78,118.039 4151.34,117.316C4150.9,116.593 4150.68,115.755 4150.68,114.802C4150.68,113.921 4150.88,113.101 4151.26,112.342C4151.65,111.584 4152.29,111.205 4153.17,111.205L4173.59,111.205C4174.4,111.205 4175,111.407 4175.39,111.813C4175.78,112.219 4175.97,112.739 4175.97,113.374C4175.97,114.22 4175.67,115.19 4175.07,116.284L4160.15,142.686L4174.54,142.686C4175.36,142.686 4175.97,143.074 4176.4,143.85C4176.82,144.626 4177.03,145.437 4177.03,146.284C4177.03,147.131 4176.82,147.942 4176.4,148.718C4175.97,149.494 4175.36,149.882 4174.54,149.882L4152,149.882Z" style="fill:rgb(242,194,178);fill-rule:nonzero;"/>
                        <path d="M4151.41,126.504C4148.49,126.071 4146.09,124.503 4144.32,121.6C4143.12,119.638 4142.45,117.385 4142.45,114.802C4142.45,112.576 4142.96,110.509 4143.94,108.594C4145.83,104.901 4148.87,102.976 4153.17,102.976L4173.59,102.976C4177.16,102.976 4179.63,104.339 4181.34,106.125C4183.15,108.023 4184.2,110.403 4184.2,113.374C4184.2,115.355 4183.69,117.682 4182.29,120.241C4182.27,120.271 4182.25,120.302 4182.24,120.332L4174.25,134.457L4174.54,134.457C4178.47,134.457 4181.57,136.154 4183.62,139.91C4184.73,141.94 4185.26,144.069 4185.26,146.284C4185.26,148.499 4184.73,150.628 4183.62,152.658C4181.57,156.414 4178.47,158.11 4174.54,158.11L4152,158.11C4148.24,158.11 4145.75,156.626 4144.1,154.822C4142.4,152.959 4141.39,150.628 4141.39,147.713C4141.39,145.517 4141.97,143.153 4143.39,140.708L4151.41,126.504ZM4152,149.882L4174.54,149.882C4175.36,149.882 4175.97,149.494 4176.4,148.718C4176.82,147.942 4177.03,147.131 4177.03,146.284C4177.03,145.437 4176.82,144.626 4176.4,143.85C4175.97,143.074 4175.36,142.686 4174.54,142.686L4160.15,142.686L4175.07,116.284C4175.67,115.19 4175.97,114.22 4175.97,113.374C4175.97,112.739 4175.78,112.219 4175.39,111.813C4175,111.407 4174.4,111.205 4173.59,111.205L4153.17,111.205C4152.29,111.205 4151.65,111.584 4151.26,112.342C4150.88,113.101 4150.68,113.921 4150.68,114.802C4150.68,115.755 4150.9,116.593 4151.34,117.316C4151.78,118.039 4152.39,118.4 4153.17,118.4L4165.44,118.4L4150.52,144.802C4149.92,145.825 4149.62,146.795 4149.62,147.713C4149.62,148.347 4149.81,148.868 4150.18,149.273C4150.55,149.679 4151.16,149.882 4152,149.882Z" style="fill:rgb(67,0,0);"/>
                    </g>
                    <g transform="matrix(0.968539,0.0611288,-0.0652041,0.908006,7445.33,-65.0588)">
                        <path d="M4152,149.882C4151.16,149.882 4150.55,149.679 4150.18,149.273C4149.81,148.868 4149.62,148.347 4149.62,147.713C4149.62,146.795 4149.92,145.825 4150.52,144.802L4165.44,118.4L4153.17,118.4C4152.39,118.4 4151.78,118.039 4151.34,117.316C4150.9,116.593 4150.68,115.755 4150.68,114.802C4150.68,113.921 4150.88,113.101 4151.26,112.342C4151.65,111.584 4152.29,111.205 4153.17,111.205L4173.59,111.205C4174.4,111.205 4175,111.407 4175.39,111.813C4175.78,112.219 4175.97,112.739 4175.97,113.374C4175.97,114.22 4175.67,115.19 4175.07,116.284L4160.15,142.686L4174.54,142.686C4175.36,142.686 4175.97,143.074 4176.4,143.85C4176.82,144.626 4177.03,145.437 4177.03,146.284C4177.03,147.131 4176.82,147.942 4176.4,148.718C4175.97,149.494 4175.36,149.882 4174.54,149.882L4152,149.882Z" style="fill:rgb(242,194,178);fill-rule:nonzero;"/>
                        <path d="M4152,155.033C4149.33,155.033 4147.54,154.027 4146.37,152.746C4145.17,151.429 4144.47,149.775 4144.47,147.713C4144.47,145.995 4144.94,144.152 4146.06,142.237L4156.62,123.551L4153.17,123.551C4150.55,123.551 4148.43,122.438 4146.94,119.997C4146.03,118.499 4145.53,116.776 4145.53,114.802C4145.53,113.079 4145.92,111.478 4146.68,109.996C4148.01,107.4 4150.15,106.054 4153.17,106.054L4173.59,106.054C4176.13,106.054 4177.9,106.983 4179.11,108.253C4180.39,109.592 4181.12,111.277 4181.12,113.374C4181.12,114.931 4180.69,116.75 4179.59,118.761C4179.58,118.78 4179.57,118.799 4179.56,118.818C4179.56,118.818 4168.98,137.535 4168.98,137.535L4174.54,137.535C4177.31,137.535 4179.48,138.742 4180.92,141.384C4181.77,142.945 4182.18,144.581 4182.18,146.284C4182.18,147.987 4181.77,149.623 4180.92,151.184C4179.48,153.826 4177.31,155.033 4174.54,155.033L4152,155.033ZM4152,149.882L4174.54,149.882C4175.36,149.882 4175.97,149.494 4176.4,148.718C4176.82,147.942 4177.03,147.131 4177.03,146.284C4177.03,145.437 4176.82,144.626 4176.4,143.85C4175.97,143.074 4175.36,142.686 4174.54,142.686L4160.15,142.686L4175.07,116.284C4175.67,115.19 4175.97,114.22 4175.97,113.374C4175.97,112.739 4175.78,112.219 4175.39,111.813C4175,111.407 4174.4,111.205 4173.59,111.205L4153.17,111.205C4152.29,111.205 4151.65,111.584 4151.26,112.342C4150.88,113.101 4150.68,113.921 4150.68,114.802C4150.68,115.755 4150.9,116.593 4151.34,117.316C4151.78,118.039 4152.39,118.4 4153.17,118.4L4165.44,118.4L4150.52,144.802C4149.92,145.825 4149.62,146.795 4149.62,147.713C4149.62,148.347 4149.81,148.868 4150.18,149.273C4150.55,149.679 4151.16,149.882 4152,149.882Z" style="fill:rgb(67,0,0);"/>
                    </g>
                    <g transform="matrix(1.46575,-0.1035,0.1104,1.37414,5392.4,521.823)">
                        <path d="M4152,149.882C4151.16,149.882 4150.55,149.679 4150.18,149.273C4149.81,148.868 4149.62,148.347 4149.62,147.713C4149.62,146.795 4149.92,145.825 4150.52,144.802L4165.44,118.4L4153.17,118.4C4152.39,118.4 4151.78,118.039 4151.34,117.316C4150.9,116.593 4150.68,115.755 4150.68,114.802C4150.68,113.921 4150.88,113.101 4151.26,112.342C4151.65,111.584 4152.29,111.205 4153.17,111.205L4173.59,111.205C4174.4,111.205 4175,111.407 4175.39,111.813C4175.78,112.219 4175.97,112.739 4175.97,113.374C4175.97,114.22 4175.67,115.19 4175.07,116.284L4160.15,142.686L4174.54,142.686C4175.36,142.686 4175.97,143.074 4176.4,143.85C4176.82,144.626 4177.03,145.437 4177.03,146.284C4177.03,147.131 4176.82,147.942 4176.4,148.718C4175.97,149.494 4175.36,149.882 4174.54,149.882L4152,149.882Z" style="fill:rgb(242,194,178);fill-rule:nonzero;"/>
                        <path d="M4152,153.283C4149.95,153.283 4148.56,152.55 4147.67,151.567C4146.75,150.559 4146.22,149.29 4146.22,147.713C4146.22,146.267 4146.63,144.72 4147.57,143.108L4159.61,121.802L4153.17,121.802C4151.18,121.802 4149.57,120.944 4148.44,119.087C4147.69,117.852 4147.28,116.429 4147.28,114.802C4147.28,113.365 4147.6,112.029 4148.23,110.793C4149.24,108.821 4150.88,107.803 4153.17,107.803L4173.59,107.803C4175.54,107.803 4176.91,108.486 4177.85,109.462C4178.83,110.484 4179.37,111.773 4179.37,113.374C4179.37,114.689 4178.99,116.22 4178.06,117.92C4178.05,117.932 4178.04,117.945 4178.03,117.958L4165.98,139.285L4174.54,139.285C4176.64,139.285 4178.29,140.213 4179.38,142.221C4180.09,143.516 4180.43,144.872 4180.43,146.284C4180.43,147.696 4180.09,149.052 4179.38,150.347C4178.29,152.355 4176.64,153.283 4174.54,153.283L4152,153.283ZM4152,149.882L4174.54,149.882C4175.36,149.882 4175.97,149.494 4176.4,148.718C4176.82,147.942 4177.03,147.131 4177.03,146.284C4177.03,145.437 4176.82,144.626 4176.4,143.85C4175.97,143.074 4175.36,142.686 4174.54,142.686L4160.15,142.686L4175.07,116.284C4175.67,115.19 4175.97,114.22 4175.97,113.374C4175.97,112.739 4175.78,112.219 4175.39,111.813C4175,111.407 4174.4,111.205 4173.59,111.205L4153.17,111.205C4152.29,111.205 4151.65,111.584 4151.26,112.342C4150.88,113.101 4150.68,113.921 4150.68,114.802C4150.68,115.755 4150.9,116.593 4151.34,117.316C4151.78,118.039 4152.39,118.4 4153.17,118.4L4165.44,118.4L4150.52,144.802C4149.92,145.825 4149.62,146.795 4149.62,147.713C4149.62,148.347 4149.81,148.868 4150.18,149.273C4150.55,149.679 4151.16,149.882 4152,149.882Z" style="fill:rgb(67,0,0);"/>
                    </g>
                </g>
            </g>
        </g>
    </g>
</svg>
