<?xml version="1.0" encoding="utf-8"?>
<!-- Generator: Adobe Illustrator 18.0.0, SVG Export Plug-In . SVG Version: 6.00 Build 0)  -->
<!DOCTYPE svg PUBLIC "-//W3C//DTD SVG 1.1//EN" "http://www.w3.org/Graphics/SVG/1.1/DTD/svg11.dtd">
<svg version="1.1" id="Layer_2" xmlns="http://www.w3.org/2000/svg" xmlns:xlink="http://www.w3.org/1999/xlink" x="0px" y="0px"
	 viewBox="0 0 500 500" enable-background="new 0 0 500 500" xml:space="preserve">
<g>
	<path fill="#864B9D" d="M117.7,279.4c-8.5-1.5-17.3-4.8-26-9.4c-8.5,5.8-19,9.4-31.4,9.4c-22.5,0-33.5-13.4-33.5-28.1
		c0-13.6,7.9-21.4,17.2-27c-3.7-6.7-5.8-13.4-5.8-19.3c0-14,10.8-26.3,28.1-26.3c15.5,0,25.7,9,25.7,23c0,12.7-9.6,20.6-19.4,27
		c4.9,5.2,10.9,10.2,17,14.5c4.5-6,8.2-13.1,10.5-21.5h23.3c-3.4,11.4-8.5,22-15.8,31.8c5.8,2.8,11.5,4.6,16.1,5.2L117.7,279.4z
		 M63.7,260c3.1,0,6.3-0.9,9.6-2.4c-6.6-5.2-12.5-10.9-17.6-16.9c-2.7,2.8-4.5,5.7-4.5,9.1C51.1,255.8,55.9,260,63.7,260z M62,214.8
		c6.1-3.6,10.6-7.3,10.6-13c0-4.2-1.9-6.3-5.7-6.3c-4,0-7.6,3.3-7.6,9.6C59.4,208,60.3,211.3,62,214.8z"/>
	<path fill="#ED1D24" d="M173.6,229.2c-0.6-5.4-3.9-7.8-10.5-7.8c-5.4,0-11.1,2.1-18.8,6.3l-9-16.7c10.5-6.3,21.2-9.9,32.9-9.9
		c19.4,0,31.1,10.5,31.1,34.9v41.5h-20.9l-1.8-7.2H176c-6,5.4-12.5,9-20.6,9c-14,0-22.4-10.8-22.4-23
		C133,240.9,144.9,232.2,173.6,229.2z M164.3,259.7c4.2,0,6.6-2.1,9.3-5.1v-10.2c-12.2,1.8-16.1,5.7-16.1,9.9
		C157.5,257.8,159.9,259.7,164.3,259.7z"/>
	<path fill="#ED1D24" d="M216.3,203h20.9l1.8,9.1h0.6c6-5.8,12.2-10.9,22.4-10.9c10.2,0,16.6,4.2,20.6,11.9
		c6.1-6.3,12.8-11.9,23-11.9c16.4,0,23.6,11.9,23.6,30.5v46h-25.7v-42.7c0-9.6-2.4-11.9-7.5-11.9c-3,0-6.6,1.8-10.5,5.7v49h-25.7
		v-42.7c0-9.6-2.4-11.9-7.5-11.9c-3,0-6.6,1.8-10.5,5.7v49h-25.7V203z"/>
	<path fill="#ED1D24" d="M371.6,283.3v20.6h-25.7V203h20.9l1.8,6.9h0.6c5.5-5.1,12.8-8.7,20.3-8.7c17.6,0,29,14.9,29,37.9
		c0,25.7-15.2,40.3-31.1,40.3c-6.3,0-11.9-2.7-16.7-7.5L371.6,283.3z M381.2,258.5c6,0,11.1-4.8,11.1-19.1
		c0-12.2-3.6-17.3-10.5-17.3c-3.9,0-6.9,1.5-10.2,5.4v27.5C374.6,257.6,377.9,258.5,381.2,258.5z"/>
	<path fill="#2F6C35" d="M430.8,294.7c11.9-3.9,18.1-10.9,18.1-18.2c-0.3,0-0.7,0-1,0c-7.8,0-14.9-5.1-14.9-14c0-8.4,6.9-14,15.5-14
		c11.1,0,17,8.7,17,23.3c0,17.6-10.2,31.1-29.6,36.4L430.8,294.7z M432.8,217.6c0-8.7,6.3-15.5,14.9-15.5c8.7,0,14.9,6.9,14.9,15.5
		s-6.3,15.5-14.9,15.5C439.1,233.1,432.8,226.3,432.8,217.6z"/>
</g>
</svg>
