<?xml version="1.0" encoding="UTF-8" standalone="no"?>
<!DOCTYPE svg PUBLIC "-//W3C//DTD SVG 1.1//EN" "http://www.w3.org/Graphics/SVG/1.1/DTD/svg11.dtd">
<svg width="100%" height="100%" viewBox="0 0 256 256" version="1.1" xmlns="http://www.w3.org/2000/svg" xmlns:xlink="http://www.w3.org/1999/xlink" xml:space="preserve" xmlns:serif="http://www.serif.com/" style="fill-rule:evenodd;clip-rule:evenodd;stroke-linejoin:round;stroke-miterlimit:2;">
    <g transform="matrix(1,0,0,1,-6400,0)">
        <g transform="matrix(1.6,0,0,1.70667,-11837.5,-373.411)">
            <rect id="chess" x="11398.4" y="218.796" width="160" height="150" style="fill:none;"/>
            <g id="chess1" serif:id="chess">
                <g transform="matrix(0.625,0,0,0.585937,7238.41,220.554)">
                    <path d="M6828.97,65.513L6828.97,65.517L6817.61,62.021L6817.7,58.94L6820.46,57.928L6826.85,61.239C6826.85,61.239 6825.15,59.86 6825.2,59.216C6825.24,58.066 6828.56,55.95 6828.56,55.95C6828.56,55.95 6826.12,53.374 6830.03,49.05C6831.32,47.624 6837.53,47.67 6837.53,47.67C6837.53,47.67 6836.47,46.796 6837.57,45.048C6838.58,43.393 6840.56,44.496 6840.56,44.496C6840.56,44.496 6843,45.876 6842.17,47.578C6841.25,49.464 6839.87,48.958 6839.87,48.958C6839.87,48.958 6843.64,54.432 6843.14,56.318C6841.57,61.929 6838.12,61.239 6838.12,61.239C6838.12,61.239 6838.12,65.195 6837.16,65.839C6836.61,66.207 6834.58,65.517 6834.58,65.517L6840.79,69.197L6841.39,72.049L6838.35,73.521L6828.97,65.513ZM6859.46,81.931L6859.56,82.03L6859.14,87.826L6857.31,89.666L6844.65,77.017L6846.49,75.177L6852.23,74.718L6857.18,69.774L6862.06,74.655L6857.21,69.749L6857.4,65.425L6858.64,64.183L6858.64,64.195L6858.73,64.094L6858.73,64.091L6859.7,63.125C6859.83,62.987 6860.06,62.987 6860.2,63.125L6862.5,65.425C6862.64,65.563 6862.64,65.793 6862.5,65.931L6861.7,66.735L6863.01,68.001L6863.93,67.081C6864.07,66.943 6864.3,66.943 6864.43,67.081L6867.19,69.841C6867.33,69.979 6867.33,70.209 6867.19,70.347L6866.27,71.267L6867.59,72.578L6868.34,71.819C6868.48,71.681 6868.71,71.681 6868.85,71.819L6871.15,74.119C6871.29,74.257 6871.29,74.487 6871.15,74.625L6870.18,75.591L6870.16,75.564L6870.08,75.639L6870.09,75.637L6868.85,76.833L6864.39,77.017L6864.38,77.009L6859.46,81.931ZM6800.18,54.79L6788.77,50.384C6794.98,38.471 6800.18,39.529 6800.18,39.529C6800.18,39.529 6797.83,36.125 6798.98,33.411C6800.04,30.927 6805.19,30.651 6805.19,30.651C6805.19,30.651 6804.93,21.489 6811.9,23.726L6811.9,23.706C6812.05,23.759 6812.18,23.813 6812.31,23.869C6812.33,23.876 6812.35,23.883 6812.36,23.89L6812.36,23.892C6819.04,26.811 6812.96,33.549 6812.96,33.549C6812.96,33.549 6816.78,37.275 6815.95,39.805C6815.03,42.657 6810.99,43.623 6810.99,43.623C6810.99,43.623 6815.54,46.244 6812.32,59.262L6800.18,54.8L6800.18,54.79ZM6878.69,101.619C6876.89,102.511 6873.73,103.957 6872.3,103.925C6871.75,103.925 6870.6,103.281 6870.14,103.373C6869.22,103.603 6868.71,105.305 6867.79,105.535C6866.6,105.811 6861.31,97.807 6861.72,94.542C6861.81,93.714 6863.93,94.082 6864.62,93.576C6865.12,93.208 6865.03,91.92 6865.45,91.368C6866.21,90.36 6868.86,88.561 6870.55,87.466C6870.46,87.283 6870.41,87.077 6870.41,86.86C6870.41,86.098 6871.03,85.48 6871.79,85.48C6872.56,85.48 6873.17,86.098 6873.17,86.86C6873.17,87.622 6872.56,88.24 6871.79,88.24C6871.58,88.24 6871.37,88.19 6871.19,88.101L6868.76,92.656L6873.8,89.914C6873.69,89.717 6873.63,89.492 6873.63,89.252C6873.63,88.49 6874.25,87.872 6875.01,87.872C6875.78,87.872 6876.39,88.49 6876.39,89.252C6876.39,90.013 6875.78,90.632 6875.01,90.632C6874.7,90.632 6874.41,90.528 6874.18,90.352L6870.69,94.68L6876.36,93.297C6876.32,93.167 6876.3,93.029 6876.3,92.886C6876.3,92.124 6876.92,91.506 6877.68,91.506C6878.44,91.506 6879.06,92.124 6879.06,92.886C6879.06,93.647 6878.44,94.266 6877.68,94.266C6877.33,94.266 6877.01,94.133 6876.76,93.914L6872.39,97.807L6878.23,96.988C6878.23,96.97 6878.23,96.952 6878.23,96.933C6878.23,96.172 6878.85,95.554 6879.61,95.554C6880.38,95.554 6880.99,96.172 6880.99,96.933C6880.99,97.695 6880.38,98.313 6879.61,98.313C6879.11,98.313 6878.67,98.042 6878.43,97.638L6873.45,100.567L6878.51,100.85C6878.56,100.128 6879.16,99.555 6879.89,99.555C6880.65,99.555 6881.27,100.174 6881.27,100.935C6881.27,101.697 6880.65,102.315 6879.89,102.315C6879.38,102.315 6878.93,102.035 6878.69,101.619ZM6870.71,117.143C6870.57,116.617 6869.77,113.458 6871.2,111.607C6871.66,111.009 6873.45,111.055 6874.19,110.733C6875.2,110.273 6877.08,108.157 6878.1,107.927C6879.02,107.697 6880.72,108.663 6880.99,109.399C6881.87,111.561 6880.95,113.171 6880.95,113.171C6880.95,113.171 6882.33,112.665 6882.79,112.803C6883.44,113.007 6883.76,113.77 6883.88,114.149L6883.94,114.136C6883.94,114.136 6884.31,115.746 6883.61,116.39C6883.25,116.712 6881.87,117.172 6881.87,117.172C6881.87,117.172 6883.39,118.46 6883.48,120.76C6883.52,121.542 6882.33,122.968 6881.41,123.152C6880.4,123.382 6877.73,121.956 6876.62,121.956C6875.84,121.956 6874.23,122.692 6873.54,122.324C6871.51,121.226 6870.84,117.901 6870.71,117.143ZM6887.07,115.7L6885.91,115.93L6885.69,114.78L6884.53,115.056L6884.17,113.492L6885.36,113.263L6885.09,112.113L6886.24,111.837L6886.51,112.987L6888.03,112.665L6888.35,114.182L6886.84,114.55L6887.07,115.7Z" style="fill:rgb(177,68,98);"/>
                </g>
                <g transform="matrix(0.287483,0,0,0.265309,11403.9,229.42)">
                    <path d="M142.6,471.5C142.6,471.5 161.7,392.4 172.9,370.5C183.8,349.2 230.1,294.2 230.1,294.2C230.1,294.2 199.8,314.1 186.4,315.5C162.1,318 170.3,380.5 124.2,390.9C106.3,395 100.6,368.3 100.6,368.3C100.6,368.3 50.1,373.9 36.7,339.1C18.5,292 117.5,143.4 117.5,143.4C117.5,143.4 98.5,80.3 115.8,69.9C134.1,58.9 179.7,110.9 179.7,110.9C179.7,110.9 192,53.6 213.3,53.6C235.2,53.6 240.2,110.9 240.2,110.9C240.2,110.9 341.1,114.3 405.1,202.8C454,270.5 450.5,471.5 450.5,471.5L142.6,471.5Z" style="fill:rgb(60,36,21);fill-opacity:0.4;fill-rule:nonzero;"/>
                </g>
                <g transform="matrix(0.287483,0,0,0.269516,11403.3,228.023)">
                    <path d="M143.6,455C143.6,455 162.7,378.6 173.9,356.8C184.8,335.5 231.1,281.9 231.1,281.9C231.1,281.9 200.8,302.5 187.4,303.9C163.1,306.4 171.3,369.2 125.2,379.7C107.3,383.8 101.6,357.3 101.6,357.3C101.6,357.3 51.1,363 37.7,328.2C19.5,281.1 118.5,132.5 118.5,132.5C118.5,132.5 99.5,69.4 116.8,59C135.1,48 180.7,100 180.7,100C180.7,100 193,42.7 214.3,42.7C236.2,42.7 241.2,100 241.2,100C241.2,100 342.1,100.7 406.1,189.2C455,256.8 451.5,455 451.5,455L143.6,455Z" style="fill:white;fill-rule:nonzero;stroke:rgb(19,19,19);stroke-width:17.39px;"/>
                </g>
                <g transform="matrix(0.287483,0,0,0.269516,11403.3,228.023)">
                    <circle cx="156.5" cy="178.9" r="23.6" style="fill:rgb(147,147,147);"/>
                </g>
                <g transform="matrix(0.287483,0,0,0.269516,11403.3,228.023)">
                    <path d="M297.6,85.3L271.7,75.3C285.2,49.4 296.5,51.7 296.5,51.7C296.5,51.7 291.4,44.3 293.9,38.4C296.2,33 307.4,32.4 307.4,32.4C307.4,32.4 306.8,11.6 323,17.7" style="fill:white;fill-rule:nonzero;"/>
                </g>
                <g transform="matrix(0.287483,0,0,0.269516,11403.3,228.023)">
                    <path d="M296.5,84.9L322.9,94.6C329.9,66.3 320,60.6 320,60.6C320,60.6 328.8,58.5 330.8,52.3C332.6,46.8 324.3,38.7 324.3,38.7C324.3,38.7 338.1,23.4 322,17.3" style="fill:rgb(211,211,211);fill-rule:nonzero;"/>
                </g>
                <g transform="matrix(0.287483,0,0,0.269516,11403.3,228.023)">
                    <path d="M384.3,62.5C384.3,62.5 380,60.1 377.8,63.7C375.4,67.5 377.7,69.4 377.7,69.4C377.7,69.4 364.2,69.3 361.4,72.4C352.9,81.8 358.2,87.4 358.2,87.4C358.2,87.4 351,92 350.9,94.5C350.8,95.9 354.5,98.9 354.5,98.9L340.6,91.7L334.6,93.9L334.4,100.6L359.1,108.2" style="fill:white;fill-rule:nonzero;"/>
                </g>
                <g transform="matrix(0.287483,0,0,0.269516,11403.3,228.023)">
                    <path d="M384.3,62.5C384.3,62.5 389.6,65.5 387.8,69.2C385.8,73.3 382.8,72.2 382.8,72.2C382.8,72.2 391,84.1 389.9,88.2C386.5,100.4 379,98.9 379,98.9C379,98.9 379,107.5 376.9,108.9C375.7,109.7 371.3,108.2 371.3,108.2L384.8,116.2L386.1,122.4L379.5,125.6L359,108.1" style="fill:rgb(211,211,211);fill-rule:nonzero;"/>
                </g>
                <g transform="matrix(0.287483,0,0,0.269516,11403.3,228.023)">
                    <path d="M436.1,133.2L445.8,132.8L449.1,129.6L433.1,113.6L430.1,110.7L424.2,104.7L421,108L420.5,117.4" style="fill:white;fill-rule:nonzero;"/>
                </g>
                <g transform="matrix(0.20328,0.190575,-0.20328,0.190575,11465.5,157.74)">
                    <rect x="411.8" y="123.1" width="22.2" height="15.2" style="fill:rgb(211,211,211);"/>
                </g>
                <g transform="matrix(0.287483,0,0,0.269516,11403.3,228.023)">
                    <path d="M436.3,133L425.5,143.8" style="fill:none;fill-rule:nonzero;"/>
                </g>
                <g transform="matrix(0.287483,0,0,0.269516,11403.3,228.023)">
                    <path d="M409.8,128.1L420.6,117.3" style="fill:none;fill-rule:nonzero;"/>
                </g>
                <g transform="matrix(0.287483,0,0,0.269516,11403.3,228.023)">
                    <path d="M409.7,128.2L397.2,129.2L393.2,133.2L420.7,160.7L424.7,156.7L425.6,144.1" style="fill:white;fill-rule:nonzero;"/>
                </g>
                <g transform="matrix(0.287483,0,0,0.269516,11403.3,228.023)">
                    <path d="M423.8,105.1L425.9,103C426.2,102.7 426.7,102.7 427,103L432,108C432.3,108.3 432.3,108.8 432,109.1L429.9,111.2" style="fill:white;fill-rule:nonzero;"/>
                </g>
                <g transform="matrix(0.287483,0,0,0.269516,11403.3,228.023)">
                    <path d="M442.6,124L444.7,121.9C445,121.6 445.5,121.6 445.8,121.9L450.8,126.9C451.1,127.2 451.1,127.7 450.8,128L448.7,130.1" style="fill:white;fill-rule:nonzero;"/>
                </g>
                <g transform="matrix(0.287483,0,0,0.269516,11403.3,228.023)">
                    <path d="M432.6,114.1L435.1,111.6C435.4,111.3 435.9,111.3 436.2,111.6L442.2,117.6C442.5,117.9 442.5,118.4 442.2,118.7L439.7,121.2" style="fill:white;fill-rule:nonzero;"/>
                </g>
                <g transform="matrix(0.287483,0,0,0.269516,11403.3,228.023)">
                    <path d="M423.6,105.3L420.9,108L420.5,117.4" style="fill:white;fill-rule:nonzero;"/>
                </g>
                <g transform="matrix(0.287483,0,0,0.269516,11403.3,228.023)">
                    <path d="M432.7,114.1L430,111.4" style="fill:none;fill-rule:nonzero;"/>
                </g>
                <g transform="matrix(0.287483,0,0,0.269516,11403.3,228.023)">
                    <path d="M442.5,123.9L439.8,121.2" style="fill:none;fill-rule:nonzero;"/>
                </g>
                <g transform="matrix(0.287483,0,0,0.269516,11403.3,228.023)">
                    <path d="M436.2,133.1L445.8,132.8L448.5,130.2" style="fill:white;fill-rule:nonzero;"/>
                </g>
                <g transform="matrix(0.287483,0,0,0.269516,11403.3,228.023)">
                    <path d="M452.7,153.9C452.7,153.9 440.9,161.1 438.4,164.4C437.5,165.6 437.7,168.4 436.6,169.2C435.1,170.3 430.5,169.5 430.3,171.3C429.4,178.4 440.9,195.8 443.5,195.2C445.5,194.7 446.6,191 448.6,190.5C449.6,190.3 452.1,191.7 453.3,191.7C457.8,191.8 470.1,185.2 470.1,185.2L455.8,184.4L469.9,176.1L453.5,178.4L465.4,167.8L449.8,171.6L459.4,159.7L445.6,167.2L452.7,153.9Z" style="fill:white;fill-rule:nonzero;"/>
                </g>
                <g transform="matrix(0.287483,0,0,0.269516,11403.3,228.023)">
                    <circle cx="452.2" cy="154.6" r="3" style="fill:rgb(147,147,147);"/>
                </g>
                <g transform="matrix(0.287483,0,0,0.269516,11403.3,228.023)">
                    <circle cx="459.2" cy="159.8" r="3" style="fill:rgb(147,147,147);"/>
                </g>
                <g transform="matrix(0.287483,0,0,0.269516,11403.3,228.023)">
                    <circle cx="465" cy="167.7" r="3" style="fill:rgb(147,147,147);"/>
                </g>
                <g transform="matrix(0.287483,0,0,0.269516,11403.3,228.023)">
                    <circle cx="469.2" cy="176.5" r="3" style="fill:rgb(147,147,147);"/>
                </g>
                <g transform="matrix(0.287483,0,0,0.269516,11403.3,228.023)">
                    <circle cx="469.8" cy="185.2" r="3" style="fill:rgb(147,147,147);"/>
                </g>
                <g transform="matrix(0.287483,0,0,0.269516,11403.3,228.023)">
                    <path d="M485.4,217.3L484.9,214.8L488.2,214L487.5,210.7L484.2,211.4L483.6,208.9L481.1,209.5L481.7,212L479.1,212.5L479.9,215.9L482.4,215.3L482.9,217.8L485.4,217.3Z" style="fill:rgb(147,147,147);fill-rule:nonzero;"/>
                </g>
                <g transform="matrix(0.287483,0,0,0.269516,11403.3,228.023)">
                    <path d="M449.8,220.1C449.8,220.1 451,229 456,231.7C457.5,232.5 461,230.9 462.7,230.9C465.1,230.9 470.9,234 473.1,233.5C475.1,233.1 477.7,230 477.6,228.3C477.4,223.3 474.1,220.5 474.1,220.5C474.1,220.5 477.1,219.5 477.9,218.8C479.4,217.4 478.6,213.9 478.6,213.9" style="fill:rgb(211,211,211);fill-rule:nonzero;"/>
                </g>
                <g transform="matrix(0.287483,0,0,0.269516,11403.3,228.023)">
                    <path d="M449.9,220.6C449.9,220.6 447.5,212.8 450.9,208.4C451.9,207.1 455.8,207.2 457.4,206.5C459.6,205.5 463.7,200.9 465.9,200.4C467.9,199.9 471.6,202 472.2,203.6C474.1,208.3 472.1,211.8 472.1,211.8C472.1,211.8 475.1,210.7 476.1,211C478,211.6 478.6,214.4 478.6,214.4" style="fill:white;fill-rule:nonzero;"/>
                </g>
            </g>
        </g>
    </g>
</svg>
