<?xml version="1.0" encoding="utf-8"?>
<!-- Generator: Adobe Illustrator 18.0.0, SVG Export Plug-In . SVG Version: 6.00 Build 0)  -->
<!DOCTYPE svg PUBLIC "-//W3C//DTD SVG 1.1//EN" "http://www.w3.org/Graphics/SVG/1.1/DTD/svg11.dtd">
<svg version="1.1" id="Layer_1" xmlns="http://www.w3.org/2000/svg" xmlns:xlink="http://www.w3.org/1999/xlink" x="0px" y="0px"
	 viewBox="0 0 500 500" enable-background="new 0 0 500 500" xml:space="preserve">
<path fill="#AA86B2" d="M268,488.3h-30c-19.3,0-35-14.3-35-31.7l-22-146.9c0-17.5,15.8-31.7,35-31.7h73c19.3,0,35,14.3,35,31.7
	l-21,146.9C303,474,287.3,488.3,268,488.3z"/>
<path fill="#2D2830" d="M469,261.3H36c-6.6,0-12-5.4-12-12v-25c0-6.6,5.4-12,12-12h433c6.6,0,12,5.4,12,12v25
	C481,255.9,475.6,261.3,469,261.3z"/>
<path fill="#CEAED3" d="M333.5,333h-162c-19.3,0-35-15.8-35-35V161c0-19.3,15.8-35,35-35h162c19.3,0,35,15.8,35,35v137
	C368.5,317.3,352.8,333,333.5,333z"/>
<circle fill="#EAE2B9" cx="256" cy="85" r="73"/>
<path fill="#AA86B2" d="M139.5,272.3H137c-6.6,0-12-5.4-12-12v-47c0-6.6,5.4-12,12-12h2.5c6.6,0,12,5.4,12,12v47
	C151.5,266.9,146.1,272.3,139.5,272.3z"/>
<path fill="#AA86B2" d="M369.8,272.3h-2.5c-6.6,0-12-5.4-12-12v-47c0-6.6,5.4-12,12-12h2.5c6.6,0,12,5.4,12,12v47
	C381.8,266.9,376.4,272.3,369.8,272.3z"/>
</svg>
