<?xml version="1.0" encoding="UTF-8" standalone="no"?>
<!DOCTYPE svg PUBLIC "-//W3C//DTD SVG 1.1//EN" "http://www.w3.org/Graphics/SVG/1.1/DTD/svg11.dtd">
<svg width="100%" height="100%" viewBox="0 0 256 256" version="1.1" xmlns="http://www.w3.org/2000/svg" xmlns:xlink="http://www.w3.org/1999/xlink" xml:space="preserve" xmlns:serif="http://www.serif.com/" style="fill-rule:evenodd;clip-rule:evenodd;stroke-linejoin:round;stroke-miterlimit:2;">
    <g transform="matrix(1,0,0,1,-256,0)">
        <g transform="matrix(1.00787,0,0,1.024,221.981,-1453.73)">
            <rect id="foosball" x="33.753" y="1419.66" width="254" height="250" style="fill:none;"/>
            <g id="foosball1" serif:id="foosball">
                <g transform="matrix(0.945254,0,0,0.930368,-202.225,1425.57)">
                    <path d="M349.932,169.502L343.425,169.502C333.757,169.502 325.893,161.587 325.893,151.969L325.893,83.342C325.893,73.675 333.807,65.81 343.425,65.81L353.748,65.81C349.763,59.954 347.432,52.883 347.432,45.272C347.432,25.09 363.818,8.705 384,8.705C404.182,8.705 420.568,25.09 420.568,45.272C420.568,52.883 418.237,59.954 414.252,65.81L424.575,65.81C434.243,65.81 442.107,73.725 442.107,83.342L442.107,151.969C442.107,161.637 434.243,169.502 424.575,169.502L418.148,169.502L409.297,231.416C409.297,240.132 401.432,247.295 391.764,247.295L376.737,247.295C367.069,247.295 359.204,240.132 359.204,231.416L349.932,169.502Z" style="fill:rgb(170,134,178);"/>
                    <path d="M340.736,57.553C339.628,53.648 339.035,49.529 339.035,45.272C339.035,20.455 359.183,0.307 384,0.307C408.817,0.307 428.965,20.455 428.965,45.272C428.965,49.529 428.372,53.648 427.264,57.552C440.304,58.91 450.505,70.021 450.505,83.342L450.505,151.969C450.505,165.981 439.335,177.431 425.432,177.885C423.114,194.098 417.684,232.082 417.684,232.079C417.307,244.88 406.036,255.693 391.764,255.693L376.737,255.693C362.475,255.693 351.211,244.896 350.818,232.114L342.697,177.889C328.734,177.5 317.495,165.951 317.495,151.969L317.495,83.342C317.495,69.956 327.755,58.908 340.736,57.553ZM349.932,169.502L359.204,231.416C359.204,240.132 367.069,247.295 376.737,247.295L391.764,247.295C401.432,247.295 409.297,240.132 409.297,231.416L418.148,169.502L424.575,169.502C434.243,169.502 442.107,161.637 442.107,151.969L442.107,83.342C442.107,73.725 434.243,65.81 424.575,65.81L414.252,65.81C418.237,59.954 420.568,52.883 420.568,45.272C420.568,25.09 404.182,8.705 384,8.705C363.818,8.705 347.432,25.09 347.432,45.272C347.432,52.883 349.763,59.954 353.748,65.81L343.425,65.81C333.807,65.81 325.893,73.675 325.893,83.342L325.893,151.969C325.893,161.587 333.757,169.502 343.425,169.502L349.932,169.502Z"/>
                </g>
                <g transform="matrix(0.473502,0,0,0.466046,41.1935,1428.08)">
                    <path d="M469,261.3L36,261.3C29.4,261.3 24,255.9 24,249.3L24,224.3C24,217.7 29.4,212.3 36,212.3L469,212.3C475.6,212.3 481,217.7 481,224.3L481,249.3C481,255.9 475.6,261.3 469,261.3Z" style="fill:rgb(45,40,48);fill-rule:nonzero;"/>
                </g>
                <g transform="matrix(0.473502,0,0,0.466046,39.2881,1428.08)">
                    <path d="M139.5,272.3L137,272.3C130.4,272.3 125,266.9 125,260.3L125,213.3C125,206.7 130.4,201.3 137,201.3L139.5,201.3C146.1,201.3 151.5,206.7 151.5,213.3L151.5,260.3C151.5,266.9 146.1,272.3 139.5,272.3Z" style="fill:rgb(170,134,178);fill-rule:nonzero;"/>
                </g>
                <g transform="matrix(0.473502,0,0,0.466046,41.1935,1428.08)">
                    <path d="M268,488.3L238,488.3C218.7,488.3 203,474 203,456.6L181,309.7C181,292.2 196.8,278 216,278L289,278C308.3,278 324,292.3 324,309.7L303,456.6C303,474 287.3,488.3 268,488.3Z" style="fill:rgb(170,134,178);fill-rule:nonzero;"/>
                </g>
                <g transform="matrix(0.473502,0,0,0.466046,41.1935,1428.08)">
                    <path d="M369.8,272.3L367.3,272.3C360.7,272.3 355.3,266.9 355.3,260.3L355.3,213.3C355.3,206.7 360.7,201.3 367.3,201.3L369.8,201.3C376.4,201.3 381.8,206.7 381.8,213.3L381.8,260.3C381.8,266.9 376.4,272.3 369.8,272.3Z" style="fill:rgb(170,134,178);fill-rule:nonzero;"/>
                </g>
                <g transform="matrix(0.473502,0,0,0.466046,41.1935,1428.08)">
                    <path d="M333.5,333L171.5,333C152.2,333 136.5,317.2 136.5,298L136.5,161C136.5,141.7 152.3,126 171.5,126L333.5,126C352.8,126 368.5,141.8 368.5,161L368.5,298C368.5,317.3 352.8,333 333.5,333Z" style="fill:rgb(206,174,211);fill-rule:nonzero;"/>
                </g>
                <g transform="matrix(0.473502,0,0,0.466046,39.5363,1428.08)">
                    <circle cx="256" cy="85" r="73" style="fill:rgb(234,226,185);"/>
                </g>
            </g>
        </g>
    </g>
</svg>
