<?xml version="1.0" encoding="UTF-8" standalone="no"?>
<!DOCTYPE svg PUBLIC "-//W3C//DTD SVG 1.1//EN" "http://www.w3.org/Graphics/SVG/1.1/DTD/svg11.dtd">
<svg width="100%" height="100%" viewBox="0 0 256 256" version="1.1" xmlns="http://www.w3.org/2000/svg" xmlns:xlink="http://www.w3.org/1999/xlink" xml:space="preserve" xmlns:serif="http://www.serif.com/" style="fill-rule:evenodd;clip-rule:evenodd;stroke-linecap:round;stroke-linejoin:round;stroke-miterlimit:1.5;">
    <g transform="matrix(1,0,0,1,-1280,-512)">
        <g transform="matrix(1.6,0,0,1.70667,-16957.5,138.589)">
            <rect id="Character" x="11398.4" y="218.796" width="160" height="150" style="fill:none;"/>
            <g id="Character1" serif:id="Character">
                <g transform="matrix(1,0,0,1,0.111681,18.3594)">
                    <g transform="matrix(0.580931,0,0,0.544623,10662.8,-67.4571)">
                        <path d="M1325.07,674.928C1325.07,631.465 1360.36,596.178 1403.82,596.178C1447.29,596.178 1482.57,631.465 1482.57,674.928C1482.57,718.391 1325.07,718.391 1325.07,674.928Z" style="fill:rgb(132,69,157);stroke:black;stroke-width:8.61px;"/>
                    </g>
                    <g transform="matrix(0.348774,-1.09555e-17,1.16858e-17,-0.416434,10988.7,520.045)">
                        <path d="M1325.07,674.928C1325.07,631.465 1360.36,596.178 1403.82,596.178C1447.29,596.178 1482.57,631.465 1482.57,674.928C1482.57,718.391 1325.07,718.391 1325.07,674.928Z" style="fill:rgb(234,184,255);stroke:black;stroke-width:12.52px;"/>
                    </g>
                    <g transform="matrix(0.103571,-1.10361e-17,1.17718e-17,-0.187214,11323.7,367.307)">
                        <path d="M1325.07,674.928C1325.07,631.465 1360.36,596.178 1403.82,596.178C1447.29,596.178 1482.57,631.465 1482.57,674.928C1482.57,718.391 1325.07,718.391 1325.07,674.928Z" style="fill:rgb(25,25,25);"/>
                    </g>
                    <g transform="matrix(0.0606666,-6.46436e-18,6.89532e-18,-0.10966,11384,316.754)">
                        <path d="M1325.07,674.928C1325.07,631.465 1363.79,672.764 1407.26,672.764C1450.72,672.764 1482.57,631.465 1482.57,674.928C1482.57,718.391 1325.07,718.391 1325.07,674.928Z" style="fill:white;"/>
                    </g>
                    <g transform="matrix(0.103571,-1.10361e-17,1.17718e-17,-0.187214,11342.1,367.307)">
                        <path d="M1325.07,674.928C1325.07,631.465 1360.36,596.178 1403.82,596.178C1447.29,596.178 1482.57,631.465 1482.57,674.928C1482.57,718.391 1325.07,718.391 1325.07,674.928Z" style="fill:rgb(25,25,25);"/>
                    </g>
                    <g transform="matrix(0.0606666,-6.46436e-18,6.89532e-18,-0.10966,11402.3,316.754)">
                        <path d="M1325.07,674.928C1325.07,631.465 1363.79,672.764 1407.26,672.764C1450.72,672.764 1482.57,631.465 1482.57,674.928C1482.57,718.391 1325.07,718.391 1325.07,674.928Z" style="fill:white;"/>
                    </g>
                </g>
                <g transform="matrix(1,0,0,1,-0.417151,7.91016)">
                    <g transform="matrix(0.625,0,0,0.585937,11398,-72.7082)">
                        <path d="M37.872,708.319L38.167,673.654C83.625,662.163 112.549,667.479 128.667,690.654L129.667,699.654L130.167,699.654L131.167,690.654C147.285,667.479 176.21,662.163 221.667,673.654L221.84,708.867L145.667,709.154C145.667,709.154 139.891,721.722 129.667,721.487C120.779,721.282 113.001,709.154 113.001,709.154L37.872,708.319Z" style="fill:rgb(234,184,255);"/>
                    </g>
                    <g transform="matrix(0.620363,0.0712386,-0.0690491,0.528483,11447.9,-43.2115)">
                        <path d="M128.001,700.154C128.001,700.154 107.157,687.639 92.001,686.154C79.019,684.881 61.334,688.82 61.334,688.82" style="fill:none;stroke:black;stroke-width:4.19px;"/>
                    </g>
                    <g transform="matrix(-0.620363,0.0712386,0.0690491,0.528483,11511.3,-43.2115)">
                        <path d="M128.001,700.154C128.001,700.154 107.157,687.639 92.001,686.154C79.019,684.881 61.334,688.82 61.334,688.82" style="fill:none;stroke:black;stroke-width:4.19px;"/>
                    </g>
                    <g transform="matrix(0.623864,-0.035319,0.0376736,0.584872,11372.7,-67.1321)">
                        <path d="M128.001,700.154C128.001,700.154 103.03,689.712 87.962,687.513C70.548,684.97 54.147,688.386 54.147,688.386" style="fill:none;stroke:black;stroke-width:4px;"/>
                    </g>
                    <g transform="matrix(-0.623864,-0.035319,-0.0376736,0.584872,11586.5,-67.1321)">
                        <path d="M128.001,700.154C128.001,700.154 103.03,689.712 87.962,687.513C70.548,684.97 54.147,688.386 54.147,688.386" style="fill:none;stroke:black;stroke-width:4px;"/>
                    </g>
                    <g transform="matrix(0.625,0,0,0.585937,11398.4,-73.2941)">
                        <path d="M130.167,699.654L131.167,690.654C147.285,667.479 176.21,662.163 221.667,673.654L222.167,693.654" style="fill:none;stroke:black;stroke-width:8px;"/>
                    </g>
                    <g transform="matrix(-0.625,0,0,0.585937,11560.8,-73.2941)">
                        <path d="M130.167,699.654L131.167,690.654C147.285,667.479 176.21,662.163 221.667,673.654L222.167,693.654" style="fill:none;stroke:black;stroke-width:8px;"/>
                    </g>
                    <g transform="matrix(0.625,0,0,0.585937,11398.4,-73.2941)">
                        <path d="M23.001,708.154L113.001,709.154C113.001,709.154 120.779,721.282 129.667,721.487C139.891,721.722 145.667,709.154 145.667,709.154L234.334,708.82" style="fill:none;stroke:black;stroke-width:8px;"/>
                    </g>
                </g>
            </g>
        </g>
    </g>
</svg>
