<?xml version="1.0" encoding="UTF-8" standalone="no"?>
<!DOCTYPE svg PUBLIC "-//W3C//DTD SVG 1.1//EN" "http://www.w3.org/Graphics/SVG/1.1/DTD/svg11.dtd">
<svg width="100%" height="100%" viewBox="0 0 256 256" version="1.1" xmlns="http://www.w3.org/2000/svg" xmlns:xlink="http://www.w3.org/1999/xlink" xml:space="preserve" xmlns:serif="http://www.serif.com/" style="fill-rule:evenodd;clip-rule:evenodd;stroke-miterlimit:10;">
    <g transform="matrix(1,0,0,1,-512,0)">
        <g transform="matrix(1.00787,0,0,1.024,477.981,-1453.73)">
            <rect id="pandaqi_tutorials" x="33.753" y="1419.66" width="254" height="250" style="fill:none;"/>
            <clipPath id="_clip1">
                <rect id="pandaqi_tutorials1" serif:id="pandaqi_tutorials" x="33.753" y="1419.66" width="254" height="250"/>
            </clipPath>
            <g clip-path="url(#_clip1)">
                <g transform="matrix(0.913864,0,0,0.899472,-424.119,1429.53)">
                    <path d="M638.516,174.655L572.536,244.087C564.208,252.915 550.195,253.275 541.296,244.932L527.533,231.855C518.72,223.542 518.283,209.375 526.732,200.515C526.732,200.515 577.626,146.918 592.251,131.516C586.577,119.884 583.391,106.819 583.391,93.016C583.391,44.451 622.82,5.023 671.385,5.023C719.95,5.023 759.378,44.451 759.378,93.016C759.378,141.581 719.95,181.009 671.385,181.009C659.767,181.009 648.673,178.753 638.516,174.655ZM643.257,141.878C651.537,146.659 661.144,149.395 671.385,149.395C702.501,149.395 727.764,124.132 727.764,93.016C727.764,61.9 702.501,36.637 671.385,36.637C640.268,36.637 615.006,61.9 615.006,93.016C615.006,104.523 618.461,115.23 624.389,124.154C625.475,124.868 626.512,125.689 627.484,126.616L641.199,139.648C641.945,140.352 642.631,141.097 643.257,141.878ZM671.385,58.767C668.477,58.767 666.116,56.406 666.116,53.498C666.116,50.59 668.477,48.229 671.385,48.229C696.107,48.229 716.172,68.294 716.172,93.016C716.172,95.924 713.811,98.285 710.903,98.285C707.995,98.285 705.634,95.924 705.634,93.016C705.634,74.111 690.29,58.767 671.385,58.767Z" style="fill:rgb(251,209,218);stroke:rgb(91,0,19);stroke-width:8px;"/>
                </g>
            </g>
        </g>
    </g>
</svg>
