<?xml version="1.0" encoding="UTF-8" standalone="no"?>
<!DOCTYPE svg PUBLIC "-//W3C//DTD SVG 1.1//EN" "http://www.w3.org/Graphics/SVG/1.1/DTD/svg11.dtd">
<svg width="100%" height="100%" viewBox="0 0 256 256" version="1.1" xmlns="http://www.w3.org/2000/svg" xmlns:xlink="http://www.w3.org/1999/xlink" xml:space="preserve" xmlns:serif="http://www.serif.com/" style="fill-rule:evenodd;clip-rule:evenodd;stroke-linejoin:round;stroke-miterlimit:2;">
    <g transform="matrix(1,0,0,1,-4096,0)">
        <g transform="matrix(1.6,0,0,1.70667,-14141.5,-373.411)">
            <rect id="fitness_and_exercise" x="11398.4" y="218.796" width="160" height="150" style="fill:none;"/>
            <g id="fitness_and_exercise1" serif:id="fitness_and_exercise">
                <g transform="matrix(0.831163,0,0,0.800905,1944.35,65.9917)">
                    <g transform="matrix(0.625,0,0,0.585937,8998.41,218.796)">
                        <path d="M3844.48,126.549L3972.48,101.549L4064.98,85.049C4064.98,85.049 4070.98,87.049 4070.98,93.049C4070.98,99.049 4068.48,102.049 4068.48,102.049L3974.98,122.049L3845.98,147.049C3845.98,147.049 3840.48,142.549 3840.48,136.549C3840.48,130.549 3844.48,126.549 3844.48,126.549Z" style="fill:rgb(249,211,255);"/>
                        <path d="M3842.4,115.098L3970.4,90.098C3970.46,90.087 3970.52,90.076 3970.58,90.066L4063.08,73.566C4064.86,73.248 4066.69,73.382 4068.41,73.956C4068.41,73.956 4082.21,78.925 4082.21,93.049C4082.21,104.25 4076.97,109.67 4076.97,109.67C4075.36,111.61 4073.17,112.942 4070.75,113.46L3977.25,133.46C3977.18,133.474 3977.11,133.488 3977.04,133.502L3848.04,158.502C3844.86,159.119 3841.57,158.279 3839.03,156.198C3839.03,156.198 3829.25,147.651 3829.25,136.549C3829.25,125.497 3836.69,118.159 3836.69,118.159C3838.27,116.582 3840.25,115.519 3842.4,115.098ZM3844.48,126.549C3844.48,126.549 3840.48,130.549 3840.48,136.549C3840.48,142.549 3845.98,147.049 3845.98,147.049L3974.98,122.049L4068.48,102.049C4068.48,102.049 4070.98,99.049 4070.98,93.049C4070.98,87.049 4064.98,85.049 4064.98,85.049L3972.48,101.549L3844.48,126.549Z"/>
                    </g>
                    <g transform="matrix(0.435393,-0.0143312,0.0213276,0.569486,9815.88,261.436)">
                        <path d="M3901.77,84.273C3903.28,84.151 3911.12,82.487 3913.77,82.273C3929.08,81.038 3942.95,97.857 3944.72,119.81C3946.49,141.762 3935.5,160.588 3920.19,161.824C3918.68,161.946 3910.84,163.61 3908.19,163.824C3892.88,165.06 3879.01,148.24 3877.24,126.287C3875.47,104.335 3886.46,85.509 3901.77,84.273Z" style="fill:rgb(209,66,232);"/>
                        <path d="M3899.4,72.423C3900.69,72.187 3909.58,70.564 3912.07,70.363C3923.08,69.475 3934.21,72.948 3943.17,80.957C3952.33,89.155 3959.5,102.909 3960.8,119.061C3962.09,135.012 3957.38,149.536 3949.75,158.978C3942.67,167.734 3932.86,172.67 3922.56,173.674C3921.27,173.91 3912.38,175.533 3909.89,175.734C3898.88,176.622 3887.75,173.149 3878.79,165.14C3869.63,156.942 3862.46,143.188 3861.16,127.036C3859.87,111.085 3864.58,96.561 3872.21,87.12C3879.29,78.363 3889.1,73.427 3899.4,72.423ZM3901.77,84.273C3886.46,85.509 3875.47,104.335 3877.24,126.287C3879.01,148.24 3892.88,165.06 3908.19,163.824C3910.84,163.61 3918.68,161.946 3920.19,161.824C3935.5,160.588 3946.49,141.762 3944.72,119.81C3942.95,97.857 3929.08,81.038 3913.77,82.273C3911.12,82.487 3903.28,84.151 3901.77,84.273Z"/>
                    </g>
                    <g transform="matrix(0.460345,-0.0151525,0.0213276,0.569486,9695.04,269.12)">
                        <path d="M3912.19,62.741C3913.5,62.636 3922.34,60.512 3925.69,60.241C3948.52,58.399 3969.2,83.478 3971.85,116.211C3974.49,148.943 3958.1,177.013 3935.27,178.856C3933.96,178.961 3925.12,181.085 3921.77,181.356C3898.93,183.198 3878.26,158.119 3875.61,125.387C3872.97,92.654 3889.36,64.584 3912.19,62.741Z" style="fill:rgb(210,130,223);"/>
                        <path d="M3909.79,50.904C3911.53,50.542 3921.07,48.575 3924.18,48.324C3937.83,47.222 3951.39,51.861 3962.49,61.797C3975.38,73.324 3985.22,92.709 3987.05,115.421C3988.87,137.96 3982.4,158.504 3971.62,171.844C3962.68,182.892 3950.64,189.405 3937.67,190.693C3935.93,191.055 3926.39,193.022 3923.28,193.273C3909.63,194.375 3896.07,189.736 3884.97,179.8C3872.08,168.273 3862.24,148.888 3860.41,126.176C3858.59,103.637 3865.06,83.093 3875.85,69.753C3884.78,58.705 3896.82,52.192 3909.79,50.904ZM3912.19,62.741C3889.36,64.584 3872.97,92.654 3875.61,125.387C3878.26,158.119 3898.93,183.198 3921.77,181.356C3925.12,181.085 3933.96,178.961 3935.27,178.856C3958.1,177.013 3974.49,148.943 3971.85,116.211C3969.2,83.478 3948.52,58.399 3925.69,60.241C3922.34,60.512 3913.5,62.636 3912.19,62.741Z"/>
                    </g>
                    <g transform="matrix(0.625,0,0,0.585937,8998.41,218.796)">
                        <path d="M3949.29,127.028L3947.33,106.461L3995.49,97.436C3995.49,97.436 4003.26,95.858 4006.4,105.799C4008.65,112.942 4001.98,116.114 4001.98,116.114L3949.29,127.028Z" style="fill:rgb(249,211,255);"/>
                        <path d="M3938.11,128.173L3936.16,107.605C3935.58,101.562 3939.58,96.074 3945.34,94.995C3945.34,94.995 3993.37,85.994 3993.35,85.998C3993.7,85.919 4000.08,84.559 4006.68,88.393C4010.45,90.58 4014.64,94.466 4017.07,102.173C4022.42,119.138 4006.66,126.705 4006.66,126.705C4005.87,127.082 4005.03,127.362 4004.18,127.539L3951.48,138.454C3948.38,139.098 3945.15,138.348 3942.6,136.389C3940.06,134.431 3938.43,131.446 3938.11,128.173ZM3949.29,127.028L4001.98,116.114C4001.98,116.114 4008.65,112.942 4006.4,105.799C4003.26,95.858 3995.49,97.436 3995.49,97.436L3947.33,106.461L3949.29,127.028Z"/>
                    </g>
                    <g transform="matrix(0.551817,0,0,0.585937,9282.01,218.796)">
                        <path d="M3912.19,62.741C3913.5,62.636 3922.34,60.512 3925.69,60.241C3948.52,58.399 3969.2,83.478 3971.85,116.211C3974.49,148.943 3958.1,177.013 3935.27,178.856C3933.96,178.961 3925.12,181.085 3921.77,181.356C3898.93,183.198 3878.26,158.119 3875.61,125.387C3872.97,92.654 3889.36,64.584 3912.19,62.741Z" style="fill:rgb(210,130,223);"/>
                        <path d="M3910.53,51.183C3911.75,50.926 3921.47,48.886 3924.58,48.635C3937.25,47.613 3949.62,52.164 3959.93,61.383C3972.89,72.985 3982.68,92.491 3984.53,115.351C3986.37,138.134 3979.89,158.886 3968.98,172.371C3960.48,182.885 3949.28,189.263 3936.92,190.415C3935.68,190.676 3925.98,192.712 3922.88,192.962C3910.21,193.984 3897.84,189.433 3887.53,180.214C3874.57,168.612 3864.78,149.106 3862.93,126.246C3861.1,103.463 3867.57,82.711 3878.48,69.226C3886.98,58.713 3898.18,52.336 3910.53,51.183ZM3912.19,62.741C3889.36,64.584 3872.97,92.654 3875.61,125.387C3878.26,158.119 3898.93,183.198 3921.77,181.356C3925.12,181.085 3933.96,178.961 3935.27,178.856C3958.1,177.013 3974.49,148.943 3971.85,116.211C3969.2,83.478 3948.52,58.399 3925.69,60.241C3922.34,60.512 3913.5,62.636 3912.19,62.741Z"/>
                    </g>
                    <g transform="matrix(0.545178,0,0,0.585937,9301.21,219.382)">
                        <path d="M3901.77,84.273C3903.28,84.151 3911.12,82.487 3913.77,82.273C3929.08,81.038 3942.95,97.857 3944.72,119.81C3946.49,141.762 3935.5,160.588 3920.19,161.824C3918.68,161.946 3910.84,163.61 3908.19,163.824C3892.88,165.06 3879.01,148.24 3877.24,126.287C3875.47,104.335 3886.46,85.509 3901.77,84.273Z" style="fill:rgb(209,66,232);"/>
                        <path d="M3900.32,72.694C3900.93,72.58 3910.13,70.87 3912.63,70.668C3922.36,69.883 3931.91,73.265 3939.82,80.343C3949.11,88.654 3956.24,102.585 3957.56,118.961C3958.87,135.25 3954.13,150.064 3946.34,159.705C3939.81,167.774 3931.13,172.552 3921.64,173.403C3921.03,173.517 3911.83,175.227 3909.33,175.429C3899.6,176.214 3890.06,172.833 3882.14,165.754C3872.85,157.443 3865.72,143.512 3864.4,127.136C3863.09,110.847 3867.83,96.034 3875.62,86.392C3882.15,78.323 3890.83,73.545 3900.32,72.694ZM3901.77,84.273C3886.46,85.509 3875.47,104.335 3877.24,126.287C3879.01,148.24 3892.88,165.06 3908.19,163.824C3910.84,163.61 3918.68,161.946 3920.19,161.824C3935.5,160.588 3946.49,141.762 3944.72,119.81C3942.95,97.857 3929.08,81.038 3913.77,82.273C3911.12,82.487 3903.28,84.151 3901.77,84.273Z"/>
                    </g>
                    <g transform="matrix(0.625,0,0,0.585937,8998.41,218.796)">
                        <path d="M3844.48,126.549L3888.59,117.934C3888.59,117.934 3894.28,120.542 3894.31,127.382C3894.35,135.63 3889.76,138.565 3889.76,138.565L3845.98,147.049C3845.98,147.049 3840.48,142.549 3840.48,136.549C3840.48,130.549 3844.48,126.549 3844.48,126.549Z" style="fill:rgb(249,211,255);"/>
                        <path d="M3842.4,115.098L3886.51,106.484C3888.74,106.049 3891.04,106.324 3893.12,107.274C3893.12,107.274 3905.47,112.719 3905.54,127.327C3905.61,143.307 3895.64,148.488 3895.64,148.488C3894.47,149.237 3893.17,149.756 3891.82,150.018L3848.04,158.502C3844.86,159.119 3841.57,158.279 3839.03,156.198C3839.03,156.198 3829.25,147.651 3829.25,136.549C3829.25,125.497 3836.69,118.159 3836.69,118.159C3838.27,116.582 3840.25,115.519 3842.4,115.098ZM3844.48,126.549C3844.48,126.549 3840.48,130.549 3840.48,136.549C3840.48,142.549 3845.98,147.049 3845.98,147.049L3889.76,138.565C3889.76,138.565 3894.35,135.63 3894.31,127.382C3894.28,120.542 3888.59,117.934 3888.59,117.934L3844.48,126.549Z"/>
                    </g>
                </g>
            </g>
        </g>
    </g>
</svg>
