<?xml version="1.0" encoding="UTF-8" standalone="no"?>
<!DOCTYPE svg PUBLIC "-//W3C//DTD SVG 1.1//EN" "http://www.w3.org/Graphics/SVG/1.1/DTD/svg11.dtd">
<svg width="100%" height="100%" viewBox="0 0 256 256" version="1.1" xmlns="http://www.w3.org/2000/svg" xmlns:xlink="http://www.w3.org/1999/xlink" xml:space="preserve" xmlns:serif="http://www.serif.com/" style="fill-rule:evenodd;clip-rule:evenodd;stroke-linejoin:round;stroke-miterlimit:2;">
    <g transform="matrix(1,0,0,1,-3840,0)">
        <g id="Fitness-Exercise" transform="matrix(1.6,0,0,1.70667,-14397.5,-373.411)">
            <rect x="11398.4" y="218.796" width="160" height="150" style="fill:none;"/>
            <g transform="matrix(0.71257,0,0,0.686629,3304.7,98.4632)">
                <g transform="matrix(0.625,0,0,0.585937,8998.41,218.796)">
                    <path d="M3844.48,126.549L3972.48,101.549L4064.98,85.049C4064.98,85.049 4070.98,87.049 4070.98,93.049C4070.98,99.049 4068.48,102.049 4068.48,102.049L3974.98,122.049L3845.98,147.049C3845.98,147.049 3840.48,142.549 3840.48,136.549C3840.48,130.549 3844.48,126.549 3844.48,126.549Z" style="fill:rgb(249,211,255);"/>
                </g>
                <g transform="matrix(0.435393,-0.0143312,0.0213276,0.569486,9815.88,261.436)">
                    <path d="M3901.77,84.273C3903.28,84.151 3911.12,82.487 3913.77,82.273C3929.08,81.038 3942.95,97.857 3944.72,119.81C3946.49,141.762 3935.5,160.588 3920.19,161.824C3918.68,161.946 3910.84,163.61 3908.19,163.824C3892.88,165.06 3879.01,148.24 3877.24,126.287C3875.47,104.335 3886.46,85.509 3901.77,84.273Z" style="fill:rgb(209,66,232);"/>
                </g>
                <g transform="matrix(0.460345,-0.0151525,0.0213276,0.569486,9695.04,269.12)">
                    <path d="M3912.19,62.741C3913.5,62.636 3922.34,60.512 3925.69,60.241C3948.52,58.399 3969.2,83.478 3971.85,116.211C3974.49,148.943 3958.1,177.013 3935.27,178.856C3933.96,178.961 3925.12,181.085 3921.77,181.356C3898.93,183.198 3878.26,158.119 3875.61,125.387C3872.97,92.654 3889.36,64.584 3912.19,62.741Z" style="fill:rgb(210,130,223);"/>
                </g>
                <g transform="matrix(0.625,0,0,0.585937,8998.41,218.796)">
                    <path d="M3949.29,127.028L3947.33,106.461L3995.49,97.436C3995.49,97.436 4003.26,95.858 4006.4,105.799C4008.65,112.942 4001.98,116.114 4001.98,116.114L3949.29,127.028Z" style="fill:rgb(249,211,255);"/>
                </g>
                <g transform="matrix(0.551817,0,0,0.585937,9282.01,218.796)">
                    <path d="M3912.19,62.741C3913.5,62.636 3922.34,60.512 3925.69,60.241C3948.52,58.399 3969.2,83.478 3971.85,116.211C3974.49,148.943 3958.1,177.013 3935.27,178.856C3933.96,178.961 3925.12,181.085 3921.77,181.356C3898.93,183.198 3878.26,158.119 3875.61,125.387C3872.97,92.654 3889.36,64.584 3912.19,62.741Z" style="fill:rgb(210,130,223);"/>
                </g>
                <g transform="matrix(0.545178,0,0,0.585937,9301.21,219.382)">
                    <path d="M3901.77,84.273C3903.28,84.151 3911.12,82.487 3913.77,82.273C3929.08,81.038 3942.95,97.857 3944.72,119.81C3946.49,141.762 3935.5,160.588 3920.19,161.824C3918.68,161.946 3910.84,163.61 3908.19,163.824C3892.88,165.06 3879.01,148.24 3877.24,126.287C3875.47,104.335 3886.46,85.509 3901.77,84.273Z" style="fill:rgb(209,66,232);"/>
                </g>
                <g transform="matrix(0.625,0,0,0.585937,8998.41,218.796)">
                    <path d="M3844.48,126.549L3888.59,117.934C3888.59,117.934 3894.28,120.542 3894.31,127.382C3894.35,135.63 3889.76,138.565 3889.76,138.565L3845.98,147.049C3845.98,147.049 3840.48,142.549 3840.48,136.549C3840.48,130.549 3844.48,126.549 3844.48,126.549Z" style="fill:rgb(249,211,255);"/>
                </g>
            </g>
            <g transform="matrix(0.625,0,0,0.585937,8999.03,220.847)">
                <path d="M3946.56,20.504C3946.68,20.777 3946.93,21.418 3947.04,21.874C3947.45,23.575 3947.72,25.499 3948.19,26.443C3949.4,28.853 3951.93,30.608 3954.33,32.353C3955.87,33.469 3957.39,34.527 3957.84,36.138C3958.11,37.097 3957.91,38.223 3957.19,39.654C3955.81,42.426 3951.48,47.465 3949.05,52.682C3947.15,56.744 3946.43,60.914 3948.19,64.443C3949.03,66.125 3950.54,67.462 3952.49,68.53C3954.93,69.864 3958.09,70.803 3961.11,71.806C3963.33,72.544 3965.46,73.307 3967.03,74.394C3968.17,75.183 3968.98,76.143 3968.98,77.549C3968.98,78.652 3969.88,79.549 3970.98,79.549C3972.08,79.549 3972.98,78.652 3972.98,77.549C3972.98,73.365 3969.76,70.821 3965.29,69.055C3962.09,67.79 3958.26,66.864 3955.28,65.46C3953.72,64.725 3952.39,63.904 3951.77,62.654C3950.52,60.161 3951.34,57.241 3952.67,54.371C3955.09,49.191 3959.39,44.195 3960.77,41.443C3962.12,38.745 3962.19,36.606 3961.62,34.825C3961.07,33.096 3959.86,31.663 3958.33,30.388C3957.1,29.355 3955.64,28.416 3954.33,27.397C3953.28,26.584 3952.31,25.738 3951.77,24.654C3951.53,24.172 3951.42,23.325 3951.25,22.441C3951,21.172 3950.7,19.842 3950.25,18.878C3949.52,17.359 3948.39,16.549 3946.98,16.549C3945.88,16.549 3944.98,17.445 3944.98,18.549C3944.98,19.508 3945.66,20.311 3946.56,20.504Z" style="fill:rgb(210,130,223);"/>
            </g>
            <g transform="matrix(0.625,0,0,0.585937,8998.41,218.796)">
                <path d="M3889.85,74.086C3890.47,74.769 3890.81,75.668 3891.08,76.649C3891.45,77.986 3891.64,79.469 3891.9,80.947C3892.52,84.58 3893.55,88.108 3896.7,90.213C3898.26,91.248 3899.99,91.608 3901.78,91.809C3903.13,91.958 3904.52,92.003 3905.85,92.446C3906.89,92.795 3908.03,92.228 3908.38,91.181C3908.73,90.134 3908.16,89 3907.11,88.651C3905.51,88.117 3903.85,88.014 3902.23,87.833C3901.07,87.704 3899.93,87.553 3898.92,86.884C3896.72,85.413 3896.28,82.811 3895.84,80.271C3895.24,76.75 3894.69,73.266 3892.56,71.134C3892.05,70.619 3891.33,70.261 3890.43,70.12C3889.62,69.993 3888.6,70.046 3887.51,70.2C3886.43,70.351 3885.25,70.594 3884.2,70.723C3883.59,70.797 3883.05,70.933 3882.71,70.76C3882.33,70.569 3882.14,70.196 3881.93,69.857C3881.62,69.366 3881.33,68.865 3880.98,68.427C3880.12,67.346 3879.03,66.549 3877.15,66.549C3876.04,66.549 3875.15,67.445 3875.15,68.549C3875.15,69.652 3876.04,70.549 3877.15,70.549C3877.52,70.549 3877.72,70.744 3877.89,70.966C3878.07,71.213 3878.23,71.485 3878.4,71.757C3879.04,72.789 3879.77,73.761 3880.92,74.337C3881.57,74.664 3882.45,74.825 3883.48,74.792C3884.53,74.759 3885.78,74.535 3887,74.328C3887.84,74.188 3888.65,74.052 3889.35,74.045C3889.51,74.044 3889.74,74.071 3889.85,74.086Z" style="fill:rgb(210,130,223);"/>
            </g>
            <g transform="matrix(0.625,0,0,0.585937,8997.16,219.968)">
                <path d="M3894.61,190.079L3892.3,189.876C3891.61,189.818 3891.03,189.849 3890.66,189.942C3889.77,190.164 3888.72,190.739 3887.64,191.543C3885.71,192.998 3883.63,195.225 3882.5,196.365C3882.4,196.381 3882.17,196.412 3882.02,196.418C3881.55,196.435 3881.05,196.421 3880.56,196.445C3879.25,196.51 3878.01,196.853 3877.07,197.801C3876.28,198.581 3876.28,199.849 3877.07,200.629C3877.85,201.41 3879.11,201.41 3879.89,200.629C3880.07,200.45 3880.33,200.472 3880.58,200.452C3881.02,200.416 3881.47,200.43 3881.9,200.422C3883.26,200.398 3884.44,200.088 3885.23,199.296C3886.11,198.412 3887.7,196.687 3889.31,195.332C3890.11,194.658 3890.88,194.045 3891.55,193.846C3891.8,193.876 3893.72,194.1 3894.66,194.117C3895.87,194.14 3896.78,193.746 3897.23,193.296C3897.95,192.572 3898.45,191.436 3898.64,189.998C3898.84,188.505 3898.76,186.607 3898.67,184.756C3898.61,183.436 3898.55,182.145 3898.68,181.105C3898.71,180.818 3898.82,180.415 3898.87,180.26C3901.02,179.265 3903.24,179.852 3905.2,180.008C3907.03,180.153 3908.72,180.031 3910.18,179.195C3911.21,178.602 3912.16,177.659 3912.93,176.11C3913.43,175.122 3913.03,173.92 3912.04,173.426C3911.05,172.933 3909.85,173.333 3909.36,174.321C3908.17,176.699 3906.2,176.096 3904.12,175.885C3901.81,175.652 3899.34,175.548 3896.92,176.76C3896.04,177.197 3895.38,177.996 3895.01,179.163C3894.68,180.195 3894.58,181.622 3894.61,183.194C3894.65,185.105 3894.86,187.272 3894.73,188.993C3894.69,189.403 3894.69,189.783 3894.61,190.079Z" style="fill:rgb(210,130,223);"/>
            </g>
            <g transform="matrix(0.625,0,0,0.585937,8998.41,218.796)">
                <path d="M3992.59,212.706C3992.43,212.211 3991.97,210.74 3991.79,209.454C3990.86,202.877 3991.15,191.477 3991.15,188.549C3991.15,186.094 3990.64,184.598 3989.95,183.608C3989.14,182.458 3988.04,181.858 3986.69,181.471C3985.4,181.101 3983.73,181.04 3982.11,179.879C3982.52,178.511 3983.15,176.342 3983.15,175.882C3983.15,174.778 3982.25,173.882 3981.15,173.882C3980.04,173.882 3979.15,174.778 3979.15,175.882C3979.15,175.858 3979.15,175.779 3979.15,175.779C3979.15,175.779 3978.11,179.277 3977.93,179.844C3977.53,181.158 3978.36,181.925 3978.4,181.963C3980.51,184.069 3982.68,184.631 3984.56,185.064C3985.35,185.244 3986.07,185.29 3986.56,185.772C3987.04,186.245 3987.15,187.085 3987.15,188.549C3987.15,192.014 3986.81,206.934 3988.36,212.764C3988.68,213.973 3989.11,214.876 3989.56,215.423C3990.22,216.224 3991.01,216.549 3991.81,216.549C3992.92,216.549 3993.81,215.652 3993.81,214.549C3993.81,213.721 3993.31,213.01 3992.59,212.706Z" style="fill:rgb(210,130,223);"/>
            </g>
            <g transform="matrix(0.625,0,0,0.585937,8998.41,218.796)">
                <path d="M4043.15,157.215C4044.64,157.215 4045.63,157.411 4046.32,157.856C4047.41,158.559 4047.72,159.753 4048.33,160.975C4049.35,163.023 4050.74,165.247 4054.25,167.004C4056.63,168.193 4059.9,167.778 4063.17,167.183C4064.49,166.943 4065.8,166.698 4067.03,166.638C4067.97,166.592 4068.85,166.637 4069.59,167.004C4070.31,167.367 4070.69,168.108 4071.04,168.886C4071.59,170.103 4071.98,171.47 4072.51,172.634C4073.56,174.94 4075.08,176.549 4077.81,176.549C4078.92,176.549 4079.81,175.652 4079.81,174.549C4079.81,173.445 4078.92,172.549 4077.81,172.549C4077.22,172.549 4076.87,172.221 4076.59,171.795C4076.23,171.25 4075.97,170.582 4075.71,169.888C4075.19,168.502 4074.69,167.031 4073.94,165.844C4073.29,164.811 4072.46,163.97 4071.37,163.426C4068.99,162.237 4065.73,162.653 4062.45,163.247C4061.14,163.487 4059.82,163.733 4058.6,163.793C4057.65,163.838 4056.78,163.793 4056.04,163.426C4052.86,161.835 4052.15,159.654 4051.29,157.921C4050.62,156.592 4049.88,155.451 4048.66,154.607C4047.47,153.79 4045.8,153.215 4043.15,153.215C4042.04,153.215 4041.15,154.111 4041.15,155.215C4041.15,156.319 4042.04,157.215 4043.15,157.215Z" style="fill:rgb(210,130,223);"/>
            </g>
            <g transform="matrix(0.625,0,0,0.585937,8998.41,218.796)">
                <path d="M4047.81,90.549C4050.66,90.549 4052.32,89.97 4053.46,89.132C4054.3,88.516 4054.9,87.737 4055.41,86.794C4056.26,85.236 4056.81,83.048 4059.23,80.629C4059.87,79.992 4060.66,79.946 4061.45,79.969C4062.3,79.994 4063.17,80.129 4064,80.193C4065.51,80.308 4066.91,80.185 4068.12,79.505C4069.34,78.812 4070.46,77.539 4071.09,75.034C4071.86,71.962 4072.91,60.625 4075.67,54.104C4076.17,52.926 4076.71,51.923 4077.35,51.226C4077.7,50.847 4078.04,50.549 4078.48,50.549C4079.58,50.549 4080.48,49.652 4080.48,48.549C4080.48,47.445 4079.58,46.549 4078.48,46.549C4077.24,46.549 4076.09,47.006 4075.05,47.894C4073.89,48.888 4072.85,50.508 4071.99,52.543C4069.14,59.253 4068,70.904 4067.21,74.063C4066.95,75.075 4066.67,75.702 4066.18,76.003C4065.87,76.196 4065.51,76.225 4065.13,76.234C4064.46,76.249 4063.76,76.153 4063.04,76.08C4060.67,75.836 4058.3,75.897 4056.4,77.801C4054.09,80.109 4053.16,82.21 4052.37,83.914C4052,84.728 4051.73,85.441 4051.1,85.905C4050.44,86.387 4049.45,86.549 4047.81,86.549C4046.71,86.549 4045.81,87.445 4045.81,88.549C4045.81,89.652 4046.71,90.549 4047.81,90.549Z" style="fill:rgb(210,130,223);"/>
            </g>
        </g>
    </g>
</svg>
