<?xml version="1.0" encoding="UTF-8" standalone="no"?>
<!DOCTYPE svg PUBLIC "-//W3C//DTD SVG 1.1//EN" "http://www.w3.org/Graphics/SVG/1.1/DTD/svg11.dtd">
<svg width="100%" height="100%" viewBox="0 0 256 256" version="1.1" xmlns="http://www.w3.org/2000/svg" xmlns:xlink="http://www.w3.org/1999/xlink" xml:space="preserve" xmlns:serif="http://www.serif.com/" style="fill-rule:evenodd;clip-rule:evenodd;stroke-linecap:round;stroke-linejoin:round;stroke-miterlimit:1.5;">
    <g transform="matrix(1,0,0,1,-1792,-512)">
        <g transform="matrix(1.6,0,0,1.70667,-16445.5,138.589)">
            <rect id="Plot" x="11398.4" y="218.796" width="160" height="150" style="fill:none;"/>
            <g id="Plot1" serif:id="Plot">
                <g transform="matrix(1,0,0,1,-0.417151,7.91016)">
                    <g transform="matrix(0.625,0,0,0.585937,11398,-72.7082)">
                        <path d="M37.872,708.319L38.167,673.654C83.625,662.163 112.549,667.479 128.667,690.654L129.667,699.654L130.167,699.654L131.167,690.654C147.285,667.479 176.21,662.163 221.667,673.654L221.84,708.867L145.667,709.154C145.667,709.154 139.891,721.722 129.667,721.487C120.779,721.282 113.001,709.154 113.001,709.154L37.872,708.319Z" style="fill:rgb(234,184,255);"/>
                    </g>
                    <g transform="matrix(0.620363,0.0712386,-0.0690491,0.528483,11447.9,-43.2115)">
                        <path d="M128.001,700.154C128.001,700.154 107.157,687.639 92.001,686.154C79.019,684.881 61.334,688.82 61.334,688.82" style="fill:none;stroke:black;stroke-width:4.19px;"/>
                    </g>
                    <g transform="matrix(-0.620363,0.0712386,0.0690491,0.528483,11511.3,-43.2115)">
                        <path d="M128.001,700.154C128.001,700.154 107.157,687.639 92.001,686.154C79.019,684.881 61.334,688.82 61.334,688.82" style="fill:none;stroke:black;stroke-width:4.19px;"/>
                    </g>
                    <g transform="matrix(0.623864,-0.035319,0.0376736,0.584872,11372.7,-67.1321)">
                        <path d="M128.001,700.154C128.001,700.154 103.03,689.712 87.962,687.513C70.548,684.97 54.147,688.386 54.147,688.386" style="fill:none;stroke:black;stroke-width:4px;"/>
                    </g>
                    <g transform="matrix(-0.623864,-0.035319,-0.0376736,0.584872,11586.5,-67.1321)">
                        <path d="M128.001,700.154C128.001,700.154 103.03,689.712 87.962,687.513C70.548,684.97 54.147,688.386 54.147,688.386" style="fill:none;stroke:black;stroke-width:4px;"/>
                    </g>
                    <g transform="matrix(0.625,0,0,0.585937,11398.4,-73.2941)">
                        <path d="M130.167,699.654L131.167,690.654C147.285,667.479 176.21,662.163 221.667,673.654L222.167,693.654" style="fill:none;stroke:black;stroke-width:8px;"/>
                    </g>
                    <g transform="matrix(-0.625,0,0,0.585937,11560.8,-73.2941)">
                        <path d="M130.167,699.654L131.167,690.654C147.285,667.479 176.21,662.163 221.667,673.654L222.167,693.654" style="fill:none;stroke:black;stroke-width:8px;"/>
                    </g>
                    <g transform="matrix(0.625,0,0,0.585937,11398.4,-73.2941)">
                        <path d="M23.001,708.154L113.001,709.154C113.001,709.154 120.779,721.282 129.667,721.487C139.891,721.722 145.667,709.154 145.667,709.154L234.334,708.82" style="fill:none;stroke:black;stroke-width:8px;"/>
                    </g>
                </g>
                <g transform="matrix(0.625,0,0,0.585937,10278.4,-81.2043)">
                    <path d="M1833.51,537.555C1839.23,550.666 1865.67,549.888 1865.67,549.888L1931.34,549.888C1931.34,549.888 1970.08,556.702 1984.83,570.688C2001.82,586.797 2005.21,632.356 1977.84,634.388C1948.54,636.564 1933.67,604.555 1898.67,601.555C1878.64,599.839 1846.67,602.888 1842.67,622.222C1838.67,641.555 1845.59,674.109 1860.92,673.472C1890.8,672.229 1889.78,645.733 1915.84,665.555C1934.8,679.981 1920.01,718.555 1920.01,718.555" style="fill:none;stroke:black;stroke-width:8px;stroke-dasharray:16,16,0,0;"/>
                </g>
                <g transform="matrix(0.625,0,0,0.585937,10311.8,-81.1066)">
                    <circle cx="1866.01" cy="549.222" r="20" style="fill:rgb(255,51,60);stroke:black;stroke-width:8px;"/>
                </g>
                <g transform="matrix(0.625,0,0,0.585937,10360.2,-50.3449)">
                    <circle cx="1866.01" cy="549.222" r="20" style="fill:rgb(255,51,60);stroke:black;stroke-width:8px;"/>
                </g>
                <g transform="matrix(0.625,0,0,0.585937,10264.2,-24.9543)">
                    <circle cx="1866.01" cy="549.222" r="20" style="fill:rgb(255,51,60);stroke:black;stroke-width:8px;"/>
                </g>
                <g transform="matrix(0.587686,0,0,0.550956,10482.6,-52.4985)">
                    <path d="M1599.86,562.161L1592.67,558.178L1599.86,554.195L1603.84,547.011L1607.82,554.195L1615.01,558.178L1607.82,562.161L1603.84,569.345L1599.86,562.161Z" style="fill-opacity:0.35;"/>
                </g>
                <g transform="matrix(0.587686,0,0,0.550956,10594.3,-9.52977)">
                    <path d="M1599.86,562.161L1592.67,558.178L1599.86,554.195L1603.84,547.011L1607.82,554.195L1615.01,558.178L1607.82,562.161L1603.84,569.345L1599.86,562.161Z" style="fill-opacity:0.35;"/>
                </g>
                <g transform="matrix(0.839552,0,0,0.78708,10174.4,-128.927)">
                    <path d="M1599.86,562.161L1592.67,558.178L1599.86,554.195L1603.84,547.011L1607.82,554.195L1615.01,558.178L1607.82,562.161L1603.84,569.345L1599.86,562.161Z" style="fill-opacity:0.35;"/>
                </g>
            </g>
        </g>
    </g>
</svg>
