<?xml version="1.0" encoding="UTF-8" standalone="no"?>
<!DOCTYPE svg PUBLIC "-//W3C//DTD SVG 1.1//EN" "http://www.w3.org/Graphics/SVG/1.1/DTD/svg11.dtd">
<svg width="100%" height="100%" viewBox="0 0 256 256" version="1.1" xmlns="http://www.w3.org/2000/svg" xmlns:xlink="http://www.w3.org/1999/xlink" xml:space="preserve" xmlns:serif="http://www.serif.com/" style="fill-rule:evenodd;clip-rule:evenodd;stroke-linejoin:round;stroke-miterlimit:2;">
    <g transform="matrix(1,0,0,1,-1280,0)">
        <g transform="matrix(1.00787,0,0,1.024,1245.98,-1453.73)">
            <rect id="graphics_design" x="33.753" y="1419.66" width="254" height="250" style="fill:none;"/>
            <g id="graphics_design1" serif:id="graphics_design">
                <g transform="matrix(1,0,0,1,-7.19056,-0.701263)">
                    <g transform="matrix(0.936747,0,0,0.92388,-1157.56,1425.94)">
                        <path d="M1325.49,223.363C1326.83,219.72 1328.7,214.652 1328.7,214.653C1327.73,211.409 1326.25,205.974 1325.55,201.062C1324.91,196.655 1325.02,192.564 1325.84,189.855L1325.84,189.847C1327.37,184.807 1331.65,178.953 1337.28,173.499C1346.22,164.841 1358.38,156.794 1362.57,154.117C1359.04,150.763 1358.43,145.239 1361.3,141.105C1361.33,141.053 1361.37,141.001 1361.4,140.95C1361.4,140.95 1364.34,136.913 1364.34,136.913C1366.83,133.419 1371.15,132.025 1375.08,133.064C1390.99,107.572 1433,41.934 1453.82,23.937C1453.83,23.932 1453.83,23.927 1453.84,23.922C1461.41,17.418 1478.38,4.825 1491.16,0.945C1499.75,-1.659 1507,-0.432 1511.57,3.935L1511.57,3.941C1515.92,8.105 1517.94,15.373 1516.96,24.349C1515.35,38.929 1506.32,59.119 1501.44,68.235L1501.44,68.238C1489.15,91.208 1439.77,143.231 1419.12,164.482C1423.14,167.766 1423.97,173.647 1420.96,177.993C1420.92,178.045 1420.88,178.096 1420.85,178.148C1420.85,178.148 1417.92,182.184 1417.92,182.184C1414.72,186.671 1408.5,187.695 1403.96,184.549C1403.9,184.506 1403.83,184.462 1403.77,184.417L1402.81,183.708C1402.32,184.402 1402,184.855 1402,184.855C1401.14,188.578 1398.86,197.533 1394.88,206.677C1391.11,215.365 1385.76,224.084 1379.02,229.435C1379.01,229.441 1379,229.448 1379,229.454C1377.26,230.819 1373.66,232.343 1369.29,233.309C1364.73,234.317 1359.14,235.009 1355.81,235.369C1355.81,235.369 1349.35,241.241 1349.35,241.241L1349.35,241.324C1349.02,251.385 1340.76,259.201 1330.59,258.993C1330.56,258.993 1330.53,258.992 1330.5,258.991C1320.39,258.678 1312.48,250.329 1312.79,240.218C1313.04,232.234 1318.31,225.634 1325.49,223.363ZM1340.88,241.038C1340.94,239.417 1340.99,237.405 1340.99,237.405L1352.17,227.233C1352.17,227.233 1370.06,225.723 1373.74,222.817C1388.11,211.415 1394.09,181.402 1394.09,181.402L1400.8,171.789L1374.36,152.451L1368.49,160.387C1368.49,160.387 1337.97,179.055 1333.95,192.301C1332.11,198.393 1337.64,214.881 1337.64,214.881L1332.11,229.915C1332.11,229.915 1332.22,230.977 1331.32,230.977C1325.9,230.81 1321.43,235.057 1321.26,240.479C1321.1,245.9 1325.34,250.371 1330.76,250.539C1336.24,250.651 1340.71,246.459 1340.88,241.038ZM1332.38,239.808C1333.84,237.516 1335.85,234.163 1338.37,230.251C1340.88,226.282 1343.84,221.755 1347.08,216.893C1348.7,214.489 1350.38,211.974 1352.12,209.403L1353.29,207.727C1351.72,206.05 1350.83,203.814 1350.88,201.355C1351.05,196.437 1355.13,192.524 1360.05,192.692C1361.17,192.748 1362.23,192.971 1363.24,193.419C1364.8,191.183 1366.42,189.003 1367.93,186.823C1371.34,182.073 1374.58,177.713 1377.38,173.969C1380.17,170.224 1382.63,167.206 1384.25,165.026C1385.93,162.902 1386.93,161.673 1386.93,161.673C1386.93,161.673 1386.15,163.014 1384.7,165.361C1383.25,167.653 1381.23,171.006 1378.72,174.919C1376.2,178.887 1373.24,183.414 1370,188.277C1368.55,190.4 1367.09,192.636 1365.58,194.872C1367.54,196.548 1368.77,199.119 1368.71,201.914C1368.55,206.832 1364.47,210.745 1359.55,210.577C1358.1,210.521 1356.7,210.13 1355.52,209.459C1355.19,209.962 1354.8,210.521 1354.46,211.024C1352.73,213.539 1350.94,215.943 1349.21,218.346C1345.8,223.097 1342.56,227.456 1339.76,231.201C1336.97,234.945 1334.51,237.964 1332.89,240.143C1331.21,242.267 1330.2,243.497 1330.2,243.497C1330.2,243.497 1330.99,242.155 1332.38,239.808ZM1360,201.235C1359.93,201.205 1359.86,201.175 1359.79,201.143C1359.74,201.121 1359.68,201.14 1359.76,201.143C1359.53,201.135 1359.38,201.358 1359.36,201.604C1359.36,201.741 1359.4,201.869 1359.49,201.963C1359.5,201.978 1359.52,201.993 1359.53,202.008C1359.6,202.044 1359.67,202.082 1359.73,202.121C1359.77,202.143 1359.83,202.125 1359.84,202.126C1360.07,202.134 1360.21,201.918 1360.24,201.681C1360.23,201.526 1360.17,201.381 1360.06,201.287C1360.04,201.269 1360.02,201.252 1360,201.235ZM1406.25,165.528C1418.86,152.752 1480.19,89.995 1493.97,64.255C1500.45,52.126 1515.09,19.039 1505.7,10.041C1496.76,1.489 1469.32,21.778 1459.37,30.329C1436.5,50.092 1387.79,128.486 1377.84,144.7L1373.46,141.496C1372.74,140.993 1371.73,141.105 1371.23,141.831L1368.27,145.911C1367.76,146.638 1367.88,147.644 1368.6,148.147L1408.79,177.601C1409.52,178.104 1410.52,177.993 1411.02,177.266L1413.99,173.186C1414.49,172.459 1414.38,171.453 1413.65,170.95L1406.25,165.528Z" style="fill:rgb(38,2,0);"/>
                    </g>
                    <g transform="matrix(0.944123,0,0,0.946054,9.60755,82.8654)">
                        <g transform="matrix(0.554542,0,0,0.545809,31.1064,1408.18)">
                            <path d="M176.6,285.2C176.6,285.2 280,114.8 325.7,75.3C343.5,60 392.6,23.7 408.6,39C425.4,55.1 399.2,114.3 387.6,136C360.1,187.4 226.6,321.3 226.6,321.3L176.6,285.2Z" style="fill:rgb(239,91,66);fill-rule:nonzero;"/>
                        </g>
                        <g transform="matrix(0.554542,0,0,0.545809,31.1064,1408.18)">
                            <path d="M235.2,338.8L163.3,286.1C162,285.2 161.8,283.4 162.7,282.1L168,274.8C168.9,273.5 170.7,273.3 172,274.2L243.9,326.9C245.2,327.8 245.4,329.6 244.5,330.9L239.2,338.2C238.3,339.5 236.5,339.7 235.2,338.8Z" style="fill:rgb(247,147,41);fill-rule:nonzero;"/>
                        </g>
                        <g transform="matrix(0.554542,0,0,0.545809,31.1064,1408.18)">
                            <path d="M113.7,452.3C113.8,449.4 113.9,445.8 113.9,445.8L133.9,427.6C133.9,427.6 165.9,424.9 172.5,419.7C198.2,399.3 208.9,345.6 208.9,345.6L220.9,328.4L173.6,293.8L163.1,308C163.1,308 108.5,341.4 101.3,365.1C98,376 107.9,405.5 107.9,405.5L98,432.4C98,432.4 98.2,434.3 96.6,434.3C86.9,434 78.9,441.6 78.6,451.3C78.3,461 85.9,469 95.6,469.3C105.4,469.5 113.4,462 113.7,452.3ZM98.5,450.1C101.1,446 104.7,440 109.2,433C113.7,425.9 119,417.8 124.8,409.1C127.7,404.8 130.7,400.3 133.8,395.7C134.5,394.7 135.2,393.7 135.9,392.7C133.1,389.7 131.5,385.7 131.6,381.3C131.9,372.5 139.2,365.5 148,365.8C150,365.9 151.9,366.3 153.7,367.1C156.5,363.1 159.4,359.2 162.1,355.3C168.2,346.8 174,339 179,332.3C184,325.6 188.4,320.2 191.3,316.3C194.3,312.5 196.1,310.3 196.1,310.3C196.1,310.3 194.7,312.7 192.1,316.9C189.5,321 185.9,327 181.4,334C176.9,341.1 171.6,349.2 165.8,357.9C163.2,361.7 160.6,365.7 157.9,369.7C161.4,372.7 163.6,377.3 163.5,382.3C163.2,391.1 155.9,398.1 147.1,397.8C144.5,397.7 142,397 139.9,395.8C139.3,396.7 138.6,397.7 138,398.6C134.9,403.1 131.7,407.4 128.6,411.7C122.5,420.2 116.7,428 111.7,434.7C106.7,441.4 102.3,446.8 99.4,450.7C96.4,454.5 94.6,456.7 94.6,456.7C94.6,456.7 96,454.3 98.5,450.1Z" style="fill:rgb(249,249,251);fill-rule:nonzero;"/>
                        </g>
                    </g>
                </g>
            </g>
        </g>
    </g>
</svg>
