<?xml version="1.0" encoding="utf-8"?>
<!-- Generator: Adobe Illustrator 18.0.0, SVG Export Plug-In . SVG Version: 6.00 Build 0)  -->
<!DOCTYPE svg PUBLIC "-//W3C//DTD SVG 1.1//EN" "http://www.w3.org/Graphics/SVG/1.1/DTD/svg11.dtd">
<svg version="1.1" id="Layer_2" xmlns="http://www.w3.org/2000/svg" xmlns:xlink="http://www.w3.org/1999/xlink" x="0px" y="0px"
	 viewBox="0 0 500 500" enable-background="new 0 0 500 500" xml:space="preserve">
<path fill="#7A702D" d="M160.1,71.8c8,5.5,176.6,8.4,182.3,0C348.5,62.9,350,30,350,30l-62.6,21.4L250,6l-37.4,45.5L150,30
	C150,30,151.5,65.9,160.1,71.8z"/>
<g>
	<path fill="#6E9396" d="M421.3,211.3h-24.5c-12.1-37-19.5-58-22.2-62.9c-2.7-4.9-6.5-8.4-11.4-10.4c-4.9-2-20.5-3-46.8-3h-25.5
		v245.7c0,30.5,1.1,48.9,3.2,55.3c1.1,3.3,3.6,6,7.8,8c4.1,2,20,5.5,47.8,10.4v19.5c-53.5-1.9-87.9-2.9-103.1-2.9
		c-20.7,0-52.4,1-95,2.9v-19.5c28.1-4.9,44.7-8.8,50-11.6c3.5-1.9,5.9-5.1,7.2-9.6c1.3-4.5,2-22.8,2-55.1V135h-44.2
		c-14.9,0-24.8,1.2-29.6,3.7c-4.8,2.5-8.8,6.9-12,13.4c-4.7,9.8-11.4,29.6-20,59.2H80.8c3-25.8,4.8-43.6,5.5-53.4
		c0.7-9.8,1.5-28.9,2.4-57.4c69.5,1.9,137.3,2.7,203.6,2.4c56.1-0.5,96.5-1.3,121-2.4C413.6,134.4,416.2,171.3,421.3,211.3z"/>
</g>
<path fill="#08282D" d="M413.4,100.5c-24.6,1.1-64.9,1.8-121,2.4c-66.3,0.4-134.2-0.4-203.6-2.4c-0.9,28.4-1.7,47.5-2.4,57.4
	c-0.7,9.8-2.5,27.6-5.5,53.4h23.9c8.6-29.6,15.3-49.4,20-59.2c3.2-6.5,7.1-11,12-13.4c4.8-2.5,14.7-3.7,29.6-3.7h44.2v129l80.2-33.8
	V135h25.5c26.3,0,41.9,1,46.8,3c4.9,2,8.7,5.5,11.4,10.4c2.7,4.9,10.1,25.9,22.2,62.9h24.5C416.2,171.3,413.6,134.4,413.4,100.5z"/>
<g>
	<polygon fill="#08282D" points="290.8,292.1 290.8,267.6 210.5,304.6 210.5,329.1 	"/>
	<path fill="#08282D" d="M301.7,444c-4.1-2-6.7-4.7-7.8-8c-2.1-6.3-3.2-24.7-3.2-55.3v-48.4l-80.2,33.8v12c0,32.3-0.7,50.6-2,55.1
		c-1.3,4.5-3.7,7.7-7.2,9.6c-5.3,2.8-21.9,6.7-50,11.6v19.5c42.6-1.9,74.3-2.9,95-2.9c15.3,0,49.6,1,103.1,2.9v-19.5
		C321.7,449.5,305.8,446,301.7,444z"/>
</g>
<path fill="#D3D3D3" d="M120.4,101.3c0,0,35.1,18.5,48,20.3c10.5,1.5,32.5-9.7,42.2-5.3c13,5.9,27.8,50,27.8,50S248.9,148,255,145
	c3.7-1.8,12.6,0.8,16.7,0c11.4-2.2,28.8-20.5,40-23.3c6-1.5,18.3,4.2,24.4,3.4c7.8-1,26.9-15.2,28.9-12.6c2,2.6,24.7-11.1,24.7-11.1
	H120.4z"/>
<path fill="#FFFFFF" d="M163.5,101.3c0,0,21.6,11.4,29.6,12.5c6.5,0.9,20.1-6,26-3.3c8,3.6,17.2,30.8,17.2,30.8s6.5-11.3,10.3-13.2
	c2.3-1.1,7.8,0.5,10.3,0c7-1.4,17.8-12.6,24.7-14.4c3.7-0.9,11.3,2.6,15.1,2.1c4.8-0.6,16.6-9.4,17.8-7.8c1.2,1.6,15.2-6.8,15.2-6.8
	H163.5z"/>
<path fill="#FAEF57" d="M156.3,77.8c8.3,5.5,184.1,8.4,190,0C352.7,68.9,350,30,350,30l-60,28.4L250,12l-40,45.5L150,30
	C150,30,147.4,71.9,156.3,77.8z"/>
</svg>
