<?xml version="1.0" encoding="UTF-8" standalone="no"?>
<!DOCTYPE svg PUBLIC "-//W3C//DTD SVG 1.1//EN" "http://www.w3.org/Graphics/SVG/1.1/DTD/svg11.dtd">
<svg width="100%" height="100%" viewBox="0 0 256 256" version="1.1" xmlns="http://www.w3.org/2000/svg" xmlns:xlink="http://www.w3.org/1999/xlink" xml:space="preserve" xmlns:serif="http://www.serif.com/" style="fill-rule:evenodd;clip-rule:evenodd;stroke-linejoin:round;stroke-miterlimit:2;">
    <g transform="matrix(1,0,0,1,-1536,0)">
        <g transform="matrix(1.00787,0,0,1.024,1501.98,-1453.73)">
            <rect id="typography" x="33.753" y="1419.66" width="254" height="250" style="fill:none;"/>
            <g id="typography1" serif:id="typography">
                <g transform="matrix(0.975127,0,0,0.975127,3.99846,38.4208)">
                    <g transform="matrix(1,0,0,1,-35.6542,1.68471)">
                        <g transform="matrix(0.510089,0,0,0.502056,68.3493,1422.51)">
                            <path d="M160.1,71.8C168.1,77.3 336.7,80.2 342.4,71.8C348.5,62.9 350,30 350,30L287.4,51.4L250,6L212.6,51.5L150,30C150,30 151.5,65.9 160.1,71.8Z" style="fill:rgb(122,112,45);fill-rule:nonzero;"/>
                        </g>
                        <g transform="matrix(0.510089,0,0,0.502056,68.3493,1422.51)">
                            <path d="M421.3,211.3L396.8,211.3C384.7,174.3 377.3,153.3 374.6,148.4C371.9,143.5 368.1,140 363.2,138C358.3,136 342.7,135 316.4,135L290.9,135L290.9,380.7C290.9,411.2 292,429.6 294.1,436C295.2,439.3 297.7,442 301.9,444C306,446 321.9,449.5 349.7,454.4L349.7,473.9C296.2,472 261.8,471 246.6,471C225.9,471 194.2,472 151.6,473.9L151.6,454.4C179.7,449.5 196.3,445.6 201.6,442.8C205.1,440.9 207.5,437.7 208.8,433.2C210.1,428.7 210.8,410.4 210.8,378.1L210.8,135L166.6,135C151.7,135 141.8,136.2 137,138.7C132.2,141.2 128.2,145.6 125,152.1C120.3,161.9 113.6,181.7 105,211.3L80.8,211.3C83.8,185.5 85.6,167.7 86.3,157.9C87,148.1 87.8,129 88.7,100.5C158.2,102.4 226,103.2 292.3,102.9C348.4,102.4 388.8,101.6 413.3,100.5C413.6,134.4 416.2,171.3 421.3,211.3Z" style="fill:rgb(110,147,150);fill-rule:nonzero;"/>
                        </g>
                        <g transform="matrix(0.510089,0,0,0.502056,68.3493,1422.51)">
                            <path d="M413.4,100.5C388.8,101.6 348.5,102.3 292.4,102.9C226.1,103.3 158.2,102.5 88.8,100.5C87.9,128.9 87.1,148 86.4,157.9C85.7,167.7 83.9,185.5 80.9,211.3L104.8,211.3C113.4,181.7 120.1,161.9 124.8,152.1C128,145.6 131.9,141.1 136.8,138.7C141.6,136.2 151.5,135 166.4,135L210.6,135L210.6,264L290.8,230.2L290.8,135L316.3,135C342.6,135 358.2,136 363.1,138C368,140 371.8,143.5 374.5,148.4C377.2,153.3 384.6,174.3 396.7,211.3L421.2,211.3C416.2,171.3 413.6,134.4 413.4,100.5Z" style="fill:rgb(8,40,45);fill-rule:nonzero;"/>
                        </g>
                        <g transform="matrix(0.510089,0,0,0.502056,68.3493,1422.51)">
                            <path d="M290.8,292.1L290.8,267.6L210.5,304.6L210.5,329.1L290.8,292.1Z" style="fill:rgb(8,40,45);fill-rule:nonzero;"/>
                        </g>
                        <g transform="matrix(0.510089,0,0,0.502056,68.3493,1422.51)">
                            <path d="M301.7,444C297.6,442 295,439.3 293.9,436C291.8,429.7 290.7,411.3 290.7,380.7L290.7,332.3L210.5,366.1L210.5,378.1C210.5,410.4 209.8,428.7 208.5,433.2C207.2,437.7 204.8,440.9 201.3,442.8C196,445.6 179.4,449.5 151.3,454.4L151.3,473.9C193.9,472 225.6,471 246.3,471C261.6,471 295.9,472 349.4,473.9L349.4,454.4C321.7,449.5 305.8,446 301.7,444Z" style="fill:rgb(8,40,45);fill-rule:nonzero;"/>
                        </g>
                        <g transform="matrix(0.510089,0,0,0.502056,68.3493,1422.51)">
                            <path d="M120.4,101.3C120.4,101.3 155.5,119.8 168.4,121.6C178.9,123.1 200.9,111.9 210.6,116.3C223.6,122.2 238.4,166.3 238.4,166.3C238.4,166.3 248.9,148 255,145C258.7,143.2 267.6,145.8 271.7,145C283.1,142.8 300.5,124.5 311.7,121.7C317.7,120.2 330,125.9 336.1,125.1C343.9,124.1 363,109.9 365,112.5C367,115.1 389.7,101.4 389.7,101.4L120.4,101.4L120.4,101.3Z" style="fill:rgb(211,211,211);fill-rule:nonzero;"/>
                        </g>
                        <g transform="matrix(0.510089,0,0,0.502056,68.3493,1422.51)">
                            <path d="M163.5,101.3C163.5,101.3 185.1,112.7 193.1,113.8C199.6,114.7 213.2,107.8 219.1,110.5C227.1,114.1 236.3,141.3 236.3,141.3C236.3,141.3 242.8,130 246.6,128.1C248.9,127 254.4,128.6 256.9,128.1C263.9,126.7 274.7,115.5 281.6,113.7C285.3,112.8 292.9,116.3 296.7,115.8C301.5,115.2 313.3,106.4 314.5,108C315.7,109.6 329.7,101.2 329.7,101.2L163.5,101.2L163.5,101.3Z" style="fill:white;fill-rule:nonzero;"/>
                        </g>
                        <g transform="matrix(0.510089,0,0,0.502056,68.3493,1422.51)">
                            <path d="M156.3,77.8C164.6,83.3 340.4,86.2 346.3,77.8C352.7,68.9 350,30 350,30L290,58.4L250,12L210,57.5L150,30C150,30 147.4,71.9 156.3,77.8Z" style="fill:rgb(250,239,87);fill-rule:nonzero;"/>
                        </g>
                    </g>
                    <g transform="matrix(0.992188,0,0,0.976563,-1490.25,1419.66)">
                        <path d="M1620.48,82.249C1614.81,82.253 1610.99,82.268 1609.16,83.223C1608.06,83.795 1607.31,84.94 1606.57,86.437C1604.26,91.282 1601.01,101.034 1596.79,115.56C1595.78,119.064 1592.56,121.475 1588.91,121.475L1576.47,121.475C1574.13,121.475 1571.9,120.475 1570.35,118.727C1568.79,116.979 1568.05,114.649 1568.32,112.323C1569.85,99.235 1570.76,90.205 1571.12,85.233C1571.47,80.251 1571.88,70.539 1572.34,56.049C1572.48,51.602 1576.13,48.091 1580.56,48.104C1580.64,48.104 1580.73,48.105 1580.82,48.107C1581.14,48.116 1581.45,48.125 1581.76,48.134C1587.66,48.294 1593.54,48.438 1599.39,48.567L1607.95,48.567C1606.4,46.31 1605.08,43.126 1604.47,39.285C1603.17,31.17 1603.86,19.556 1603.86,19.556C1604.02,17 1605.36,14.665 1607.49,13.242C1609.62,11.819 1612.29,11.473 1614.72,12.304L1641.51,21.508L1657.12,2.516C1658.68,0.621 1661,-0.478 1663.46,-0.479C1665.91,-0.48 1668.23,0.616 1669.79,2.509L1685.41,21.465L1712.22,12.301C1714.63,11.476 1717.29,11.819 1719.41,13.229C1721.53,14.638 1722.88,16.954 1723.06,19.496C1723.06,19.496 1723.77,30.066 1723,38.102C1722.57,42.492 1721.48,46.262 1720.18,48.567C1727.07,48.567 1733.6,48.567 1733.6,48.567C1737.07,48.477 1740.21,48.38 1743.04,48.276C1744.46,48.223 1745.79,48.168 1747.05,48.112C1747.18,48.106 1747.31,48.104 1747.44,48.104C1749.55,48.097 1751.58,48.903 1753.12,50.362C1754.73,51.899 1755.66,54.029 1755.67,56.26C1755.72,64.804 1756.07,73.726 1756.73,83.032C1757.4,92.378 1758.37,102.109 1759.66,112.233C1759.96,114.571 1759.24,116.924 1757.68,118.693C1756.13,120.461 1753.88,121.475 1751.53,121.475L1738.88,121.475C1735.33,121.475 1732.18,119.194 1731.08,115.821C1725.14,97.649 1721.61,87.3 1720.28,84.893C1719.85,84.11 1719.29,83.502 1718.51,83.183C1716.32,82.289 1709.33,82.25 1697.6,82.249L1697.55,82.249C1697.55,82.249 1695.02,78.147 1693.76,74.045L1697.55,74.045L1697.6,74.045C1711.09,74.046 1719.09,74.56 1721.61,75.587C1724.12,76.615 1726.08,78.415 1727.47,80.934C1728.85,83.453 1732.66,94.249 1738.88,113.271L1751.53,113.271C1750.22,102.989 1749.23,93.105 1748.55,83.613C1747.88,74.122 1747.52,65.022 1747.47,56.308L1747.41,56.31L1747.41,56.308C1746.14,56.365 1744.79,56.421 1743.35,56.475C1740.46,56.581 1737.25,56.679 1733.7,56.771L1704.26,56.771C1704.37,56.705 1704.43,56.668 1704.43,56.668L1618.99,56.668L1618.99,56.719C1618.99,56.719 1619.02,56.737 1619.09,56.771L1617.56,56.771C1617.52,56.23 1617.48,55.689 1617.47,55.159L1617.07,56.771L1599.3,56.771C1593.4,56.641 1587.48,56.496 1581.54,56.335C1581.22,56.326 1580.9,56.318 1580.59,56.309L1580.54,56.308C1580.07,70.96 1579.66,80.779 1579.3,85.818C1578.94,90.856 1578.02,100.007 1576.47,113.271L1588.91,113.271C1593.34,98.053 1596.78,87.874 1599.2,82.836C1600.84,79.494 1602.9,77.232 1605.37,75.947C1606.8,75.202 1609.11,74.682 1612.28,74.376C1612.46,78.754 1616.06,82.249 1620.48,82.249ZM1697.55,82.249L1692.69,82.249L1692.69,200.36C1692.69,213.628 1692.91,222.011 1693.73,225.526L1693.74,225.53C1695.66,226.465 1703.14,227.879 1716.14,230.17C1720.06,230.861 1722.92,234.268 1722.92,238.25L1722.92,248.275C1722.92,250.501 1722.02,252.632 1720.41,254.178C1718.85,255.692 1716.74,256.518 1714.56,256.478L1714.56,256.479C1714.47,256.479 1714.37,256.477 1714.27,256.474C1687.09,255.509 1669.61,254.995 1661.71,254.988C1661.66,254.988 1661.61,254.988 1661.56,254.988C1651,254.993 1634.87,255.506 1613.24,256.471C1613.12,256.476 1612.99,256.479 1612.87,256.479L1612.87,256.478C1610.71,256.518 1608.62,255.702 1607.05,254.204C1605.43,252.656 1604.51,250.514 1604.51,248.275L1604.51,238.25C1604.51,234.263 1607.38,230.853 1611.31,230.168C1623.83,227.985 1631.48,226.462 1634.19,225.232C1634.21,225.177 1634.23,225.12 1634.24,225.074C1634.86,222.947 1634.95,214.29 1634.95,199.024L1634.95,192.854C1634.95,197.385 1638.62,201.057 1643.15,201.058C1643.12,216.4 1642.77,225.134 1642.12,227.351C1641.46,229.664 1640.22,231.309 1638.42,232.286C1635.7,233.726 1627.16,235.731 1612.72,238.25L1612.72,248.275L1612.87,248.268L1612.87,248.275C1634.67,247.303 1650.91,246.789 1661.56,246.784C1661.61,246.784 1661.66,246.784 1661.71,246.784C1669.65,246.791 1687.24,247.304 1714.56,248.275L1714.56,248.269L1714.71,248.275L1714.56,256.473L1722.77,248.27L1714.57,256.473C1719.04,256.471 1722.69,252.887 1722.77,248.415C1722.77,248.366 1722.77,248.318 1722.77,248.27C1722.77,243.912 1719.36,240.312 1715.01,240.077L1714.85,240.227L1714.72,247.789L1714.72,238.25C1700.42,235.731 1692.25,233.931 1690.14,232.903C1687.98,231.875 1686.7,230.487 1686.13,228.79C1685.05,225.5 1684.49,216.04 1684.49,200.36L1684.49,74.045L1689.34,74.045C1689.34,78.576 1693.01,82.249 1697.55,82.249ZM1643.15,200.992C1638.69,200.908 1635.1,197.268 1635.1,192.789L1635.1,175.424C1635,174.909 1634.95,174.377 1634.95,173.832L1634.95,161.237C1634.95,163.784 1636.11,166.059 1637.93,167.564C1634.14,171.069 1638.48,176.889 1641.29,179.946L1643.14,181.798C1643.06,180.424 1642.63,173.43 1641.67,169.308C1642.15,169.395 1642.65,169.441 1643.15,169.441L1643.15,173.832L1643.31,173.761L1643.31,181.882L1643.27,181.924L1643.31,181.965L1643.31,192.789L1643.15,192.854L1643.15,199.024C1643.15,199.691 1643.15,200.347 1643.15,200.992ZM1637.93,167.564C1637.97,167.529 1638.01,167.495 1638.05,167.46C1639.07,168.314 1640.3,168.924 1641.65,169.202C1641.66,169.237 1641.66,169.272 1641.67,169.308C1640.27,169.052 1638.99,168.438 1637.93,167.564ZM1638.05,167.46C1636.25,165.955 1635.1,163.694 1635.1,161.166L1635.1,141.667C1635.04,141.243 1635,140.807 1635,140.364L1635,82.249L1620.58,82.249L1620.48,82.249C1620.48,82.249 1619.82,78.15 1619.51,74.049C1619.83,74.046 1620.15,74.045 1620.48,74.045L1620.58,74.045L1643.2,74.045L1643.2,140.364L1643.31,140.321L1643.31,148.465L1643.28,148.495L1643.31,148.525L1643.31,161.166L1643.15,161.237L1643.15,169.441C1643.15,169.441 1643.15,169.416 1643.15,169.368C1642.64,169.359 1642.13,169.302 1641.65,169.202C1641.4,168.176 1641.13,167.336 1640.81,166.821C1641.86,168.007 1642.78,168.882 1643.14,169.219C1643.03,167.235 1642.14,152.672 1639.87,153.717C1633.58,156.617 1637.3,162.698 1640.42,166.368C1640.25,166.248 1640.06,166.223 1639.87,166.312C1639.13,166.654 1638.53,167.04 1638.05,167.46ZM1640.81,166.821C1640.68,166.674 1640.55,166.523 1640.42,166.368C1640.56,166.463 1640.69,166.616 1640.81,166.821ZM1642.19,147.412L1643.2,148.416C1643.13,146.739 1642.45,131.778 1640.12,132.762C1632.38,136.024 1639.32,144.388 1642.19,147.412ZM1714.87,20.064L1682.69,31.066L1663.46,7.725L1644.23,31.117L1612.05,20.064C1612.05,20.064 1610.71,41.605 1615.29,44.638C1619.56,47.465 1709.93,48.956 1712.97,44.638C1716.26,40.062 1714.87,20.064 1714.87,20.064ZM1604.67,248.268C1604.67,248.329 1604.67,248.39 1604.67,248.451C1604.77,252.907 1608.41,256.468 1612.87,256.472L1604.67,248.268ZM1604.67,248.268L1612.87,256.472L1612.51,240.23L1612.35,240.08C1608.03,240.352 1604.67,243.942 1604.67,248.268ZM1714.56,256.473C1714.36,256.232 1708.29,248.741 1706.72,248.072L1706.51,248.275L1706.51,248.025C1706.41,248.035 1706.36,248.112 1706.36,248.27C1706.36,255.623 1714.33,256.451 1714.56,256.473ZM1643.14,200.84C1643.07,198.868 1642.42,184.258 1640.12,185.231C1631.23,188.976 1641.7,199.447 1643.14,200.84Z" style="fill:rgb(201,223,255);"/>
                    </g>
                </g>
            </g>
        </g>
    </g>
</svg>
