<?xml version="1.0" encoding="UTF-8" standalone="no"?>
<!DOCTYPE svg PUBLIC "-//W3C//DTD SVG 1.1//EN" "http://www.w3.org/Graphics/SVG/1.1/DTD/svg11.dtd">
<svg width="100%" height="100%" viewBox="0 0 256 256" version="1.1" xmlns="http://www.w3.org/2000/svg" xmlns:xlink="http://www.w3.org/1999/xlink" xml:space="preserve" xmlns:serif="http://www.serif.com/" style="fill-rule:evenodd;clip-rule:evenodd;stroke-linecap:round;stroke-linejoin:round;stroke-miterlimit:1.5;">
    <g transform="matrix(1,0,0,1,-256,-512)">
        <g transform="matrix(1.6,0,0,1.70667,-17981.5,138.589)">
            <rect id="Worldbuilding" x="11398.4" y="218.796" width="160" height="150" style="fill:none;"/>
            <g id="Worldbuilding1" serif:id="Worldbuilding">
                <g transform="matrix(1,0,0,1,-0.417151,7.91016)">
                    <g transform="matrix(0.625,0,0,0.585937,11398,-72.7082)">
                        <path d="M37.872,708.319L38.167,673.654C83.625,662.163 112.549,667.479 128.667,690.654L129.667,699.654L130.167,699.654L131.167,690.654C147.285,667.479 176.21,662.163 221.667,673.654L221.84,708.867L145.667,709.154C145.667,709.154 139.891,721.722 129.667,721.487C120.779,721.282 113.001,709.154 113.001,709.154L37.872,708.319Z" style="fill:rgb(234,184,255);"/>
                    </g>
                    <g transform="matrix(0.620363,0.0712386,-0.0690491,0.528483,11447.9,-43.2115)">
                        <path d="M128.001,700.154C128.001,700.154 107.157,687.639 92.001,686.154C79.019,684.881 61.334,688.82 61.334,688.82" style="fill:none;stroke:black;stroke-width:4.19px;"/>
                    </g>
                    <g transform="matrix(-0.620363,0.0712386,0.0690491,0.528483,11511.3,-43.2115)">
                        <path d="M128.001,700.154C128.001,700.154 107.157,687.639 92.001,686.154C79.019,684.881 61.334,688.82 61.334,688.82" style="fill:none;stroke:black;stroke-width:4.19px;"/>
                    </g>
                    <g transform="matrix(0.623864,-0.035319,0.0376736,0.584872,11372.7,-67.1321)">
                        <path d="M128.001,700.154C128.001,700.154 103.03,689.712 87.962,687.513C70.548,684.97 54.147,688.386 54.147,688.386" style="fill:none;stroke:black;stroke-width:4px;"/>
                    </g>
                    <g transform="matrix(-0.623864,-0.035319,-0.0376736,0.584872,11586.5,-67.1321)">
                        <path d="M128.001,700.154C128.001,700.154 103.03,689.712 87.962,687.513C70.548,684.97 54.147,688.386 54.147,688.386" style="fill:none;stroke:black;stroke-width:4px;"/>
                    </g>
                    <g transform="matrix(0.625,0,0,0.585937,11398.4,-73.2941)">
                        <path d="M130.167,699.654L131.167,690.654C147.285,667.479 176.21,662.163 221.667,673.654L222.167,693.654" style="fill:none;stroke:black;stroke-width:8px;"/>
                    </g>
                    <g transform="matrix(-0.625,0,0,0.585937,11560.8,-73.2941)">
                        <path d="M130.167,699.654L131.167,690.654C147.285,667.479 176.21,662.163 221.667,673.654L222.167,693.654" style="fill:none;stroke:black;stroke-width:8px;"/>
                    </g>
                    <g transform="matrix(0.625,0,0,0.585937,11398.4,-73.2941)">
                        <path d="M23.001,708.154L113.001,709.154C113.001,709.154 120.779,721.282 129.667,721.487C139.891,721.722 145.667,709.154 145.667,709.154L234.334,708.82" style="fill:none;stroke:black;stroke-width:8px;"/>
                    </g>
                </g>
                <g transform="matrix(0.497533,0,0,0.495387,11320.8,-22.601)">
                    <path d="M312.851,685.459L357.851,537.631L427.945,685.578C427.945,685.578 396.351,678.555 374.558,678.477C344.728,678.37 312.851,685.459 312.851,685.459Z" style="fill:rgb(164,164,164);"/>
                </g>
                <g transform="matrix(0.625,0,0,0.585937,11238.4,-81.2043)">
                    <path d="M316.201,681.812L358.534,540.312L429.201,684.395C411.164,683.388 395.473,686.029 383.437,694.356C383.437,694.356 354.374,680.268 342.639,679.182C330.738,678.081 316.201,681.812 316.201,681.812Z" style="fill:rgb(209,209,209);"/>
                </g>
                <g transform="matrix(0.625,0,0,0.585937,11238.4,-81.2043)">
                    <path d="M315.201,678.312L358.534,540.312L429.201,681.645" style="fill:none;stroke:black;stroke-width:8px;"/>
                </g>
                <g transform="matrix(0.497533,0,0,0.495387,11320.8,-22.601)">
                    <path d="M332.566,605.504L357.851,537.631L429.201,681.645" style="fill:none;stroke:black;stroke-width:9.74px;"/>
                </g>
            </g>
        </g>
    </g>
</svg>
