<?xml version="1.0" encoding="UTF-8" standalone="no"?>
<!DOCTYPE svg PUBLIC "-//W3C//DTD SVG 1.1//EN" "http://www.w3.org/Graphics/SVG/1.1/DTD/svg11.dtd">
<svg width="100%" height="100%" viewBox="0 0 256 256" version="1.1" xmlns="http://www.w3.org/2000/svg" xmlns:xlink="http://www.w3.org/1999/xlink" xml:space="preserve" xmlns:serif="http://www.serif.com/" style="fill-rule:evenodd;clip-rule:evenodd;stroke-linejoin:round;stroke-miterlimit:2;">
    <g transform="matrix(1,0,0,1,-6144,0)">
        <g transform="matrix(1.6,0,0,1.70667,-12093.5,-373.411)">
            <rect id="fitness_and_health" x="11398.4" y="218.796" width="160" height="150" style="fill:none;"/>
            <g id="fitness_and_health1" serif:id="fitness_and_health">
                <g transform="matrix(0.309887,0,0,0.290519,11402.7,222.562)">
                    <path d="M484.5,284.6C468.8,210.8 394.8,66 334.3,22.7C304.8,1.5 206.7,37.9 193.3,55C186.1,64.2 189.8,92.6 198.2,97.7C200.772,99.283 215.927,102.657 223.722,96.436C230.96,90.661 230.556,75.409 240.438,73.036C246.815,71.505 272.993,78.986 274.416,80.171C279.016,83.971 218.9,111.5 223.8,114.8C226.158,116.398 228.988,129.096 239.818,129.105C270.32,129.13 327,112.4 327,112.4C293.4,206.4 320.9,271.1 320.9,271.1L317.8,272.9C273.4,252.6 202.5,289.4 202.5,289.4C202.5,289.4 190.4,242.1 143.3,219.2C101.8,199.1 72.526,209.83 51.267,222.466C30.009,235.102 19.369,268.335 15.746,295.017C12.589,318.276 10.185,361.242 12.653,398.278C14.172,421.06 23.891,439.168 33.777,449.883C42.873,459.742 58.667,463.466 71.967,462.566C86.967,461.466 122.5,442.2 122.5,442.2C122.5,442.2 256.8,499.6 354.5,460.5C381.9,449.6 442.6,437.6 464.4,417.8C472,410.9 482.2,391.4 482.7,381.2C483,375.1 481.1,363.5 480.3,357.4C477.8,339.2 488.3,302.3 484.5,284.6Z" style="fill:rgb(243,182,157);fill-rule:nonzero;"/>
                    <path d="M298.616,251.392C293.645,226.795 290.134,186.126 303.123,135.303C283.322,140.026 257.411,145.254 239.804,145.24C225.853,145.228 214.602,129.811 211.882,125.752C209.74,123.514 208.484,120.918 207.831,118.158C207.671,117.485 207.546,116.787 207.466,116.066C199.028,115.502 191.91,112.772 189.75,111.445C183.809,107.791 177.578,98.488 174.999,86.513C171.756,71.451 174.192,53.236 180.594,45.056L180.6,45.048C183.867,40.878 190.567,35.48 200.058,30.224C217.494,20.567 245.655,9.83 272.465,4.196C288.604,0.805 304.284,-0.7 317.1,0.577C327.917,1.655 337.001,4.772 343.691,9.579C406.518,54.545 483.958,204.56 500.276,281.216C502.084,289.64 501.518,301.724 499.961,314.572C498.178,329.284 494.922,345.286 496.285,355.204C496.289,355.237 496.294,355.269 496.298,355.302C497.194,362.138 499.151,375.154 498.816,381.991C498.164,395.266 485.137,420.765 475.247,429.745C465.298,438.781 448.447,446.779 429.569,453.456C404.961,462.16 376.768,469.007 360.467,475.491C271.361,511.133 153.309,471.179 123.321,459.852C111.098,465.88 85.679,477.739 73.148,478.658C73.117,478.66 73.087,478.662 73.057,478.664C55.156,479.876 34.161,474.093 21.918,460.824C10.129,448.046 -1.635,426.52 -3.446,399.35C-5.991,361.151 -3.499,316.836 -0.242,292.846C4.005,261.563 18.098,223.412 43.023,208.596C67.812,193.862 101.942,181.241 150.333,204.679L150.355,204.689C184.706,221.391 202.769,249.458 211.372,267.702C222.368,263.188 237.906,257.629 254.762,254.139C269.072,251.176 284.242,249.819 298.616,251.392ZM484.5,284.6C468.8,210.8 394.8,66 334.3,22.7C304.8,1.5 206.7,37.9 193.3,55C186.1,64.2 189.8,92.6 198.2,97.7C200.772,99.283 215.927,102.657 223.722,96.436C230.96,90.661 230.556,75.409 240.438,73.036C246.815,71.505 272.993,78.986 274.416,80.171C279.016,83.971 218.9,111.5 223.8,114.8C226.158,116.398 228.988,129.096 239.818,129.105C270.32,129.13 327,112.4 327,112.4C293.4,206.4 320.9,271.1 320.9,271.1L317.8,272.9C273.4,252.6 202.5,289.4 202.5,289.4C202.5,289.4 190.4,242.1 143.3,219.2C101.8,199.1 72.526,209.83 51.267,222.466C30.009,235.102 19.369,268.335 15.746,295.017C12.589,318.276 10.185,361.242 12.653,398.278C14.172,421.06 23.891,439.168 33.777,449.883C42.873,459.742 58.667,463.466 71.967,462.566C86.967,461.466 122.5,442.2 122.5,442.2C122.5,442.2 256.8,499.6 354.5,460.5C381.9,449.6 442.6,437.6 464.4,417.8C472,410.9 482.2,391.4 482.7,381.2C483,375.1 481.1,363.5 480.3,357.4C477.8,339.2 488.3,302.3 484.5,284.6Z" style="fill:rgb(72,20,0);"/>
                </g>
                <g transform="matrix(0.309887,0,0,0.290519,11402.7,222.562)">
                    <path d="M318.168,278.126C316.001,277.005 315.152,274.335 316.274,272.168C317.395,270.001 320.065,269.152 322.232,270.274C334.486,275.622 344.911,286.428 353.605,298.604C371.466,323.617 380.978,354.6 380.978,354.6C382.413,360.493 378.793,366.443 372.9,367.878C367.007,369.313 361.057,365.693 359.622,359.8C359.622,359.8 354.729,330.723 341.617,306.02C335.57,294.629 328.032,284.088 318.168,278.126Z" style="fill:rgb(151,86,59);"/>
                </g>
                <g transform="matrix(0.309887,0,0,0.290519,11402.7,222.562)">
                    <path d="M84.962,382.052C83.057,383.576 80.273,383.267 78.748,381.362C77.224,379.457 77.533,376.673 79.438,375.148C79.438,375.148 119.259,341.349 179.217,332.311C211.016,327.517 248.298,329.819 288.393,347.262C293.878,349.853 296.228,356.408 293.638,361.893C291.047,367.378 284.492,369.728 279.007,367.138C243.706,349.114 210.081,345.054 181.043,347.613C124.268,352.617 84.962,382.052 84.962,382.052Z" style="fill:rgb(151,86,59);"/>
                </g>
            </g>
        </g>
    </g>
</svg>
