<?xml version="1.0" encoding="utf-8"?>
<!-- Generator: Adobe Illustrator 18.0.0, SVG Export Plug-In . SVG Version: 6.00 Build 0)  -->
<svg version="1.2" baseProfile="tiny" id="Layer_1" xmlns="http://www.w3.org/2000/svg" xmlns:xlink="http://www.w3.org/1999/xlink"
	 x="0px" y="0px" viewBox="0 0 500 500" xml:space="preserve">
<path fill="#1F4383" d="M373.5,21L52.3,174.5c-2,1-2.8,3.3-1.9,5.3l21.3,44.5c1,2,3.3,2.8,5.3,1.9L398.2,72.7c2-1,2.8-3.3,1.9-5.3
	l-21.3-44.5C377.8,20.9,375.5,20,373.5,21z"/>
<path fill="#1F4383" d="M435,456.3H79c-2.2,0-4-1.8-4-4v-218c0-2.2,1.8-4,4-4h356c2.2,0,4,1.8,4,4v218
	C439,454.5,437.2,456.3,435,456.3z"/>
<path fill="#82A9D9" d="M373.5,21l-36.6,17.5c-2,1-2.8,3.3-1.9,5.3l21.3,44.5c1,2,3.3,2.8,5.3,1.9l36.6-17.5c2-1,2.8-3.3,1.9-5.3
	l-21.3-44.5C377.8,20.9,375.5,20,373.5,21z"/>
<path fill="#82A9D9" d="M263,74.5L226.3,92c-2,1-2.8,3.3-1.9,5.3l21.3,44.5c1,2,3.3,2.8,5.3,1.9l36.6-17.5c2-1,2.8-3.3,1.9-5.3
	l-21.3-44.5C267.3,74.4,264.9,73.5,263,74.5z"/>
<path fill="#82A9D9" d="M155,125.5L118.3,143c-2,1-2.8,3.3-1.9,5.3l21.3,44.5c1,2,3.3,2.8,5.3,1.9l36.6-17.5c2-1,2.8-3.3,1.9-5.3
	l-21.3-44.5C159.3,125.4,156.9,124.5,155,125.5z"/>
<line fill="none" stroke="#82A9D9" stroke-width="12" stroke-miterlimit="10" x1="110.5" y1="343.3" x2="412.5" y2="343.3"/>
<line fill="none" stroke="#82A9D9" stroke-width="12" stroke-miterlimit="10" x1="260.5" y1="443" x2="260.5" y2="344.1"/>
<path fill="#82A9D9" d="M154.7,275.6h-39c-2.2,0-3.3-1.8-2.5-4l13.6-37.3c0.8-2.2,3.2-4,5.5-4h39c2.2,0,3.3,1.8,2.5,4l-13.6,37.3
	C159.4,273.8,156.9,275.6,154.7,275.6z"/>
<path fill="#82A9D9" d="M278.7,275.6h-39c-2.2,0-3.3-1.8-2.5-4l13.6-37.3c0.8-2.2,3.2-4,5.5-4h39c2.2,0,3.3,1.8,2.5,4l-13.6,37.3
	C283.3,273.8,280.9,275.6,278.7,275.6z"/>
<path fill="#82A9D9" d="M402.7,275.6h-39c-2.2,0-3.3-1.8-2.5-4l13.6-37.3c0.8-2.2,3.2-4,5.5-4h39c2.2,0,3.3,1.8,2.5,4l-13.6,37.3
	C407.3,273.8,404.9,275.6,402.7,275.6z"/>
</svg>
