<?xml version="1.0" encoding="utf-8"?>
<!-- Generator: Adobe Illustrator 18.0.0, SVG Export Plug-In . SVG Version: 6.00 Build 0)  -->
<svg version="1.2" baseProfile="tiny" id="Layer_1" xmlns="http://www.w3.org/2000/svg" xmlns:xlink="http://www.w3.org/1999/xlink"
	 x="0px" y="0px" viewBox="0 0 500 500" xml:space="preserve">
<path fill="#DFEDD0" stroke="#E1EFD0" stroke-width="20" stroke-linecap="round" stroke-miterlimit="10" d="M179,216.3h-8
	c-13.2,0-13.5-5.9-13.5-19.1L149,61c0-13.2,8.8-28,22-28h8c13.2,0,16,10.8,16,24l8,135.3C203,205.5,192.2,216.3,179,216.3z"/>
<path fill="#DFEDD0" stroke="#E1EFD0" stroke-width="20" stroke-linecap="round" stroke-miterlimit="10" d="M160.2,356.5
	L160.2,356.5c-16.3,12.3-31.8,9.1-44.1-7.3l-74.4-87.9c-12.3-16.3-9.1-39.8,7.3-52.1l0,0c16.3-12.3,39.8-9.1,52.1,7.3l66.4,87.9
	C179.9,320.7,176.6,344.2,160.2,356.5z"/>
<path fill="#DFEDD0" stroke="#E1EFD0" stroke-width="20" stroke-linecap="round" stroke-miterlimit="10" d="M353.9,230.7l-8-0.4
	c-13.2-0.6-23.4-12-22.8-25.1l6.6-135.1c0.6-13.2,12-23.4,25.1-22.8l8,0.4c13.2,0.6,23.4,12,22.8,25.1L379,207.9
	C378.4,221.1,367,231.4,353.9,230.7z"/>
<path fill="#DFEDD0" stroke="#E1EFD0" stroke-width="20" stroke-linecap="round" stroke-miterlimit="10" d="M430.2,258.9l-8-0.5
	c-13.2-0.9-23.2-12.4-22.4-25.5l15.9-134.5c0.9-13.2,5.4-23.7,18.5-22.8l8,0.5c13.2,0.9,21.2,12.2,20.4,25.4l-19.2,148.4
	C442.6,263,443.4,259.8,430.2,258.9z"/>
<path fill="#DFEDD0" stroke="#E1EFD0" stroke-width="20" stroke-linecap="round" stroke-miterlimit="10" d="M270,197.2h-8
	c-13.2,0-24-10.8-24-24V44.6c0-13.2,10.8-24,24-24h8c13.2,0,24,10.8,24,24v128.6C294,186.4,283.2,197.2,270,197.2z"/>
<path fill="#768C81" stroke="#E1EFD0" stroke-width="40" stroke-linecap="round" stroke-miterlimit="10" d="M155,216.3
	c61-52.3,230.1-40.9,267.3,4.7c40.5,49.6-43.5,122.2-53,235.4c-3.1,36.4-116.9,21.9-146.2,0c-35.8-26.8-32.7-58-70.4-82
	C114.1,349.7,134.1,234.2,155,216.3z"/>
<line fill="none" stroke="#E1EFD0" stroke-width="40" stroke-linecap="round" stroke-miterlimit="10" x1="274" y1="281" x2="274" y2="364"/>
<line fill="none" stroke="#E1EFD0" stroke-width="40" stroke-linecap="round" stroke-miterlimit="10" x1="232.5" y1="322.5" x2="315.5" y2="322.5"/>
</svg>
