<?xml version="1.0" encoding="utf-8"?>
<!-- Generator: Adobe Illustrator 18.0.0, SVG Export Plug-In . SVG Version: 6.00 Build 0)  -->
<!DOCTYPE svg PUBLIC "-//W3C//DTD SVG 1.1//EN" "http://www.w3.org/Graphics/SVG/1.1/DTD/svg11.dtd">
<svg version="1.1" id="Layer_1" xmlns="http://www.w3.org/2000/svg" xmlns:xlink="http://www.w3.org/1999/xlink" x="0px" y="0px"
	 viewBox="0 0 500 500" enable-background="new 0 0 500 500" xml:space="preserve">
<circle fill="none" stroke="#FFFFFF" stroke-width="55.6202" stroke-miterlimit="10" cx="251.2" cy="251.4" r="199.1"/>
<g>
	<polygon fill="#FFFFFF" points="172.2,167.6 210.2,120 169.2,75 127.2,75 86.7,119 127.2,167.6 	"/>
	<polygon fill="#FFFFFF" points="335.5,167.6 373.5,120 332.5,75 290.5,75 250,119 290.5,167.6 	"/>
	<polygon fill="#FFFFFF" points="209.7,210.9 169.2,254.8 209.7,303.5 254.7,303.5 292.7,255.8 251.7,210.9 	"/>
	<polygon fill="#FFFFFF" points="415,207.9 373,207.9 332.5,251.8 373,300.5 418,300.5 456,252.8 	"/>
	<polygon fill="#FFFFFF" points="127.2,345.6 86.7,389.5 127.2,438.2 172.2,438.2 210.2,390.5 169.2,345.6 	"/>
	<polygon fill="#FFFFFF" points="130.5,254.2 89.5,209.2 47.5,209.2 43,251.4 47.5,301.8 92.5,301.8 	"/>
	<polygon fill="#FFFFFF" points="290.5,345.6 250,389.5 290.5,438.2 335.5,438.2 373.5,390.5 332.5,345.6 	"/>
</g>
</svg>
