<?xml version="1.0" encoding="UTF-8" standalone="no"?>
<!DOCTYPE svg PUBLIC "-//W3C//DTD SVG 1.1//EN" "http://www.w3.org/Graphics/SVG/1.1/DTD/svg11.dtd">
<svg width="100%" height="100%" viewBox="0 0 256 256" version="1.1" xmlns="http://www.w3.org/2000/svg" xmlns:xlink="http://www.w3.org/1999/xlink" xml:space="preserve" xmlns:serif="http://www.serif.com/" style="fill-rule:evenodd;clip-rule:evenodd;stroke-linecap:round;stroke-linejoin:round;stroke-miterlimit:1.5;">
    <g transform="matrix(1,0,0,1,-768,-512)">
        <g transform="matrix(1.6,0,0,1.70667,-17469.5,138.589)">
            <rect id="Prose" x="11398.4" y="218.796" width="160" height="150" style="fill:none;"/>
            <g id="Prose1" serif:id="Prose">
                <g transform="matrix(1,0,0,1,-0.417151,7.91016)">
                    <g transform="matrix(0.625,0,0,0.585937,11398,-72.7082)">
                        <path d="M37.872,708.319L38.167,673.654C83.625,662.163 112.549,667.479 128.667,690.654L129.667,699.654L130.167,699.654L131.167,690.654C147.285,667.479 176.21,662.163 221.667,673.654L221.84,708.867L145.667,709.154C145.667,709.154 139.891,721.722 129.667,721.487C120.779,721.282 113.001,709.154 113.001,709.154L37.872,708.319Z" style="fill:rgb(234,184,255);"/>
                    </g>
                    <g transform="matrix(0.620363,0.0712386,-0.0690491,0.528483,11447.9,-43.2115)">
                        <path d="M128.001,700.154C128.001,700.154 107.157,687.639 92.001,686.154C79.019,684.881 61.334,688.82 61.334,688.82" style="fill:none;stroke:black;stroke-width:4.19px;"/>
                    </g>
                    <g transform="matrix(-0.620363,0.0712386,0.0690491,0.528483,11511.3,-43.2115)">
                        <path d="M128.001,700.154C128.001,700.154 107.157,687.639 92.001,686.154C79.019,684.881 61.334,688.82 61.334,688.82" style="fill:none;stroke:black;stroke-width:4.19px;"/>
                    </g>
                    <g transform="matrix(0.623864,-0.035319,0.0376736,0.584872,11372.7,-67.1321)">
                        <path d="M128.001,700.154C128.001,700.154 103.03,689.712 87.962,687.513C70.548,684.97 54.147,688.386 54.147,688.386" style="fill:none;stroke:black;stroke-width:4px;"/>
                    </g>
                    <g transform="matrix(-0.623864,-0.035319,-0.0376736,0.584872,11586.5,-67.1321)">
                        <path d="M128.001,700.154C128.001,700.154 103.03,689.712 87.962,687.513C70.548,684.97 54.147,688.386 54.147,688.386" style="fill:none;stroke:black;stroke-width:4px;"/>
                    </g>
                    <g transform="matrix(0.625,0,0,0.585937,11398.4,-73.2941)">
                        <path d="M130.167,699.654L131.167,690.654C147.285,667.479 176.21,662.163 221.667,673.654L222.167,693.654" style="fill:none;stroke:black;stroke-width:8px;"/>
                    </g>
                    <g transform="matrix(-0.625,0,0,0.585937,11560.8,-73.2941)">
                        <path d="M130.167,699.654L131.167,690.654C147.285,667.479 176.21,662.163 221.667,673.654L222.167,693.654" style="fill:none;stroke:black;stroke-width:8px;"/>
                    </g>
                    <g transform="matrix(0.625,0,0,0.585937,11398.4,-73.2941)">
                        <path d="M23.001,708.154L113.001,709.154C113.001,709.154 120.779,721.282 129.667,721.487C139.891,721.722 145.667,709.154 145.667,709.154L234.334,708.82" style="fill:none;stroke:black;stroke-width:8px;"/>
                    </g>
                </g>
                <g transform="matrix(0.293195,0,0,0.293195,8098.47,165.053)">
                    <g transform="matrix(0.625,0,0,0.585937,11398.8,219.462)">
                        <path d="M66.2,493.8C66.2,493.8 57.916,491.342 59.116,488.742L68.416,465.042L79.816,436.042L113.216,395.942C115.016,393.642 123.7,396.9 121.9,399.2L94.6,442.3L80.3,469.7L69.1,491.2C68.3,493.1 66.2,493.8 66.2,493.8Z" style="fill:rgb(226,226,226);fill-rule:nonzero;"/>
                        <path d="M104.494,482.315L93.298,503.806C87.354,515.198 74.828,519.685 74.828,519.685C69.522,521.454 63.801,521.549 58.439,519.959C58.439,519.959 52.885,518.268 48.436,515.834C43.821,513.311 40.101,509.943 37.756,506.892C30.739,497.761 29.783,487.929 33.906,478.289L43.016,455.075L43.022,455.06L54.422,426.06C55.488,423.346 56.984,420.82 58.85,418.579C58.85,418.579 92.146,378.604 92.126,378.629C96.666,373.081 103.778,368.556 113.344,367.939C121.158,367.435 132.135,370.995 137.962,375.55C144.742,380.849 147.845,387.572 148.924,393.214C150.305,400.427 149.263,407.674 144.516,414.487L118.261,455.936L104.494,482.315ZM66.2,493.8C66.2,493.8 68.3,493.1 69.1,491.2L80.3,469.7L94.6,442.3L121.9,399.2C123.7,396.9 115.016,393.642 113.216,395.942L79.816,436.042L68.416,465.042L59.116,488.742C57.916,491.342 66.2,493.8 66.2,493.8ZM97.573,386.615L98.849,384.6C99.333,383.835 99.855,383.096 100.412,382.384C99.321,383.779 98.374,385.19 97.573,386.615Z"/>
                    </g>
                    <g transform="matrix(0.625,0,0,0.585937,11398.4,218.796)">
                        <path d="M115.6,401.7C115.6,401.7 172.7,403.2 188.7,394.1C212.6,380.6 241.7,349.4 270.9,312C274.1,307.9 261.557,288.714 261.557,288.714C261.557,288.714 285.6,292.8 288.1,289.4C322.6,242.7 356,190.3 380,151C382.2,147.4 355.207,127.732 355.207,127.732C355.207,127.732 390.4,133.8 392.3,130.7C406.9,106.2 415.8,90.4 415.8,90.4C415.8,90.4 458,19 439.1,12.5C392.2,-3.8 269.6,109.8 269.6,109.8C269.6,109.8 242,141 209.3,182.1C205.9,186.3 222.071,213.361 222.071,213.361C222.071,213.361 193.5,202.3 190.7,206C153,255.2 114.5,311.8 106.7,345.7C103.6,359.5 115.6,401.7 115.6,401.7Z" style="fill:rgb(142,90,36);fill-rule:nonzero;"/>
                        <path d="M181.881,180.078C182.709,173.307 185.463,168.18 187.948,165.112C221.143,123.39 249.163,91.721 249.163,91.721C249.761,91.045 250.393,90.399 251.055,89.786C251.055,89.786 314.223,31.453 368.963,2.254C399.504,-14.037 428.791,-19.956 448.033,-13.282C462.401,-8.316 472.254,3.969 471.183,24.518C469.856,49.963 439.29,104.283 439.573,103.791C439.573,103.791 430.548,119.818 415.739,144.668C415.681,144.765 415.623,144.862 415.564,144.958C413.98,147.543 411.44,150.836 407.407,153.568C406.891,158.117 405.231,162.039 403.283,165.227C378.936,205.095 345.043,258.241 310.083,305.564C307.931,308.489 304.099,312.238 298.327,314.848C297.443,320.692 295.048,325.407 292.408,328.79C260.557,369.586 228.259,403.069 202.18,417.823C195.185,421.798 183.015,425.172 169.114,426.845C145.076,429.737 114.883,428.976 114.883,428.976C102.958,428.663 92.618,420.638 89.355,409.163C89.355,409.163 82.945,386.525 80.248,367.765C78.619,356.439 78.644,346.103 80.078,339.72C80.088,339.674 80.099,339.628 80.109,339.582C88.461,303.285 128.676,242.083 168.942,189.535C171.29,186.432 175.571,182.463 181.881,180.078ZM115.6,401.7C115.6,401.7 172.7,403.2 188.7,394.1C212.6,380.6 241.7,349.4 270.9,312C274.1,307.9 261.557,288.714 261.557,288.714C261.557,288.714 285.6,292.8 288.1,289.4C322.6,242.7 356,190.3 380,151C382.2,147.4 355.207,127.732 355.207,127.732C355.207,127.732 390.4,133.8 392.3,130.7C406.9,106.2 415.8,90.4 415.8,90.4C415.8,90.4 458,19 439.1,12.5C392.2,-3.8 269.6,109.8 269.6,109.8C269.6,109.8 242,141 209.3,182.1C205.9,186.3 222.071,213.361 222.071,213.361C222.071,213.361 193.5,202.3 190.7,206C153,255.2 114.5,311.8 106.7,345.7C103.6,359.5 115.6,401.7 115.6,401.7Z"/>
                    </g>
                    <g transform="matrix(0.625,0,0,0.585937,11398.4,218.796)">
                        <path d="M125.2,390.6C125.2,390.6 303.6,68.8 432.2,22.1" style="fill:none;fill-rule:nonzero;stroke:rgb(244,216,190);stroke-width:4px;stroke-linejoin:miter;stroke-miterlimit:10;"/>
                    </g>
                    <g transform="matrix(0.625,0,0,0.585937,11398.4,218.796)">
                        <path d="M163.4,358.9C163.4,358.9 204.3,330.3 240.7,333.8C244.2,334.1 237.6,346.4 234.1,346.3C217.6,346.2 163.4,358.9 163.4,358.9Z" style="fill:rgb(244,216,190);fill-rule:nonzero;"/>
                    </g>
                    <g transform="matrix(0.625,0,0,0.585937,11398.4,218.796)">
                        <path d="M253.9,210C253.9,210 283,238.6 319.3,235.1C322.8,234.8 333.9,214.9 331.2,217.3C317.3,229.4 253.9,210 253.9,210Z" style="fill:rgb(244,216,190);fill-rule:nonzero;"/>
                    </g>
                    <g transform="matrix(0.625,0,0,0.585937,11398.4,218.796)">
                        <path d="M391,54.8C391,54.8 408.8,65.5 429.2,58.4C431.2,57.7 434.8,44.8 433.6,46.5C427.2,55.5 391,54.8 391,54.8Z" style="fill:rgb(244,216,190);fill-rule:nonzero;"/>
                    </g>
                    <g transform="matrix(0.625,0,0,0.585937,11398.4,218.796)">
                        <path d="M270,155.7C270,155.7 264.9,133.6 267.7,115.1C268.1,112.2 283.8,101 281.6,102.9C272.7,110.5 270,155.7 270,155.7Z" style="fill:rgb(244,216,190);fill-rule:nonzero;"/>
                    </g>
                    <g transform="matrix(0.625,0,0,0.585937,11398.4,218.796)">
                        <path d="M348.8,71.4C348.8,71.4 344.8,63.6 344.3,53C344.2,51.3 351.3,47 350.7,48.6C348.8,53.6 348.8,71.4 348.8,71.4Z" style="fill:rgb(244,216,190);fill-rule:nonzero;"/>
                    </g>
                    <g transform="matrix(0.625,0,0,0.585937,11398.4,218.796)">
                        <path d="M134,351.9C134,351.9 156.3,311.8 147.6,285C146.7,282.4 135.6,295.7 136.2,298.3C138.7,310.8 134,351.9 134,351.9Z" style="fill:rgb(244,216,190);fill-rule:nonzero;"/>
                    </g>
                    <g transform="matrix(0.625,0,0,0.585937,11398.8,219.462)">
                        <path d="M70.558,457.463L67.758,464.563L58.458,488.263C57.258,490.963 63.268,497.49 63.268,497.49C63.268,497.49 68.4,493 69.3,491L80.5,469.5L86.2,458.5L70.558,457.363L70.558,457.463Z" style="fill:rgb(43,43,43);fill-rule:nonzero;"/>
                    </g>
                </g>
            </g>
        </g>
    </g>
</svg>
