<?xml version="1.0" encoding="UTF-8" standalone="no"?>
<!DOCTYPE svg PUBLIC "-//W3C//DTD SVG 1.1//EN" "http://www.w3.org/Graphics/SVG/1.1/DTD/svg11.dtd">
<svg width="100%" height="100%" viewBox="0 0 256 256" version="1.1" xmlns="http://www.w3.org/2000/svg" xmlns:xlink="http://www.w3.org/1999/xlink" xml:space="preserve" xmlns:serif="http://www.serif.com/" style="fill-rule:evenodd;clip-rule:evenodd;stroke-linejoin:round;stroke-miterlimit:2;">
    <g transform="matrix(1,0,0,1,-256,-1536)">
        <g transform="matrix(1.00787,0,0,1.024,221.981,82.2681)">
            <rect id="general_knowledge" x="33.753" y="1419.66" width="254" height="250" style="fill:none;"/>
            <clipPath id="_clip1">
                <rect id="general_knowledge1" serif:id="general_knowledge" x="33.753" y="1419.66" width="254" height="250"/>
            </clipPath>
            <g clip-path="url(#_clip1)">
                <g transform="matrix(0.992188,0,0,0.976563,-232.199,-86.2489)">
                    <path d="M330.492,1672.7C313.226,1659.39 300.241,1646.43 293.398,1635.76C286.971,1625.74 285.888,1617.1 289.183,1611.24C292.478,1605.37 300.415,1601.8 312.318,1602.07C324.524,1602.35 341.508,1606.38 360.92,1613.66C364.075,1593.16 368.874,1576.37 374.61,1565.59C380.203,1555.08 387.202,1549.91 393.932,1549.91C400.663,1549.91 407.662,1555.08 413.255,1565.59C413.636,1566.31 414.013,1567.05 414.385,1567.82C415.045,1567.75 415.714,1567.71 416.392,1567.71C426.727,1567.71 435.117,1576.1 435.117,1586.44C435.117,1593.63 431.052,1599.88 425.096,1603.02C425.49,1605.04 425.867,1607.11 426.227,1609.22C443.308,1601.47 458.397,1596.71 469.657,1595.51C481.498,1594.25 489.704,1597.15 493.475,1602.73C497.246,1608.3 496.883,1617 491.31,1627.52C485.374,1638.73 473.502,1652.73 457.39,1667.42C466.259,1674.26 473.999,1681 480.356,1687.39C483.277,1685.36 486.823,1684.18 490.644,1684.18C500.62,1684.18 508.72,1692.28 508.72,1702.25C508.72,1708.75 505.287,1714.45 500.137,1717.63C500.939,1722.01 500.412,1725.82 498.692,1728.88C495.397,1734.75 487.46,1738.32 475.557,1738.05C463.35,1737.77 446.36,1733.74 426.944,1726.45C423.788,1746.94 418.99,1763.73 413.255,1774.51C407.662,1785.02 400.663,1790.2 393.932,1790.2C387.202,1790.2 380.203,1785.02 374.61,1774.51C369.295,1764.52 364.784,1749.37 361.64,1730.89C344.58,1738.63 329.509,1743.38 318.26,1744.58C306.42,1745.84 298.213,1742.94 294.442,1737.36C290.671,1731.79 291.034,1723.09 296.607,1712.57C297.411,1711.05 298.323,1709.49 299.34,1707.87C296.443,1704.66 294.677,1700.41 294.677,1695.76C294.677,1685.78 302.777,1677.68 312.753,1677.68C316.273,1677.68 319.559,1678.69 322.338,1680.43C324.917,1677.88 327.638,1675.3 330.492,1672.7ZM359.432,1624.62C345.143,1619.11 332.182,1615.41 321.548,1613.78C314.906,1612.77 309.253,1612.56 304.872,1613.35C301.936,1613.89 299.656,1614.69 298.621,1616.54C297.585,1618.38 298.087,1620.74 299.159,1623.53C300.758,1627.68 303.879,1632.4 308.204,1637.55C315.42,1646.13 325.88,1655.69 338.737,1665.43C344.515,1660.51 350.728,1655.55 357.314,1650.63C357.74,1641.57 358.459,1632.86 359.432,1624.62ZM404.414,1572.05C402.944,1569.09 401.397,1566.59 399.767,1564.62C397.864,1562.33 396.048,1560.73 393.932,1560.73C391.817,1560.73 390.001,1562.33 388.098,1564.62C385.258,1568.05 382.671,1573.08 380.305,1579.37C376.514,1589.44 373.396,1602.57 371.208,1617.73C377.992,1620.55 385.004,1623.73 392.155,1627.24C400.346,1622.33 408.379,1617.92 416.103,1614.06C415.615,1610.97 415.088,1607.97 414.523,1605.07C405.065,1604.13 397.667,1596.14 397.667,1586.44C397.667,1580.66 400.292,1575.48 404.414,1572.05ZM448.57,1660.87C460.583,1650.09 470.22,1639.68 476.703,1630.53C480.586,1625.04 483.304,1620.08 484.554,1615.81C485.391,1612.94 485.695,1610.54 484.51,1608.79C483.324,1607.04 480.985,1606.43 478.016,1606.14C473.583,1605.71 467.966,1606.39 461.432,1607.95C451.814,1610.25 440.384,1614.46 427.895,1620.32C429.067,1629.22 429.938,1638.73 430.455,1648.68C436.829,1652.71 442.885,1656.79 448.57,1660.87ZM473.686,1695.99C467.094,1689.21 458.795,1682 449.144,1674.69C443.361,1679.61 437.142,1684.58 430.55,1689.51C430.123,1698.56 429.404,1707.26 428.431,1715.49C442.726,1721.01 455.69,1724.71 466.328,1726.34C472.969,1727.35 478.623,1727.56 483.004,1726.76C485.939,1726.23 488.22,1725.43 489.255,1723.58C489.792,1722.63 489.916,1721.53 489.761,1720.31C480.194,1719.85 472.568,1711.93 472.568,1702.25C472.568,1700.05 472.963,1697.94 473.686,1695.99ZM371.764,1726.06C373.912,1739.67 376.825,1751.48 380.305,1760.73C382.671,1767.02 385.258,1772.05 388.098,1775.48C390.001,1777.78 391.817,1779.37 393.932,1779.37C396.048,1779.37 397.864,1777.78 399.767,1775.48C402.607,1772.05 405.194,1767.02 407.56,1760.73C411.35,1750.66 414.467,1737.54 416.655,1722.38C409.875,1719.56 402.866,1716.39 395.719,1712.87C387.525,1717.78 379.49,1722.19 371.764,1726.06ZM308.658,1713.37C306.127,1717.36 304.317,1721.02 303.364,1724.28C302.527,1727.15 302.223,1729.55 303.408,1731.3C304.593,1733.05 306.932,1733.66 309.902,1733.95C314.334,1734.38 319.951,1733.7 326.486,1732.14C336.09,1729.84 347.503,1725.64 359.972,1719.8C358.799,1710.89 357.928,1701.38 357.411,1691.43C351.043,1687.41 344.992,1683.33 339.312,1679.25C335.786,1682.42 332.464,1685.55 329.367,1688.63C330.308,1690.82 330.829,1693.23 330.829,1695.76C330.829,1705.73 322.73,1713.83 312.753,1713.83C311.345,1713.83 309.974,1713.67 308.658,1713.37ZM381.275,1634C377.395,1632.18 373.568,1630.46 369.812,1628.85C369.336,1633.26 368.935,1637.81 368.614,1642.48C370.123,1641.43 371.647,1640.38 373.187,1639.34C375.889,1637.51 378.587,1635.73 381.275,1634ZM356.897,1664.55C353.726,1667.03 350.66,1669.51 347.707,1671.98C350.686,1674.08 353.767,1676.18 356.941,1678.27C356.888,1675.55 356.861,1672.81 356.861,1670.05C356.861,1668.21 356.873,1666.37 356.897,1664.55ZM417.659,1625.37C413.055,1627.74 408.345,1630.32 403.56,1633.08C406.391,1634.58 409.235,1636.13 412.088,1637.74C414.494,1639.09 416.867,1640.45 419.206,1641.82C418.805,1636.15 418.286,1630.65 417.659,1625.37ZM430.968,1675.58C434.144,1673.1 437.216,1670.61 440.174,1668.14C437.19,1666.04 434.104,1663.94 430.924,1661.84C430.977,1664.56 431.004,1667.29 431.004,1670.05C431.004,1671.9 430.992,1673.75 430.968,1675.58ZM418.052,1711.26C418.527,1706.85 418.928,1702.31 419.249,1697.65C417.758,1698.69 416.251,1699.72 414.73,1700.75C412.014,1702.59 409.302,1704.38 406.601,1706.12C410.477,1707.94 414.299,1709.66 418.052,1711.26ZM368.66,1698.29C369.061,1703.96 369.58,1709.46 370.208,1714.75C374.813,1712.37 379.526,1709.8 384.313,1707.04C381.483,1705.54 378.64,1703.98 375.787,1702.38C373.378,1701.03 371.002,1699.66 368.66,1698.29ZM392.67,1639.6C388.229,1642.36 383.748,1645.26 379.252,1648.3C375.37,1650.93 371.586,1653.58 367.913,1656.25C367.762,1660.78 367.685,1665.38 367.685,1670.05C367.685,1675.21 367.779,1680.28 367.962,1685.26C372.21,1687.85 376.59,1690.42 381.087,1692.94C385.828,1695.61 390.543,1698.13 395.205,1700.52C399.659,1697.75 404.155,1694.84 408.665,1691.79C412.529,1689.17 416.295,1686.53 419.951,1683.88C420.103,1679.35 420.18,1674.73 420.18,1670.05C420.18,1664.9 420.086,1659.83 419.903,1654.86C415.659,1652.26 411.282,1649.7 406.789,1647.17C402.047,1644.51 397.332,1641.98 392.67,1639.6ZM393.71,1654.52C402.1,1654.52 408.913,1661.33 408.913,1669.72C408.913,1678.11 402.1,1684.92 393.71,1684.92C385.319,1684.92 378.507,1678.11 378.507,1669.72C378.507,1661.33 385.319,1654.52 393.71,1654.52Z" style="fill:rgb(225,17,114);"/>
                    <path d="M419.22,1559.86C432.643,1561.27 443.117,1572.64 443.117,1586.44C443.117,1589.14 442.715,1591.75 441.966,1594.21C452.2,1590.61 461.316,1588.35 468.813,1587.56C484.543,1585.89 495.091,1590.84 500.101,1598.25C505.111,1605.65 505.784,1617.29 498.379,1631.27C493.003,1641.41 483.071,1653.8 469.598,1666.92C474.037,1670.57 478.137,1674.17 481.863,1677.69C484.607,1676.71 487.564,1676.18 490.644,1676.18C505.036,1676.18 516.72,1687.86 516.72,1702.25C516.72,1709.74 513.562,1716.49 508.505,1721.25C508.547,1725.61 507.523,1729.5 505.668,1732.8C501.29,1740.6 491.19,1746.41 475.376,1746.05C464.457,1745.8 449.889,1742.78 433.221,1737.18C429.945,1754.45 425.446,1768.63 420.317,1778.27C412.887,1792.24 402.874,1798.2 393.932,1798.2C384.991,1798.2 374.978,1792.24 367.548,1778.27C362.921,1769.57 358.806,1757.19 355.643,1742.18C341.446,1747.97 328.895,1751.5 319.105,1752.54C303.374,1754.2 292.826,1749.25 287.816,1741.85C282.806,1734.44 282.133,1722.81 289.538,1708.83C289.642,1708.63 289.747,1708.43 289.854,1708.24C287.829,1704.53 286.677,1700.28 286.677,1695.76C286.677,1681.37 298.362,1669.68 312.753,1669.68C313.218,1669.68 313.68,1669.69 314.139,1669.72C301.693,1659.03 292.256,1648.8 286.664,1640.08C278.125,1626.76 277.83,1615.12 282.208,1607.32C286.585,1599.52 296.686,1593.71 312.5,1594.07C323.416,1594.32 337.979,1597.34 354.642,1602.94C357.918,1585.66 362.417,1571.48 367.548,1561.83C374.978,1547.87 384.991,1541.91 393.932,1541.91C402.441,1541.91 411.92,1547.3 419.22,1559.86ZM330.492,1672.7C327.638,1675.3 324.917,1677.88 322.338,1680.43C319.559,1678.69 316.273,1677.68 312.753,1677.68C302.777,1677.68 294.677,1685.78 294.677,1695.76C294.677,1700.41 296.443,1704.66 299.34,1707.87C298.323,1709.49 297.411,1711.05 296.607,1712.57C291.034,1723.09 290.671,1731.79 294.442,1737.36C298.213,1742.94 306.42,1745.84 318.26,1744.58C329.509,1743.38 344.58,1738.63 361.64,1730.89C364.784,1749.37 369.295,1764.52 374.61,1774.51C380.203,1785.02 387.202,1790.2 393.932,1790.2C400.663,1790.2 407.662,1785.02 413.255,1774.51C418.99,1763.73 423.788,1746.94 426.944,1726.45C446.36,1733.74 463.35,1737.77 475.557,1738.05C487.46,1738.32 495.397,1734.75 498.692,1728.88C500.412,1725.82 500.939,1722.01 500.137,1717.63C505.287,1714.45 508.72,1708.75 508.72,1702.25C508.72,1692.28 500.62,1684.18 490.644,1684.18C486.823,1684.18 483.277,1685.36 480.356,1687.39C473.999,1681 466.259,1674.26 457.39,1667.42C473.502,1652.73 485.374,1638.73 491.31,1627.52C496.883,1617 497.246,1608.3 493.475,1602.73C489.704,1597.15 481.498,1594.25 469.657,1595.51C458.397,1596.71 443.308,1601.47 426.227,1609.22C425.867,1607.11 425.49,1605.04 425.096,1603.02C431.052,1599.88 435.117,1593.63 435.117,1586.44C435.117,1576.1 426.727,1567.71 416.392,1567.71C415.714,1567.71 415.045,1567.75 414.385,1567.82C414.013,1567.05 413.636,1566.31 413.255,1565.59C407.662,1555.08 400.663,1549.91 393.932,1549.91C387.202,1549.91 380.203,1555.08 374.61,1565.59C368.874,1576.37 364.075,1593.16 360.92,1613.66C341.508,1606.38 324.524,1602.35 312.318,1602.07C300.415,1601.8 292.478,1605.37 289.183,1611.24C285.888,1617.1 286.971,1625.74 293.398,1635.76C300.241,1646.43 313.226,1659.39 330.492,1672.7ZM404.414,1572.05C400.292,1575.48 397.667,1580.66 397.667,1586.44C397.667,1596.14 405.065,1604.13 414.523,1605.07C415.088,1607.97 415.615,1610.97 416.103,1614.06C408.379,1617.92 400.346,1622.33 392.155,1627.24C385.004,1623.73 377.992,1620.55 371.208,1617.73C373.396,1602.57 376.514,1589.44 380.305,1579.37C382.671,1573.08 385.258,1568.05 388.098,1564.62C390.001,1562.33 391.817,1560.73 393.932,1560.73C396.048,1560.73 397.864,1562.33 399.767,1564.62C401.397,1566.59 402.944,1569.09 404.414,1572.05ZM405.175,1610.69C396.022,1606.45 389.667,1597.18 389.667,1586.44C389.667,1580.69 391.484,1575.36 394.576,1571C394.364,1570.7 394.149,1570.41 393.932,1570.13C391.677,1573.01 389.693,1577.14 387.792,1582.19C384.683,1590.45 382.07,1600.87 380.069,1612.81C383.915,1614.49 387.823,1616.28 391.778,1618.17C396.306,1615.52 400.78,1613.03 405.175,1610.69ZM359.432,1624.62C358.459,1632.86 357.74,1641.57 357.314,1650.63C350.728,1655.55 344.515,1660.51 338.737,1665.43C325.88,1655.69 315.42,1646.13 308.204,1637.55C303.879,1632.4 300.758,1627.68 299.159,1623.53C298.087,1620.74 297.585,1618.38 298.621,1616.54C299.656,1614.69 301.936,1613.89 304.872,1613.35C309.253,1612.56 314.906,1612.77 321.548,1613.78C332.182,1615.41 345.143,1619.11 359.432,1624.62ZM306.818,1621.14C308.222,1624.51 310.853,1628.27 314.326,1632.4C320.268,1639.46 328.523,1647.2 338.547,1655.16C342.068,1652.27 345.728,1649.38 349.517,1646.49C349.837,1640.82 350.27,1635.29 350.805,1629.94C339.413,1625.84 329.061,1623.02 320.339,1621.69C315.004,1620.87 310.43,1620.58 306.818,1621.14ZM356.897,1664.55C356.873,1666.37 356.861,1668.21 356.861,1670.05C356.861,1672.81 356.888,1675.55 356.941,1678.27C353.767,1676.18 350.686,1674.08 347.707,1671.98C350.66,1669.51 353.726,1667.03 356.897,1664.55ZM430.968,1675.58C430.992,1673.75 431.004,1671.9 431.004,1670.05C431.004,1667.29 430.977,1664.56 430.924,1661.84C434.104,1663.94 437.19,1666.04 440.174,1668.14C437.216,1670.61 434.144,1673.1 430.968,1675.58ZM417.659,1625.37C418.286,1630.65 418.805,1636.15 419.206,1641.82C416.867,1640.45 414.494,1639.09 412.088,1637.74C409.235,1636.13 406.391,1634.58 403.56,1633.08C408.345,1630.32 413.055,1627.74 417.659,1625.37ZM308.658,1713.37C309.974,1713.67 311.345,1713.83 312.753,1713.83C322.73,1713.83 330.829,1705.73 330.829,1695.76C330.829,1693.23 330.308,1690.82 329.367,1688.63C332.464,1685.55 335.786,1682.42 339.312,1679.25C344.992,1683.33 351.043,1687.41 357.411,1691.43C357.928,1701.38 358.799,1710.89 359.972,1719.8C347.503,1725.64 336.09,1729.84 326.486,1732.14C319.951,1733.7 314.334,1734.38 309.902,1733.95C306.932,1733.66 304.593,1733.05 303.408,1731.3C302.223,1729.55 302.527,1727.15 303.364,1724.28C304.317,1721.02 306.127,1717.36 308.658,1713.37ZM312.989,1721.83C312.23,1723.3 311.623,1724.7 311.195,1726.03C314.841,1726.29 319.376,1725.62 324.625,1724.36C332.423,1722.49 341.464,1719.29 351.317,1714.94C350.623,1708.85 350.065,1702.51 349.657,1695.97C346.338,1693.82 343.108,1691.66 339.977,1689.5C339.444,1690 338.916,1690.5 338.395,1691C338.68,1692.54 338.829,1694.13 338.829,1695.76C338.829,1710.07 327.273,1721.7 312.989,1721.83ZM418.052,1711.26C414.299,1709.66 410.477,1707.94 406.601,1706.12C409.302,1704.38 412.014,1702.59 414.73,1700.75C416.251,1699.72 417.758,1698.69 419.249,1697.65C418.928,1702.31 418.527,1706.85 418.052,1711.26ZM448.57,1660.87C442.885,1656.79 436.829,1652.71 430.455,1648.68C429.938,1638.73 429.067,1629.22 427.895,1620.32C440.384,1614.46 451.814,1610.25 461.432,1607.95C467.966,1606.39 473.583,1605.71 478.016,1606.14C480.985,1606.43 483.324,1607.04 484.51,1608.79C485.695,1610.54 485.391,1612.94 484.554,1615.81C483.304,1620.08 480.586,1625.04 476.703,1630.53C470.22,1639.68 460.583,1650.09 448.57,1660.87ZM476.722,1614.06C473.076,1613.8 468.542,1614.48 463.293,1615.73C455.481,1617.6 446.422,1620.81 436.549,1625.17C437.243,1631.26 437.801,1637.6 438.208,1644.14C441.534,1646.29 444.77,1648.45 447.907,1650.62C457.245,1641.85 464.836,1633.44 470.174,1625.9C473.292,1621.5 475.603,1617.54 476.722,1614.06ZM473.686,1695.99C472.963,1697.94 472.568,1700.05 472.568,1702.25C472.568,1711.93 480.194,1719.85 489.761,1720.31C489.916,1721.53 489.792,1722.63 489.255,1723.58C488.22,1725.43 485.939,1726.23 483.004,1726.76C478.623,1727.56 472.969,1727.35 466.328,1726.34C455.69,1724.71 442.726,1721.01 428.431,1715.49C429.404,1707.26 430.123,1698.56 430.55,1689.51C437.142,1684.58 443.361,1679.61 449.144,1674.69C458.795,1682 467.094,1689.21 473.686,1695.99ZM470.531,1718.84C466.807,1714.33 464.568,1708.55 464.568,1702.25C464.568,1700.97 464.662,1699.7 464.842,1698.46C460.33,1694.09 455.126,1689.56 449.333,1684.96C445.807,1687.85 442.141,1690.75 438.346,1693.64C438.026,1699.31 437.594,1704.83 437.058,1710.17C448.455,1714.28 458.812,1717.1 467.537,1718.43C468.563,1718.59 469.562,1718.72 470.531,1718.84ZM381.275,1634C378.587,1635.73 375.889,1637.51 373.187,1639.34C371.647,1640.38 370.123,1641.43 368.614,1642.48C368.935,1637.81 369.336,1633.26 369.812,1628.85C373.568,1630.46 377.395,1632.18 381.275,1634ZM371.764,1726.06C379.49,1722.19 387.525,1717.78 395.719,1712.87C402.866,1716.39 409.875,1719.56 416.655,1722.38C414.467,1737.54 411.35,1750.66 407.56,1760.73C405.194,1767.02 402.607,1772.05 399.767,1775.48C397.864,1777.78 396.048,1779.37 393.932,1779.37C391.817,1779.37 390.001,1777.78 388.098,1775.48C385.258,1772.05 382.671,1767.02 380.305,1760.73C376.825,1751.48 373.912,1739.67 371.764,1726.06ZM393.932,1769.97C396.188,1767.09 398.172,1762.96 400.073,1757.91C403.181,1749.65 405.793,1739.24 407.794,1727.3C403.951,1725.62 400.047,1723.84 396.096,1721.95C390.855,1725.01 385.687,1727.87 380.631,1730.51C382.551,1741.11 384.966,1750.4 387.792,1757.91C389.693,1762.96 391.677,1767.09 393.932,1769.97ZM368.66,1698.29C371.002,1699.66 373.378,1701.03 375.787,1702.38C378.64,1703.98 381.483,1705.54 384.313,1707.04C379.526,1709.8 374.813,1712.37 370.208,1714.75C369.58,1709.46 369.061,1703.96 368.66,1698.29ZM392.67,1639.6C397.332,1641.98 402.047,1644.51 406.789,1647.17C411.282,1649.7 415.659,1652.26 419.903,1654.86C420.086,1659.83 420.18,1664.9 420.18,1670.05C420.18,1674.73 420.103,1679.35 419.951,1683.88C416.295,1686.53 412.529,1689.17 408.665,1691.79C404.155,1694.84 399.659,1697.75 395.205,1700.52C390.543,1698.13 385.828,1695.61 381.087,1692.94C376.59,1690.42 372.21,1687.85 367.962,1685.26C367.779,1680.28 367.685,1675.21 367.685,1670.05C367.685,1665.38 367.762,1660.78 367.913,1656.25C371.586,1653.58 375.37,1650.93 379.252,1648.3C383.748,1645.26 388.229,1642.36 392.67,1639.6ZM393.71,1654.52C385.319,1654.52 378.507,1661.33 378.507,1669.72C378.507,1678.11 385.319,1684.92 393.71,1684.92C402.1,1684.92 408.913,1678.11 408.913,1669.72C408.913,1661.33 402.1,1654.52 393.71,1654.52Z" style="fill:rgb(255,196,224);"/>
                </g>
            </g>
        </g>
    </g>
</svg>
