<?xml version="1.0" encoding="UTF-8" standalone="no"?>
<!DOCTYPE svg PUBLIC "-//W3C//DTD SVG 1.1//EN" "http://www.w3.org/Graphics/SVG/1.1/DTD/svg11.dtd">
<svg width="100%" height="100%" viewBox="0 0 256 256" version="1.1" xmlns="http://www.w3.org/2000/svg" xmlns:xlink="http://www.w3.org/1999/xlink" xml:space="preserve" xmlns:serif="http://www.serif.com/" style="fill-rule:evenodd;clip-rule:evenodd;stroke-linecap:round;stroke-linejoin:round;stroke-miterlimit:1.5;">
    <g transform="matrix(1,0,0,1,0,-512)">
        <g id="Creative-Writing" transform="matrix(1.6,0,0,1.70667,-18237.5,138.589)">
            <rect x="11398.4" y="218.796" width="160" height="150" style="fill:none;"/>
            <g transform="matrix(0.689936,0,0,0.621449,11393.9,-99.19)">
                <path d="M140.867,598.996C140.867,593.467 136.555,588.979 131.242,588.979L111.992,588.979C106.68,588.979 102.367,593.467 102.367,598.996L102.367,661.461C102.367,666.99 106.68,671.479 111.992,671.479L131.242,671.479C136.555,671.479 140.867,666.99 140.867,661.461L140.867,598.996Z" style="fill:rgb(255,238,8);"/>
            </g>
            <g transform="matrix(1,0,0,1,-0.417151,7.91016)">
                <g transform="matrix(0.625,0,0,0.585937,11398,-72.7082)">
                    <path d="M37.872,708.319L38.167,673.654C83.625,662.163 112.549,667.479 128.667,690.654L129.667,699.654L130.167,699.654L131.167,690.654C147.285,667.479 176.21,662.163 221.667,673.654L221.84,708.867L145.667,709.154C145.667,709.154 139.891,721.722 129.667,721.487C120.779,721.282 113.001,709.154 113.001,709.154L37.872,708.319Z" style="fill:rgb(191,255,178);"/>
                </g>
                <g transform="matrix(0.620363,0.0712386,-0.0690491,0.528483,11447.9,-43.2115)">
                    <path d="M128.001,700.154C128.001,700.154 107.157,687.639 92.001,686.154C79.019,684.881 61.334,688.82 61.334,688.82" style="fill:none;stroke:black;stroke-width:4.19px;"/>
                </g>
                <g transform="matrix(-0.620363,0.0712386,0.0690491,0.528483,11511.3,-43.2115)">
                    <path d="M128.001,700.154C128.001,700.154 107.157,687.639 92.001,686.154C79.019,684.881 61.334,688.82 61.334,688.82" style="fill:none;stroke:black;stroke-width:4.19px;"/>
                </g>
                <g transform="matrix(0.623864,-0.035319,0.0376736,0.584872,11372.7,-67.1321)">
                    <path d="M128.001,700.154C128.001,700.154 103.03,689.712 87.962,687.513C70.548,684.97 54.147,688.386 54.147,688.386" style="fill:none;stroke:black;stroke-width:4px;"/>
                </g>
                <g transform="matrix(-0.623864,-0.035319,-0.0376736,0.584872,11586.5,-67.1321)">
                    <path d="M128.001,700.154C128.001,700.154 103.03,689.712 87.962,687.513C70.548,684.97 54.147,688.386 54.147,688.386" style="fill:none;stroke:black;stroke-width:4px;"/>
                </g>
                <g transform="matrix(0.625,0,0,0.585937,11398.4,-73.2941)">
                    <path d="M130.167,699.654L131.167,690.654C147.285,667.479 176.21,662.163 221.667,673.654L222.167,693.654" style="fill:none;stroke:black;stroke-width:8px;"/>
                </g>
                <g transform="matrix(-0.625,0,0,0.585937,11560.8,-73.2941)">
                    <path d="M130.167,699.654L131.167,690.654C147.285,667.479 176.21,662.163 221.667,673.654L222.167,693.654" style="fill:none;stroke:black;stroke-width:8px;"/>
                </g>
                <g transform="matrix(0.625,0,0,0.585937,11398.4,-73.2941)">
                    <path d="M23.001,708.154L113.001,709.154C113.001,709.154 120.779,721.282 129.667,721.487C139.891,721.722 145.667,709.154 145.667,709.154L234.334,708.82" style="fill:none;stroke:black;stroke-width:8px;"/>
                </g>
            </g>
            <g transform="matrix(0.625,0,0,0.585937,11406.5,-83.2551)">
                <circle cx="115.117" cy="591.229" r="52.75" style="fill:rgb(255,243,84);"/>
            </g>
            <g transform="matrix(0.625,0,0,0.585937,11398.4,-78.2746)">
                <path d="M105.867,630.618C87.797,622.244 75.25,603.94 75.25,582.729C75.25,553.615 98.886,529.979 128,529.979C157.114,529.979 180.75,553.615 180.75,582.729C180.75,604.624 167.381,623.422 148.367,631.397L148.367,665.853C148.367,671.718 143.607,676.479 137.742,676.479L116.492,676.479C110.628,676.479 105.867,671.718 105.867,665.853L105.867,630.618Z" style="fill:none;stroke:black;stroke-width:8px;"/>
            </g>
            <g transform="matrix(1,0,0,1,0,2.92969)">
                <g transform="matrix(0.564174,0.0440986,0.0470385,0.551835,11376.5,-65.3984)">
                    <path d="M79.867,635.479L42.367,664.479" style="fill:none;stroke:black;stroke-width:8.02px;"/>
                </g>
                <g transform="matrix(0.500216,-0.0904684,0.0964997,-0.515975,11339.6,577.189)">
                    <path d="M79.867,635.479L42.367,664.479" style="fill:none;stroke:black;stroke-width:8.03px;"/>
                </g>
                <g transform="matrix(0.339822,-0.355817,-0.256246,-0.465515,11574.3,590.199)">
                    <path d="M79.867,635.479L42.367,664.479" style="fill:none;stroke:black;stroke-width:8.03px;"/>
                </g>
                <g transform="matrix(0.339822,-0.355817,-0.256246,-0.465515,11675.2,589.027)">
                    <path d="M79.867,635.479L42.367,664.479" style="fill:none;stroke:black;stroke-width:8.03px;"/>
                </g>
                <g transform="matrix(-0.470412,0.112076,-0.119548,0.499265,11617.5,-35.0772)">
                    <path d="M79.867,635.479L42.367,664.479" style="fill:none;stroke:black;stroke-width:8.04px;"/>
                </g>
                <g transform="matrix(-0.453487,-0.124347,-0.132637,-0.489776,11631.9,558.286)">
                    <path d="M79.867,635.479L42.367,664.479" style="fill:none;stroke:black;stroke-width:8.04px;"/>
                </g>
            </g>
        </g>
    </g>
</svg>
