<?xml version="1.0" encoding="UTF-8" standalone="no"?>
<!DOCTYPE svg PUBLIC "-//W3C//DTD SVG 1.1//EN" "http://www.w3.org/Graphics/SVG/1.1/DTD/svg11.dtd">
<svg width="100%" height="100%" viewBox="0 0 256 256" version="1.1" xmlns="http://www.w3.org/2000/svg" xmlns:xlink="http://www.w3.org/1999/xlink" xml:space="preserve" xmlns:serif="http://www.serif.com/" style="fill-rule:evenodd;clip-rule:evenodd;stroke-linejoin:round;stroke-miterlimit:2;">
    <g transform="matrix(1,0,0,1,-1024,0)">
        <g transform="matrix(1.00787,0,0,1.024,989.981,-1453.73)">
            <rect id="drawing" x="33.753" y="1419.66" width="254" height="250" style="fill:none;"/>
            <g id="drawing1" serif:id="drawing">
                <g transform="matrix(0.947445,0,0,0.948404,7.44485,78.9225)">
                    <g transform="matrix(0.557099,0,0,0.527171,21.2409,1414.28)">
                        <path d="M412.1,39.6C420.9,33.2 450.9,29.8 455.6,39.6C459.2,47.1 280.1,377 280.1,377C280.1,377 250.3,349.8 239.1,342.7C227.1,335.1 187.1,318.5 187.1,318.5C187.1,318.5 399.9,48.4 412.1,39.6Z" style="fill:rgb(237,226,122);fill-rule:nonzero;"/>
                        <path d="M403.506,26.777C411.752,20.806 433.689,16.056 448.337,18.668C458.759,20.526 465.937,26.121 469.058,32.628C469.987,34.562 471.308,38.068 470.39,43.258C470.005,45.434 468.363,50.39 465.194,57.464C438.718,116.568 293.198,384.677 293.198,384.677C290.972,388.778 287.085,391.617 282.618,392.405C278.151,393.194 273.58,391.847 270.175,388.74C270.175,388.74 241.92,362.794 231.271,356.041C219.796,348.775 181.522,333.011 181.522,333.011C177.072,331.164 173.735,327.224 172.538,322.402C171.341,317.581 172.428,312.455 175.464,308.602C175.464,308.602 311.805,135.55 372.595,61.819C389.118,41.777 400.809,28.743 403.506,26.777ZM412.1,39.6C399.9,48.4 187.1,318.5 187.1,318.5C187.1,318.5 227.1,335.1 239.1,342.7C250.3,349.8 280.1,377 280.1,377C280.1,377 459.2,47.1 455.6,39.6C450.9,29.8 420.9,33.2 412.1,39.6Z" style="fill:rgb(38,34,0);"/>
                    </g>
                    <g transform="matrix(0.557099,0,0,0.527171,21.2409,1414.28)">
                        <path d="M184.1,325C174.1,323.4 138,343 132,377C125.8,412.1 49,409 49,409C49,409 73,464.3 181.9,464.3C280,464.3 281.2,392.7 277,384C268.7,366.8 212.4,329.5 184.1,325Z" style="fill:rgb(236,188,93);fill-rule:nonzero;"/>
                        <path d="M186.384,309.555C204.96,312.513 234.749,327.959 257.417,344.245C273.912,356.096 286.478,368.78 290.442,376.995C291.859,379.93 293.698,387.008 293.152,396.614C292.349,410.723 286.922,432.001 269.474,449.716C253.416,466.02 226.627,479.926 181.9,479.926C60.792,479.926 35.291,415.424 35.291,415.424C33.15,410.49 33.618,404.756 36.529,400.268C39.44,395.779 44.379,393.176 49.584,393.386C49.584,393.386 74.765,394.449 96.126,388.358C102.109,386.652 107.8,384.435 112.169,381.149C114.617,379.308 116.677,377.189 117.208,374.182C122.363,344.97 145.243,324.101 162.944,315.073C172.809,310.042 181.594,308.79 186.384,309.555ZM184.1,325C174.1,323.4 138,343 132,377C125.8,412.1 49,409 49,409C49,409 73,464.3 181.9,464.3C280,464.3 281.2,392.7 277,384C268.7,366.8 212.4,329.5 184.1,325Z" style="fill:rgb(38,34,0);"/>
                    </g>
                </g>
            </g>
        </g>
    </g>
</svg>
