<?xml version="1.0" encoding="utf-8"?>
<!-- Generator: Adobe Illustrator 18.0.0, SVG Export Plug-In . SVG Version: 6.00 Build 0)  -->
<!DOCTYPE svg PUBLIC "-//W3C//DTD SVG 1.1//EN" "http://www.w3.org/Graphics/SVG/1.1/DTD/svg11.dtd">
<svg version="1.1" id="Layer_2" xmlns="http://www.w3.org/2000/svg" xmlns:xlink="http://www.w3.org/1999/xlink" x="0px" y="0px"
	 viewBox="0 0 500 500" enable-background="new 0 0 500 500" xml:space="preserve">
<path fill="#EDE27A" d="M412.1,39.6c8.8-6.4,38.8-9.8,43.5,0C459.2,47.1,280.1,377,280.1,377s-29.8-27.2-41-34.3
	c-12-7.6-52-24.2-52-24.2S399.9,48.4,412.1,39.6z"/>
<path fill="#ECBC5D" d="M184.1,325c-10-1.6-46.1,18-52.1,52c-6.2,35.1-83,32-83,32s24,55.3,132.9,55.3c98.1,0,99.3-71.6,95.1-80.3
	C268.7,366.8,212.4,329.5,184.1,325z"/>
</svg>
