<?xml version="1.0" encoding="UTF-8" standalone="no"?>
<!DOCTYPE svg PUBLIC "-//W3C//DTD SVG 1.1//EN" "http://www.w3.org/Graphics/SVG/1.1/DTD/svg11.dtd">
<svg width="100%" height="100%" viewBox="0 0 256 256" version="1.1" xmlns="http://www.w3.org/2000/svg" xmlns:xlink="http://www.w3.org/1999/xlink" xml:space="preserve" xmlns:serif="http://www.serif.com/" style="fill-rule:evenodd;clip-rule:evenodd;stroke-linecap:round;stroke-linejoin:round;stroke-miterlimit:1.5;">
    <g transform="matrix(1,0,0,1,-256,0)">
        <g id="BuyMeACoffee" transform="matrix(0.2,0,0,0.355556,256,0)">
            <rect x="0" y="0" width="1280" height="720" style="fill:none;"/>
            <g transform="matrix(1,0,0,1,-0.546609,3.67926)">
                <g transform="matrix(5,0,0,2.8125,-1280,0)">
                    <path d="M333.728,110.812C333.728,110.812 340.728,214.312 345.228,221.812C349.728,229.312 351.728,229.812 360.728,231.812C369.728,233.812 403.728,235.312 410.728,232.812C417.728,230.312 425.228,222.812 426.228,215.312C427.228,207.812 441.228,98.312 438.228,93.312C435.228,88.312 409.214,95.487 397.728,96.062C382.728,96.812 349.228,94.812 338.728,93.312C328.228,91.812 314.228,92.812 313.728,85.312C313.228,77.812 314.228,60.812 320.728,61.312C327.228,61.812 362.228,67.812 373.728,67.812C385.228,67.812 431.728,66.812 436.728,60.812C441.728,54.812 438.728,43.812 437.228,37.312C435.728,30.812 432.478,28.062 424.978,25.562C417.478,23.062 390.871,17.98 373.478,19.562C354.228,21.312 329.728,25.312 333.728,32.812C337.728,40.312 358.733,43.455 371.228,43.812C388.728,44.312 411.728,39.812 411.728,39.812" style="fill:none;stroke:rgb(14,12,35);stroke-width:14px;"/>
                </g>
                <g transform="matrix(5,0,0,2.8125,-1280,0)">
                    <path d="M435.687,91.603C435.687,91.603 446.853,92.687 451.353,89.437C455.853,86.187 454.603,78.937 453.853,75.187C453.103,71.437 450.52,57.187 438.02,61.187" style="fill:none;stroke:rgb(14,12,35);stroke-width:14px;"/>
                </g>
                <g transform="matrix(5,0,0,2.8125,-1280,0)">
                    <path d="M346.603,124.937C346.603,124.937 357.553,127.237 367.103,126.487C372.15,126.09 395.86,114.52 404.853,114.087C416.253,113.537 422.353,115.937 422.353,115.937C422.353,115.937 416.103,204.437 413.853,208.937C411.603,213.437 410.453,219.287 402.853,220.037C397.822,220.533 371.753,221.987 365.603,221.187C361.885,220.703 355.053,215.037 354.553,211.537C354.053,208.037 346.603,124.937 346.603,124.937Z" style="fill:rgb(255,221,0);"/>
                </g>
            </g>
        </g>
    </g>
</svg>
