<?xml version="1.0" encoding="UTF-8" standalone="no"?>
<!DOCTYPE svg PUBLIC "-//W3C//DTD SVG 1.1//EN" "http://www.w3.org/Graphics/SVG/1.1/DTD/svg11.dtd">
<svg width="100%" height="100%" viewBox="0 0 256 256" version="1.1" xmlns="http://www.w3.org/2000/svg" xmlns:xlink="http://www.w3.org/1999/xlink" xml:space="preserve" xmlns:serif="http://www.serif.com/" style="fill-rule:evenodd;clip-rule:evenodd;stroke-linejoin:round;stroke-miterlimit:2;">
    <g transform="matrix(1,0,0,1,-512,-1536)">
        <g transform="matrix(1.00787,0,0,1.024,477.981,82.2681)">
            <rect id="life_skills" x="33.753" y="1419.66" width="254" height="250" style="fill:none;"/>
            <g id="life_skills1" serif:id="life_skills">
                <g transform="matrix(1,0,0,1,1.87015,-3.0332)">
                    <g>
                        <g transform="matrix(0.48297,0,0,0.475364,37.1743,1425.65)">
                            <path d="M114.607,60.393C120.461,66.247 120.461,75.753 114.607,81.607C108.753,87.461 99.247,87.461 93.393,81.607L60.893,49.107C55.039,43.253 55.039,33.747 60.893,27.893C66.747,22.039 76.253,22.039 82.107,27.893L114.607,60.393Z" style="fill:rgb(251,238,65);stroke:rgb(58,54,0);stroke-width:8.22px;"/>
                        </g>
                        <g transform="matrix(0.48297,0,0,0.475364,37.1743,1425.65)">
                            <path d="M418.507,85.607C412.653,91.461 403.147,91.461 397.293,85.607C391.439,79.753 391.439,70.247 397.293,64.393L429.793,31.893C435.647,26.039 445.153,26.039 451.007,31.893C456.861,37.747 456.861,47.253 451.007,53.107L418.507,85.607Z" style="fill:rgb(251,238,65);stroke:rgb(58,54,0);stroke-width:8.22px;"/>
                        </g>
                        <g transform="matrix(0.48297,0,0,0.475364,37.1743,1425.65)">
                            <path d="M93.393,332.293C99.247,326.439 108.753,326.439 114.607,332.293C120.461,338.147 120.461,347.653 114.607,353.507L82.107,386.007C76.253,391.861 66.747,391.861 60.893,386.007C55.039,380.153 55.039,370.647 60.893,364.793L93.393,332.293Z" style="fill:rgb(251,238,65);stroke:rgb(58,54,0);stroke-width:8.22px;"/>
                        </g>
                        <g transform="matrix(0.48297,0,0,0.475364,37.1743,1425.65)">
                            <path d="M397.293,349.507C391.439,343.653 391.439,334.147 397.293,328.293C403.147,322.439 412.653,322.439 418.507,328.293L451.007,360.793C456.861,366.647 456.861,376.153 451.007,382.007C445.153,387.861 435.647,387.861 429.793,382.007L397.293,349.507Z" style="fill:rgb(251,238,65);stroke:rgb(58,54,0);stroke-width:8.22px;"/>
                        </g>
                        <g transform="matrix(0.48297,0,0,0.475364,37.1743,1425.65)">
                            <path d="M439,219.284C431.944,219.284 426.216,213.556 426.216,206.5C426.216,199.444 431.944,193.716 439,193.716L472,193.716C479.056,193.716 484.784,199.444 484.784,206.5C484.784,213.556 479.056,219.284 472,219.284L439,219.284Z" style="fill:rgb(251,238,65);stroke:rgb(58,54,0);stroke-width:8.22px;"/>
                        </g>
                        <g transform="matrix(0.48297,0,0,0.475364,37.1743,1425.65)">
                            <path d="M32,219.284C24.944,219.284 19.216,213.556 19.216,206.5C19.216,199.444 24.944,193.716 32,193.716L65,193.716C72.056,193.716 77.784,199.444 77.784,206.5C77.784,213.556 72.056,219.284 65,219.284L32,219.284Z" style="fill:rgb(251,238,65);stroke:rgb(58,54,0);stroke-width:8.22px;"/>
                        </g>
                    </g>
                    <g transform="matrix(0.505163,0,0,0.497207,31.5818,1420.15)">
                        <path d="M318.2,483L178.9,483C172.3,483 166.9,477.6 166.9,471L166.9,262C166.9,255.4 172.3,250 178.9,250L318.2,250C324.8,250 330.2,255.4 330.2,262L330.2,471C330.2,477.6 324.8,483 318.2,483Z" style="fill:rgb(221,206,36);fill-rule:nonzero;"/>
                    </g>
                    <g transform="matrix(0.505163,0,0,0.497207,31.5818,1420.15)">
                        <circle cx="252.5" cy="206.5" r="168.6" style="fill:rgb(251,238,65);"/>
                    </g>
                </g>
                <g transform="matrix(0.992188,0,0,0.976563,-474.247,-80.3399)">
                    <path d="M588.672,1716.92C563.219,1700.13 546.414,1671.28 546.414,1638.53C546.414,1586.74 588.462,1544.69 640.255,1544.69C692.047,1544.69 734.096,1586.74 734.096,1638.53C734.096,1672.97 715.504,1703.11 687.815,1719.43L687.815,1773.2C687.815,1780.96 681.465,1787.31 673.705,1787.31L602.782,1787.31C595.022,1787.31 588.672,1780.96 588.672,1773.2L588.672,1716.92ZM596.672,1712.49L596.672,1773.2C596.672,1776.56 599.422,1779.31 602.782,1779.31L673.705,1779.31C677.065,1779.31 679.815,1776.56 679.815,1773.2L679.815,1714.72C707.305,1700.4 726.096,1671.64 726.096,1638.53C726.096,1591.15 687.632,1552.69 640.255,1552.69C592.878,1552.69 554.414,1591.15 554.414,1638.53C554.414,1670 571.387,1697.54 596.672,1712.49Z" style="fill:rgb(58,54,0);"/>
                </g>
            </g>
        </g>
    </g>
</svg>
