<?xml version="1.0" encoding="UTF-8" standalone="no"?>
<!DOCTYPE svg PUBLIC "-//W3C//DTD SVG 1.1//EN" "http://www.w3.org/Graphics/SVG/1.1/DTD/svg11.dtd">
<svg width="100%" height="100%" viewBox="0 0 256 256" version="1.1" xmlns="http://www.w3.org/2000/svg" xmlns:xlink="http://www.w3.org/1999/xlink" xml:space="preserve" xmlns:serif="http://www.serif.com/" style="fill-rule:evenodd;clip-rule:evenodd;stroke-linejoin:round;stroke-miterlimit:2;">
    <g transform="matrix(1,0,0,1,-7168,0)">
        <g id="Data-Transformation" transform="matrix(1.6,0,0,1.70667,-11069.5,-373.411)">
            <rect x="11398.4" y="218.796" width="160" height="150" style="fill:none;"/>
            <g transform="matrix(0.655986,-0.164785,0.175771,0.614986,6640.65,1413.24)">
                <path d="M7262.73,80.506L7305.23,165.506L7220.23,165.506L7262.73,80.506Z"/>
            </g>
            <g transform="matrix(0.603704,0.151652,-0.161762,0.565972,7094.64,-897.265)">
                <rect x="7328.23" y="89.506" width="81" height="81"/>
            </g>
            <g transform="matrix(1,0,0,1,0.625,0)">
                <g transform="matrix(0.625,0,0,0.585937,6918.41,218.796)">
                    <path d="M7313.23,109.454C7314.82,109.977 7315.98,111.483 7315.98,113.256C7315.98,115.464 7314.19,117.256 7311.98,117.256C7311.42,117.256 7309.9,116.869 7307.93,115.574C7304.53,113.343 7296.61,107.729 7286.47,108.976C7273.09,110.623 7266.72,118.256 7259.08,124.794C7257.41,126.23 7254.88,126.035 7253.44,124.358C7252.01,122.681 7252.2,120.154 7253.88,118.718C7262.62,111.229 7270.16,102.922 7285.49,101.036C7298.91,99.386 7312.12,108.66 7313.23,109.454Z"/>
                </g>
                <g transform="matrix(0.625,0,0,0.585937,6918.41,218.796)">
                    <path d="M7313.23,117.058C7312.6,117.405 7309.22,119.226 7306.53,119.929C7303.78,120.647 7300.9,120.634 7298.44,119.386C7296.47,118.388 7295.68,115.979 7296.68,114.01C7297.68,112.041 7300.09,111.253 7302.06,112.251C7302.77,112.612 7303.6,112.414 7304.4,112.216C7305.82,111.864 7307.15,111.203 7308.15,110.686C7309.16,110.162 7309.94,109.742 7310.32,109.587C7311.05,109.3 7311.62,109.256 7311.98,109.256C7314.19,109.256 7315.98,111.049 7315.98,113.256C7315.98,115.029 7314.83,116.534 7313.23,117.058Z"/>
                </g>
                <g transform="matrix(-0.161762,-0.565972,0.603704,-0.151652,12599.8,4433.72)">
                    <path d="M7313.23,117.058C7312.6,117.405 7309.22,119.226 7306.53,119.929C7303.78,120.647 7300.9,120.634 7298.44,119.386C7296.47,118.388 7295.68,115.979 7296.68,114.01C7297.68,112.041 7300.09,111.253 7302.06,112.251C7302.77,112.612 7303.6,112.414 7304.4,112.216C7305.82,111.864 7307.15,111.203 7308.15,110.686C7309.16,110.162 7309.94,109.742 7310.32,109.587C7311.05,109.3 7311.62,109.256 7311.98,109.256C7314.19,109.256 7315.98,111.049 7315.98,113.256C7315.98,115.029 7314.83,116.534 7313.23,117.058Z"/>
                </g>
            </g>
        </g>
    </g>
</svg>
