<?xml version="1.0" encoding="UTF-8" standalone="no"?>
<!DOCTYPE svg PUBLIC "-//W3C//DTD SVG 1.1//EN" "http://www.w3.org/Graphics/SVG/1.1/DTD/svg11.dtd">
<svg width="100%" height="100%" viewBox="0 0 256 256" version="1.1" xmlns="http://www.w3.org/2000/svg" xmlns:xlink="http://www.w3.org/1999/xlink" xml:space="preserve" xmlns:serif="http://www.serif.com/" style="fill-rule:evenodd;clip-rule:evenodd;stroke-linejoin:round;stroke-miterlimit:2;">
    <g transform="matrix(1,0,0,1,-768,-1024)">
        <g transform="matrix(1.6,0,0,1.70667,-17469.5,650.589)">
            <rect id="el_troubadour" x="11398.4" y="218.796" width="160" height="150" style="fill:none;"/>
            <g id="el_troubadour1" serif:id="el_troubadour">
                <g transform="matrix(5.45851,0,0,5.11736,-52066.7,-891.203)">
                    <circle cx="11641.5" cy="231.565" r="14.313"/>
                </g>
                <g transform="matrix(1.16226,0,0,1.08961,3480.66,192.166)">
                    <path d="M6875.99,69.296C6875.99,69.296 6889.97,56.039 6890.99,52.962C6891.27,52.117 6893.08,47.553 6891.99,46.462C6891.53,46.004 6883.51,43.942 6881.99,45.462C6881.6,45.853 6879.01,49.496 6878.99,49.462C6877.82,47.126 6878.35,40.771 6873.99,38.962C6869.54,37.116 6864.36,38.715 6862.99,41.462C6859.99,47.462 6869.89,61.765 6871.49,64.962C6872.43,66.845 6875.99,67.324 6875.99,69.296Z" style="fill:white;"/>
                    <path d="M6879.97,44.664C6880.23,44.324 6880.43,44.072 6880.52,43.989C6880.92,43.583 6881.51,43.239 6882.28,43.042C6883.27,42.789 6884.73,42.778 6886.27,42.956C6888.61,43.226 6891.16,43.882 6892.25,44.284C6892.92,44.534 6893.32,44.84 6893.46,44.989C6894.12,45.647 6894.53,46.869 6894.38,48.393C6894.19,50.327 6893.18,52.974 6892.97,53.621C6892.62,54.671 6891.02,56.825 6888.85,59.241C6884.34,64.244 6877.42,70.807 6877.42,70.807C6876.82,71.38 6875.93,71.538 6875.17,71.21C6874.47,70.909 6873.99,70.255 6873.92,69.509C6873.81,69.42 6873.59,69.238 6873.43,69.136C6873.11,68.927 6872.76,68.728 6872.41,68.521C6871.24,67.818 6870.17,66.976 6869.63,65.894C6868.49,63.614 6863.23,55.776 6861.21,49.191C6860.18,45.821 6860.03,42.72 6861.13,40.531C6861.88,39.034 6863.4,37.723 6865.41,36.927C6868.06,35.874 6871.58,35.708 6874.79,37.038C6877.61,38.208 6878.98,40.754 6879.7,43.481C6879.81,43.875 6879.89,44.272 6879.97,44.664ZM6890.22,47.996C6889.05,47.645 6887.06,47.2 6885.32,47.047C6884.61,46.984 6883.62,47.064 6883.33,47.091C6882.77,47.78 6881.1,50.15 6880.72,50.636C6879.28,52.514 6877.18,50.495 6877.13,50.394C6876.5,49.138 6876.28,46.814 6875.68,44.549C6875.28,43.06 6874.73,41.526 6873.19,40.887C6871.06,40.001 6868.71,40.099 6866.94,40.801C6866,41.174 6865.2,41.692 6864.85,42.394C6864.42,43.255 6864.44,44.361 6864.63,45.587C6864.87,47.149 6865.43,48.869 6866.15,50.612C6868.49,56.277 6872.4,62.131 6873.35,64.031C6873.48,64.289 6873.76,64.443 6874.03,64.621C6874.62,65.012 6875.28,65.355 6875.83,65.728C6876.01,65.843 6876.17,65.961 6876.32,66.084C6878.64,63.843 6882.74,59.793 6885.75,56.453C6887.4,54.623 6888.75,53.099 6889.01,52.303C6889.17,51.83 6889.85,50.109 6890.15,48.586C6890.18,48.411 6890.2,48.192 6890.22,47.996Z" style="fill:white;"/>
                </g>
                <g transform="matrix(1.16226,0,0,1.08961,3480.66,192.166)">
                    <path d="M6882.59,146.231C6882.68,146.013 6882.78,145.761 6882.84,145.551C6883.27,144.254 6883.64,142.678 6883.93,141.803C6886.68,133.569 6888.16,125.814 6888.16,117.129C6888.16,115.979 6889.09,115.046 6890.24,115.046C6891.39,115.046 6892.32,115.979 6892.32,117.129C6892.32,126.277 6890.78,134.448 6887.88,143.121C6887.54,144.157 6887.08,146.16 6886.56,147.554C6886.2,148.488 6885.77,149.212 6885.38,149.602C6884.9,150.087 6884.02,150.493 6882.8,150.453C6880.81,150.388 6877.01,148.98 6876.23,148.851C6874.34,148.535 6869.92,147.286 6867,145.68C6865.39,144.794 6864.21,143.726 6863.71,142.727C6862.85,141.009 6862.89,139.204 6863.34,137.364C6863.8,135.502 6864.82,133.61 6864.82,131.796C6864.82,130.646 6865.76,129.712 6866.91,129.712C6868.06,129.712 6868.99,130.646 6868.99,131.796C6868.99,133.636 6868.23,135.568 6867.64,137.468C6867.27,138.634 6866.9,139.782 6867.44,140.864C6867.55,141.094 6867.83,141.276 6868.14,141.493C6868.68,141.877 6869.37,142.238 6870.11,142.576C6872.52,143.679 6875.52,144.507 6876.92,144.741C6877.44,144.828 6879.34,145.502 6881.13,145.96C6881.59,146.077 6882.18,146.173 6882.59,146.231Z" style="fill:white;"/>
                </g>
                <g transform="matrix(1.16226,0,0,1.08961,3480.66,192.166)">
                    <path d="M6867.55,74.727C6866.99,74.249 6862.82,70.739 6862.02,69.935C6859.95,67.865 6858.48,66.708 6857.15,66.306C6855.93,65.933 6854.94,66.443 6853.7,67.174C6851.84,68.262 6849.63,69.887 6846.42,71.492C6844.14,72.631 6836.17,79.06 6834.23,80.853C6833.71,83.661 6834.91,92.575 6834.91,93.962C6834.91,97.31 6835.01,100.318 6835.49,102.886C6835.92,105.132 6836.63,107.017 6837.95,108.413C6839.74,110.306 6842.59,111.212 6846.99,111.212C6849.36,111.212 6852.43,110.576 6854.02,108.989C6854.61,108.399 6857.98,103.373 6858.73,101.578C6858.64,100.595 6857.98,99.065 6857.16,97.288C6854.71,92.009 6850.47,85.084 6849.46,83.061C6848.95,82.032 6849.36,80.78 6850.39,80.266C6851.42,79.751 6852.67,80.169 6853.19,81.197C6854.21,83.236 6858.47,90.216 6860.94,95.535C6862.15,98.164 6862.91,100.469 6862.91,101.796C6862.91,102.166 6862.71,102.983 6862.19,103.993C6860.9,106.49 6857.59,111.312 6856.96,111.935C6854.69,114.207 6850.38,115.379 6846.99,115.379C6841.07,115.379 6837.33,113.826 6834.92,111.276C6831.47,107.633 6830.74,101.604 6830.74,93.962C6830.74,92.654 6829.79,84.925 6830,81.287C6830.1,79.664 6830.6,78.574 6831.02,78.156C6832.46,76.712 6841.95,69.068 6844.56,67.765C6848.36,65.866 6850.73,63.934 6852.79,62.929C6854.68,62.011 6856.39,61.719 6858.36,62.319C6860.13,62.855 6862.21,64.231 6864.96,66.989C6865.78,67.806 6869.16,70.317 6870.49,71.734C6871.33,72.636 6871.57,73.517 6871.57,73.962C6871.57,75.112 6870.64,76.046 6869.49,76.046C6868.61,76.046 6867.86,75.499 6867.55,74.727Z" style="fill:white;"/>
                </g>
                <g transform="matrix(1.16226,0,0,1.08961,3480.66,192.166)">
                    <path d="M6912.63,90.299C6912.38,90.654 6911.92,91.125 6911.23,91.55C6910.11,92.237 6908.21,93.044 6906.71,93.336C6905.06,93.657 6903.74,93.239 6903.1,92.602C6902.57,92.072 6901.99,91.17 6901.51,89.989C6900.59,87.742 6899.89,84.362 6900.02,81.305C6900.16,77.85 6901.44,74.866 6903.98,73.599C6906.39,72.394 6908.84,71.379 6912.24,71.379C6913.39,71.379 6914.32,72.312 6914.32,73.462C6914.32,74.612 6913.39,75.546 6912.24,75.546C6909.6,75.546 6907.71,76.39 6905.84,77.326C6905.32,77.588 6904.98,78.069 6904.74,78.635C6904.38,79.455 6904.22,80.443 6904.18,81.479C6904.09,83.579 6904.49,85.869 6905.07,87.615C6905.29,88.27 6905.51,88.844 6905.75,89.252C6906.02,89.206 6906.41,89.132 6906.7,89.041C6907.62,88.749 6908.95,88.021 6909.25,87.852C6909.49,87.507 6909.84,87.162 6910.28,86.848C6910.81,86.471 6911.62,86.135 6912.1,85.656C6915.2,82.553 6917.49,80.92 6917.49,76.462C6917.49,75.99 6917.46,74.14 6917.45,73.604C6915.51,71.559 6913.45,68.417 6911.74,66.581C6909.25,65.8 6898.79,63.084 6895.41,62.574C6893.67,64.317 6889.13,68.83 6886.57,71.09C6885.62,71.921 6884.87,72.476 6884.51,72.659C6883.48,73.173 6882.23,72.756 6881.71,71.727C6881.2,70.699 6881.61,69.446 6882.64,68.932C6883.01,68.749 6883.89,67.918 6885.01,66.881C6888.09,64.03 6892.49,59.597 6893.1,58.989C6893.33,58.761 6893.77,58.405 6894.56,58.345C6894.93,58.316 6895.83,58.401 6897.04,58.632C6901.4,59.459 6911.09,61.986 6913.17,62.665C6913.92,62.912 6914.3,63.241 6914.38,63.322C6916.24,65.187 6918.58,68.853 6920.71,70.989C6921.02,71.3 6921.35,71.821 6921.51,72.547C6921.76,73.656 6921.66,75.739 6921.66,76.462C6921.66,82.244 6919.07,84.577 6915.05,88.602C6914.43,89.221 6912.86,90.159 6912.63,90.299Z" style="fill:white;"/>
                </g>
                <g transform="matrix(1.16226,0,0,1.08961,3480.66,192.166)">
                    <path d="M6902.32,85.048C6901.16,86.238 6899.65,87.951 6898.24,88.796C6895.77,90.28 6891.8,92.902 6889.91,94.796C6889.53,95.167 6889.91,97.878 6889.91,98.462C6889.91,101.061 6889.73,104.491 6888.57,106.796C6886.03,111.877 6882.77,118.934 6878.24,123.462C6874.15,127.554 6868.06,125.129 6862.24,125.129C6861.02,125.129 6862.24,127.573 6862.24,128.796C6862.24,131.4 6859.07,133.837 6856.57,134.462C6852.94,135.371 6848,134.884 6844.99,133.379C6842.31,132.04 6840.88,130.281 6837.91,128.796C6832.1,125.894 6828.82,119.296 6828.82,113.046C6828.82,111.964 6831.57,103.293 6831.57,101.129C6831.57,101.129 6832.11,100.592 6833.01,99.831C6833.65,108.121 6836.41,113.296 6846.99,113.296C6849.87,113.296 6853.56,112.392 6855.49,110.462C6856.22,109.735 6860.82,102.863 6860.82,101.796C6860.82,99.151 6856.97,92.133 6854.11,87.102C6856.6,84.302 6859.75,82.251 6864.24,81.129C6867.24,80.378 6872.75,80.757 6875.57,81.462C6876.31,81.645 6879.52,82.847 6880.24,82.129C6883.6,78.766 6891.04,77.728 6896.24,75.129C6902.36,72.07 6912.07,68.966 6916.24,64.796C6918.14,62.899 6921.15,61.966 6922.24,59.796C6922.78,58.709 6928.31,55.195 6929.57,56.462C6930.17,57.058 6929.47,57.929 6929.91,58.796C6931.14,61.267 6932.03,66.032 6933.57,69.129C6933.64,69.265 6933.67,70.702 6933.57,70.796C6933.1,71.267 6930.55,70.634 6929.91,70.796C6926.09,71.751 6922.58,72.458 6919.91,73.796C6919.04,74.231 6918.14,74.682 6917.22,75.149C6915.08,74.313 6912.24,73.462 6912.24,73.462C6909.22,73.462 6907.05,74.392 6904.91,75.462C6902.11,76.862 6901.73,81.226 6902.32,85.048Z" style="fill:white;"/>
                    <path d="M6858.73,101.578C6858.65,100.691 6858.09,99.352 6857.38,97.785C6856.02,94.764 6853.98,91.096 6852.3,88.13C6851.86,87.354 6851.96,86.384 6852.55,85.717C6855.3,82.625 6858.78,80.347 6863.74,79.108C6867.01,78.29 6873.01,78.673 6876.08,79.441C6876.49,79.545 6878.55,80.05 6879.24,80.218C6880.74,78.904 6882.79,77.883 6885.09,77.012C6888.39,75.762 6892.25,74.795 6895.31,73.265C6901.25,70.296 6910.72,67.37 6914.77,63.322C6915.81,62.276 6917.16,61.476 6918.4,60.658C6919.2,60.13 6919.99,59.637 6920.38,58.864C6920.57,58.481 6921.07,57.862 6921.85,57.232C6923.11,56.223 6925.21,54.971 6926.9,54.433C6928.74,53.847 6930.27,54.21 6931.05,54.989C6931.63,55.576 6931.87,56.231 6931.91,56.956C6931.92,57.239 6931.87,57.814 6931.85,58.02C6933.04,60.531 6933.92,65.164 6935.44,68.197C6935.5,68.321 6935.63,68.618 6935.67,69.059C6935.72,69.468 6935.73,70.35 6935.69,70.793C6935.61,71.636 6935.2,72.119 6935.05,72.269C6934.7,72.616 6934.11,72.958 6933.27,73.036C6932.49,73.107 6930.58,72.895 6930.25,72.857C6926.66,73.75 6923.36,74.399 6920.84,75.659C6919.97,76.092 6919.08,76.54 6918.17,77.005C6917.64,77.275 6917.02,77.306 6916.46,77.09C6914.8,76.443 6912.71,75.786 6911.94,75.549C6909.45,75.61 6907.64,76.426 6905.84,77.326C6904.98,77.755 6904.61,78.71 6904.38,79.78C6904.06,81.293 6904.12,83.069 6904.38,84.727C6904.48,85.375 6904.27,86.033 6903.82,86.503C6902.54,87.807 6900.86,89.657 6899.31,90.582C6897.15,91.878 6893.78,94.074 6891.86,95.818C6891.9,96.524 6891.99,98.125 6891.99,98.462C6891.99,101.355 6891.72,105.162 6890.44,107.727C6887.81,112.981 6884.4,120.254 6879.71,124.935C6877.23,127.42 6874.17,128.027 6870.82,127.912C6868.67,127.838 6866.39,127.449 6864.11,127.285C6864.22,127.854 6864.32,128.453 6864.32,128.796C6864.32,130.311 6863.65,131.817 6862.54,133.102C6861.11,134.747 6858.94,136.018 6857.08,136.483C6852.99,137.505 6847.44,136.934 6844.06,135.242C6841.38,133.904 6839.95,132.145 6836.98,130.659C6830.47,127.408 6826.74,120.049 6826.74,113.046C6826.74,112.556 6827.18,110.681 6827.78,108.465C6828.52,105.725 6829.49,102.34 6829.49,101.129C6829.49,100.578 6829.71,100.05 6830.1,99.659C6830.1,99.659 6830.68,99.072 6831.66,98.241C6832.26,97.736 6833.09,97.607 6833.81,97.908C6834.53,98.209 6835.02,98.889 6835.08,99.668C6835.37,103.281 6836,106.25 6837.82,108.28C6839.6,110.262 6842.49,111.212 6846.99,111.212C6849.36,111.212 6852.43,110.576 6854.02,108.989C6854.61,108.399 6857.98,103.374 6858.73,101.578ZM6830.91,113.126C6830.94,118.6 6833.76,124.393 6838.84,126.932C6841.81,128.418 6843.24,130.177 6845.92,131.516C6848.56,132.833 6852.89,133.237 6856.07,132.441C6857.21,132.157 6858.52,131.372 6859.39,130.368C6859.81,129.886 6860.16,129.364 6860.16,128.796C6860.16,128.409 6859.96,127.868 6859.84,127.361C6859.68,126.674 6859.59,126.021 6859.62,125.534C6859.69,124.641 6860.08,124.001 6860.62,123.582C6861.02,123.274 6861.54,123.046 6862.24,123.046C6865.18,123.046 6868.18,123.652 6870.96,123.748C6873.13,123.822 6875.16,123.596 6876.77,121.989C6881.14,117.615 6884.26,110.772 6886.71,105.864C6887.73,103.82 6887.82,100.767 6887.82,98.462C6887.82,97.963 6887.59,96.01 6887.69,95.045C6887.78,94.18 6888.15,93.607 6888.43,93.322C6890.42,91.335 6894.57,88.567 6897.17,87.009C6898.17,86.408 6899.22,85.302 6900.13,84.334C6899.88,82.004 6899.99,79.593 6900.65,77.668C6901.08,76.39 6901.75,75.307 6902.65,74.497C6900.69,75.348 6898.81,76.175 6897.17,76.992C6894.49,78.331 6891.24,79.278 6888.23,80.313C6885.63,81.204 6883.2,82.112 6881.71,83.602C6881.18,84.133 6880.16,84.535 6878.86,84.41C6877.51,84.281 6875.63,83.623 6875.07,83.483C6872.5,82.841 6867.48,82.466 6864.75,83.15C6861.32,84.008 6858.75,85.462 6856.69,87.428C6858.57,90.775 6860.67,94.682 6861.85,97.633C6862.54,99.357 6862.91,100.825 6862.91,101.796C6862.91,102.166 6862.71,102.983 6862.19,103.993C6860.9,106.49 6857.59,111.312 6856.96,111.935C6854.69,114.207 6850.38,115.379 6846.99,115.379C6840.91,115.379 6837.13,113.742 6834.72,111.064C6833.75,109.976 6832.99,108.695 6832.42,107.235C6832.21,108.02 6832,108.806 6831.8,109.549C6831.39,111.099 6830.95,112.933 6830.91,113.126ZM6908.9,71.734C6909.92,71.51 6911.02,71.379 6912.24,71.379C6912.44,71.379 6912.65,71.409 6912.84,71.467C6912.84,71.467 6915.06,72.134 6917.1,72.876C6917.73,72.554 6918.36,72.239 6918.98,71.932C6921.77,70.536 6925.41,69.771 6929.4,68.774C6929.7,68.7 6930.21,68.663 6930.82,68.714C6930.91,68.722 6931.01,68.73 6931.12,68.74C6929.92,65.732 6929.11,61.869 6928.04,59.727C6927.88,59.402 6927.8,58.974 6927.76,58.56C6927.64,58.599 6927.54,58.64 6927.44,58.682C6926.14,59.256 6924.26,60.692 6924.03,60.876C6923.44,61.969 6922.52,62.857 6921.42,63.642C6920.22,64.497 6918.77,65.21 6917.71,66.269C6915.7,68.283 6912.44,70.075 6908.9,71.734Z" style="fill:white;"/>
                </g>
            </g>
        </g>
    </g>
</svg>
