<?xml version="1.0" encoding="UTF-8" standalone="no"?>
<!DOCTYPE svg PUBLIC "-//W3C//DTD SVG 1.1//EN" "http://www.w3.org/Graphics/SVG/1.1/DTD/svg11.dtd">
<svg width="100%" height="100%" viewBox="0 0 256 256" version="1.1" xmlns="http://www.w3.org/2000/svg" xmlns:xlink="http://www.w3.org/1999/xlink" xml:space="preserve" xmlns:serif="http://www.serif.com/" style="fill-rule:evenodd;clip-rule:evenodd;stroke-linejoin:round;stroke-miterlimit:2;">
    <g transform="matrix(1,0,0,1,-768,0)">
        <g id="ElTroubadour" transform="matrix(1.6,0,0,1.70667,-17469.5,-373.411)">
            <rect x="11398.4" y="218.796" width="160" height="150" style="fill:none;"/>
            <g transform="matrix(5.45851,0,0,5.11736,-52066.7,-891.203)">
                <circle cx="11641.5" cy="231.565" r="14.313"/>
            </g>
            <g transform="matrix(1.16226,0,0,1.08961,3480.66,192.166)">
                <path d="M6875.99,69.296C6875.99,69.296 6889.97,56.039 6890.99,52.962C6891.27,52.117 6893.08,47.553 6891.99,46.462C6891.53,46.004 6883.51,43.942 6881.99,45.462C6881.6,45.853 6879.01,49.496 6878.99,49.462C6877.82,47.126 6878.35,40.771 6873.99,38.962C6869.54,37.116 6864.36,38.715 6862.99,41.462C6859.99,47.462 6869.89,61.765 6871.49,64.962C6872.43,66.845 6875.99,67.324 6875.99,69.296Z" style="fill:white;"/>
                <path d="M6873.92,69.511C6874,70.256 6874.47,70.91 6875.17,71.21C6875.93,71.538 6876.82,71.38 6877.42,70.807C6877.42,70.807 6884.34,64.244 6888.85,59.241C6891.02,56.825 6892.62,54.671 6892.97,53.621C6893.18,52.974 6894.19,50.327 6894.38,48.393C6894.53,46.869 6894.12,45.647 6893.46,44.989C6893.32,44.84 6892.92,44.534 6892.25,44.284C6891.16,43.882 6888.61,43.226 6886.27,42.956C6884.73,42.778 6883.27,42.789 6882.28,43.042C6881.51,43.239 6880.92,43.583 6880.52,43.989C6880.43,44.072 6880.23,44.324 6879.97,44.665C6879.89,44.273 6879.81,43.875 6879.7,43.481C6878.98,40.754 6877.61,38.208 6874.79,37.038C6871.58,35.708 6868.06,35.874 6865.41,36.927C6863.4,37.723 6861.88,39.034 6861.13,40.531C6860.03,42.72 6860.18,45.821 6861.21,49.191C6863.23,55.776 6868.49,63.614 6869.63,65.894C6870.17,66.976 6871.24,67.818 6872.41,68.521C6872.76,68.728 6873.11,68.927 6873.43,69.136C6873.59,69.238 6873.82,69.422 6873.92,69.511ZM6883.33,47.092C6883.62,47.064 6884.61,46.984 6885.32,47.047C6887.06,47.2 6889.05,47.645 6890.22,47.996C6890.2,48.192 6890.18,48.411 6890.15,48.586C6889.85,50.109 6889.17,51.83 6889.01,52.303C6888.75,53.099 6887.4,54.623 6885.75,56.453C6882.74,59.793 6878.64,63.843 6876.32,66.084C6876.17,65.961 6876.01,65.843 6875.83,65.728C6875.28,65.355 6874.62,65.012 6874.03,64.621C6873.76,64.443 6873.48,64.289 6873.35,64.031C6872.4,62.131 6868.49,56.277 6866.15,50.612C6865.43,48.869 6864.87,47.149 6864.63,45.587C6864.44,44.361 6864.42,43.255 6864.85,42.394C6865.2,41.692 6866,41.174 6866.94,40.801C6868.71,40.099 6871.06,40.001 6873.19,40.887C6874.73,41.526 6875.28,43.06 6875.68,44.549C6876.28,46.814 6876.5,49.138 6877.13,50.394C6877.18,50.495 6879.28,52.514 6880.72,50.636C6881.1,50.15 6882.77,47.78 6883.33,47.092Z" style="fill:white;"/>
            </g>
            <g transform="matrix(1.16226,0,0,1.08961,3480.66,192.166)">
                <path d="M6882.59,146.229C6882.18,146.173 6881.59,146.077 6881.13,145.96C6879.34,145.502 6877.44,144.828 6876.92,144.741C6875.52,144.507 6872.52,143.679 6870.11,142.576C6869.37,142.238 6868.68,141.877 6868.14,141.493C6867.83,141.276 6867.55,141.094 6867.44,140.864C6866.9,139.782 6867.27,138.634 6867.64,137.468C6868.23,135.568 6868.99,133.636 6868.99,131.796C6868.99,130.646 6868.06,129.712 6866.91,129.712C6865.76,129.712 6864.82,130.646 6864.82,131.796C6864.82,133.61 6863.8,135.502 6863.34,137.364C6862.89,139.204 6862.85,141.009 6863.71,142.727C6864.21,143.726 6865.39,144.794 6867,145.68C6869.92,147.286 6874.34,148.535 6876.23,148.851C6877.01,148.98 6880.81,150.388 6882.8,150.453C6884.02,150.493 6884.9,150.087 6885.38,149.602C6885.77,149.212 6886.2,148.488 6886.56,147.554C6887.08,146.16 6887.54,144.157 6887.88,143.121C6890.78,134.448 6892.32,126.277 6892.32,117.129C6892.32,115.979 6891.39,115.046 6890.24,115.046C6889.09,115.046 6888.16,115.979 6888.16,117.129C6888.16,125.814 6886.68,133.569 6883.93,141.803C6883.64,142.678 6883.27,144.254 6882.84,145.551C6882.78,145.761 6882.68,146.012 6882.59,146.229Z" style="fill:white;"/>
            </g>
            <g transform="matrix(1.16226,0,0,1.08961,3480.66,192.166)">
                <path d="M6858.73,101.577C6857.98,103.372 6854.61,108.399 6854.02,108.989C6852.43,110.576 6849.36,111.212 6846.99,111.212C6842.59,111.212 6839.74,110.306 6837.95,108.413C6836.63,107.017 6835.92,105.132 6835.49,102.886C6835.01,100.318 6834.91,97.31 6834.91,93.962C6834.91,92.575 6833.71,83.661 6834.23,80.854C6836.17,79.06 6844.14,72.631 6846.42,71.492C6849.63,69.887 6851.84,68.262 6853.7,67.174C6854.94,66.443 6855.93,65.933 6857.15,66.306C6858.48,66.708 6859.95,67.865 6862.02,69.935C6862.82,70.739 6866.99,74.253 6867.55,74.727C6867.86,75.499 6868.61,76.046 6869.49,76.046C6870.64,76.046 6871.57,75.112 6871.57,73.962C6871.57,73.517 6871.33,72.636 6870.49,71.734C6869.16,70.317 6865.78,67.806 6864.96,66.989C6862.21,64.231 6860.13,62.855 6858.36,62.319C6856.39,61.719 6854.68,62.011 6852.79,62.929C6850.73,63.934 6848.36,65.866 6844.56,67.765C6841.95,69.068 6832.46,76.712 6831.02,78.156C6830.6,78.574 6830.1,79.664 6830,81.287C6829.79,84.925 6830.74,92.654 6830.74,93.962C6830.74,101.604 6831.47,107.633 6834.92,111.276C6837.33,113.826 6841.07,115.379 6846.99,115.379C6850.38,115.379 6854.69,114.207 6856.96,111.935C6857.59,111.312 6860.9,106.49 6862.19,103.993C6862.71,102.983 6862.91,102.166 6862.91,101.796C6862.91,100.469 6862.15,98.164 6860.94,95.535C6858.47,90.216 6854.21,83.236 6853.19,81.197C6852.67,80.169 6851.42,79.751 6850.39,80.266C6849.36,80.78 6848.95,82.032 6849.46,83.061C6850.47,85.084 6854.71,92.009 6857.16,97.288C6857.98,99.064 6858.64,100.594 6858.73,101.577Z" style="fill:white;"/>
            </g>
            <g transform="matrix(1.16226,0,0,1.08961,3480.66,192.166)">
                <path d="M6895.41,62.574C6898.79,63.083 6909.26,65.8 6911.74,66.582C6913.45,68.417 6915.51,71.559 6917.45,73.603C6917.46,74.138 6917.49,75.989 6917.49,76.462C6917.49,80.92 6915.2,82.553 6912.1,85.656C6911.62,86.135 6910.81,86.471 6910.28,86.848C6909.84,87.162 6909.49,87.506 6909.25,87.851C6908.95,88.02 6907.62,88.748 6906.7,89.041C6906.41,89.132 6906.02,89.206 6905.75,89.251C6905.51,88.844 6905.29,88.269 6905.07,87.615C6904.49,85.869 6904.09,83.579 6904.18,81.479C6904.22,80.443 6904.38,79.455 6904.74,78.635C6904.98,78.069 6905.32,77.588 6905.84,77.326C6907.71,76.39 6909.6,75.546 6912.24,75.546C6913.39,75.546 6914.32,74.612 6914.32,73.462C6914.32,72.312 6913.39,71.379 6912.24,71.379C6908.84,71.379 6906.39,72.394 6903.98,73.599C6901.44,74.866 6900.16,77.85 6900.02,81.305C6899.89,84.362 6900.59,87.742 6901.51,89.989C6901.99,91.17 6902.57,92.072 6903.1,92.602C6903.74,93.239 6905.06,93.657 6906.71,93.336C6908.21,93.044 6910.11,92.237 6911.23,91.55C6911.92,91.125 6912.38,90.654 6912.63,90.299C6912.86,90.159 6914.43,89.221 6915.05,88.602C6919.07,84.577 6921.66,82.244 6921.66,76.462C6921.66,75.739 6921.76,73.656 6921.51,72.547C6921.35,71.821 6921.02,71.3 6920.71,70.989C6918.58,68.853 6916.24,65.187 6914.38,63.322C6914.3,63.241 6913.92,62.912 6913.17,62.665C6911.09,61.986 6901.4,59.459 6897.04,58.632C6895.83,58.401 6894.93,58.316 6894.56,58.345C6893.77,58.405 6893.33,58.761 6893.1,58.989C6892.49,59.597 6888.09,64.03 6885.01,66.881C6883.89,67.918 6883.01,68.749 6882.64,68.932C6881.61,69.446 6881.2,70.699 6881.71,71.727C6882.23,72.756 6883.48,73.173 6884.51,72.659C6884.87,72.476 6885.62,71.921 6886.57,71.09C6889.13,68.831 6893.66,64.319 6895.41,62.574Z" style="fill:white;"/>
            </g>
            <g transform="matrix(1.16226,0,0,1.08961,3480.66,192.166)">
                <path d="M6902.32,85.048C6901.16,86.238 6899.65,87.951 6898.24,88.796C6895.77,90.28 6891.8,92.902 6889.91,94.796C6889.53,95.167 6889.91,97.878 6889.91,98.462C6889.91,101.061 6889.73,104.491 6888.57,106.796C6886.03,111.877 6882.77,118.934 6878.24,123.462C6874.15,127.554 6868.06,125.129 6862.24,125.129C6861.02,125.129 6862.24,127.573 6862.24,128.796C6862.24,131.4 6859.07,133.837 6856.57,134.462C6852.94,135.371 6848,134.884 6844.99,133.379C6842.31,132.04 6840.88,130.281 6837.91,128.796C6832.1,125.894 6828.82,119.296 6828.82,113.046C6828.82,111.964 6831.57,103.293 6831.57,101.129C6831.57,101.129 6832.11,100.592 6833.01,99.831C6833.65,108.121 6836.41,113.296 6846.99,113.296C6849.87,113.296 6853.56,112.392 6855.49,110.462C6856.22,109.735 6860.82,102.863 6860.82,101.796C6860.82,99.151 6856.97,92.133 6854.11,87.102C6856.6,84.302 6859.75,82.251 6864.24,81.129C6867.24,80.378 6872.75,80.757 6875.57,81.462C6876.31,81.645 6879.52,82.847 6880.24,82.129C6883.6,78.766 6891.04,77.728 6896.24,75.129C6902.36,72.07 6912.07,68.966 6916.24,64.796C6918.14,62.899 6921.15,61.966 6922.24,59.796C6922.78,58.709 6928.31,55.195 6929.57,56.462C6930.17,57.058 6929.47,57.929 6929.91,58.796C6931.14,61.267 6932.03,66.032 6933.57,69.129C6933.64,69.265 6933.67,70.702 6933.57,70.796C6933.1,71.267 6930.55,70.634 6929.91,70.796C6926.09,71.751 6922.58,72.458 6919.91,73.796C6919.04,74.231 6918.14,74.682 6917.22,75.149C6915.08,74.313 6912.24,73.462 6912.24,73.462C6909.22,73.462 6907.05,74.392 6904.91,75.462C6902.11,76.862 6901.73,81.226 6902.32,85.048Z" style="fill:white;"/>
                <path d="M6879.24,80.218L6876.08,79.441C6873.01,78.673 6867.01,78.29 6863.74,79.108C6858.78,80.347 6855.3,82.625 6852.55,85.717C6851.96,86.384 6851.86,87.354 6852.3,88.13C6853.98,91.096 6856.02,94.764 6857.38,97.785C6858.09,99.352 6858.65,100.691 6858.73,101.579C6857.98,103.376 6854.61,108.399 6854.02,108.989C6852.43,110.576 6849.36,111.212 6846.99,111.212C6842.49,111.212 6839.6,110.262 6837.82,108.28C6836,106.25 6835.37,103.281 6835.08,99.668C6835.02,98.889 6834.53,98.209 6833.81,97.908C6833.09,97.607 6832.26,97.736 6831.66,98.241C6830.68,99.072 6830.1,99.659 6830.1,99.659C6829.71,100.05 6829.49,100.578 6829.49,101.129C6829.49,102.34 6828.52,105.725 6827.78,108.465C6827.18,110.681 6826.74,112.556 6826.74,113.046C6826.74,120.049 6830.47,127.408 6836.98,130.659C6839.95,132.145 6841.38,133.904 6844.06,135.242C6847.44,136.934 6852.99,137.505 6857.08,136.483C6858.94,136.018 6861.11,134.747 6862.54,133.102C6863.65,131.817 6864.32,130.311 6864.32,128.796C6864.32,128.453 6864.22,127.855 6864.11,127.286C6866.39,127.449 6868.67,127.838 6870.82,127.912C6874.17,128.027 6877.23,127.42 6879.71,124.935C6884.4,120.254 6887.81,112.981 6890.44,107.727C6891.72,105.162 6891.99,101.355 6891.99,98.462C6891.99,98.125 6891.9,96.525 6891.86,95.819C6893.78,94.074 6897.15,91.878 6899.31,90.582C6900.86,89.657 6902.54,87.807 6903.82,86.503C6904.27,86.033 6904.48,85.375 6904.38,84.727C6904.12,83.069 6904.06,81.293 6904.38,79.78C6904.61,78.71 6904.98,77.755 6905.84,77.326C6907.64,76.426 6909.45,75.61 6911.94,75.549C6912.71,75.786 6914.8,76.443 6916.46,77.09C6917.02,77.306 6917.64,77.275 6918.17,77.005C6919.08,76.54 6919.97,76.092 6920.84,75.659C6923.36,74.398 6926.66,73.75 6930.25,72.857C6930.57,72.895 6932.49,73.107 6933.27,73.036C6934.11,72.958 6934.7,72.616 6935.05,72.269C6935.2,72.119 6935.61,71.636 6935.69,70.793C6935.73,70.35 6935.72,69.468 6935.67,69.059C6935.63,68.618 6935.5,68.321 6935.44,68.197C6933.92,65.165 6933.04,60.533 6931.85,58.021C6931.87,57.817 6931.92,57.24 6931.91,56.956C6931.87,56.231 6931.63,55.576 6931.05,54.989C6930.27,54.21 6928.74,53.847 6926.9,54.433C6925.21,54.971 6923.11,56.223 6921.85,57.232C6921.07,57.862 6920.57,58.481 6920.38,58.864C6919.99,59.637 6919.2,60.13 6918.4,60.658C6917.16,61.476 6915.81,62.276 6914.77,63.322C6910.72,67.37 6901.25,70.296 6895.31,73.265C6892.25,74.795 6888.39,75.762 6885.09,77.012C6882.79,77.883 6880.74,78.904 6879.24,80.218ZM6902.65,74.497C6901.75,75.307 6901.08,76.39 6900.65,77.668C6899.99,79.593 6899.88,82.005 6900.13,84.333C6899.22,85.302 6898.17,86.408 6897.17,87.009C6894.57,88.567 6890.42,91.335 6888.43,93.322C6888.15,93.607 6887.78,94.18 6887.69,95.045C6887.59,96.01 6887.82,97.963 6887.82,98.462C6887.82,100.767 6887.73,103.82 6886.71,105.864C6884.26,110.772 6881.14,117.615 6876.77,121.989C6875.16,123.596 6873.13,123.822 6870.96,123.748C6868.18,123.652 6865.18,123.046 6862.24,123.046C6861.54,123.046 6861.02,123.274 6860.62,123.582C6860.08,124.001 6859.69,124.641 6859.62,125.534C6859.59,126.021 6859.68,126.674 6859.84,127.361C6859.96,127.868 6860.16,128.409 6860.16,128.796C6860.16,129.364 6859.81,129.886 6859.39,130.368C6858.52,131.372 6857.21,132.157 6856.07,132.441C6852.89,133.237 6848.56,132.833 6845.92,131.516C6843.24,130.177 6841.81,128.418 6838.84,126.932C6833.76,124.392 6830.93,118.599 6830.91,113.124C6830.95,112.923 6831.39,111.094 6831.8,109.549C6832,108.805 6832.21,108.019 6832.42,107.232C6832.99,108.694 6833.75,109.976 6834.72,111.064C6837.13,113.742 6840.91,115.379 6846.99,115.379C6850.38,115.379 6854.69,114.207 6856.96,111.935C6857.59,111.312 6860.9,106.49 6862.19,103.993C6862.71,102.983 6862.91,102.166 6862.91,101.796C6862.91,100.825 6862.54,99.357 6861.85,97.633C6860.67,94.682 6858.57,90.775 6856.69,87.428C6858.75,85.462 6861.32,84.008 6864.75,83.15C6867.48,82.466 6872.5,82.841 6875.07,83.483C6875.63,83.623 6877.51,84.281 6878.86,84.41C6880.16,84.535 6881.18,84.133 6881.71,83.602C6883.2,82.112 6885.63,81.204 6888.23,80.313C6891.24,79.278 6894.49,78.331 6897.17,76.992C6898.81,76.175 6900.69,75.348 6902.65,74.497ZM6927.76,58.561C6927.8,58.974 6927.88,59.403 6928.04,59.727C6929.11,61.869 6929.92,65.731 6931.12,68.74L6930.82,68.714C6930.21,68.663 6929.7,68.7 6929.4,68.774C6925.41,69.771 6921.77,70.536 6918.98,71.932C6918.36,72.239 6917.73,72.554 6917.1,72.876C6915.06,72.134 6912.84,71.467 6912.84,71.467C6912.65,71.409 6912.44,71.379 6912.24,71.379C6911.02,71.379 6909.91,71.51 6908.89,71.736C6912.44,70.075 6915.7,68.283 6917.71,66.269C6918.77,65.21 6920.22,64.497 6921.42,63.642C6922.52,62.857 6923.44,61.971 6924.03,60.878C6924.25,60.701 6926.13,59.258 6927.44,58.682C6927.54,58.64 6927.64,58.599 6927.76,58.561Z" style="fill:white;"/>
            </g>
        </g>
    </g>
</svg>
