<?xml version="1.0" encoding="UTF-8" standalone="no"?>
<!DOCTYPE svg PUBLIC "-//W3C//DTD SVG 1.1//EN" "http://www.w3.org/Graphics/SVG/1.1/DTD/svg11.dtd">
<svg width="100%" height="100%" viewBox="0 0 256 256" version="1.1" xmlns="http://www.w3.org/2000/svg" xmlns:xlink="http://www.w3.org/1999/xlink" xml:space="preserve" xmlns:serif="http://www.serif.com/" style="fill-rule:evenodd;clip-rule:evenodd;stroke-linejoin:round;stroke-miterlimit:2;">
    <g transform="matrix(1,0,0,1,-2304,0)">
        <g id="Ko-Fi" transform="matrix(1.6,0,0,1.70667,-15933.5,-373.411)">
            <rect x="11398.4" y="218.796" width="160" height="150" style="fill:none;"/>
            <g transform="matrix(0.625,0,0,0.585937,9954.87,219.365)">
                <circle cx="2437.65" cy="127.028" r="118.833" style="fill:rgb(41,171,225);"/>
            </g>
            <g transform="matrix(0.625,0,0,0.585937,9958.41,218.796)">
                <path d="M2487.06,72.974C2486.33,72.974 2355.2,73.528 2355.2,73.528C2352,73.528 2349.4,76.127 2349.4,79.328L2349.4,166.328C2349.4,179.132 2359.8,189.528 2372.6,189.528L2458.2,189.528C2471.01,189.528 2481.4,179.132 2481.4,166.328L2481.4,150.798C2484.07,150.778 2486.45,150.748 2487.06,150.748C2508.1,150.748 2525.29,133.385 2525.29,111.861C2525.29,90.337 2508.1,72.974 2487.06,72.974ZM2481.4,131.023L2481.4,92.891C2484.47,92.806 2486.74,92.748 2487.06,92.748C2497.31,92.748 2505.51,101.374 2505.51,111.861C2505.51,122.348 2497.31,130.974 2487.06,130.974C2486.54,130.974 2484.01,130.997 2481.4,131.023Z" style="fill:white;"/>
            </g>
            <g transform="matrix(0.692164,0,0,0.585937,9796.11,222.311)">
                <path d="M2416.49,105.061C2423.54,94.194 2437.64,94.194 2444.7,100.794C2451.75,107.394 2455.06,123.625 2444.7,133.794C2434.94,143.361 2428.27,148.928 2416.49,160.194C2405,148.594 2395.62,142.694 2388.28,133.794C2378.93,122.473 2381.22,107.394 2388.28,100.794C2395.33,94.194 2409.43,94.194 2416.49,105.061Z" style="fill:rgb(251,95,97);"/>
            </g>
        </g>
    </g>
</svg>
