<?xml version="1.0" encoding="UTF-8" standalone="no"?>
<!DOCTYPE svg PUBLIC "-//W3C//DTD SVG 1.1//EN" "http://www.w3.org/Graphics/SVG/1.1/DTD/svg11.dtd">
<svg width="100%" height="100%" viewBox="0 0 256 256" version="1.1" xmlns="http://www.w3.org/2000/svg" xmlns:xlink="http://www.w3.org/1999/xlink" xml:space="preserve" xmlns:serif="http://www.serif.com/" style="fill-rule:evenodd;clip-rule:evenodd;stroke-linecap:round;stroke-linejoin:round;stroke-miterlimit:1.5;">
    <g transform="matrix(1,0,0,1,0,-1024)">
        <g transform="matrix(0.2,0,0,0.355556,0,1024)">
            <rect id="pandaqi" x="0" y="0" width="1280" height="720" style="fill:none;"/>
            <g id="pandaqi1" serif:id="pandaqi">
                <g transform="matrix(0.93684,0,0,0.93684,40.4223,22.7375)">
                    <g transform="matrix(5,0,0,2.8125,0,0)">
                        <path d="M193.359,30.987C194.057,28.641 195.163,26.007 196.749,23.022C207.478,2.821 224.502,5.737 230.976,11.664C237.449,17.592 246.568,27.354 237.377,41.981C232.059,50.443 226.75,56.184 221.112,57.989C223.846,65.052 224.559,73.196 222.555,82.52C211.721,132.951 161.161,126.413 102.475,127.347C43.789,128.281 26.635,104.934 29.344,66.644C29.604,62.964 30.365,59.578 31.562,56.456C27.139,53.794 22.884,48.761 18.623,41.981C9.432,27.354 18.551,17.592 25.024,11.664C31.498,5.737 48.522,2.821 59.251,23.022C60.708,25.765 61.76,28.211 62.462,30.408C82.174,22.951 107.088,20.476 126.852,19.015C145.926,17.606 172.767,20.923 193.359,30.987Z" style="fill:rgb(137,77,34);stroke:black;stroke-width:8.54px;"/>
                    </g>
                    <g transform="matrix(5,0,0,2.8125,0,0)">
                        <path d="M93.331,40.251C83.245,41.952 68.117,45.919 67.397,69.158C66.677,92.397 71.239,106.567 86.847,106C102.456,105.434 115.903,109.401 118.784,78.794C121.666,48.187 103.416,38.551 93.331,40.251ZM93.268,56.88C88.298,57.719 80.842,59.674 80.487,71.127C80.132,82.58 84.412,71.958 92.104,71.679C99.797,71.4 104.393,90.961 105.813,75.876C107.233,60.791 98.239,56.042 93.268,56.88Z" style="fill:rgb(255,191,144);"/>
                    </g>
                    <g transform="matrix(13.5429,0,0,9.21164,-19306.5,-9008.91)">
                        <path d="M1472.42,1021.57C1465.16,1022.09 1454.35,1017.77 1447.09,1020.4C1440.35,1022.84 1436.9,1030.54 1436.42,1037.12C1435.42,1050.79 1441.05,1058.39 1446.75,1051.12C1456.42,1038.8 1485.78,1040.22 1492.81,1049.52C1499.04,1057.76 1505.6,1052.5 1507.75,1042.79C1510.33,1031.22 1507.78,1022.41 1496.91,1019.53C1490.87,1017.92 1477.42,1021.21 1472.42,1021.57Z" style="fill:rgb(137,77,34);stroke:black;stroke-width:2.84px;"/>
                    </g>
                    <g transform="matrix(5,0,0,2.8125,0,0)">
                        <path d="M163.754,40.251C153.668,41.952 138.54,45.919 137.82,69.158C137.1,92.397 141.662,106.567 157.27,106C172.879,105.434 186.326,109.401 189.207,78.794C192.089,48.187 173.839,38.551 163.754,40.251ZM161.553,56.88C166.523,57.719 173.979,59.674 174.334,71.127C174.689,82.58 170.409,71.958 162.717,71.679C155.024,71.4 150.428,90.961 149.008,75.876C147.588,60.791 156.582,56.042 161.553,56.88Z" style="fill:rgb(255,191,144);"/>
                    </g>
                    <g transform="matrix(2.34853,0,0,2.3748,-3124.98,-1998.99)">
                        <path d="M1472.42,1020.12C1458.42,1021.12 1437.42,1023.45 1436.42,1037.12C1435.42,1050.79 1441.75,1059.12 1463.42,1058.79C1485.09,1058.45 1503.75,1060.79 1507.75,1042.79C1511.75,1024.79 1486.42,1019.12 1472.42,1020.12Z" style="fill:rgb(255,191,144);"/>
                    </g>
                    <g transform="matrix(1.00679,0,0,1.01806,-542.215,-627.258)">
                        <path d="M1472.42,1020.12C1458.42,1021.12 1437.42,1023.45 1436.42,1037.12C1435.42,1050.79 1441.75,1059.12 1463.42,1058.79C1485.09,1058.45 1503.75,1060.79 1507.75,1042.79C1511.75,1024.79 1486.42,1019.12 1472.42,1020.12Z" style="fill:rgb(255,191,144);"/>
                    </g>
                    <g transform="matrix(1.00679,0,0,1.01806,-623.472,-573.933)">
                        <path d="M1472.42,1020.12C1458.42,1021.12 1437.42,1023.45 1436.42,1037.12C1435.42,1050.79 1441.75,1059.12 1463.42,1058.79C1485.09,1058.45 1503.75,1060.79 1507.75,1042.79C1511.75,1024.79 1486.42,1019.12 1472.42,1020.12Z" style="fill:rgb(255,191,144);"/>
                    </g>
                    <g transform="matrix(1.00679,0,0,1.01806,-520.547,-525.559)">
                        <path d="M1472.42,1020.12C1458.42,1021.12 1437.42,1023.45 1436.42,1037.12C1435.42,1050.79 1441.75,1059.12 1463.42,1058.79C1485.09,1058.45 1503.75,1060.79 1507.75,1042.79C1511.75,1024.79 1486.42,1019.12 1472.42,1020.12Z" style="fill:rgb(255,191,144);"/>
                    </g>
                    <g transform="matrix(1.00679,0,0,1.01806,-444.706,-580.027)">
                        <path d="M1472.42,1020.12C1458.42,1021.12 1437.42,1023.45 1436.42,1037.12C1435.42,1050.79 1441.75,1059.12 1463.42,1058.79C1485.09,1058.45 1503.75,1060.79 1507.75,1042.79C1511.75,1024.79 1486.42,1019.12 1472.42,1020.12Z" style="fill:rgb(255,191,144);"/>
                    </g>
                </g>
            </g>
        </g>
    </g>
</svg>
