<?xml version="1.0" encoding="UTF-8" standalone="no"?>
<!DOCTYPE svg PUBLIC "-//W3C//DTD SVG 1.1//EN" "http://www.w3.org/Graphics/SVG/1.1/DTD/svg11.dtd">
<svg width="100%" height="100%" viewBox="0 0 256 256" version="1.1" xmlns="http://www.w3.org/2000/svg" xmlns:xlink="http://www.w3.org/1999/xlink" xml:space="preserve" xmlns:serif="http://www.serif.com/" style="fill-rule:evenodd;clip-rule:evenodd;stroke-linejoin:round;stroke-miterlimit:2;">
    <g transform="matrix(1,0,0,1,-2048,0)">
        <g id="Random" transform="matrix(1.6,0,0,1.70667,-16189.5,-373.411)">
            <rect x="11398.4" y="218.796" width="160" height="150" style="fill:none;"/>
            <g transform="matrix(1,0,0,1,3.12503,2.84217e-14)">
                <g transform="matrix(0.738866,0,0,0.692687,9889.01,213.188)">
                    <g transform="matrix(232.674,0,0,232.674,2101.15,201.528)">
                        <path d="M0.027,-0.637C0.027,-0.66 0.043,-0.682 0.076,-0.705C0.108,-0.727 0.15,-0.738 0.2,-0.738C0.263,-0.738 0.312,-0.722 0.349,-0.69C0.385,-0.657 0.403,-0.616 0.403,-0.566C0.403,-0.545 0.4,-0.526 0.394,-0.506C0.388,-0.488 0.379,-0.47 0.368,-0.455C0.356,-0.439 0.346,-0.426 0.337,-0.416C0.328,-0.405 0.317,-0.394 0.303,-0.382C0.289,-0.369 0.281,-0.362 0.279,-0.359C0.259,-0.341 0.247,-0.323 0.242,-0.304C0.237,-0.285 0.235,-0.257 0.235,-0.219C0.235,-0.198 0.22,-0.188 0.189,-0.188C0.173,-0.188 0.162,-0.191 0.156,-0.198C0.149,-0.205 0.146,-0.217 0.146,-0.234C0.146,-0.31 0.165,-0.365 0.204,-0.398C0.209,-0.402 0.218,-0.41 0.232,-0.42C0.246,-0.431 0.256,-0.44 0.263,-0.447C0.27,-0.454 0.278,-0.463 0.287,-0.475C0.297,-0.487 0.303,-0.499 0.308,-0.513C0.312,-0.527 0.314,-0.541 0.314,-0.557C0.314,-0.589 0.304,-0.614 0.283,-0.631C0.262,-0.649 0.233,-0.658 0.197,-0.658C0.175,-0.658 0.157,-0.655 0.142,-0.648C0.127,-0.642 0.117,-0.635 0.111,-0.626C0.105,-0.618 0.098,-0.611 0.091,-0.604C0.083,-0.598 0.076,-0.595 0.068,-0.595C0.058,-0.595 0.048,-0.598 0.04,-0.606C0.031,-0.613 0.027,-0.624 0.027,-0.637ZM0.131,-0.049C0.131,-0.064 0.137,-0.077 0.148,-0.088C0.159,-0.099 0.173,-0.104 0.19,-0.104C0.207,-0.104 0.222,-0.099 0.234,-0.088C0.247,-0.077 0.253,-0.064 0.253,-0.049C0.253,-0.034 0.247,-0.021 0.234,-0.011C0.222,0 0.207,0.006 0.19,0.006C0.173,0.006 0.159,0 0.148,-0.011C0.137,-0.021 0.131,-0.034 0.131,-0.049Z" style="fill:rgb(0,129,255);fill-rule:nonzero;"/>
                    </g>
                </g>
                <g transform="matrix(0.415392,0,0,0.376775,10548.2,256.201)">
                    <g transform="matrix(232.674,0,0,232.674,2101.15,201.528)">
                        <path d="M0.027,-0.637C0.027,-0.66 0.043,-0.682 0.076,-0.705C0.108,-0.727 0.15,-0.738 0.2,-0.738C0.263,-0.738 0.312,-0.722 0.349,-0.69C0.385,-0.657 0.403,-0.616 0.403,-0.566C0.403,-0.545 0.4,-0.526 0.394,-0.506C0.388,-0.488 0.379,-0.47 0.368,-0.455C0.356,-0.439 0.346,-0.426 0.337,-0.416C0.328,-0.405 0.317,-0.394 0.303,-0.382C0.289,-0.369 0.281,-0.362 0.279,-0.359C0.259,-0.341 0.247,-0.323 0.242,-0.304C0.237,-0.285 0.235,-0.257 0.235,-0.219C0.235,-0.198 0.22,-0.188 0.189,-0.188C0.173,-0.188 0.162,-0.191 0.156,-0.198C0.149,-0.205 0.146,-0.217 0.146,-0.234C0.146,-0.31 0.165,-0.365 0.204,-0.398C0.209,-0.402 0.218,-0.41 0.232,-0.42C0.246,-0.431 0.256,-0.44 0.263,-0.447C0.27,-0.454 0.278,-0.463 0.287,-0.475C0.297,-0.487 0.303,-0.499 0.308,-0.513C0.312,-0.527 0.314,-0.541 0.314,-0.557C0.314,-0.589 0.304,-0.614 0.283,-0.631C0.262,-0.649 0.233,-0.658 0.197,-0.658C0.175,-0.658 0.157,-0.655 0.142,-0.648C0.127,-0.642 0.117,-0.635 0.111,-0.626C0.105,-0.618 0.098,-0.611 0.091,-0.604C0.083,-0.598 0.076,-0.595 0.068,-0.595C0.058,-0.595 0.048,-0.598 0.04,-0.606C0.031,-0.613 0.027,-0.624 0.027,-0.637ZM0.131,-0.049C0.131,-0.064 0.137,-0.077 0.148,-0.088C0.159,-0.099 0.173,-0.104 0.19,-0.104C0.207,-0.104 0.222,-0.099 0.234,-0.088C0.247,-0.077 0.253,-0.064 0.253,-0.049C0.253,-0.034 0.247,-0.021 0.234,-0.011C0.222,0 0.207,0.006 0.19,0.006C0.173,0.006 0.159,0 0.148,-0.011C0.137,-0.021 0.131,-0.034 0.131,-0.049Z" style="fill:rgb(0,129,255);fill-rule:nonzero;"/>
                    </g>
                </g>
                <g transform="matrix(0.244142,0,0,0.205279,10991.1,280.064)">
                    <g transform="matrix(232.674,0,0,232.674,2101.15,201.528)">
                        <path d="M0.027,-0.637C0.027,-0.66 0.043,-0.682 0.076,-0.705C0.108,-0.727 0.15,-0.738 0.2,-0.738C0.263,-0.738 0.312,-0.722 0.349,-0.69C0.385,-0.657 0.403,-0.616 0.403,-0.566C0.403,-0.545 0.4,-0.526 0.394,-0.506C0.388,-0.488 0.379,-0.47 0.368,-0.455C0.356,-0.439 0.346,-0.426 0.337,-0.416C0.328,-0.405 0.317,-0.394 0.303,-0.382C0.289,-0.369 0.281,-0.362 0.279,-0.359C0.259,-0.341 0.247,-0.323 0.242,-0.304C0.237,-0.285 0.235,-0.257 0.235,-0.219C0.235,-0.198 0.22,-0.188 0.189,-0.188C0.173,-0.188 0.162,-0.191 0.156,-0.198C0.149,-0.205 0.146,-0.217 0.146,-0.234C0.146,-0.31 0.165,-0.365 0.204,-0.398C0.209,-0.402 0.218,-0.41 0.232,-0.42C0.246,-0.431 0.256,-0.44 0.263,-0.447C0.27,-0.454 0.278,-0.463 0.287,-0.475C0.297,-0.487 0.303,-0.499 0.308,-0.513C0.312,-0.527 0.314,-0.541 0.314,-0.557C0.314,-0.589 0.304,-0.614 0.283,-0.631C0.262,-0.649 0.233,-0.658 0.197,-0.658C0.175,-0.658 0.157,-0.655 0.142,-0.648C0.127,-0.642 0.117,-0.635 0.111,-0.626C0.105,-0.618 0.098,-0.611 0.091,-0.604C0.083,-0.598 0.076,-0.595 0.068,-0.595C0.058,-0.595 0.048,-0.598 0.04,-0.606C0.031,-0.613 0.027,-0.624 0.027,-0.637ZM0.131,-0.049C0.131,-0.064 0.137,-0.077 0.148,-0.088C0.159,-0.099 0.173,-0.104 0.19,-0.104C0.207,-0.104 0.222,-0.099 0.234,-0.088C0.247,-0.077 0.253,-0.064 0.253,-0.049C0.253,-0.034 0.247,-0.021 0.234,-0.011C0.222,0 0.207,0.006 0.19,0.006C0.173,0.006 0.159,0 0.148,-0.011C0.137,-0.021 0.131,-0.034 0.131,-0.049Z" style="fill:rgb(0,129,255);fill-rule:nonzero;"/>
                    </g>
                </g>
            </g>
        </g>
    </g>
</svg>
