<?xml version="1.0" encoding="UTF-8" standalone="no"?>
<!DOCTYPE svg PUBLIC "-//W3C//DTD SVG 1.1//EN" "http://www.w3.org/Graphics/SVG/1.1/DTD/svg11.dtd">
<svg width="100%" height="100%" viewBox="0 0 256 256" version="1.1" xmlns="http://www.w3.org/2000/svg" xmlns:xlink="http://www.w3.org/1999/xlink" xml:space="preserve" xmlns:serif="http://www.serif.com/" style="fill-rule:evenodd;clip-rule:evenodd;stroke-linejoin:round;stroke-miterlimit:2;">
    <g transform="matrix(1,0,0,1,-2304,-1024)">
        <g transform="matrix(1.6,0,0,1.70667,-15933.5,650.589)">
            <rect id="random" x="11398.4" y="218.796" width="160" height="150" style="fill:none;"/>
            <g id="random1" serif:id="random">
                <g transform="matrix(1,0,0,1,3.12503,2.84217e-14)">
                    <g transform="matrix(0.738866,0,0,0.692687,9889.01,213.188)">
                        <g transform="matrix(232.674,0,0,232.674,2199.34,201.528)">
                        </g>
                        <text x="2101.15px" y="201.528px" style="font-family:'Dosis-SemiBold', 'Dosis';font-weight:600;font-size:232.674px;fill:rgb(0,129,255);">?</text>
                        <path d="M2100.56,53.412C2100.56,46.276 2104.88,38.8 2114.93,31.969C2123.54,26.115 2134.42,23.047 2147.65,23.047C2164.24,23.047 2177.24,27.532 2186.78,36.05C2196.7,44.899 2201.69,56.15 2201.69,69.834C2201.69,75.353 2200.88,80.65 2199.27,85.724C2197.64,90.851 2195.29,95.526 2192.22,99.753C2189.43,103.592 2186.93,106.774 2184.71,109.306C2182.46,111.885 2179.62,114.718 2176.2,117.796C2173.17,120.517 2171.36,122.166 2170.78,122.754C2170.7,122.84 2170.61,122.924 2170.52,123.005C2167.09,126.122 2164.81,129.188 2164.01,132.42C2163.03,136.406 2162.6,142.46 2162.6,150.572C2162.6,154.508 2161.26,157.593 2158.92,159.955C2156.25,162.642 2151.76,164.552 2145.1,164.552C2139.19,164.552 2135.14,162.77 2132.61,160.206C2130.17,157.737 2128.36,153.475 2128.36,147.06C2128.36,126.929 2133.96,112.606 2144.19,103.77C2145.31,102.749 2147.58,100.919 2151.02,98.305C2153.95,96.07 2156.15,94.235 2157.59,92.769C2159.05,91.278 2160.76,89.285 2162.71,86.801C2164.32,84.746 2165.51,82.518 2166.26,80.11C2167.06,77.556 2167.44,74.844 2167.44,71.979C2167.44,66.763 2165.95,62.635 2162.57,59.756C2158.82,56.553 2153.54,55.195 2146.88,55.195C2142.97,55.195 2139.63,55.714 2136.88,56.899C2134.77,57.808 2133.17,58.649 2132.32,59.796C2130.64,62.091 2128.76,64.147 2126.69,65.965C2123.58,68.707 2120.26,69.912 2116.87,69.912C2112.98,69.912 2109.3,68.567 2105.93,65.657C2102.45,62.65 2100.56,58.61 2100.56,53.412ZM2107.33,53.412C2107.33,56.42 2108.34,58.794 2110.35,60.534C2112.37,62.275 2114.54,63.145 2116.87,63.145C2118.73,63.145 2120.51,62.393 2122.22,60.889C2123.93,59.385 2125.48,57.684 2126.87,55.786C2128.27,53.889 2130.71,52.188 2134.2,50.684C2137.69,49.18 2141.92,48.428 2146.88,48.428C2155.44,48.428 2162.13,50.487 2166.96,54.607C2171.8,58.726 2174.21,64.516 2174.21,71.979C2174.21,75.554 2173.72,78.935 2172.72,82.122C2171.73,85.309 2170.17,88.263 2168.03,90.982C2165.89,93.701 2164.02,95.877 2162.42,97.51C2160.82,99.142 2158.38,101.202 2155.11,103.69C2151.85,106.178 2149.71,107.887 2148.7,108.818C2139.65,116.591 2135.12,129.338 2135.12,147.06C2135.12,151.1 2135.89,153.898 2137.42,155.453C2138.96,157.008 2141.51,157.785 2145.1,157.785C2152.25,157.785 2155.83,155.381 2155.83,150.572C2155.83,141.73 2156.37,135.138 2157.44,130.795C2158.52,126.451 2161.36,122.186 2165.97,117.998C2166.58,117.377 2168.48,115.632 2171.68,112.762C2174.87,109.893 2177.52,107.256 2179.62,104.851C2181.72,102.447 2184.1,99.422 2186.74,95.777C2189.39,92.132 2191.41,88.099 2192.82,83.678C2194.22,79.257 2194.92,74.643 2194.92,69.834C2194.92,58.2 2190.7,48.622 2182.28,41.099C2173.85,33.576 2162.3,29.814 2147.65,29.814C2135.97,29.814 2126.33,32.398 2118.73,37.565C2111.13,42.732 2107.33,48.015 2107.33,53.412ZM2124.87,190.127C2124.87,184.645 2126.88,179.977 2130.94,176.141C2134.83,172.464 2139.62,170.562 2145.35,170.562C2151.03,170.562 2155.93,172.371 2160.07,175.925C2164.6,179.811 2166.79,184.572 2166.79,190.127C2166.79,195.446 2164.67,200.169 2160.14,204.159C2155.98,207.831 2151.05,209.691 2145.35,209.691C2139.59,209.691 2134.78,207.739 2130.87,203.938C2126.82,200.002 2124.87,195.376 2124.87,190.127ZM2131.63,190.127C2131.63,193.539 2132.95,196.525 2135.58,199.085C2138.22,201.644 2141.47,202.924 2145.35,202.924C2149.33,202.924 2152.77,201.644 2155.67,199.085C2158.57,196.525 2160.02,193.539 2160.02,190.127C2160.02,186.571 2158.57,183.549 2155.67,181.061C2152.77,178.574 2149.33,177.33 2145.35,177.33C2141.47,177.33 2138.22,178.574 2135.58,181.061C2132.95,183.549 2131.63,186.571 2131.63,190.127Z" style="fill:rgb(206,245,255);"/>
                    </g>
                    <g transform="matrix(0.415392,0,0,0.376775,10548.2,256.201)">
                        <g transform="matrix(232.674,0,0,232.674,2199.34,201.528)">
                        </g>
                        <text x="2101.15px" y="201.528px" style="font-family:'Dosis-SemiBold', 'Dosis';font-weight:600;font-size:232.674px;fill:rgb(0,129,255);">?</text>
                        <path d="M2157.55,167.629C2159.6,168.641 2161.54,169.929 2163.35,171.487C2169.29,176.575 2172.05,182.855 2172.05,190.127C2172.05,197.086 2169.4,203.328 2163.48,208.547C2158.38,213.051 2152.35,215.365 2145.35,215.365C2138.18,215.365 2132.21,212.881 2127.34,208.15C2122.06,203.023 2119.6,196.962 2119.6,190.127C2119.6,182.982 2122.17,176.876 2127.47,171.877C2129.3,170.144 2131.29,168.721 2133.44,167.622C2131.68,166.691 2130.21,165.565 2129,164.336C2125.77,161.07 2123.09,155.547 2123.09,147.06C2123.09,124.847 2129.56,109.165 2140.83,99.406C2142.03,98.314 2144.41,96.389 2147.98,93.671C2150.65,91.638 2152.66,89.983 2153.97,88.65C2155.32,87.274 2156.89,85.431 2158.68,83.139C2159.85,81.654 2160.72,80.051 2161.26,78.31C2161.88,76.322 2162.18,74.209 2162.18,71.979C2162.18,68.697 2161.43,66.016 2159.3,64.204C2156.35,61.681 2152.12,60.869 2146.88,60.869C2143.74,60.869 2141.04,61.215 2138.83,62.167C2137.87,62.584 2136.54,63.403 2136.26,63.576C2134.39,66.09 2132.31,68.349 2130.03,70.355C2125.87,74.025 2121.41,75.586 2116.87,75.586C2111.81,75.586 2107.02,73.868 2102.64,70.084C2097.89,65.985 2095.29,60.497 2095.29,53.412C2095.29,44.808 2100,35.408 2112.12,27.171C2121.47,20.81 2133.27,17.373 2147.65,17.373C2165.69,17.373 2179.76,22.422 2190.14,31.682C2201.34,41.673 2206.96,54.384 2206.96,69.834C2206.96,75.989 2206.05,81.895 2204.25,87.554C2202.44,93.288 2199.8,98.516 2196.37,103.245C2193.47,107.244 2190.86,110.556 2188.55,113.194C2186.17,115.913 2183.18,118.905 2179.57,122.151C2176.68,124.753 2174.94,126.325 2174.39,126.888C2174.23,127.043 2174.08,127.194 2173.91,127.34C2171.48,129.554 2169.67,131.581 2169.1,133.878C2168.2,137.542 2167.87,143.113 2167.87,150.572C2167.87,156.254 2165.9,160.687 2162.52,164.096C2161.21,165.415 2159.56,166.632 2157.55,167.629ZM2107.33,53.412C2107.33,56.42 2108.34,58.794 2110.35,60.534C2112.37,62.275 2114.54,63.145 2116.87,63.145C2118.73,63.145 2120.51,62.393 2122.22,60.889C2123.93,59.385 2125.48,57.684 2126.87,55.786C2128.27,53.889 2130.71,52.188 2134.2,50.684C2137.69,49.18 2141.92,48.428 2146.88,48.428C2155.44,48.428 2162.13,50.487 2166.96,54.607C2171.8,58.726 2174.21,64.516 2174.21,71.979C2174.21,75.554 2173.72,78.935 2172.72,82.122C2171.73,85.309 2170.17,88.263 2168.03,90.982C2165.89,93.701 2164.02,95.877 2162.42,97.51C2160.82,99.142 2158.38,101.202 2155.11,103.69C2151.85,106.178 2149.71,107.887 2148.7,108.818C2139.65,116.591 2135.12,129.338 2135.12,147.06C2135.12,151.1 2135.89,153.898 2137.42,155.453C2138.96,157.008 2141.51,157.785 2145.1,157.785C2152.25,157.785 2155.83,155.381 2155.83,150.572C2155.83,141.73 2156.37,135.138 2157.44,130.795C2158.52,126.451 2161.36,122.186 2165.97,117.998C2166.58,117.377 2168.48,115.632 2171.68,112.762C2174.87,109.893 2177.52,107.256 2179.62,104.851C2181.72,102.447 2184.1,99.422 2186.74,95.777C2189.39,92.132 2191.41,88.099 2192.82,83.678C2194.22,79.257 2194.92,74.643 2194.92,69.834C2194.92,58.2 2190.7,48.622 2182.28,41.099C2173.85,33.576 2162.3,29.814 2147.65,29.814C2135.97,29.814 2126.33,32.398 2118.73,37.565C2111.13,42.732 2107.33,48.015 2107.33,53.412ZM2131.63,190.127C2131.63,193.539 2132.95,196.525 2135.58,199.085C2138.22,201.644 2141.47,202.924 2145.35,202.924C2149.33,202.924 2152.77,201.644 2155.67,199.085C2158.57,196.525 2160.02,193.539 2160.02,190.127C2160.02,186.571 2158.57,183.549 2155.67,181.061C2152.77,178.574 2149.33,177.33 2145.35,177.33C2141.47,177.33 2138.22,178.574 2135.58,181.061C2132.95,183.549 2131.63,186.571 2131.63,190.127Z" style="fill:rgb(206,245,255);"/>
                    </g>
                    <g transform="matrix(0.244142,0,0,0.205279,10991.1,280.064)">
                        <g transform="matrix(232.674,0,0,232.674,2199.34,201.528)">
                        </g>
                        <text x="2101.15px" y="201.528px" style="font-family:'Dosis-SemiBold', 'Dosis';font-weight:600;font-size:232.674px;fill:rgb(0,129,255);">?</text>
                        <path d="M2176.99,137.772C2176.42,140.761 2176.31,145.039 2176.31,150.572C2176.31,156.916 2174.8,162.282 2172.05,166.796C2177.89,173.45 2180.5,181.349 2180.5,190.127C2180.5,200.201 2176.94,209.436 2168.37,216.992C2161.89,222.717 2154.25,225.758 2145.35,225.758C2136.1,225.758 2128.42,222.411 2122.13,216.301C2114.51,208.893 2111.15,200.004 2111.15,190.127C2111.15,181.237 2113.78,173.382 2119.39,166.758C2116.62,162.015 2114.64,155.604 2114.64,147.06C2114.64,120.774 2122.66,102.448 2135.99,90.915C2137.35,89.698 2139.86,87.649 2143.57,84.829C2145.81,83.126 2147.51,81.77 2148.61,80.653C2149.76,79.478 2151.09,77.893 2152.62,75.936C2152.95,75.526 2153.23,75.112 2153.38,74.632C2153.62,73.865 2153.72,73.05 2153.73,72.197C2151.98,71.226 2149.63,71.263 2146.88,71.263C2144.82,71.263 2143.04,71.358 2141.59,71.983C2141.49,72.022 2141.39,72.07 2141.28,72.121C2139.33,74.56 2137.21,76.786 2134.92,78.802C2129.2,83.84 2123.1,85.979 2116.87,85.979C2110.09,85.979 2103.69,83.662 2097.82,78.592C2090.66,72.41 2086.85,64.097 2086.85,53.412C2086.85,42.112 2092.16,28.886 2108.07,18.069C2118.5,10.978 2131.62,6.979 2147.65,6.979C2167.81,6.979 2183.48,12.923 2195.07,23.272C2208.71,35.443 2215.4,51.012 2215.4,69.834C2215.4,77.288 2214.3,84.438 2212.12,91.291C2209.94,98.18 2206.78,104.465 2202.66,110.145C2199.55,114.427 2196.75,117.969 2194.28,120.793C2191.7,123.75 2188.45,127.012 2184.53,130.541C2181.85,132.945 2180.24,134.387 2179.73,134.907C2179.46,135.178 2179.19,135.441 2178.91,135.696C2178.25,136.294 2177.39,137.296 2176.99,137.772ZM2131.63,190.127C2131.63,193.539 2132.95,196.525 2135.58,199.085C2138.22,201.644 2141.47,202.924 2145.35,202.924C2149.33,202.924 2152.77,201.644 2155.67,199.085C2158.57,196.525 2160.02,193.539 2160.02,190.127C2160.02,186.571 2158.57,183.549 2155.67,181.061C2152.77,178.574 2149.33,177.33 2145.35,177.33C2141.47,177.33 2138.22,178.574 2135.58,181.061C2132.95,183.549 2131.63,186.571 2131.63,190.127ZM2107.33,53.412C2107.33,56.42 2108.34,58.794 2110.35,60.534C2112.37,62.275 2114.54,63.145 2116.87,63.145C2118.73,63.145 2120.51,62.393 2122.22,60.889C2123.93,59.385 2125.48,57.684 2126.87,55.786C2128.27,53.889 2130.71,52.188 2134.2,50.684C2137.69,49.18 2141.92,48.428 2146.88,48.428C2155.44,48.428 2162.13,50.487 2166.96,54.607C2171.8,58.726 2174.21,64.516 2174.21,71.979C2174.21,75.554 2173.72,78.935 2172.72,82.122C2171.73,85.309 2170.17,88.263 2168.03,90.982C2165.89,93.701 2164.02,95.877 2162.42,97.51C2160.82,99.142 2158.38,101.202 2155.11,103.69C2151.85,106.178 2149.71,107.887 2148.7,108.818C2139.65,116.591 2135.12,129.338 2135.12,147.06C2135.12,151.1 2135.89,153.898 2137.42,155.453C2138.96,157.008 2141.51,157.785 2145.1,157.785C2152.25,157.785 2155.83,155.381 2155.83,150.572C2155.83,141.73 2156.37,135.138 2157.44,130.795C2158.52,126.451 2161.36,122.186 2165.97,117.998C2166.58,117.377 2168.48,115.632 2171.68,112.762C2174.87,109.893 2177.52,107.256 2179.62,104.851C2181.72,102.447 2184.1,99.422 2186.74,95.777C2189.39,92.132 2191.41,88.099 2192.82,83.678C2194.22,79.257 2194.92,74.643 2194.92,69.834C2194.92,58.2 2190.7,48.622 2182.28,41.099C2173.85,33.576 2162.3,29.814 2147.65,29.814C2135.97,29.814 2126.33,32.398 2118.73,37.565C2111.13,42.732 2107.33,48.015 2107.33,53.412Z" style="fill:rgb(206,245,255);"/>
                    </g>
                </g>
            </g>
        </g>
    </g>
</svg>
