<?xml version="1.0" encoding="UTF-8" standalone="no"?>
<!DOCTYPE svg PUBLIC "-//W3C//DTD SVG 1.1//EN" "http://www.w3.org/Graphics/SVG/1.1/DTD/svg11.dtd">
<svg width="100%" height="100%" viewBox="0 0 256 256" version="1.1" xmlns="http://www.w3.org/2000/svg" xmlns:xlink="http://www.w3.org/1999/xlink" xml:space="preserve" xmlns:serif="http://www.serif.com/" style="fill-rule:evenodd;clip-rule:evenodd;stroke-linejoin:round;stroke-miterlimit:2;">
    <g transform="matrix(1,0,0,1,-512,0)">
        <g id="RodePanda" transform="matrix(0.512,0,0,0.512,512,0)">
            <rect x="0" y="0" width="500" height="500" style="fill:none;"/>
            <g transform="matrix(1.02621,0,0,1.02621,-7.12484,-9.79127)">
                <g opacity="0.25">
                    <g transform="matrix(1,0,0,1,475.366,441.166)">
                        <path d="M0,-59.745C0,-94.876 -98.6,-109.642 -220.229,-109.642C-341.857,-109.642 -440.457,-93.352 -440.457,-58.222C-440.457,-46.244 -428.988,-33.624 -409.061,-22.189C-410.71,-20.165 -411.579,-17.93 -411.579,-15.454C-411.579,9.735 -322.824,49.897 -213.339,49.897C-103.854,49.897 -15.099,19.644 -15.099,-5.547C-15.099,-12.237 -21.359,-17.897 -32.607,-22.603C-11.936,-34.457 0,-47.527 0,-59.745" style="fill:rgb(50,20,14);fill-rule:nonzero;"/>
                    </g>
                </g>
            </g>
            <g transform="matrix(-0.00786382,-1.02618,-1.02618,0.00786382,229.958,143.919)">
                <path d="M-170.241,-222.941C-101.072,-223.471 -71.329,-136.06 -70.5,-27.959C-69.672,80.143 -101.072,168.021 -170.241,168.551C-239.409,169.081 -320.151,82.062 -320.98,-26.04C-321.808,-134.141 -239.409,-222.411 -170.241,-222.941" style="fill:rgb(145,72,52);fill-rule:nonzero;"/>
            </g>
            <g transform="matrix(1.02621,0,0,1.02621,-7.12484,-9.79127)">
                <g opacity="0.25">
                    <g transform="matrix(-0.00593902,0.999982,0.999982,0.00593902,267.831,98.5041)">
                        <path d="M173.758,-183.273C211.577,-153.202 234.82,-84.845 234.34,-3.98C233.858,77.11 211.305,143.194 173.758,172.679C134.941,143.792 121.12,75.14 121.611,-7.582C122.082,-86.908 137.051,-152.745 173.758,-183.273" style="fill:rgb(50,20,14);fill-rule:nonzero;"/>
                    </g>
                </g>
            </g>
            <g transform="matrix(1.02621,0,0,1.02621,408.464,-10.9186)">
                <path d="M0,187.843L64.233,27.909C20.449,0 -65.597,23.164 -109.216,91.594L0,187.843Z" style="fill:rgb(241,96,46);fill-rule:nonzero;"/>
            </g>
            <g transform="matrix(1.02621,0,0,1.02621,408.464,32.8881)">
                <path d="M0,145.155L49.637,21.567C15.802,0 -50.689,17.9 -84.396,70.779L0,145.155Z" style="fill:rgb(248,165,144);fill-rule:nonzero;"/>
            </g>
            <g transform="matrix(1.02621,0,0,1.02621,85.2181,20.8938)">
                <path d="M0,187.843L-64.233,27.909C-20.448,0 65.598,23.164 109.216,91.594L0,187.843Z" style="fill:rgb(241,96,46);fill-rule:nonzero;"/>
            </g>
            <g transform="matrix(1.02621,0,0,1.02621,85.2181,63.2618)">
                <path d="M0,146.557L-50.115,21.776C-15.954,0 51.18,18.074 85.212,71.462L0,146.557Z" style="fill:rgb(248,165,144);fill-rule:nonzero;"/>
            </g>
            <g transform="matrix(0.00786382,-1.02618,-1.02618,-0.00786382,290.238,-7.69643)">
                <path d="M-221.239,-168.941C-290.407,-169.471 -320.152,-82.061 -320.98,26.04C-321.809,134.141 -290.407,222.02 -221.239,222.55C-152.071,223.08 -71.328,136.061 -70.5,27.96C-69.671,-80.141 -152.071,-168.411 -221.239,-168.941" style="fill:rgb(241,96,46);fill-rule:nonzero;"/>
            </g>
            <g transform="matrix(1.02621,0,0,1.02621,375.261,134.621)">
                <path d="M0,168.689C15.968,143.714 25.364,114.943 25.364,87.844C25.364,18.674 -35.845,-13.399 -111.35,-13.399C-186.855,-13.399 -248.064,15.674 -248.064,84.844C-248.064,112.383 -238.354,142.123 -221.91,167.949C-190.45,177.463 -152.378,182.088 -111.351,182.088C-69.978,182.088 -31.612,177.824 0,168.689" style="fill:rgb(192,74,40);fill-rule:nonzero;"/>
            </g>
            <g transform="matrix(-0.0061431,1.02619,1.02619,0.0061431,265.633,230.636)">
                <path d="M49.435,-61.013C34.226,-61.104 27.686,-36.499 27.504,-6.101C27.322,24.297 34.226,48.982 49.435,49.073C64.644,49.164 82.398,24.627 82.58,-5.772C82.762,-36.169 64.644,-60.922 49.435,-61.013" style="fill:rgb(187,157,154);fill-rule:nonzero;"/>
            </g>
            <g transform="matrix(-0.109567,1.02034,1.02034,0.109567,264.525,280.594)">
                <path d="M22.973,-35.969C10.175,-36.098 4.67,-23.705 4.517,-8.35C4.364,7.003 10.174,19.508 22.973,19.636C35.773,19.764 50.714,7.466 50.867,-7.889C51.02,-23.242 35.772,-35.842 22.973,-35.969" style="fill:rgb(240,85,93);fill-rule:nonzero;"/>
            </g>
            <g transform="matrix(1.02621,0,0,1.02621,-7.12484,-9.79127)">
                <g opacity="0.25">
                    <g transform="matrix(1,0,0,1,261.27,284.083)">
                        <path d="M0,21.733C7.109,21.733 14.008,21.436 20.596,20.827C20.469,9.342 9.12,2.893 -5.342,1.486C-20.624,0 -33.534,4.149 -34.773,16.888C-34.831,17.477 -34.854,18.076 -34.859,18.679C-24.254,20.723 -12.451,21.733 0,21.733" style="fill:rgb(24,24,24);fill-rule:nonzero;"/>
                    </g>
                </g>
            </g>
            <g transform="matrix(1.02621,0,0,1.02621,346.392,230.08)">
                <path d="M0,27.302C0,56.709 -37.259,69.07 -83.22,69.07C-129.18,69.07 -166.438,55.434 -166.438,26.026C-166.438,1.24 -115.005,-7.002 -104.136,-35.052C-101.658,-41.445 -90.443,-37.425 -83.22,-37.425C-76.201,-37.425 -62.44,-41.768 -62.874,-35.1C-64.505,-10.002 0,2.385 0,27.302" style="fill:rgb(243,201,193);fill-rule:nonzero;"/>
            </g>
            <g transform="matrix(-0.00787343,1.02618,1.02618,0.00787343,265.85,226.093)">
                <path d="M27.149,-35.553C16.119,-35.637 11.375,-21.697 11.243,-4.459C11.111,12.78 16.118,26.795 27.149,26.879C38.179,26.964 51.055,13.086 51.187,-4.152C51.319,-21.391 38.179,-35.468 27.149,-35.553" style="fill:rgb(25,23,23);fill-rule:nonzero;"/>
            </g>
            <g transform="matrix(1.02621,0,0,1.02621,453.618,351.854)">
                <path d="M0,73.732C4.53,38.731 -93.988,48.713 -198.758,9.259C-261.592,-14.402 -306.728,-30.189 -338.008,-37.427C-360.384,-42.605 -377.679,-63.669 -377.679,-63.669C-377.679,-63.669 -401.055,-40.973 -404.721,-20.886C-408.51,-0.133 -394.995,19.936 -379.495,42.706C-355.763,77.567 -305.69,114.01 -210.681,124.795C-99.619,137.401 -4.529,108.734 0,73.732" style="fill:rgb(241,96,46);fill-rule:nonzero;"/>
            </g>
            <g transform="matrix(1.02621,0,0,1.02621,216.024,214.733)">
                <path d="M0,25.411C-6.575,22.932 -12.882,20.352 -19.249,18.007C-25.6,15.639 -31.964,13.458 -38.392,11.474C-44.82,9.491 -51.306,7.697 -57.884,6.064C-64.463,4.405 -71.123,2.965 -77.947,1.278C-71.017,0.048 -63.955,0 -56.966,0.637C-49.975,1.299 -43.043,2.703 -36.324,4.788C-29.604,6.87 -23.091,9.623 -16.948,13.027C-10.821,16.452 -5.021,20.481 0,25.411" style="fill:rgb(243,201,193);fill-rule:nonzero;"/>
            </g>
            <g transform="matrix(1.02621,0,0,1.02621,217.897,240.853)">
                <path d="M0,9.22C-7.013,8.757 -13.797,8.123 -20.57,7.728C-27.335,7.308 -34.06,7.071 -40.786,7.039C-47.514,7.012 -54.239,7.18 -61.009,7.528C-67.786,7.853 -74.578,8.409 -81.598,8.78C-75.323,5.587 -68.58,3.49 -61.707,2.069C-54.825,0.67 -47.785,0 -40.751,0.042C-33.716,0.081 -26.684,0.824 -19.816,2.295C-12.959,3.791 -6.238,5.961 0,9.22" style="fill:rgb(243,201,193);fill-rule:nonzero;"/>
            </g>
            <g transform="matrix(1.02621,0,0,1.02621,303.52,214.733)">
                <path d="M0,25.411C5.021,20.481 10.822,16.452 16.949,13.027C23.092,9.623 29.605,6.87 36.325,4.788C43.044,2.703 49.976,1.299 56.966,0.637C63.956,0 71.018,0.048 77.948,1.278C71.124,2.965 64.464,4.405 57.884,6.064C51.306,7.697 44.821,9.491 38.393,11.474C31.965,13.458 25.6,15.639 19.249,18.007C12.883,20.352 6.575,22.932 0,25.411" style="fill:rgb(243,201,193);fill-rule:nonzero;"/>
            </g>
            <g transform="matrix(1.02621,0,0,1.02621,301.648,240.853)">
                <path d="M0,9.22C6.237,5.961 12.958,3.791 19.816,2.295C26.683,0.824 33.716,0.081 40.75,0.042C47.785,0 54.825,0.67 61.707,2.069C68.58,3.49 75.323,5.587 81.597,8.78C74.577,8.409 67.785,7.853 61.008,7.528C54.239,7.18 47.513,7.012 40.786,7.039C34.059,7.071 27.335,7.308 20.57,7.728C13.797,8.123 7.013,8.757 0,9.22" style="fill:rgb(243,201,193);fill-rule:nonzero;"/>
            </g>
            <g transform="matrix(1.02621,0,0,1.02621,117.669,437.643)">
                <path d="M0,-118.375C-6.17,-103.139 -14.591,-83.888 -22.345,-71.375C-29.032,-60.581 -38.668,-46.457 -47.24,-34.19C-38.095,-22.429 -25.828,-10.687 -9.74,0C0.92,-14.102 15.509,-34.021 24.521,-48.895C33.307,-63.395 42.521,-88.099 47.887,-103.592C29.511,-109.829 13.632,-114.77 0,-118.375" style="fill:rgb(192,74,40);fill-rule:nonzero;"/>
            </g>
            <g transform="matrix(1.02621,0,0,1.02621,211.062,344.178)">
                <path d="M0,128.563C8.21,112.843 19.58,90.263 26.116,73.803C32.173,58.545 37.039,33.789 39.812,17.555C39.075,17.283 38.341,17.016 37.604,16.739C21.378,10.628 6.341,5.047 -7.592,0C-11.047,16.629 -17.104,42.952 -23.831,59.415C-30.665,76.137 -42.265,100.501 -49.716,115.848C-34.983,120.959 -18.475,125.287 0,128.563" style="fill:rgb(192,74,40);fill-rule:nonzero;"/>
            </g>
            <g transform="matrix(1.02621,0,0,1.02621,289.098,483.375)">
                <path d="M0,-106.346C-0.583,-90.891 -1.824,-72.723 -4.441,-59.805C-7.932,-42.569 -14.506,-17.372 -18.958,-0.855C-0.708,0 16.875,-0.241 33.421,-1.408C38.325,-17.911 44.294,-39.287 47.315,-55.011C49.397,-65.846 50.148,-80.798 50.321,-94.439C34.412,-97.613 17.476,-101.423 0,-106.346" style="fill:rgb(192,74,40);fill-rule:nonzero;"/>
            </g>
            <g transform="matrix(1.02621,0,0,1.02621,378.911,440.514)">
                <path d="M0,-13.033C-0.311,0.157 -1.672,18.708 -2.878,33.182C15.318,29.182 30.98,23.903 43.273,17.739C44.441,5.831 45.425,-6.864 45.562,-16.862C45.641,-22.646 45.084,-29.625 44.207,-36.826C31.813,-40.211 15.951,-42.99 -2.3,-46.215C-0.874,-34.719 0.223,-22.446 0,-13.033" style="fill:rgb(192,74,40);fill-rule:nonzero;"/>
            </g>
            <g transform="matrix(1.02621,0,0,1.02621,83.9494,350.794)">
                <path d="M0,-46.859C-10.622,-54.324 -17.45,-62.636 -17.45,-62.636C-17.45,-62.636 -40.826,-39.94 -44.492,-19.853C-46.663,-7.964 -43.149,3.701 -36.843,15.777C-28.519,4.378 -19.771,-8.121 -13.621,-18.272C-8.99,-25.914 -4.242,-36.39 0,-46.859" style="fill:rgb(192,74,40);fill-rule:nonzero;"/>
            </g>
            <g transform="matrix(-0.168518,1.01227,1.01227,0.168518,428.714,348.178)">
                <path d="M41.561,-63.538C24.475,-63.668 17.127,-42.075 16.922,-15.372C16.718,11.332 24.475,33.041 41.561,33.171C58.648,33.303 78.593,11.805 78.799,-14.898C79.002,-41.601 58.648,-63.407 41.561,-63.538" style="fill:rgb(145,72,52);fill-rule:nonzero;"/>
            </g>
            <g transform="matrix(-0.362977,0.959868,0.959868,0.362977,126.051,285.685)">
                <path d="M40.133,-73.07C23.015,-73.202 15.655,-51.569 15.449,-24.818C15.244,1.935 23.015,23.683 40.133,23.815C57.251,23.945 77.232,2.41 77.437,-24.342C77.642,-51.095 57.251,-72.94 40.133,-73.07" style="fill:rgb(145,72,52);fill-rule:nonzero;"/>
            </g>
            <g transform="matrix(0.266386,0.991028,0.991028,-0.266386,298.973,180.108)">
                <path d="M17.606,-13.4C21.989,-12.98 32.486,-5.152 32.486,5.02C32.486,15.194 22.683,23.42 17.606,23.44C13.174,23.458 2.725,15.193 2.727,5.02C2.726,-5.152 12.516,-13.887 17.606,-13.4" style="fill:rgb(25,23,23);fill-rule:nonzero;"/>
            </g>
            <g transform="matrix(0.266412,-0.991021,-0.991021,-0.266412,221.263,177.221)">
                <path d="M-17.606,-13.4C-21.988,-12.98 -32.486,-5.153 -32.486,5.02C-32.485,15.194 -22.683,23.42 -17.606,23.441C-13.175,23.46 -2.726,15.194 -2.726,5.021C-2.726,-5.152 -12.516,-13.887 -17.606,-13.4" style="fill:rgb(25,23,23);fill-rule:nonzero;"/>
            </g>
        </g>
    </g>
</svg>
