<?xml version="1.0" encoding="UTF-8" standalone="no"?>
<!DOCTYPE svg PUBLIC "-//W3C//DTD SVG 1.1//EN" "http://www.w3.org/Graphics/SVG/1.1/DTD/svg11.dtd">
<svg width="100%" height="100%" viewBox="0 0 256 256" version="1.1" xmlns="http://www.w3.org/2000/svg" xmlns:xlink="http://www.w3.org/1999/xlink" xml:space="preserve" xmlns:serif="http://www.serif.com/" style="fill-rule:evenodd;clip-rule:evenodd;stroke-linejoin:round;stroke-miterlimit:2;">
    <g transform="matrix(1,0,0,1,-1024,-1024)">
        <g transform="matrix(1.6,0,0,1.70667,-17213.5,650.589)">
            <rect id="tiamopastoor" x="11398.4" y="218.796" width="160" height="150" style="fill:none;"/>
            <g id="tiamopastoor1" serif:id="tiamopastoor">
                <g transform="matrix(0.823525,0,0,0.772055,10740.5,-602.281)">
                    <path d="M885.896,1199.68C884.998,1175.34 883.227,1123.81 883.807,1110.76C883.977,1106.92 889.71,1108.86 895.399,1108.85C901.043,1108.84 906.644,1106.86 906.725,1110.66C906.74,1111.38 906.753,1112.2 906.763,1113.13L912.524,1114.05C913.129,1114.05 913.708,1114.3 914.125,1114.73C914.542,1115.17 914.761,1115.76 914.73,1116.37L912.742,1137.58C912.679,1138.79 912.524,1139.29 911.306,1139.23C910.088,1139.16 910.145,1138.57 910.207,1137.35L910.198,1118.46L906.795,1119.35C906.818,1139.15 906.341,1179.03 906.073,1199.75C907.389,1196.96 908.577,1194.19 909.431,1191.73C911.53,1185.67 916.069,1170.43 917.186,1158.88C918.315,1147.19 917.55,1138.22 917.55,1138.22C917.25,1136.36 918.164,1134.51 919.827,1133.62C921.489,1132.73 923.534,1133 924.916,1134.28C924.916,1134.28 929.448,1137.71 937.13,1136.3C939.716,1135.83 944.91,1131.84 949.84,1125.97C954.99,1119.84 960.834,1113.21 962.199,1105.37C963.781,1096.29 963.578,1088.75 963.578,1088.75C963.165,1086.35 962.019,1079.83 964.422,1079.41C966.825,1079 969.848,1079.69 970.261,1082.1C970.261,1082.1 977.17,1100.48 978.657,1111.51C978.942,1113.63 979.993,1131.31 976.265,1140.35C973.677,1146.62 973.628,1155.33 965.038,1162.3C961.933,1164.82 957.803,1167.26 950.878,1167.48C948.321,1167.57 939.653,1166.3 939.653,1166.3L941.719,1154.3C941.719,1154.3 955.007,1148.91 961.943,1141.64C966.926,1136.41 971.421,1127.14 971.222,1121.46C971.088,1117.65 966.632,1119.22 965.115,1123.17C962.872,1129.01 962.171,1130.15 957.582,1134.91C952.029,1140.67 946.537,1147.03 937.896,1147.89C933.045,1148.37 931.11,1147.74 926.634,1146.01C926.681,1147.7 926.733,1149.45 926.714,1151.3C926.701,1152.61 933.416,1152.32 933.302,1153.75C933.175,1155.35 932.278,1163.38 931.952,1165.16C931.652,1166.8 927.556,1163.94 925.59,1164.21C924.33,1164.38 924.922,1167.47 924.741,1168.51C924.57,1169.49 929.553,1170.65 929.378,1171.62C927.943,1179.61 920.867,1187.2 917.826,1194.49C914.48,1202.51 905.158,1216.53 901.931,1221.28L898.313,1228.92L898.084,1235.77L896.742,1241.98L895.18,1235.73L894.75,1228.91L892.387,1224.29C891.976,1223.96 891.58,1223.5 891.185,1222.92C891.185,1222.92 878.249,1204.25 874.174,1194.49C871.133,1187.2 864.057,1179.61 862.622,1171.62C862.447,1170.65 867.43,1169.49 867.259,1168.51C867.078,1167.47 867.67,1164.38 866.41,1164.21C864.444,1163.94 860.348,1166.8 860.048,1165.16C859.722,1163.38 858.825,1155.35 858.698,1153.75C858.584,1152.32 865.299,1152.61 865.286,1151.3C865.267,1149.45 865.319,1147.7 865.366,1146.01C860.89,1147.74 858.955,1148.37 854.104,1147.89C845.463,1147.03 839.971,1140.67 834.418,1134.91C829.829,1130.15 829.128,1129.01 826.885,1123.17C825.368,1119.22 820.912,1117.65 820.778,1121.46C820.579,1127.14 825.074,1136.41 830.057,1141.64C836.993,1148.91 850.281,1154.3 850.281,1154.3L852.347,1166.3C852.347,1166.3 843.679,1167.57 841.122,1167.48C834.197,1167.26 830.067,1164.82 826.962,1162.3C818.372,1155.33 818.323,1146.62 815.735,1140.35C812.007,1131.31 813.058,1113.63 813.343,1111.51C814.83,1100.48 821.739,1082.1 821.739,1082.1C822.152,1079.69 825.175,1079 827.578,1079.41C829.981,1079.83 828.835,1086.35 828.422,1088.75C828.422,1088.75 828.219,1096.29 829.801,1105.37C831.166,1113.21 837.01,1119.84 842.16,1125.97C847.09,1131.84 852.284,1135.83 854.87,1136.3C862.552,1137.71 867.084,1134.28 867.084,1134.28C868.466,1133 870.511,1132.73 872.173,1133.62C873.836,1134.51 874.75,1136.36 874.45,1138.22C874.45,1138.22 873.685,1147.19 874.814,1158.88C875.931,1170.43 880.47,1185.67 882.569,1191.73C883.416,1194.17 884.592,1196.92 885.896,1199.68ZM926.376,1191.68L937.237,1173.51C937.237,1173.51 939.308,1172.59 941.839,1173.28C943.575,1173.75 946.625,1176.27 946.625,1176.27C946.625,1176.27 948.512,1174.89 950.306,1174.89C952.101,1174.89 959.741,1173.92 961.259,1172.95C962.778,1171.99 963.883,1171.3 963.883,1171.3C963.883,1171.3 965.953,1175.85 963.192,1178.34C960.431,1180.82 954.218,1186.76 951.043,1188.42C947.867,1190.07 941.96,1192.93 936.316,1192.93C932.543,1192.93 926.376,1191.68 926.376,1191.68ZM865.624,1191.68C865.624,1191.68 859.457,1192.93 855.684,1192.93C850.04,1192.93 844.133,1190.07 840.957,1188.42C837.782,1186.76 831.569,1180.82 828.808,1178.34C826.047,1175.85 828.117,1171.3 828.117,1171.3C828.117,1171.3 829.222,1171.99 830.741,1172.95C832.259,1173.92 839.899,1174.89 841.694,1174.89C843.488,1174.89 845.375,1176.27 845.375,1176.27C845.375,1176.27 848.425,1173.75 850.161,1173.28C852.692,1172.59 854.763,1173.51 854.763,1173.51L865.624,1191.68ZM907.691,1105.56C899.773,1106.96 891.679,1106.96 883.393,1105.41C883.393,1105.41 884.666,1093.39 895.358,1093.41C905.754,1093.42 907.691,1105.56 907.691,1105.56Z" style="fill:rgb(222,238,255);"/>
                    <path d="M856.138,1130.36C859.951,1131 862.904,1129.66 863.455,1129.39C866.717,1126.73 871.287,1126.26 875.038,1128.27C876.072,1128.82 876.984,1129.53 877.754,1130.36C877.601,1121.52 877.57,1114.34 877.741,1110.49C877.777,1109.69 877.882,1108.96 878.051,1108.3C877.486,1107.26 877.221,1106.04 877.355,1104.77C877.355,1104.77 879.554,1087.31 895.368,1087.34C903.228,1087.35 907.961,1091.82 910.658,1096.41C913.062,1100.5 913.687,1104.6 913.687,1104.6C913.878,1105.8 913.705,1106.97 913.247,1108.01C915.25,1108.18 917.131,1109.08 918.527,1110.55C920.09,1112.2 920.909,1114.41 920.793,1116.68C920.789,1116.77 920.783,1116.85 920.775,1116.93C920.775,1116.93 920.295,1122.05 919.809,1127.24C922.876,1126.61 926.119,1127.38 928.596,1129.43C929.349,1129.87 931.948,1131.03 935.862,1130.36C936.063,1130.25 937.083,1129.7 937.762,1129.22C939.967,1127.64 942.611,1125.14 945.191,1122.07C949.668,1116.74 955.03,1111.15 956.218,1104.33C957.48,1097.09 957.526,1090.9 957.515,1089.31C957.23,1087.6 956.811,1084.78 956.878,1082.46C956.931,1080.58 957.312,1078.92 957.881,1077.72C959.048,1075.25 960.964,1073.85 963.393,1073.43C968.743,1072.51 974.745,1075.22 976.09,1080.35C977.114,1083.14 983.251,1100.15 984.674,1110.7C984.99,1113.05 986.011,1132.64 981.879,1142.66C980.909,1145.01 980.344,1147.74 979.471,1150.57C977.766,1156.1 975.152,1161.91 968.864,1167.02C968.737,1167.12 968.608,1167.23 968.478,1167.33C968.853,1167.76 969.168,1168.25 969.41,1168.78C969.41,1168.78 970.7,1171.6 970.7,1174.79C970.7,1177.61 969.782,1180.58 967.254,1182.85C964.227,1185.58 957.333,1191.98 953.851,1193.8C950.08,1195.77 943.018,1199 936.316,1199C932.089,1199 925.177,1197.63 925.177,1197.63C924.535,1197.51 923.927,1197.28 923.373,1196.96C919.938,1205.1 910.766,1219.05 907.219,1224.3L904.339,1230.38L904.153,1235.97C904.14,1236.34 904.096,1236.7 904.019,1237.05L902.676,1243.26C902.079,1246.02 899.66,1248.01 896.839,1248.05C894.017,1248.1 891.536,1246.19 890.851,1243.45L889.289,1237.2C889.2,1236.84 889.143,1236.48 889.12,1236.11L888.77,1230.55C888.77,1230.55 887.441,1227.95 887.443,1227.95C887.012,1227.49 886.586,1226.95 886.174,1226.35C885.588,1225.49 872.82,1206.9 868.627,1196.96C868.073,1197.28 867.465,1197.51 866.823,1197.63C866.823,1197.63 859.911,1199 855.684,1199C848.982,1199 841.92,1195.77 838.149,1193.8C834.667,1191.98 827.773,1185.58 824.746,1182.85C822.218,1180.58 821.3,1177.61 821.3,1174.79C821.3,1171.6 822.59,1168.78 822.59,1168.78C822.832,1168.25 823.147,1167.76 823.522,1167.33C823.392,1167.23 823.263,1167.12 823.136,1167.02C816.848,1161.91 814.234,1156.1 812.529,1150.57C811.656,1147.74 811.091,1145.01 810.121,1142.66C805.989,1132.64 807.01,1113.05 807.326,1110.7C808.749,1100.15 814.89,1083.13 815.909,1080.36C817.259,1075.22 823.258,1072.51 828.607,1073.43C831.036,1073.85 832.952,1075.25 834.119,1077.72C834.688,1078.92 835.069,1080.58 835.122,1082.46C835.189,1084.78 834.77,1087.6 834.486,1089.31C834.474,1090.9 834.52,1097.09 835.782,1104.33C836.97,1111.15 842.332,1116.74 846.809,1122.07C849.389,1125.14 852.033,1127.64 854.238,1129.22C854.917,1129.7 855.934,1130.25 856.138,1130.36ZM926.376,1191.68C926.376,1191.68 932.543,1192.93 936.316,1192.93C941.96,1192.93 947.867,1190.07 951.043,1188.42C954.218,1186.76 960.431,1180.82 963.192,1178.34C965.953,1175.85 963.883,1171.3 963.883,1171.3C963.883,1171.3 962.778,1171.99 961.259,1172.95C959.741,1173.92 952.101,1174.89 950.306,1174.89C948.512,1174.89 946.625,1176.27 946.625,1176.27C946.625,1176.27 943.575,1173.75 941.839,1173.28C939.308,1172.59 937.237,1173.51 937.237,1173.51L926.376,1191.68ZM907.691,1105.56C907.691,1105.56 905.754,1093.42 895.358,1093.41C884.666,1093.39 883.393,1105.41 883.393,1105.41C891.679,1106.96 899.773,1106.96 907.691,1105.56ZM865.624,1191.68L854.763,1173.51C854.763,1173.51 852.692,1172.59 850.161,1173.28C848.425,1173.75 845.375,1176.27 845.375,1176.27C845.375,1176.27 843.488,1174.89 841.694,1174.89C839.899,1174.89 832.259,1173.92 830.741,1172.95C829.222,1171.99 828.117,1171.3 828.117,1171.3C828.117,1171.3 826.047,1175.85 828.808,1178.34C831.569,1180.82 837.782,1186.76 840.957,1188.42C844.133,1190.07 850.04,1192.93 855.684,1192.93C859.457,1192.93 865.624,1191.68 865.624,1191.68ZM885.896,1199.68C884.592,1196.92 883.416,1194.17 882.569,1191.73C880.47,1185.67 875.931,1170.43 874.814,1158.88C873.685,1147.19 874.45,1138.22 874.45,1138.22C874.75,1136.36 873.836,1134.51 872.173,1133.62C870.511,1132.73 868.466,1133 867.084,1134.28C867.084,1134.28 862.552,1137.71 854.87,1136.3C852.284,1135.83 847.09,1131.84 842.16,1125.97C837.01,1119.84 831.166,1113.21 829.801,1105.37C828.219,1096.29 828.422,1088.75 828.422,1088.75C828.835,1086.35 829.981,1079.83 827.578,1079.41C825.175,1079 822.152,1079.69 821.739,1082.1C821.739,1082.1 814.83,1100.48 813.343,1111.51C813.058,1113.63 812.007,1131.31 815.735,1140.35C818.323,1146.62 818.372,1155.33 826.962,1162.3C830.067,1164.82 834.197,1167.26 841.122,1167.48C843.679,1167.57 852.347,1166.3 852.347,1166.3L850.281,1154.3C850.281,1154.3 836.993,1148.91 830.057,1141.64C825.074,1136.41 820.579,1127.14 820.778,1121.46C820.912,1117.65 825.368,1119.22 826.885,1123.17C829.128,1129.01 829.829,1130.15 834.418,1134.91C839.971,1140.67 845.463,1147.03 854.104,1147.89C858.955,1148.37 860.89,1147.74 865.366,1146.01C865.319,1147.7 865.267,1149.45 865.286,1151.3C865.299,1152.61 858.584,1152.32 858.698,1153.75C858.825,1155.35 859.722,1163.38 860.048,1165.16C860.348,1166.8 864.444,1163.94 866.41,1164.21C867.67,1164.38 867.078,1167.47 867.259,1168.51C867.43,1169.49 862.447,1170.65 862.622,1171.62C864.057,1179.61 871.133,1187.2 874.174,1194.49C878.249,1204.25 891.185,1222.92 891.185,1222.92C891.58,1223.5 891.976,1223.96 892.387,1224.29L894.75,1228.91L895.18,1235.73L896.742,1241.98L898.084,1235.77L898.313,1228.92L901.931,1221.28C905.158,1216.53 914.48,1202.51 917.826,1194.49C920.867,1187.2 927.943,1179.61 929.378,1171.62C929.553,1170.65 924.57,1169.49 924.741,1168.51C924.922,1167.47 924.33,1164.38 925.59,1164.21C927.556,1163.94 931.652,1166.8 931.952,1165.16C932.278,1163.38 933.175,1155.35 933.302,1153.75C933.416,1152.32 926.701,1152.61 926.714,1151.3C926.733,1149.45 926.681,1147.7 926.634,1146.01C931.11,1147.74 933.045,1148.37 937.896,1147.89C946.537,1147.03 952.029,1140.67 957.582,1134.91C962.171,1130.15 962.872,1129.01 965.115,1123.17C966.632,1119.22 971.088,1117.65 971.222,1121.46C971.421,1127.14 966.926,1136.41 961.943,1141.64C955.007,1148.91 941.719,1154.3 941.719,1154.3L939.653,1166.3C939.653,1166.3 948.321,1167.57 950.878,1167.48C957.803,1167.26 961.933,1164.82 965.038,1162.3C973.628,1155.33 973.677,1146.62 976.265,1140.35C979.993,1131.31 978.942,1113.63 978.657,1111.51C977.17,1100.48 970.261,1082.1 970.261,1082.1C969.848,1079.69 966.825,1079 964.422,1079.41C962.019,1079.83 963.165,1086.35 963.578,1088.75C963.578,1088.75 963.781,1096.29 962.199,1105.37C960.834,1113.21 954.99,1119.84 949.84,1125.97C944.91,1131.84 939.716,1135.83 937.13,1136.3C929.448,1137.71 924.916,1134.28 924.916,1134.28C923.534,1133 921.489,1132.73 919.827,1133.62C918.164,1134.51 917.25,1136.36 917.55,1138.22C917.55,1138.22 918.315,1147.19 917.186,1158.88C916.069,1170.43 911.53,1185.67 909.431,1191.73C908.577,1194.19 907.389,1196.96 906.073,1199.75C906.341,1179.03 906.818,1139.15 906.795,1119.35L910.198,1118.46L910.207,1137.35C910.145,1138.57 910.088,1139.16 911.306,1139.23C912.524,1139.29 912.679,1138.79 912.742,1137.58L914.73,1116.37C914.761,1115.76 914.542,1115.17 914.125,1114.73C913.708,1114.3 913.129,1114.05 912.524,1114.05L906.763,1113.13C906.753,1112.2 906.74,1111.38 906.725,1110.66C906.644,1106.86 901.043,1108.84 895.399,1108.85C889.71,1108.86 883.977,1106.92 883.807,1110.76C883.227,1123.81 884.998,1175.34 885.896,1199.68Z" style="fill:rgb(0,28,62);"/>
                </g>
            </g>
        </g>
    </g>
</svg>
