<?xml version="1.0" encoding="utf-8"?>
<!-- Generator: Adobe Illustrator 18.0.0, SVG Export Plug-In . SVG Version: 6.00 Build 0)  -->
<!DOCTYPE svg PUBLIC "-//W3C//DTD SVG 1.1//EN" "http://www.w3.org/Graphics/SVG/1.1/DTD/svg11.dtd">
<svg version="1.1" id="Layer_1" xmlns="http://www.w3.org/2000/svg" xmlns:xlink="http://www.w3.org/1999/xlink" x="0px" y="0px"
	 viewBox="0 0 500 500" enable-background="new 0 0 500 500" xml:space="preserve">
<path fill="#FBD1DA" stroke="#FBD2DA" stroke-width="20" stroke-linecap="round" stroke-linejoin="round" stroke-miterlimit="10" d="
	M164.2,78c22.1-13.6,45.3-20.4,69.8-20.4c17.6,0,35.1,3.7,52.5,11.2l-0.5-0.5c7.5,3.1,14.3,7.3,20.4,12.7
	c6.1,5.4,11.2,11.7,15.3,18.8c4.1,7.1,7.2,14.9,9.4,23.2c2.2,8.3,3.3,16.7,3.3,25.2c0,9.9-1.7,19.7-5.1,29.5
	c-3.4,9.9-8.5,18.5-15.3,26c-0.7,1.7-1.5,3.1-2.5,4.3c-1,1.2-1.9,2.1-2.5,2.8c0.7,0,1,0.5,1,1.5c-13.2,12.2-23.5,22-30.8,29.3
	c-7.3,7.3-12.9,14.8-16.8,22.4c-3.9,7.6-6.9,16.6-8.9,27c-2,10.4-4.2,24.5-6.6,42.5c-13.9-8.8-23.5-17.1-28.8-25
	c-5.3-7.8-7.9-15.6-7.9-23.4c0-2.7,0.2-5.7,0.5-8.9c0.3-3.2,1-6.4,2-9.4c4.8-16.6,12.6-31.1,23.4-43.3
	c10.9-12.2,23.3-22.9,37.2-32.1l-1,1c16.3-14.3,24.4-29.2,24.4-44.8c0-8.5-3.2-18.7-9.7-30.6c-5.8-10.9-13.8-17.8-23.9-20.9
	c-10.2-3.1-21.1-4.6-32.6-4.6c-8.1,0-17.3,0.2-27.5,0.5c-10.2,0.3-20.7,1.5-31.6,3.6L164.2,78z M260.9,381.5c3.1,0,7.1,1.3,12.2,3.8
	s9,5.2,11.7,7.9c4.1,4.1,5.4,9.9,4.1,17.6c-1.4,7.6-3.6,14.3-6.6,20.1c-2.7,5.4-7.3,10.5-13.8,15.3c-6.5,4.8-12.2,8.5-17.3,11.2
	c-8.8,3.1-16.5,4.6-22.9,4.6c-13.6,0-24.6-6.1-33.1-18.3c-1.7-5.4-2.3-11.2-1.8-17.3c0.5-6.1,2-11.9,4.3-17.3
	c2.4-5.4,5.5-10.1,9.4-14c3.9-3.9,8.7-6.5,14.5-7.9c5.4-2.7,11.5-4.3,18.3-4.8C246.8,381.7,253.8,381.5,260.9,381.5z"/>
</svg>
