<?xml version="1.0" encoding="utf-8"?>
<!-- Generator: Adobe Illustrator 18.0.0, SVG Export Plug-In . SVG Version: 6.00 Build 0)  -->
<svg version="1.2" baseProfile="tiny" id="Layer_1" xmlns="http://www.w3.org/2000/svg" xmlns:xlink="http://www.w3.org/1999/xlink"
	 x="0px" y="0px" viewBox="0 0 500 500" xml:space="preserve">
<g>
	<path fill="#EC2928" d="M63.3,285.4c-27.5,88.5-23.6,170-23.6,170s83.6,7,174.5-18.6h-3C211.2,355.1,145.3,288.3,63.3,285.4z"/>
	<path fill="#EC2928" d="M358.7,149.8c25.6,22.9,57.3,36.2,90.9,38.3C469,110.2,465.8,44,465.8,44s-73-6.1-156.7,14
		C314.5,93.5,331.7,125.7,358.7,149.8z"/>
	<path fill="#EC2928" d="M289.7,63.1c-49.4,14.1-100.8,37.9-142,77.7c-37.2,35.9-61.7,80.6-77.7,124.9
		c88.3,6.1,158.6,77.8,161.2,166c44.6-14.5,89.8-37.3,126.8-73.1c44.5-43,70.8-98.5,86.3-150.9c-36.5-3.2-70.9-18-98.8-43
		C315.4,138,296.1,102.4,289.7,63.1z"/>
	<path fill="#EC2928" d="M309.1,58"/>
	<path fill="#EC2928" d="M289.7,63.1"/>
	<path fill="#EC2928" d="M444.2,207.7"/>
	<path fill="#EC2928" d="M449.5,188"/>
</g>
<line fill="none" stroke="#F16163" stroke-width="15" stroke-linecap="round" stroke-miterlimit="10" x1="209.2" y1="281.2" x2="318.2" y2="179.8"/>
<line fill="none" stroke="#F16163" stroke-width="15" stroke-linecap="round" stroke-miterlimit="10" x1="241" y1="202" x2="285.7" y2="251.4"/>
<line fill="none" stroke="#F16163" stroke-width="15" stroke-linecap="round" stroke-miterlimit="10" x1="290.3" y1="156.6" x2="335" y2="206.1"/>
<line fill="none" stroke="#F16163" stroke-width="15" stroke-linecap="round" stroke-miterlimit="10" x1="187.7" y1="249.3" x2="232.3" y2="298.7"/>
</svg>
