<?xml version="1.0" encoding="utf-8"?>
<!-- Generator: Adobe Illustrator 18.0.0, SVG Export Plug-In . SVG Version: 6.00 Build 0)  -->
<!DOCTYPE svg PUBLIC "-//W3C//DTD SVG 1.1//EN" "http://www.w3.org/Graphics/SVG/1.1/DTD/svg11.dtd">
<svg version="1.1" id="Layer_2" xmlns="http://www.w3.org/2000/svg" xmlns:xlink="http://www.w3.org/1999/xlink" x="0px" y="0px"
	 viewBox="0 0 500 500" enable-background="new 0 0 500 500" xml:space="preserve">
<path opacity="0.4" fill="#3C2415" stroke="#3C2415" stroke-width="33" stroke-miterlimit="10" d="M142.6,471.5
	c0,0,19.1-79.1,30.3-101c10.9-21.3,57.2-76.3,57.2-76.3s-30.3,19.9-43.7,21.3c-24.3,2.5-16.1,65-62.2,75.4
	c-17.9,4.1-23.6-22.6-23.6-22.6s-50.5,5.6-63.9-29.2c-18.2-47.1,80.8-195.7,80.8-195.7s-19-63.1-1.7-73.5c18.3-11,63.9,41,63.9,41
	s12.3-57.3,33.6-57.3c21.9,0,26.9,57.3,26.9,57.3s100.9,3.4,164.9,91.9c48.9,67.7,45.4,268.7,45.4,268.7H142.6z"/>
<path fill="#FFFFFF" d="M143.6,455c0,0,19.1-76.4,30.3-98.2c10.9-21.3,57.2-74.9,57.2-74.9s-30.3,20.6-43.7,22
	c-24.3,2.5-16.1,65.3-62.2,75.8c-17.9,4.1-23.6-22.4-23.6-22.4s-50.5,5.7-63.9-29.1c-18.2-47.1,80.8-195.7,80.8-195.7
	s-19-63.1-1.7-73.5c18.3-11,63.9,41,63.9,41s12.3-57.3,33.6-57.3c21.9,0,26.9,57.3,26.9,57.3s100.9,0.7,164.9,89.2
	C455,256.8,451.5,455,451.5,455H143.6z"/>
<path fill="#FFFFFF" stroke="#965D41" stroke-width="33" stroke-miterlimit="10" d="M143.6,460.5c0,0,19.1-79.1,30.3-101
	c10.9-21.3,57.2-76.3,57.2-76.3s-30.3,19.9-43.7,21.3c-24.3,2.5-16.1,65-62.2,75.4c-17.9,4.1-23.6-22.6-23.6-22.6
	s-50.5,5.6-63.9-29.2c-18.2-47.1,80.8-195.7,80.8-195.7s-19-63.1-1.7-73.5c18.3-11,63.9,41,63.9,41s12.3-57.3,33.6-57.3
	c21.9,0,26.9,57.3,26.9,57.3s100.9,3.4,164.9,91.9c48.9,67.7,45.4,268.7,45.4,268.7H143.6z"/>
<circle fill="#939393" cx="156.5" cy="178.9" r="23.6"/>
<path fill="#FFFFFF" stroke="#965D41" stroke-width="5.672" stroke-miterlimit="10" d="M297.6,85.3l-25.9-10
	c13.5-25.9,24.8-23.6,24.8-23.6s-5.1-7.4-2.6-13.3c2.3-5.4,13.5-6,13.5-6s-0.6-20.8,15.6-14.7"/>
<path fill="#D3D3D3" stroke="#965D41" stroke-width="5.672" stroke-miterlimit="10" d="M296.5,84.9l26.4,9.7c7-28.3-2.9-34-2.9-34
	s8.8-2.1,10.8-8.3c1.8-5.5-6.5-13.6-6.5-13.6s13.8-15.3-2.3-21.4"/>
<path fill="#FFFFFF" stroke="#965D41" stroke-width="4.3804" stroke-linecap="round" stroke-linejoin="round" stroke-miterlimit="10" d="
	M384.3,62.5c0,0-4.3-2.4-6.5,1.2c-2.4,3.8-0.1,5.7-0.1,5.7s-13.5-0.1-16.3,3c-8.5,9.4-3.2,15-3.2,15s-7.2,4.6-7.3,7.1
	c-0.1,1.4,3.6,4.4,3.6,4.4l-13.9-7.2l-6,2.2l-0.2,6.7l24.7,7.6"/>
<path fill="#D3D3D3" stroke="#965D41" stroke-width="4.3804" stroke-linecap="round" stroke-linejoin="round" stroke-miterlimit="10" d="
	M384.3,62.5c0,0,5.3,3,3.5,6.7c-2,4.1-5,3-5,3s8.2,11.9,7.1,16c-3.4,12.2-10.9,10.7-10.9,10.7s0,8.6-2.1,10
	c-1.2,0.8-5.6-0.7-5.6-0.7l13.5,8l1.3,6.2l-6.6,3.2L359,108.1"/>
<polyline fill="#FFFFFF" points="436.1,133.2 445.8,132.8 449.1,129.6 443,123.5 440.2,120.7 433.1,113.6 430.1,110.7 424.2,104.7 
	421,108 420.5,117.4 "/>
<rect x="411.8" y="123.1" transform="matrix(0.7071 0.7071 -0.7071 0.7071 216.2785 -260.7745)" fill="#D3D3D3" width="22.2" height="15.2"/>
<line fill="#939393" stroke="#965D41" stroke-width="3.7689" stroke-miterlimit="10" x1="436.3" y1="133" x2="425.5" y2="143.8"/>
<line fill="#939393" stroke="#965D41" stroke-width="3.7689" stroke-miterlimit="10" x1="409.8" y1="128.1" x2="420.6" y2="117.3"/>
<polyline fill="#FFFFFF" stroke="#965D41" stroke-width="3.7689" stroke-linecap="round" stroke-linejoin="round" stroke-miterlimit="10" points="
	409.7,128.2 397.2,129.2 393.2,133.2 420.7,160.7 424.7,156.7 425.6,144.1 "/>
<path fill="#FFFFFF" stroke="#965D41" stroke-width="3.7689" stroke-linecap="round" stroke-linejoin="round" stroke-miterlimit="10" d="
	M423.8,105.1l2.1-2.1c0.3-0.3,0.8-0.3,1.1,0l5,5c0.3,0.3,0.3,0.8,0,1.1l-2.1,2.1"/>
<path fill="#FFFFFF" stroke="#965D41" stroke-width="3.7689" stroke-linecap="round" stroke-linejoin="round" stroke-miterlimit="10" d="
	M442.6,124l2.1-2.1c0.3-0.3,0.8-0.3,1.1,0l5,5c0.3,0.3,0.3,0.8,0,1.1l-2.1,2.1"/>
<path fill="#FFFFFF" stroke="#965D41" stroke-width="3.7689" stroke-linecap="round" stroke-linejoin="round" stroke-miterlimit="10" d="
	M432.6,114.1l2.5-2.5c0.3-0.3,0.8-0.3,1.1,0l6,6c0.3,0.3,0.3,0.8,0,1.1l-2.5,2.5"/>
<polyline fill="#FFFFFF" stroke="#965D41" stroke-width="3.7689" stroke-linecap="round" stroke-linejoin="round" stroke-miterlimit="10" points="
	423.6,105.3 420.9,108 420.5,117.4 "/>
<line fill="#FFFFFF" stroke="#965D41" stroke-width="3.7689" stroke-linecap="round" stroke-linejoin="round" stroke-miterlimit="10" x1="432.7" y1="114.1" x2="430" y2="111.4"/>
<line fill="#FFFFFF" stroke="#965D41" stroke-width="3.7689" stroke-linecap="round" stroke-linejoin="round" stroke-miterlimit="10" x1="442.5" y1="123.9" x2="439.8" y2="121.2"/>
<polyline fill="#FFFFFF" stroke="#965D41" stroke-width="3.7689" stroke-linecap="round" stroke-linejoin="round" stroke-miterlimit="10" points="
	436.2,133.1 445.8,132.8 448.5,130.2 "/>
<path fill="#FFFFFF" stroke="#965D41" stroke-width="3" stroke-linecap="round" stroke-linejoin="round" stroke-miterlimit="10" d="
	M452.7,153.9c0,0-11.8,7.2-14.3,10.5c-0.9,1.2-0.7,4-1.8,4.8c-1.5,1.1-6.1,0.3-6.3,2.1c-0.9,7.1,10.6,24.5,13.2,23.9
	c2-0.5,3.1-4.2,5.1-4.7c1-0.2,3.5,1.2,4.7,1.2c4.5,0.1,16.8-6.5,16.8-6.5l-14.3-0.8l14.1-8.3l-16.4,2.3l11.9-10.6l-15.6,3.8
	l9.6-11.9l-13.8,7.5L452.7,153.9z"/>
<circle fill="#939393" stroke="#965D41" stroke-width="3" stroke-miterlimit="10" cx="452.2" cy="154.6" r="3"/>
<circle fill="#939393" stroke="#965D41" stroke-width="3" stroke-miterlimit="10" cx="459.2" cy="159.8" r="3"/>
<circle fill="#939393" stroke="#965D41" stroke-width="3" stroke-miterlimit="10" cx="465" cy="167.7" r="3"/>
<circle fill="#939393" stroke="#965D41" stroke-width="3" stroke-miterlimit="10" cx="469.2" cy="176.5" r="3"/>
<circle fill="#939393" stroke="#965D41" stroke-width="3" stroke-miterlimit="10" cx="469.8" cy="185.2" r="3"/>
<polygon fill="#939393" stroke="#965D41" stroke-width="2.5687" stroke-linecap="round" stroke-linejoin="round" stroke-miterlimit="10" points="
	485.4,217.3 484.9,214.8 488.2,214 487.5,210.7 484.2,211.4 483.6,208.9 481.1,209.5 481.7,212 479.1,212.5 479.9,215.9 
	482.4,215.3 482.9,217.8 "/>
<path fill="#D3D3D3" stroke="#965D41" stroke-width="2.5687" stroke-linecap="round" stroke-linejoin="round" stroke-miterlimit="10" d="
	M449.8,220.1c0,0,1.2,8.9,6.2,11.6c1.5,0.8,5-0.8,6.7-0.8c2.4,0,8.2,3.1,10.4,2.6c2-0.4,4.6-3.5,4.5-5.2c-0.2-5-3.5-7.8-3.5-7.8
	s3-1,3.8-1.7c1.5-1.4,0.7-4.9,0.7-4.9"/>
<path fill="#FFFFFF" stroke="#965D41" stroke-width="2.5687" stroke-linecap="round" stroke-linejoin="round" stroke-miterlimit="10" d="
	M449.9,220.6c0,0-2.4-7.8,1-12.2c1-1.3,4.9-1.2,6.5-1.9c2.2-1,6.3-5.6,8.5-6.1c2-0.5,5.7,1.6,6.3,3.2c1.9,4.7-0.1,8.2-0.1,8.2
	s3-1.1,4-0.8c1.9,0.6,2.5,3.4,2.5,3.4"/>
</svg>
