<?xml version="1.0" encoding="utf-8"?>
<!-- Generator: Adobe Illustrator 18.0.0, SVG Export Plug-In . SVG Version: 6.00 Build 0)  -->
<!DOCTYPE svg PUBLIC "-//W3C//DTD SVG 1.1 Tiny//EN" "http://www.w3.org/Graphics/SVG/1.1/DTD/svg11-tiny.dtd">
<svg version="1.1" baseProfile="tiny" id="Layer_2" xmlns="http://www.w3.org/2000/svg" xmlns:xlink="http://www.w3.org/1999/xlink"
	 x="0px" y="0px" viewBox="0 0 500 500" xml:space="preserve">
<g>
	<path fill="#F6DECB" d="M106.3,238.6H18.3c-6.6,0-12-5.4-12-12v-87.9c0-6.6,5.4-12,12-12h87.9c6.6,0,12,5.4,12,12v87.9
		C118.3,233.2,112.9,238.6,106.3,238.6z"/>
	<path fill="none" stroke="#B28364" stroke-width="1.8972" stroke-miterlimit="10" d="M106.3,238.6H18.3c-6.6,0-12-5.4-12-12v-87.9
		c0-6.6,5.4-12,12-12h87.9c6.6,0,12,5.4,12,12v87.9C118.3,233.2,112.9,238.6,106.3,238.6z"/>
	<path fill="none" stroke="#321B0F" stroke-width="1.8972" stroke-miterlimit="10" d="M118.3,138v89.2c0,6.3-5.1,11.4-11.4,11.4
		H17.7"/>
	<path fill="none" stroke="#FFFFFF" stroke-width="1.8972" stroke-miterlimit="10" d="M6.3,227.2V138c0-6.3,5.1-11.4,11.4-11.4h89.2
		"/>
	<g>
		<path fill="#331E0F" d="M93.9,230.8c6.9-6.9,10.9-11.1,10.9-14.8c0-2.6-1.4-4.5-4.4-4.5c-1.9,0-3.6,1.2-4.9,2.8l-1.7-1.7
			c1.9-2.1,4-3.5,7-3.5c4.3,0,6.9,2.7,6.9,6.8c0,4.3-3.9,8.7-9.4,14.4c1.3-0.1,2.7-0.2,3.9-0.2h6.7v2.6H93.9V230.8z"/>
	</g>
	<path fill="#331E0F" d="M86.1,212.1c-6.6,3.9-13.9,5.9-21.9,5.9c-9.5,0-16.9-3.2-22.2-9.7c-4.9-5.9-7.3-13.8-7.3-23.4
		c0-13.8,4.6-23.8,13.8-30c4.6-3.1,10-4.6,16-4.6c8.2,0,15.1,2.5,21,7.6l-7,8.3c-4.2-3.4-8.8-5.1-13.8-5.1c-6.1,0-10.4,2.7-12.7,8.2
		c-1.6,3.7-2.4,9.2-2.4,16.4c0,6.9,0.9,12,2.6,15.5c2.4,4.7,6.6,7,12.7,7c2.9,0,5.4-0.5,7.5-1.6v-15H62.3l-1.7-10.8h25.5V212.1z"/>
</g>
<g>
	<path fill="#F6DECB" d="M233.5,236.2l-87.8,4.6c-6.6,0.3-12.3-4.8-12.6-11.4l-4.6-87.8c-0.3-6.6,4.8-12.3,11.4-12.6l87.8-4.6
		c6.6-0.3,12.3,4.8,12.6,11.4l4.6,87.8C245.2,230.2,240.1,235.9,233.5,236.2z"/>
	<path fill="none" stroke="#B28364" stroke-width="1.8972" stroke-miterlimit="10" d="M233.5,236.2l-87.8,4.6
		c-6.6,0.3-12.3-4.8-12.6-11.4l-4.6-87.8c-0.3-6.6,4.8-12.3,11.4-12.6l87.8-4.6c6.6-0.3,12.3,4.8,12.6,11.4l4.6,87.8
		C245.2,230.2,240.1,235.9,233.5,236.2z"/>
	<path fill="none" stroke="#321B0F" stroke-width="1.8972" stroke-miterlimit="10" d="M240.2,135.2l4.7,89c0.3,6.3-4.5,11.6-10.8,12
		l-89,4.7"/>
	<path fill="none" stroke="#FFFFFF" stroke-width="1.8972" stroke-miterlimit="10" d="M133.1,230.1l-4.7-89
		c-0.3-6.3,4.5-11.6,10.8-12l89-4.7"/>
	<g>
		<path fill="#331E0F" d="M223,228l5.3-0.3l-0.9-17l-4.2,0.2l-0.1-1.9c2.1-0.5,3.6-1.1,4.8-2l2.3-0.1l1.1,20.6l4.8-0.3l0.1,2.5
			l-13,0.7L223,228z"/>
	</g>
	<path fill="#331E0F" d="M215.6,215.7l-15.6,0.8c-2.8-4.2-5-7.7-6.7-10.5c-3-4.9-4.8-7.7-5.2-8.4c-2.8-4.1-5-6.5-6.5-7.2
		c-0.6-0.3-1.4-0.4-2.1-0.5l1.4,27.5l-13,0.7l-3.5-65.9l24.5-1.2c5.8-0.3,10.6,1.2,14.3,4.5c3.7,3.3,5.7,7.9,6,13.8
		c0.2,4.5-0.8,8.7-3.2,12.4c-2.6,4.1-6.1,6.2-10.5,6.5c1.1,0.8,2.1,1.7,2.9,2.6C200.8,193.8,206.6,202,215.6,215.7z M195.3,170.4
		c-0.2-3.6-1.6-6.1-4.1-7.3c-1.9-0.9-4.8-1.3-8.7-1.1l-4.7,0.2l0.9,17.9l4.5-0.2c4-0.2,6.9-0.8,8.6-1.9
		C194.4,176.5,195.5,174,195.3,170.4z"/>
</g>
<g>
	<path fill="#F6DECB" d="M355.3,240.1l-87.9-3.1c-6.6-0.2-11.8-5.8-11.6-12.4l3.1-87.9c0.2-6.6,5.8-11.8,12.4-11.6l87.9,3.1
		c6.6,0.2,11.8,5.8,11.6,12.4l-3.1,87.9C367.5,235.1,361.9,240.3,355.3,240.1z"/>
	<path fill="none" stroke="#B28364" stroke-width="1.8972" stroke-miterlimit="10" d="M355.3,240.1l-87.9-3.1
		c-6.6-0.2-11.8-5.8-11.6-12.4l3.1-87.9c0.2-6.6,5.8-11.8,12.4-11.6l87.9,3.1c6.6,0.2,11.8,5.8,11.6,12.4l-3.1,87.9
		C367.5,235.1,361.9,240.3,355.3,240.1z"/>
	<path fill="none" stroke="#321B0F" stroke-width="1.8972" stroke-miterlimit="10" d="M370.8,140l-3.1,89.1
		c-0.2,6.3-5.5,11.2-11.8,11l-89.1-3.1"/>
	<path fill="none" stroke="#FFFFFF" stroke-width="1.8972" stroke-miterlimit="10" d="M255.9,225.2l3.1-89.1
		c0.2-6.3,5.5-11.2,11.8-11l89.1,3.1"/>
	<g>
		<path fill="#331E0F" d="M346.7,229.9l5.3,0.2l0.6-17l-4.2-0.1l0.1-1.9c2.1-0.3,3.6-0.8,4.9-1.5l2.3,0.1l-0.7,20.6l4.8,0.2
			l-0.1,2.5l-13-0.5L346.7,229.9z"/>
	</g>
	<path fill="#331E0F" d="M340.1,218.2l-14.1-0.5l-4.2-15.8l-19.3-0.7l-5.3,15.5l-13.9-0.5l23.9-65.3l14.3,0.5L340.1,218.2z
		 M318.9,190.8c-0.7-2.6-1.8-7-3.1-13.4c-0.2-0.7-0.9-4.6-2.2-11.8l-3.6,12.6c-1.2,4.1-2.5,8.1-3.9,12.1L318.9,190.8z"/>
</g>
<g>
	<path fill="#F6DECB" d="M482.9,240.6l-87.9,1.5c-6.6,0.1-12.1-5.2-12.2-11.8l-1.5-87.9c-0.1-6.6,5.2-12.1,11.8-12.2l87.9-1.5
		c6.6-0.1,12.1,5.2,12.2,11.8l1.5,87.9C494.8,235,489.5,240.5,482.9,240.6z"/>
	<path fill="none" stroke="#B28364" stroke-width="1.8972" stroke-miterlimit="10" d="M482.9,240.6l-87.9,1.5
		c-6.6,0.1-12.1-5.2-12.2-11.8l-1.5-87.9c-0.1-6.6,5.2-12.1,11.8-12.2l87.9-1.5c6.6-0.1,12.1,5.2,12.2,11.8l1.5,87.9
		C494.8,235,489.5,240.5,482.9,240.6z"/>
	<path fill="none" stroke="#321B0F" stroke-width="1.8972" stroke-miterlimit="10" d="M493.1,139.8l1.6,89.2
		c0.1,6.3-4.9,11.5-11.2,11.6l-89.2,1.6"/>
	<path fill="none" stroke="#FFFFFF" stroke-width="1.8972" stroke-miterlimit="10" d="M382.8,230.9l-1.6-89.2
		c-0.1-6.3,4.9-11.5,11.2-11.6l89.2-1.6"/>
	<g>
		<path fill="#331E0F" d="M476.3,230.2c1.4,1.4,3.2,2.7,5.9,2.6c2.8,0,4.7-1.7,4.7-4.3c0-2.8-2-4.6-7.5-4.5l0-2.3
			c4.9-0.1,6.5-2,6.5-4.4c0-2.2-1.6-3.6-4-3.6c-1.9,0-3.5,1-4.9,2.4l-1.6-1.9c1.7-1.7,3.9-3,6.6-3c4-0.1,6.9,2,7,5.7
			c0,2.8-1.6,4.6-4.1,5.6l0,0.1c2.8,0.6,5,2.6,5.1,5.8c0.1,4.1-3.3,6.6-7.5,6.7c-3.7,0.1-6.1-1.5-7.7-3.1L476.3,230.2z"/>
	</g>
	<path fill="#331E0F" d="M473,219.4l-13.1,0.2l-3.1-35.1c-0.5-5.4-0.7-8.9-0.8-10.5c-0.6,3-1.3,6.3-2.2,9.7l-9.8,36.2l-11.7,0.2
		l-10-34.5c-0.7-2.4-1.6-6.2-2.9-11.4c0.1,3,0,6.9-0.3,11.7l-1.7,34.5l-13.4,0.2l5-66l17.2-0.3l9.2,32.8c1.1,3.8,1.9,7.2,2.4,10
		c0.7-4.1,1.5-7.6,2.2-10.4l8.3-32.9l17.4-0.3L473,219.4z"/>
</g>
<g>
	<path fill="#F6DECB" d="M103.3,367.8l-87.8-4.6c-6.6-0.3-11.7-6-11.4-12.6l4.6-87.8c0.3-6.6,6-11.7,12.6-11.4l87.8,4.6
		c6.6,0.3,11.7,6,11.4,12.6l-4.6,87.8C115.5,363,109.9,368.1,103.3,367.8z"/>
	<path fill="none" stroke="#B28364" stroke-width="1.8972" stroke-miterlimit="10" d="M103.3,367.8l-87.8-4.6
		c-6.6-0.3-11.7-6-11.4-12.6l4.6-87.8c0.3-6.6,6-11.7,12.6-11.4l87.8,4.6c6.6,0.3,11.7,6,11.4,12.6l-4.6,87.8
		C115.5,363,109.9,368.1,103.3,367.8z"/>
	<path fill="none" stroke="#321B0F" stroke-width="1.8972" stroke-miterlimit="10" d="M120.5,268l-4.7,89c-0.3,6.3-5.7,11.1-12,10.8
		l-89-4.7"/>
	<path fill="none" stroke="#FFFFFF" stroke-width="1.8972" stroke-miterlimit="10" d="M4.1,351.2l4.7-89c0.3-6.3,5.7-11.1,12-10.8
		l89,4.7"/>
	<g>
		<path fill="#331E0F" d="M95.1,357.2c1.3,1.5,3,2.9,5.7,3.1c2.8,0.1,4.9-1.4,5-4c0.1-2.7-1.6-4.7-7.1-5l0.1-2.3
			c4.9,0.3,6.6-1.5,6.8-4c0.1-2.2-1.3-3.7-3.8-3.9c-1.9-0.1-3.6,0.8-5,2.1l-1.5-2c1.9-1.6,4.1-2.7,6.8-2.5c4,0.2,6.8,2.5,6.6,6.2
			c-0.1,2.8-1.9,4.5-4.5,5.3l0,0.1c2.7,0.8,4.8,2.9,4.7,6.1c-0.2,4.1-3.7,6.4-7.9,6.2c-3.7-0.2-6-1.9-7.4-3.7L95.1,357.2z"/>
	</g>
	<path fill="#331E0F" d="M93,346.1l-13.1-0.7l-0.6-35.3c-0.1-5.5-0.1-9,0-10.5c-0.8,3-1.7,6.2-2.9,9.5l-12.3,35.5L52.4,344
		l-7.6-35.1c-0.5-2.4-1.2-6.3-2.1-11.6c-0.2,3-0.5,6.8-1.1,11.6l-4.1,34.3l-13.4-0.7l9.6-65.5l17.2,0.9l6.9,33.4
		c0.8,3.9,1.4,7.3,1.7,10.2c1-4.1,2-7.5,2.9-10.2L73.2,279l17.4,0.9L93,346.1z"/>
</g>
<g>
	<path fill="#F6DECB" d="M230.6,365.6h-87.9c-6.6,0-12-5.4-12-12v-87.9c0-6.6,5.4-12,12-12h87.9c6.6,0,12,5.4,12,12v87.9
		C242.6,360.2,237.2,365.6,230.6,365.6z"/>
	<path fill="none" stroke="#B28364" stroke-width="1.8972" stroke-miterlimit="10" d="M230.6,365.6h-87.9c-6.6,0-12-5.4-12-12v-87.9
		c0-6.6,5.4-12,12-12h87.9c6.6,0,12,5.4,12,12v87.9C242.6,360.2,237.2,365.6,230.6,365.6z"/>
	<path fill="none" stroke="#321B0F" stroke-width="1.8972" stroke-miterlimit="10" d="M242.6,265v89.2c0,6.3-5.1,11.4-11.4,11.4H142
		"/>
	<path fill="none" stroke="#FFFFFF" stroke-width="1.8972" stroke-miterlimit="10" d="M130.7,354.2V265c0-6.3,5.1-11.4,11.4-11.4
		h89.2"/>
	<g>
		<path fill="#331E0F" d="M221,355.2h5.3v-17h-4.2v-1.9c2.1-0.4,3.6-0.9,4.9-1.7h2.3v20.6h4.8v2.5h-13V355.2z"/>
	</g>
	<path fill="#331E0F" d="M213.7,344.2h-14.1l-4.7-15.7h-19.3l-4.7,15.7h-13.9l21.6-66.1h14.3L213.7,344.2z M191.6,317.6
		c-0.8-2.5-2-7-3.6-13.3c-0.2-0.7-1.1-4.6-2.7-11.7l-3.1,12.7c-1,4.1-2.2,8.2-3.5,12.2H191.6z"/>
</g>
<g>
	<path fill="#F6DECB" d="M358.8,364.4l-87.9,2.3c-6.6,0.2-12.1-5.1-12.3-11.7l-2.3-87.9c-0.2-6.6,5.1-12.1,11.7-12.3l87.9-2.3
		c6.6-0.2,12.1,5.1,12.3,11.7l2.3,87.9C370.6,358.7,365.4,364.2,358.8,364.4z"/>
	<path fill="none" stroke="#B28364" stroke-width="1.8972" stroke-miterlimit="10" d="M358.8,364.4l-87.9,2.3
		c-6.6,0.2-12.1-5.1-12.3-11.7l-2.3-87.9c-0.2-6.6,5.1-12.1,11.7-12.3l87.9-2.3c6.6-0.2,12.1,5.1,12.3,11.7l2.3,87.9
		C370.6,358.7,365.4,364.2,358.8,364.4z"/>
	<path fill="none" stroke="#321B0F" stroke-width="1.8972" stroke-miterlimit="10" d="M368.1,263.6l2.3,89.1
		c0.2,6.3-4.8,11.5-11.1,11.7l-89.1,2.3"/>
	<path fill="none" stroke="#FFFFFF" stroke-width="1.8972" stroke-miterlimit="10" d="M258.6,355.6l-2.3-89.1
		c-0.2-6.3,4.8-11.5,11.1-11.7l89.1-2.3"/>
	<g>
		<path fill="#331E0F" d="M351.6,355.4l5.3-0.2l-0.6-17l-4.2,0.1l-0.1-1.9c2.1-0.4,3.6-1.1,4.8-1.9l2.3-0.1l0.7,20.6l4.8-0.2
			l0.1,2.5l-13,0.5L351.6,355.4z"/>
	</g>
	<path fill="#331E0F" d="M342.4,343.5l-15.6,0.4c-2.6-4.3-4.8-7.8-6.4-10.7c-2.9-5-4.6-7.8-5-8.5c-2.7-4.2-4.8-6.6-6.4-7.3
		c-0.6-0.3-1.3-0.5-2.1-0.5l0.7,27.5l-13,0.3l-1.7-66l24.6-0.5c5.8-0.2,10.5,1.5,14.2,4.9c3.6,3.4,5.5,8.1,5.7,13.9
		c0.1,4.6-1.1,8.7-3.6,12.3c-2.7,4-6.2,6.1-10.7,6.3c1.1,0.9,2,1.8,2.8,2.7C328.2,321.1,333.7,329.5,342.4,343.5z M323.3,297.6
		c-0.1-3.6-1.4-6.1-3.9-7.4c-1.9-1-4.7-1.4-8.6-1.3l-4.7,0.1l0.5,17.9l4.5-0.1c4-0.1,6.9-0.7,8.7-1.7
		C322.2,303.7,323.4,301.2,323.3,297.6z"/>
</g>
<g>
	<path fill="#F6DECB" d="M480.4,366.7l-87.9-2.3c-6.6-0.2-11.9-5.7-11.7-12.3l2.3-87.9c0.2-6.6,5.7-11.9,12.3-11.7l87.9,2.3
		c6.6,0.2,11.9,5.7,11.7,12.3l-2.3,87.9C492.6,361.6,487,366.9,480.4,366.7z"/>
	<path fill="none" stroke="#B28364" stroke-width="1.8972" stroke-miterlimit="10" d="M480.4,366.7l-87.9-2.3
		c-6.6-0.2-11.9-5.7-11.7-12.3l2.3-87.9c0.2-6.6,5.7-11.9,12.3-11.7l87.9,2.3c6.6,0.2,11.9,5.7,11.7,12.3l-2.3,87.9
		C492.6,361.6,487,366.9,480.4,366.7z"/>
	<path fill="none" stroke="#321B0F" stroke-width="1.8972" stroke-miterlimit="10" d="M495.1,266.5l-2.3,89.1
		c-0.2,6.3-5.4,11.2-11.7,11.1l-89.1-2.3"/>
	<path fill="none" stroke="#FFFFFF" stroke-width="1.8972" stroke-miterlimit="10" d="M380.8,352.7l2.3-89.1
		c0.2-6.3,5.4-11.2,11.7-11.1l89.1,2.3"/>
	<g>
		<path fill="#331E0F" d="M461.7,350c0.1-3.8,2.7-6.1,6.1-6c2.9,0.1,4.8,2.2,6,4l0.1,0c1.8-2.2,4.1-4.2,7.2-4.1
			c3.6,0.1,6.1,2.9,6,6.5c-0.1,4.1-2.9,6.7-6.5,6.6c-3.1-0.1-5.1-1.9-7.2-4.7l-0.1,0c-1.3,1.4-3.4,3.6-6.4,3.5
			C463.9,355.8,461.5,353.2,461.7,350z M472.2,350.5c-1.4-2.1-3-3.5-4.8-3.6c-2-0.1-3.4,1.1-3.5,3.1c-0.1,2,1.4,3.6,3.3,3.7
			C469.3,353.7,471,352.3,472.2,350.5z M480.7,354.3c2.4,0.1,3.9-1.7,4-3.8c0.1-2.4-1.4-4.2-4-4.3c-2.1-0.1-3.9,1.2-5.8,3.7
			C476.9,352.7,478.5,354.2,480.7,354.3z"/>
	</g>
	<path fill="#331E0F" d="M447.5,337.9c-0.1,2.2-0.9,4.1-2.5,5.5c-1.6,1.5-3.5,2.2-5.7,2.1c-2.2-0.1-4-0.9-5.4-2.4
		c-1.4-1.6-2.1-3.4-2-5.7c0.1-2.2,0.9-4.1,2.4-5.5c1.6-1.5,3.4-2.2,5.7-2.1c2.1,0.1,4,0.9,5.4,2.5
		C446.8,333.9,447.5,335.7,447.5,337.9z M448.7,277.2l-3.9,46.3l-9.7-0.3l-1.8-44.3L448.7,277.2z"/>
</g>
</svg>
