<?xml version="1.0" encoding="utf-8"?>
<!-- Generator: Adobe Illustrator 18.0.0, SVG Export Plug-In . SVG Version: 6.00 Build 0)  -->
<!DOCTYPE svg PUBLIC "-//W3C//DTD SVG 1.1//EN" "http://www.w3.org/Graphics/SVG/1.1/DTD/svg11.dtd">
<svg version="1.1" id="Layer_2" xmlns="http://www.w3.org/2000/svg" xmlns:xlink="http://www.w3.org/1999/xlink" x="0px" y="0px"
	 viewBox="0 0 500 500" enable-background="new 0 0 500 500" xml:space="preserve">
<g>
	<path fill="#F3B69D" d="M484.5,284.6C468.8,210.8,394.8,66,334.3,22.7C304.8,1.5,206.7,37.9,193.3,55c-7.2,9.2-3.5,37.6,4.9,42.7
		c6.5,4,24.5-11.1,30.5-6.1c4.6,3.8-9.8,19.9-4.9,23.2c9,6.1,103.2-2.4,103.2-2.4c-33.6,94-6.1,158.7-6.1,158.7l-3.1,1.8
		c-44.4-20.3-115.3,16.5-115.3,16.5s-12.1-47.3-59.2-70.2c-41.5-20.1-100.1,7.3-100.1,7.3l0,0L12.6,451.9c0,0,38,15.6,51.3,14.7
		c15-1.1,58.6-24.4,58.6-24.4s134.3,57.4,232,18.3c27.4-10.9,88.1-22.9,109.9-42.7c7.6-6.9,17.8-26.4,18.3-36.6
		c0.3-6.1-1.6-17.7-2.4-23.8C477.8,339.2,488.3,302.3,484.5,284.6z"/>
	<path fill="none" stroke="#642E11" stroke-width="21.9798" stroke-linecap="round" stroke-miterlimit="10" d="M43.1,226.6
		c0,0,58.6-27.5,100.1-7.3c47.1,22.9,59.2,70.2,59.2,70.2s73.6-38.2,117.8-15.3c34.2,17.7,50.1,83,50.1,83"/>
	<path fill="none" stroke="#642E11" stroke-width="21.9798" stroke-linecap="round" stroke-miterlimit="10" d="M12.6,451.9
		c0,0,38,15.6,51.3,14.7c15-1.1,58.6-24.4,58.6-24.4s134.3,57.4,232,18.3c27.4-10.9,88.1-22.9,109.9-42.7
		c7.6-6.9,17.8-26.4,18.3-36.6c0.3-6.1-1.6-17.7-2.4-23.8c-2.4-18.1,8.1-54.9,4.3-72.7C468.8,210.8,394.8,66,334.3,22.7
		C304.8,1.5,206.7,37.9,193.3,55c-7.2,9.2-3.5,37.6,4.9,42.7c6.5,4,24.5-11.1,30.5-6.1c4.6,3.8-9.8,19.9-4.9,23.2
		c9,6.1,103.2-2.4,103.2-2.4c-33.6,94-6.1,158.7-6.1,158.7"/>
	<path fill="none" stroke="#642E11" stroke-width="21.9798" stroke-linecap="round" stroke-miterlimit="10" d="M82.2,378.6
		c0,0,91.6-73.3,201.5-21.4"/>
	
		<line fill="none" stroke="#642E11" stroke-width="21.9798" stroke-linecap="round" stroke-miterlimit="10" x1="327" y1="112.4" x2="354.5" y2="103.9"/>
</g>
</svg>
