<?xml version="1.0" encoding="utf-8"?>
<!-- Generator: Adobe Illustrator 18.0.0, SVG Export Plug-In . SVG Version: 6.00 Build 0)  -->
<!DOCTYPE svg PUBLIC "-//W3C//DTD SVG 1.1 Tiny//EN" "http://www.w3.org/Graphics/SVG/1.1/DTD/svg11-tiny.dtd">
<svg version="1.1" baseProfile="tiny" id="Layer_2" xmlns="http://www.w3.org/2000/svg" xmlns:xlink="http://www.w3.org/1999/xlink"
	 x="0px" y="0px" viewBox="0 0 500 500" xml:space="preserve">
<g>
	<path fill="#EF5B42" d="M176.6,285.2c0,0,103.4-170.4,149.1-209.9C343.5,60,392.6,23.7,408.6,39c16.8,16.1-9.4,75.3-21,97
		c-27.5,51.4-161,185.3-161,185.3L176.6,285.2z"/>
	<path fill="#F79329" d="M235.2,338.8l-71.9-52.7c-1.3-0.9-1.5-2.7-0.6-4l5.3-7.3c0.9-1.3,2.7-1.5,4-0.6l71.9,52.7
		c1.3,0.9,1.5,2.7,0.6,4l-5.3,7.3C238.3,339.5,236.5,339.7,235.2,338.8z"/>
	<path fill="#F9F9FB" d="M113.7,452.3c0.1-2.9,0.2-6.5,0.2-6.5l20-18.2c0,0,32-2.7,38.6-7.9c25.7-20.4,36.4-74.1,36.4-74.1l12-17.2
		l-47.3-34.6l-10.5,14.2c0,0-54.6,33.4-61.8,57.1c-3.3,10.9,6.6,40.4,6.6,40.4l-9.9,26.9c0,0,0.2,1.9-1.4,1.9
		c-9.7-0.3-17.7,7.3-18,17c-0.3,9.7,7.3,17.7,17,18C105.4,469.5,113.4,462,113.7,452.3z M98.5,450.1c2.6-4.1,6.2-10.1,10.7-17.1
		c4.5-7.1,9.8-15.2,15.6-23.9c2.9-4.3,5.9-8.8,9-13.4c0.7-1,1.4-2,2.1-3c-2.8-3-4.4-7-4.3-11.4c0.3-8.8,7.6-15.8,16.4-15.5
		c2,0.1,3.9,0.5,5.7,1.3c2.8-4,5.7-7.9,8.4-11.8c6.1-8.5,11.9-16.3,16.9-23c5-6.7,9.4-12.1,12.3-16c3-3.8,4.8-6,4.8-6
		s-1.4,2.4-4,6.6c-2.6,4.1-6.2,10.1-10.7,17.1c-4.5,7.1-9.8,15.2-15.6,23.9c-2.6,3.8-5.2,7.8-7.9,11.8c3.5,3,5.7,7.6,5.6,12.6
		c-0.3,8.8-7.6,15.8-16.4,15.5c-2.6-0.1-5.1-0.8-7.2-2c-0.6,0.9-1.3,1.9-1.9,2.8c-3.1,4.5-6.3,8.8-9.4,13.1
		c-6.1,8.5-11.9,16.3-16.9,23c-5,6.7-9.4,12.1-12.3,16c-3,3.8-4.8,6-4.8,6S96,454.3,98.5,450.1z"/>
</g>
</svg>
