<?xml version="1.0" encoding="utf-8"?>
<!-- Generator: Adobe Illustrator 18.0.0, SVG Export Plug-In . SVG Version: 6.00 Build 0)  -->
<!DOCTYPE svg PUBLIC "-//W3C//DTD SVG 1.1//EN" "http://www.w3.org/Graphics/SVG/1.1/DTD/svg11.dtd">
<svg version="1.1" id="Layer_2" xmlns="http://www.w3.org/2000/svg" xmlns:xlink="http://www.w3.org/1999/xlink" x="0px" y="0px"
	 viewBox="0 0 500 500" enable-background="new 0 0 500 500" xml:space="preserve">
<g transform="matrix(45,0,0,45,40,40)">
	<path fill="#F389A6" d="M1.9,4.8H1.8c0,0.4-0.1,0.9-0.8,0.9H0.7c-0.2,0-0.2,0-0.2-0.2V3.4c0-0.1,0-0.2,0.4-0.2H1V3.1
		c-0.1,0-0.5,0-0.7,0c-0.2,0-0.5,0-0.6,0v0.1h0.1c0.3,0,0.3,0,0.3,0.2v2.1c0,0.1,0,0.2-0.3,0.2h-0.1v0.1h2.1L1.9,4.8z"/>
	<path fill="#F389A6" d="M1.9,3.1C1.8,3,1.8,3,1.9,3.1C1.7,3,1.7,3,1.7,3.1L1,4.7C1,4.8,1,4.9,0.7,4.9V5h0.6V4.9
		c-0.1,0-0.2-0.1-0.2-0.1c0,0,0,0,0-0.1l0.1-0.3h0.8l0.2,0.4c0,0,0,0,0,0c0,0.1-0.2,0.1-0.2,0.1V5h0.8V4.9H2.8c-0.2,0-0.2,0-0.2-0.1
		L1.9,3.1z M1.7,3.4l0.4,0.9H1.3L1.7,3.4z"/>
	<path fill="#F389A6" d="M5.1,3.1H2.6L2.6,4h0.1c0.1-0.7,0.1-0.8,0.7-0.8c0.1,0,0.2,0,0.2,0c0.1,0,0.1,0.1,0.1,0.2v2.1
		c0,0.1,0,0.2-0.4,0.2H3.1v0.1c0.2,0,0.6,0,0.8,0c0.2,0,0.6,0,0.8,0V5.7H4.5C4,5.7,4,5.7,4,5.5V3.4c0-0.1,0-0.1,0.1-0.2
		c0,0,0.2,0,0.2,0C5,3.2,5,3.4,5.1,4h0.1L5.1,3.1z"/>
	<path fill="#F389A6" d="M7.3,5.7H7.2C7.1,6.3,7,6.6,6.3,6.6H5.7c-0.2,0-0.2,0-0.2-0.2V5.4h0.4c0.4,0,0.4,0.1,0.4,0.5h0.1V4.8H6.3
		c0,0.3,0,0.5-0.4,0.5H5.5v-1c0-0.1,0-0.2,0.2-0.2h0.5C6.9,4.1,7,4.3,7,4.9h0.1L7,4H4.8v0.1h0.1c0.3,0,0.3,0,0.3,0.2v2.1
		c0,0.1,0,0.2-0.3,0.2H4.8v0.1h2.3L7.3,5.7z"/>
	<path fill="#F389A6" d="M8.5,4.3L9,3.5c0.1-0.1,0.2-0.3,0.6-0.3V3.1h-1v0.1c0.2,0,0.3,0.1,0.3,0.2c0,0,0,0,0,0.1L8.4,4.2L7.9,3.4
		c0,0,0,0,0-0.1c0,0,0.1-0.1,0.3-0.1V3.1c-0.1,0-0.4,0-0.6,0c-0.1,0-0.4,0-0.5,0v0.1h0.1c0.2,0,0.3,0,0.4,0.1l0.7,1.1l-0.7,1
		C7.5,5.5,7.4,5.7,7,5.7v0.1h1V5.7c-0.2,0-0.3-0.1-0.3-0.2c0,0,0-0.1,0-0.1l0.6-0.8l0.6,1c0,0,0,0,0,0c0,0-0.1,0.1-0.3,0.1v0.1
		c0.1,0,0.4,0,0.6,0c0.2,0,0.4,0,0.5,0V5.7H9.7c-0.2,0-0.3,0-0.4-0.1L8.5,4.3z"/>
</g>
</svg>
