<?xml version="1.0" encoding="utf-8"?>
<!-- Generator: Adobe Illustrator 18.0.0, SVG Export Plug-In . SVG Version: 6.00 Build 0)  -->
<!DOCTYPE svg PUBLIC "-//W3C//DTD SVG 1.1//EN" "http://www.w3.org/Graphics/SVG/1.1/DTD/svg11.dtd">
<svg version="1.1" id="Layer_2" xmlns="http://www.w3.org/2000/svg" xmlns:xlink="http://www.w3.org/1999/xlink" x="0px" y="0px"
	 viewBox="0 0 500 500" enable-background="new 0 0 500 500" xml:space="preserve">
<g transform="matrix(45,0,0,45,40,40)">
	<path fill="#F389A6" d="M1.8,3.9H1.7c0,0.4-0.1,0.9-0.8,0.9H0.6c-0.2,0-0.2,0-0.2-0.2V2.5c0-0.1,0-0.2,0.4-0.2h0.1V2.2
		c-0.1,0-0.5,0-0.7,0c-0.2,0-0.5,0-0.6,0v0.1h0.1C0,2.3,0,2.4,0,2.5v2.1c0,0.1,0,0.2-0.3,0.2h-0.1V5h2.1L1.8,3.9z"/>
	<path fill="#F389A6" d="M1.8,2.2C1.7,2.2,1.7,2.1,1.8,2.2c-0.1-0.1-0.1,0-0.2,0L1,3.9c0,0.1-0.1,0.2-0.3,0.2v0.1h0.6V4.1
		C1.1,4.1,1,4,1,3.9c0,0,0,0,0-0.1l0.1-0.3H2l0.2,0.4c0,0,0,0,0,0c0,0.1-0.2,0.1-0.2,0.1v0.1h0.8V4.1H2.7c-0.2,0-0.2,0-0.2-0.1
		L1.8,2.2z M1.6,2.5L2,3.4H1.2L1.6,2.5z"/>
	<path fill="#F389A6" d="M5,2.2H2.5L2.5,3.1h0.1c0.1-0.7,0.1-0.8,0.7-0.8c0.1,0,0.2,0,0.2,0c0.1,0,0.1,0.1,0.1,0.2v2.1
		c0,0.1,0,0.2-0.4,0.2H3V5c0.2,0,0.6,0,0.8,0C4,5,4.4,5,4.5,5V4.8H4.4C4,4.8,4,4.8,4,4.6V2.5C4,2.4,4,2.4,4,2.4c0,0,0.2,0,0.2,0
		c0.6,0,0.7,0.1,0.7,0.8h0.1L5,2.2z"/>
	<path fill="#F389A6" d="M7.2,4.8H7.1C7,5.5,6.9,5.8,6.2,5.8H5.7c-0.2,0-0.2,0-0.2-0.2V4.5h0.4c0.4,0,0.4,0.1,0.4,0.5h0.1V3.9H6.2
		c0,0.3,0,0.5-0.4,0.5H5.5v-1c0-0.1,0-0.2,0.2-0.2h0.5C6.8,3.3,6.9,3.5,7,4h0.1L6.9,3.1H4.7v0.1h0.1c0.3,0,0.3,0,0.3,0.2v2.1
		c0,0.1,0,0.2-0.3,0.2H4.7v0.1H7L7.2,4.8z"/>
	<path fill="#F389A6" d="M8.4,3.4l0.6-0.8C9,2.5,9.2,2.3,9.5,2.3V2.2h-1v0.1c0.2,0,0.3,0.1,0.3,0.2c0,0,0,0,0,0.1L8.3,3.3L7.8,2.5
		c0,0,0,0,0-0.1c0,0,0.1-0.1,0.3-0.1V2.2c-0.1,0-0.4,0-0.6,0c-0.1,0-0.4,0-0.5,0v0.1H7c0.2,0,0.3,0,0.4,0.1l0.7,1.1l-0.7,1
		C7.4,4.7,7.3,4.8,6.9,4.8V5h1V4.8c-0.2,0-0.3-0.1-0.3-0.2c0,0,0-0.1,0-0.1l0.6-0.8l0.6,1c0,0,0,0,0,0c0,0-0.1,0.1-0.3,0.1V5
		C8.7,5,9,5,9.2,5c0.2,0,0.4,0,0.5,0V4.8H9.6c-0.2,0-0.3,0-0.4-0.1L8.4,3.4z"/>
</g>
<path fill="#F389A6" d="M108.4,358c-12.1-2.6-12.5-11-12.5-13c0-5.9,4.6-12,12.5-12.8V358z M108.4,367v29.3
	c-8.6-0.5-13.3-5.5-14.5-11.6l1.6,0.2c2.7,0,4.5-1.9,4.5-4.5c0-2.8-2.1-4.5-4.5-4.5c-0.6,0-4.5,0.2-4.5,5c0,8.7,5.2,17.8,17.5,18.6
	v4.4h3v-4.5c10.3-0.9,17.5-10,17.5-20.1c0-8.2-4.4-13.2-5.3-14.1c-3.9-4.3-7.5-5.2-12.2-6.4v-26.5c8.4,0.4,13.1,4.7,14.5,10.2
	c-0.4-0.1-0.6-0.2-1.6-0.2c-2.6,0-4.5,1.8-4.5,4.5c0,3,2.5,4.5,4.5,4.5c0.3,0,4.5-0.1,4.5-4.9c0-9.5-6.5-16.7-17.5-17.3v-4.4h-3v4.5
	c-10.9,1-17.5,9.8-17.5,18.8c0,6.8,3.6,11.5,5.4,13.2C100,364.9,103.4,365.7,108.4,367z M111.4,367.8c11.8,2.5,12.5,12,12.5,14.3
	c0,6.6-4.7,13.2-12.5,14.2V367.8z"/>
<path fill="#F389A6" d="M336.4,331.2c0-0.1,0-1.1-1.3-1.1c-2.3,0-9.4,0.8-12,1c-0.8,0.1-1.9,0.2-1.9,2c0,1.2,0.9,1.2,2.4,1.2
	c4.7,0,4.9,0.7,4.9,1.7l-0.3,2L314,394.5c-0.4,1.4-0.4,1.6-0.4,2.2c0,2.3,2,2.8,2.9,2.8c1.6,0,3.1-1.2,3.6-2.6l1.9-7.5l2.2-8.8
	c0.6-2.2,1.2-4.3,1.7-6.6l1.1-4.4c0.3-0.9,3.3-6.4,6.7-9c2.2-1.6,5.2-3.4,9.4-3.4c4.2,0,5.3,3.3,5.3,6.9c0,5.3-3.7,16-6.1,22
	c-0.8,2.3-1.3,3.4-1.3,5.4c0,4.6,3.4,8.1,8.1,8.1c9.2,0,12.9-14.3,12.9-15.1c0-1-0.9-1-1.2-1c-1,0-1,0.3-1.5,1.8
	c-1.5,5.2-4.6,12.2-10,12.2c-1.7,0-2.4-1-2.4-3.2c0-2.5,0.9-4.8,1.8-7c1.6-4.2,6-15.9,6-21.6c0-6.4-3.9-10.5-11.3-10.5
	c-6.2,0-10.9,3-14.5,7.6L336.4,331.2z M293,359h9.2c2,0,2.9,0,2.9-2c0-1.1-1-1.1-2.8-1.1h-8.6c3.5-14,4-15.9,4-16.5
	c0-1.7-1.2-2.7-2.8-2.7c-0.3,0-3,0.1-3.9,3.5l-3.8,15.6H278c-2,0-2.9,0-2.9,1.9c0,1.2,0.8,1.2,2.8,1.2h8.6
	c-7.1,27.9-7.5,29.6-7.5,31.4c0,5.3,3.7,9,9,9c10,0,15.6-14.3,15.6-15.1c0-1-0.8-1-1.2-1c-0.9,0-1,0.3-1.5,1.4
	c-4.2,10.2-9.4,12.6-12.8,12.6c-2.1,0-3-1.3-3-4.5c0-2.4,0.2-3,0.6-4.7L293,359z M251.1,386.7c-0.5,1.8-0.5,2-2,3.6
	c-4.3,5.4-8.4,7-11.1,7c-4.9,0-6.3-5.4-6.3-9.2c0-4.9,3.1-17,5.4-21.5c3-5.8,7.5-9.4,11.4-9.4c6.4,0,7.8,8.1,7.8,8.6l-0.3,1.7
	L251.1,386.7z M257.5,361.2c-1.8-3.6-4.6-6.3-9-6.3c-11.5,0-23.7,14.4-23.7,28.8c0,9.2,5.4,15.7,13.1,15.7c2,0,6.9-0.4,12.8-7.4
	c0.8,4.1,4.2,7.4,8.9,7.4c3.4,0,5.7-2.3,7.3-5.4c1.7-3.5,2.9-9.5,2.9-9.7c0-1-0.9-1-1.2-1c-1,0-1.1,0.4-1.4,1.8
	c-1.7,6.4-3.4,12.2-7.5,12.2c-2.7,0-3-2.6-3-4.5c0-2.2,0.2-2.9,1.3-7.3c1.1-4.1,1.3-5.1,2.2-8.8l3.5-13.8c0.7-2.8,0.7-2.9,0.7-3.3
	c0-1.7-1.2-2.7-2.9-2.7C259.2,356.9,257.8,359,257.5,361.2z M143.2,392.5c-0.3,1.5-0.9,3.7-0.9,4.2c0,1.8,1.4,2.7,2.9,2.7
	c1.2,0,2.9-0.8,3.6-2.8c0.1-0.2,1.3-4.8,1.9-7.3l2.2-8.8c0.6-2.2,1.2-4.3,1.7-6.6c0.4-1.7,1.2-4.5,1.3-4.9c1.5-3,6.7-12,16-12
	c4.4,0,5.3,3.6,5.3,6.9c0,2.5-0.7,5.2-1.5,8.2l-2.8,11.4l-2,7.5c-0.4,2-1.3,5.3-1.3,5.8c0,1.8,1.4,2.7,2.9,2.7c3,0,3.6-2.5,4.4-5.6
	c1.4-5.5,5-19.9,5.9-23.7c0.3-1.3,5.5-13.1,16.2-13.1c4.2,0,5.3,3.3,5.3,6.9c0,5.6-4.1,16.8-6.1,22c-0.9,2.4-1.3,3.4-1.3,5.4
	c0,4.6,3.4,8.1,8.1,8.1c9.2,0,12.9-14.3,12.9-15.1c0-1-0.9-1-1.2-1c-1,0-1,0.3-1.5,1.8c-1.5,5.2-4.6,12.2-10,12.2
	c-1.7,0-2.4-1-2.4-3.2c0-2.5,0.9-4.8,1.8-7c1.9-5.1,6-16,6-21.6c0-6.4-3.9-10.5-11.3-10.5c-7.4,0-12.4,4.3-16,9.5
	c-0.1-1.3-0.4-4.6-3.1-7c-2.5-2.1-5.6-2.6-8.1-2.6c-8.8,0-13.7,6.3-15.3,8.5c-0.5-5.6-4.6-8.5-9-8.5c-4.5,0-6.4,3.8-7.3,5.6
	c-1.8,3.4-3,9.2-3,9.5c0,1,1,1,1.2,1c1,0,1.1-0.1,1.7-2.3c1.7-7,3.6-11.7,7.2-11.7c1.6,0,3,0.8,3,4.5c0,2.1-0.3,3.1-1.6,8.3
	L143.2,392.5z"/>
<path fill="#F389A6" d="M387.9,358c-12.1-2.6-12.5-11-12.5-13c0-5.9,4.6-12,12.5-12.8V358z M387.9,367v29.3
	c-8.6-0.5-13.3-5.5-14.5-11.6l1.6,0.2c2.7,0,4.5-1.9,4.5-4.5c0-2.8-2.1-4.5-4.5-4.5c-0.6,0-4.5,0.2-4.5,5c0,8.7,5.2,17.8,17.5,18.6
	v4.4h3v-4.5c10.3-0.9,17.5-10,17.5-20.1c0-8.2-4.4-13.2-5.3-14.1c-3.9-4.3-7.5-5.2-12.2-6.4v-26.5c8.4,0.4,13.1,4.7,14.5,10.2
	c-0.4-0.1-0.6-0.2-1.6-0.2c-2.6,0-4.5,1.8-4.5,4.5c0,3,2.5,4.5,4.5,4.5c0.3,0,4.5-0.1,4.5-4.9c0-9.5-6.5-16.7-17.5-17.3v-4.4h-3v4.5
	c-10.9,1-17.5,9.8-17.5,18.8c0,6.8,3.6,11.5,5.4,13.2C379.5,364.9,382.8,365.7,387.9,367z M390.9,367.8c11.8,2.5,12.5,12,12.5,14.3
	c0,6.6-4.7,13.2-12.5,14.2V367.8z"/>
</svg>
