<?xml version="1.0" encoding="utf-8"?>
<!-- Generator: Adobe Illustrator 18.0.0, SVG Export Plug-In . SVG Version: 6.00 Build 0)  -->
<!DOCTYPE svg PUBLIC "-//W3C//DTD SVG 1.1//EN" "http://www.w3.org/Graphics/SVG/1.1/DTD/svg11.dtd">
<svg version="1.1" id="Layer_1" xmlns="http://www.w3.org/2000/svg" xmlns:xlink="http://www.w3.org/1999/xlink" x="0px" y="0px"
	 viewBox="0 0 500 500" enable-background="new 0 0 500 500" xml:space="preserve">
<path fill="#1B2B44" d="M119.5,481h-56c-6.6,0-12-5.4-12-12V38c0-6.6,5.4-12,12-12h56c6.6,0,12,5.4,12,12v431
	C131.5,475.6,126.1,481,119.5,481z"/>
<path fill="#1B2B44" d="M278,481h-56c-6.6,0-12-5.4-12-12V38c0-6.6,5.4-12,12-12h56c6.6,0,12,5.4,12,12v431
	C290,475.6,284.6,481,278,481z"/>
<path fill="#1B2B44" d="M436.5,481h-56c-6.6,0-12-5.4-12-12V38c0-6.6,5.4-12,12-12h56c6.6,0,12,5.4,12,12v431
	C448.5,475.6,443.1,481,436.5,481z"/>
<line fill="none" stroke="#3C506D" stroke-width="6" stroke-miterlimit="10" x1="91.5" y1="40.3" x2="91.5" y2="463.9"/>
<line fill="none" stroke="#3C506D" stroke-width="6" stroke-miterlimit="10" x1="250" y1="40.3" x2="250" y2="463.9"/>
<line fill="none" stroke="#3C506D" stroke-width="6" stroke-miterlimit="10" x1="408.6" y1="40.3" x2="408.6" y2="463.9"/>
<path fill="#C7D0E0" d="M151,215H28c-6.6,0-12-5.4-12-12V80c0-6.6,5.4-12,12-12h123c6.6,0,12,5.4,12,12v123
	C163,209.6,157.6,215,151,215z"/>
<line fill="none" stroke="#462164" stroke-width="15" stroke-miterlimit="10" x1="48" y1="109.4" x2="132.2" y2="109.4"/>
<line fill="none" stroke="#462164" stroke-width="15" stroke-miterlimit="10" x1="48" y1="141.5" x2="132.2" y2="141.5"/>
<line fill="none" stroke="#462164" stroke-width="15" stroke-miterlimit="10" x1="48" y1="176" x2="132.2" y2="176"/>
<path fill="#C7D0E0" d="M309,450.5H186c-6.6,0-12-5.4-12-12v-123c0-6.6,5.4-12,12-12h123c6.6,0,12,5.4,12,12v123
	C321,445.1,315.6,450.5,309,450.5z"/>
<line fill="none" stroke="#462164" stroke-width="15" stroke-miterlimit="10" x1="207.9" y1="347.8" x2="292.1" y2="347.8"/>
<line fill="none" stroke="#462164" stroke-width="15" stroke-miterlimit="10" x1="207.9" y1="380" x2="292.1" y2="380"/>
<line fill="none" stroke="#462164" stroke-width="15" stroke-miterlimit="10" x1="207.9" y1="414.5" x2="292.1" y2="414.5"/>
<path fill="#C7D0E0" d="M468.5,297h-123c-6.6,0-12-5.4-12-12V162c0-6.6,5.4-12,12-12h123c6.6,0,12,5.4,12,12v123
	C480.5,291.6,475.1,297,468.5,297z"/>
<line fill="none" stroke="#462164" stroke-width="15" stroke-miterlimit="10" x1="366.5" y1="190.2" x2="450.7" y2="190.2"/>
<line fill="none" stroke="#462164" stroke-width="15" stroke-miterlimit="10" x1="366.5" y1="222.3" x2="450.7" y2="222.3"/>
<line fill="none" stroke="#462164" stroke-width="15" stroke-miterlimit="10" x1="366.5" y1="256.8" x2="450.7" y2="256.8"/>
</svg>
