<?xml version="1.0" encoding="utf-8"?>
<!-- Generator: Adobe Illustrator 18.0.0, SVG Export Plug-In . SVG Version: 6.00 Build 0)  -->
<svg version="1.2" baseProfile="tiny" id="Layer_1" xmlns="http://www.w3.org/2000/svg" xmlns:xlink="http://www.w3.org/1999/xlink"
	 x="0px" y="0px" viewBox="0 0 500 500" xml:space="preserve">
<polygon fill="#5B4B9F" points="105.1,459.8 72.9,98.3 427.1,98.3 394.8,459.8 249.8,500 "/>
<polygon fill="#AEA8D3" points="250,469.3 367.2,436.8 394.8,127.8 250,127.8 "/>
<polygon fill="#FFFFFF" points="250,168.8 250,213.2 304.6,213.2 299.5,282.7 250,284 250,330.2 340.9,323 352,180.7 353.1,168.8 
	341.1,168.8 "/>
<polyline fill="#EBEBEB" points="250,284 192.7,284.1 192.7,213.2 250.7,213.2 250.7,168.8 147.2,168.8 147.5,442 194.1,455 
	193.7,329.2 250,330.2 "/>
<g>
	<path fill="#010101" d="M214.8,0.2h22.5v22.3h20.6V0.2h22.5v67.4h-22.5V45h-20.6v22.6h-22.5L214.8,0.2L214.8,0.2z"/>
	<polygon fill="#010101" points="181.9,0 181.9,0 159.4,0 136.9,0 136.9,22.5 136.9,45 136.9,67.5 159.4,67.5 181.9,67.5 181.9,45 
		204.3,45 204.3,22.5 204.3,0 	"/>
	<polygon fill="#010101" points="338.2,0 338.2,0 315.7,0 293.3,0 293.3,22.5 293.3,45 293.3,67.5 315.7,67.5 338.2,67.5 338.2,45 
		360.7,45 360.7,22.5 360.7,0 	"/>
</g>
</svg>
