<?xml version="1.0" encoding="utf-8"?>
<!-- Generator: Adobe Illustrator 18.0.0, SVG Export Plug-In . SVG Version: 6.00 Build 0)  -->
<!DOCTYPE svg PUBLIC "-//W3C//DTD SVG 1.1//EN" "http://www.w3.org/Graphics/SVG/1.1/DTD/svg11.dtd">
<svg version="1.1" id="Layer_1" xmlns="http://www.w3.org/2000/svg" xmlns:xlink="http://www.w3.org/1999/xlink" x="0px" y="0px"
	 viewBox="0 0 500 500" enable-background="new 0 0 500 500" xml:space="preserve">
<g>
	<path fill="#92361E" d="M137.8,257c8.5,5.6,14.3,11.8,17.5,18.5c3.2,6.7,4.8,16.2,4.8,28.6v40v4.3c0,9.2,1.8,15,5.4,17.4
		c3.6,2.3,12.2,3.5,25.9,3.5h5.7v48.2c-4.4,0-8.7,0.1-12.7,0.2l-22.5,1.2l-13.9-0.6c-18.4-1.2-31.3-5.8-38.9-13.8
		c-7.6-8-11.3-21.2-11.3-39.6v-52.5c0-10.2-1.5-17.6-4.6-22.5c-3.1-4.8-8.3-7.9-15.7-9.4v-51.2c11.5-2.2,17.8-7.7,18.9-16.6l1.2-8.8
		c0.1-1.4,0.2-2.3,0.2-2.5v-52.1c0-20.2,4.5-34.2,13.4-42.1c8.9-7.9,24.8-11.8,47.6-11.8l11.1,0.2l14.5,0.6l12.7,0.4v49.4l-8.6-0.2
		c-12,0-19.7,1.3-23.1,3.8c-3.5,2.5-5.2,8.2-5.2,17.1v4.5v38.7c0,12.6-1.5,22-4.4,28.2C152.8,244.3,146.8,250.6,137.8,257z"/>
	<path fill="#92361E" d="M383.3,257.4c-8.5-5.5-14.3-11.6-17.5-18.3c-3.2-6.7-4.8-16.2-4.8-28.6v-40.2V166c0-9.2-1.8-15-5.4-17.4
		c-3.6-2.3-12.2-3.5-25.9-3.5l-5.7,0.2V97c4.3,0,8.5-0.1,12.5-0.4l22.7-1.2l13.9,0.6c33.5,0,50.2,17.8,50.2,53.5v52.5
		c0,10,1.5,17.5,4.6,22.3c3.1,4.8,8.3,7.9,15.7,9.4v51.2c-11.5,2.3-17.8,7.9-18.9,16.8l-1,8.6c-0.3,1.6-0.4,2.5-0.4,2.7v52.1
		c0,20.2-4.5,34.2-13.4,42.1c-8.9,7.9-24.8,11.8-47.6,11.8l-11.1-0.2l-14.6-0.6l-12.5-0.4v-49.4l8.6,0.2c12,0,19.7-1.3,23.1-3.9
		c3.4-2.6,5.2-8.3,5.2-17v-4.5v-38.7c0-12.8,1.5-22.2,4.4-28.4C368.4,270,374.4,263.8,383.3,257.4z"/>
</g>
</svg>
