<?xml version="1.0" encoding="utf-8"?>
<!-- Generator: Adobe Illustrator 18.0.0, SVG Export Plug-In . SVG Version: 6.00 Build 0)  -->
<!DOCTYPE svg PUBLIC "-//W3C//DTD SVG 1.1//EN" "http://www.w3.org/Graphics/SVG/1.1/DTD/svg11.dtd">
<svg version="1.1" id="Layer_1" xmlns="http://www.w3.org/2000/svg" xmlns:xlink="http://www.w3.org/1999/xlink" x="0px" y="0px"
	 viewBox="0 0 500 500" enable-background="new 0 0 500 500" xml:space="preserve">
<polygon fill="#7A9B45" points="306,395.1 281.5,442 219.1,442 194,395.1 194,211.9 306,211.9 "/>
<g>
	<g>
		<path fill="#7A9B45" d="M246.6,429c0,3.8-0.1,7.7-0.1,11.5c0,3.8,1.4,12.9-2.2,15.5c-3.5,2.5-10.1,2.5-14.2,2.9
			c-4.4,0.4-8.9,0.4-13.4,0.4c-18.2,0-36.5-0.3-54.7-0.4c-8.5-0.1-17-0.1-25.4-0.2c-7.6-0.1-15.2-0.6-22.1,2.8
			c-13.2,6.6-11,25.1-8.8,36.8c0.6,3.2,5.4,1.8,4.9-1.3c-1.5-8.3-3-16.9,0.8-24.9c4.4-9.2,14.7-8.5,23.3-8.4
			c17.6,0.1,35.2,0.3,52.8,0.4c16.8,0.1,34.2,1.5,50.9-1.2c5.9-0.9,11.4-2.6,12.9-8.9c0.9-3.6,0.3-7.9,0.4-11.5
			c0-4.5,0.1-9,0.1-13.4C251.6,425.7,246.6,425.7,246.6,429L246.6,429z"/>
	</g>
</g>
<path fill="#52672E" d="M194,244.4c16.7,10.9,36.6,17.3,58,17.3c19.7,0,38.2-5.4,54-14.8v-34.9H194V244.4z"/>
<circle fill="#B0D57D" cx="252" cy="135" r="106"/>
<g opacity="0.75">
	<defs>
		<circle id="SVGID_9_" opacity="0.75" cx="252" cy="135" r="86"/>
	</defs>
	<clipPath id="SVGID_2_">
		<use xlink:href="#SVGID_9_"  overflow="visible"/>
	</clipPath>
	<g clip-path="url(#SVGID_2_)">
		<line fill="none" stroke="#374920" stroke-width="7.1801" stroke-miterlimit="10" x1="174.9" y1="111" x2="330.2" y2="111"/>
		<line fill="none" stroke="#374920" stroke-width="7.1801" stroke-miterlimit="10" x1="174.9" y1="160.6" x2="330.2" y2="160.6"/>
		<line fill="none" stroke="#374920" stroke-width="7.1801" stroke-miterlimit="10" x1="174.9" y1="71.5" x2="330.2" y2="71.5"/>
		<line fill="none" stroke="#374920" stroke-width="7.1801" stroke-miterlimit="10" x1="174.9" y1="196.9" x2="330.2" y2="196.9"/>
		<line fill="none" stroke="#374920" stroke-width="7.1801" stroke-miterlimit="10" x1="229.3" y1="211.8" x2="229.3" y2="56.6"/>
		<line fill="none" stroke="#374920" stroke-width="7.1801" stroke-miterlimit="10" x1="278.9" y1="211.8" x2="278.9" y2="56.6"/>
		<line fill="none" stroke="#374920" stroke-width="7.1801" stroke-miterlimit="10" x1="189.9" y1="211.8" x2="189.9" y2="56.6"/>
		<line fill="none" stroke="#374920" stroke-width="7.1801" stroke-miterlimit="10" x1="315.2" y1="211.8" x2="315.2" y2="56.6"/>
	</g>
</g>
</svg>
