<?xml version="1.0" encoding="utf-8"?>
<!-- Generator: Adobe Illustrator 18.0.0, SVG Export Plug-In . SVG Version: 6.00 Build 0)  -->
<!DOCTYPE svg PUBLIC "-//W3C//DTD SVG 1.1//EN" "http://www.w3.org/Graphics/SVG/1.1/DTD/svg11.dtd">
<svg version="1.1" id="Layer_2" xmlns="http://www.w3.org/2000/svg" xmlns:xlink="http://www.w3.org/1999/xlink" x="0px" y="0px"
	 viewBox="0 0 500 500" enable-background="new 0 0 500 500" xml:space="preserve">
<circle fill="#EAA694" stroke="#622918" stroke-width="4.3569" stroke-miterlimit="10" cx="249.5" cy="253.8" r="195.2"/>
<circle fill="#632918" cx="248" cy="57.6" r="15"/>
<circle fill="#632918" cx="54.3" cy="252.9" r="15"/>
<circle fill="#632918" cx="248" cy="449.1" r="15"/>
<circle fill="#632918" cx="444.5" cy="253.8" r="15"/>
<g>
	<circle fill="#632918" cx="125.7" cy="55.6" r="8"/>
	<circle fill="#632918" cx="383.7" cy="55.6" r="8"/>
	<line fill="none" stroke="#622918" stroke-width="7" stroke-miterlimit="10" x1="121.7" y1="55.6" x2="383.7" y2="55.6"/>
</g>
<g>
	<circle fill="#632918" cx="125.7" cy="449.1" r="8"/>
	<circle fill="#632918" cx="383.7" cy="449.1" r="8"/>
	<line fill="none" stroke="#622918" stroke-width="7" stroke-miterlimit="10" x1="121.7" y1="449.1" x2="383.7" y2="449.1"/>
</g>
<g>
	<circle fill="#632918" cx="54" cy="381.3" r="8"/>
	<circle fill="#632918" cx="54" cy="123.3" r="8"/>
	<line fill="none" stroke="#622918" stroke-width="7" stroke-miterlimit="10" x1="54" y1="385.3" x2="54" y2="123.3"/>
</g>
<g>
	<circle fill="#632918" cx="447.4" cy="381.3" r="8"/>
	<circle fill="#632918" cx="447.4" cy="123.3" r="8"/>
	<line fill="none" stroke="#622918" stroke-width="7" stroke-miterlimit="10" x1="447.4" y1="385.3" x2="447.4" y2="123.3"/>
</g>
<g>
	<path fill="#EAA694" d="M393.4,250.8h-39.5v12.5h24.4V299c-3.6,1.8-10.5,3.2-20.7,3.2c-28,0-46.3-18-46.3-48.4
		c0-30.1,19.1-48.3,48.3-48.3c12.1,0,20.1,2.3,26.5,5.2l3.7-12.6c-5.2-2.5-16-5.5-29.9-5.5c-40.3,0-64.8,26.2-65,62
		c0,18.7,6.4,34.7,16.7,44.7c11.8,11.2,26.7,15.9,44.9,15.9c16.2,0,29.9-4.1,36.9-6.6V250.8z M246.1,313.8l42.9-120h-16.6
		l-20.3,59.3c-5.3,15.7-10.3,30.8-13.7,44.7h-0.4c-3.2-14.1-7.7-28.7-12.8-44.9l-18.7-59.1h-16.7l39.2,120H246.1z M108.8,308
		c6.4,4.3,19.1,7.7,30.6,7.7c28.3,0,42-16,42-34.6c0-17.6-10.3-27.4-30.6-35.3c-16.6-6.4-23.9-11.9-23.9-23.2c0-8.2,6.2-18,22.6-18
		c10.9,0,18.9,3.6,22.8,5.7l4.3-12.6c-5.3-3-14.2-5.9-26.5-5.9c-23.3,0-38.8,13.9-38.8,32.6c0,16.9,12.1,27.1,31.7,34
		c16.2,6.2,22.6,12.6,22.6,23.9c0,12.1-9.3,20.5-25.1,20.5c-10.7,0-20.8-3.6-27.8-7.8L108.8,308z"/>
	<path fill="#622918" d="M393.4,250.8v-2.2h-41.7v16.8h24.4l0,33.6h2.2l-1-1.9c-3,1.5-9.8,3-19.7,3c-13.5,0-24.5-4.3-32.1-12.1
		c-7.6-7.8-12-19.3-12.1-34.1c0-14.6,4.6-26,12.5-33.9c7.9-7.8,19.4-12.2,33.6-12.2c11.8,0,19.5,2.2,25.7,5l2.3,1l5-16.8l-1.7-0.8
		c-5.6-2.7-16.6-5.7-30.9-5.7c-20.6,0-37.4,6.7-49.1,18.2c-11.7,11.5-18,27.6-18.1,46c0,19.2,6.6,35.8,17.4,46.3
		c12.2,11.7,27.9,16.5,46.4,16.5c16.6,0,30.5-4.2,37.6-6.7l1.4-0.5v-61.4h-2.2V250.8h-2.2v57.7h2.2l-0.7-2.1
		c-6.8,2.4-20.3,6.5-36.1,6.5c-17.8,0-32.1-4.5-43.4-15.2c-9.8-9.5-16.1-24.9-16.1-43.1c0.1-17.4,6.1-32.3,16.8-42.9
		c10.8-10.6,26.3-16.9,46-16.9c13.6,0,24.2,3,29,5.3l0.9-2l-2.1-0.6l-3.7,12.6l2.1,0.6l0.9-2c-6.6-3-15-5.4-27.4-5.4
		c-15,0-27.7,4.7-36.6,13.5c-8.9,8.8-13.8,21.5-13.8,37c0,15.7,4.7,28.4,13.3,37.2c8.5,8.8,20.8,13.5,35.2,13.5
		c10.4,0,17.5-1.4,21.6-3.4l1.2-0.6v-39.3H356V253h37.4V250.8h-2.2H393.4z M246.1,313.8l2.1,0.7l44-123h-21.2l-20.8,60.8
		c-5.3,15.7-10.4,30.9-13.8,44.9l2.1,0.5v-2.2h-0.4v2.2l2.1-0.5c-3.2-14.2-7.7-28.8-12.9-45.1l-19.2-60.6h-21.3L227.4,316h20.2
		l0.5-1.4L246.1,313.8v-2.2h-15.5L192.8,196l12.1,0l18.2,57.6c5.2,16.2,9.6,30.7,12.8,44.7l0.4,1.7h3.8l0.4-1.7
		c3.4-13.8,8.3-28.9,13.7-44.5L274,196h11.9L244,313.1L246.1,313.8v-2.2V313.8z M108.8,308l-1.2,1.8c7,4.6,19.8,8,31.8,8
		c14.6,0,25.7-4.1,33.1-10.9c7.5-6.8,11.1-16,11.1-25.8c0-9.2-2.8-16.8-8.3-22.8c-5.5-6-13.4-10.5-23.8-14.5
		c-8.2-3.2-13.9-6.1-17.5-9.3c-3.5-3.3-5-6.6-5-11.8c0-3.6,1.4-7.5,4.5-10.5c3.2-3,8.2-5.3,15.9-5.3c10.4,0,18,3.4,21.8,5.4l2.3,1.2
		l5.7-16.8l-1.6-0.9c-5.7-3.2-15-6.2-27.6-6.2c-12.1,0-22.3,3.6-29.6,9.8c-7.3,6.2-11.4,15-11.4,25c0,9,3.3,16.4,9.1,22.3
		c5.8,5.9,14,10.2,24,13.8l0.7-2.1l-0.8,2c8,3.1,13.3,6.1,16.6,9.5c3.2,3.4,4.6,7.1,4.6,12.3c0,5.5-2,9.9-5.8,13.1
		c-3.8,3.2-9.5,5.2-17.1,5.2c-10.2,0-20-3.4-26.6-7.5l-2.4-1.5l-5.2,17.3l1.3,0.9L108.8,308l2.1,0.6l3.9-13l-2.1-0.6l-1.1,1.9
		c7.3,4.5,17.8,8.1,28.9,8.2c8.3,0,15.1-2.2,19.9-6.2c4.8-4,7.4-9.8,7.4-16.5c0-6-1.8-11.2-5.8-15.3c-4-4.2-9.9-7.4-18.2-10.6l0,0
		l0,0c-9.6-3.4-17.3-7.6-22.4-12.7c-5.1-5.2-7.8-11.3-7.9-19.2c0-8.7,3.6-16.2,9.9-21.7c6.3-5.4,15.5-8.8,26.7-8.8
		c11.9,0,20.5,2.8,25.5,5.6l1.1-1.9l-2.1-0.7l-4.3,12.6l2.1,0.7l1-1.9c-4.1-2.2-12.5-6-23.8-6c-8.6,0-14.9,2.6-19,6.5
		c-4.1,3.9-5.8,9-5.8,13.6c0,6.1,2.1,11.1,6.4,15c4.3,3.9,10.5,7,18.8,10.2c10,3.9,17.3,8.1,22.1,13.4c4.8,5.3,7.1,11.4,7.1,19.8
		c0,8.7-3.2,16.7-9.7,22.6c-6.5,5.9-16.4,9.8-30.2,9.8c-11.1,0-23.6-3.4-29.4-7.3L108.8,308l2.1,0.6L108.8,308z"/>
</g>
</svg>
