<?xml version="1.0" encoding="UTF-8" standalone="no"?>
<!DOCTYPE svg PUBLIC "-//W3C//DTD SVG 1.1//EN" "http://www.w3.org/Graphics/SVG/1.1/DTD/svg11.dtd">
<svg width="100%" height="100%" viewBox="0 0 256 256" version="1.1" xmlns="http://www.w3.org/2000/svg" xmlns:xlink="http://www.w3.org/1999/xlink" xml:space="preserve" xmlns:serif="http://www.serif.com/" style="fill-rule:evenodd;clip-rule:evenodd;stroke-miterlimit:10;">
    <g transform="matrix(1.00787,0,0,1.024,-34.0186,-1453.73)">
        <rect id="music_mixing" x="33.753" y="1419.66" width="254" height="250" style="fill:none;"/>
        <clipPath id="_clip1">
            <rect id="music_mixing1" serif:id="music_mixing" x="33.753" y="1419.66" width="254" height="250"/>
        </clipPath>
        <g clip-path="url(#_clip1)">
            <g transform="matrix(0.473826,0,0,0.466364,43.1256,1426.44)">
                <path d="M119.5,481L63.5,481C56.9,481 51.5,475.6 51.5,469L51.5,38C51.5,31.4 56.9,26 63.5,26L119.5,26C126.1,26 131.5,31.4 131.5,38L131.5,469C131.5,475.6 126.1,481 119.5,481Z" style="fill:rgb(27,43,68);fill-rule:nonzero;"/>
                <path d="M119.5,497.752L63.5,497.752C47.686,497.752 34.748,484.814 34.748,469L34.748,38C34.748,22.186 47.686,9.248 63.5,9.248L119.5,9.248C135.314,9.248 148.252,22.186 148.252,38L148.252,469C148.252,484.814 135.314,497.752 119.5,497.752ZM119.5,481C126.1,481 131.5,475.6 131.5,469L131.5,38C131.5,31.4 126.1,26 119.5,26L63.5,26C56.9,26 51.5,31.4 51.5,38L51.5,469C51.5,475.6 56.9,481 63.5,481L119.5,481Z" style="fill:rgb(198,221,255);"/>
            </g>
            <g transform="matrix(0.473826,0,0,0.466364,43.1256,1426.44)">
                <path d="M278,481L222,481C215.4,481 210,475.6 210,469L210,38C210,31.4 215.4,26 222,26L278,26C284.6,26 290,31.4 290,38L290,469C290,475.6 284.6,481 278,481Z" style="fill:rgb(27,43,68);fill-rule:nonzero;"/>
                <path d="M278,497.752L222,497.752C206.186,497.752 193.248,484.814 193.248,469L193.248,38C193.248,22.186 206.186,9.248 222,9.248L278,9.248C293.814,9.248 306.752,22.186 306.752,38L306.752,469C306.752,484.814 293.814,497.752 278,497.752ZM278,481C284.6,481 290,475.6 290,469L290,38C290,31.4 284.6,26 278,26L222,26C215.4,26 210,31.4 210,38L210,469C210,475.6 215.4,481 222,481L278,481Z" style="fill:rgb(198,221,255);"/>
            </g>
            <g transform="matrix(0.473826,0,0,0.466364,43.1256,1426.44)">
                <path d="M436.5,481L380.5,481C373.9,481 368.5,475.6 368.5,469L368.5,38C368.5,31.4 373.9,26 380.5,26L436.5,26C443.1,26 448.5,31.4 448.5,38L448.5,469C448.5,475.6 443.1,481 436.5,481Z" style="fill:rgb(27,43,68);fill-rule:nonzero;"/>
                <path d="M436.5,497.752L380.5,497.752C364.686,497.752 351.748,484.814 351.748,469L351.748,38C351.748,22.186 364.686,9.248 380.5,9.248L436.5,9.248C452.314,9.248 465.252,22.186 465.252,38L465.252,469C465.252,484.814 452.314,497.752 436.5,497.752ZM436.5,481C443.1,481 448.5,475.6 448.5,469L448.5,38C448.5,31.4 443.1,26 436.5,26L380.5,26C373.9,26 368.5,31.4 368.5,38L368.5,469C368.5,475.6 373.9,481 380.5,481L436.5,481Z" style="fill:rgb(198,221,255);"/>
            </g>
            <g transform="matrix(0.473826,0,0,0.466364,43.1256,1426.44)">
                <path d="M91.5,40.3L91.5,463.9" style="fill:none;fill-rule:nonzero;stroke:rgb(60,80,109);stroke-width:6px;"/>
            </g>
            <g transform="matrix(0.473826,0,0,0.466364,43.1256,1426.44)">
                <path d="M250,40.3L250,463.9" style="fill:none;fill-rule:nonzero;stroke:rgb(60,80,109);stroke-width:6px;"/>
            </g>
            <g transform="matrix(0.473826,0,0,0.466364,43.1256,1426.44)">
                <path d="M408.6,40.3L408.6,463.9" style="fill:none;fill-rule:nonzero;stroke:rgb(60,80,109);stroke-width:6px;"/>
            </g>
            <g transform="matrix(0.473826,0,0,0.466364,43.1256,1426.44)">
                <path d="M151,215L28,215C21.4,215 16,209.6 16,203L16,80C16,73.4 21.4,68 28,68L151,68C157.6,68 163,73.4 163,80L163,203C163,209.6 157.6,215 151,215Z" style="fill:rgb(199,208,224);fill-rule:nonzero;"/>
                <path d="M151,223.376L28,223.376C16.793,223.376 7.624,214.207 7.624,203L7.624,80C7.624,68.793 16.793,59.624 28,59.624L151,59.624C162.207,59.624 171.376,68.793 171.376,80L171.376,203C171.376,214.207 162.207,223.376 151,223.376ZM151,215C157.6,215 163,209.6 163,203L163,80C163,73.4 157.6,68 151,68L28,68C21.4,68 16,73.4 16,80L16,203C16,209.6 21.4,215 28,215L151,215Z"/>
            </g>
            <g transform="matrix(0.473826,0,0,0.466364,43.1256,1426.44)">
                <path d="M48,109.4L132.2,109.4" style="fill:none;fill-rule:nonzero;stroke:rgb(70,33,100);stroke-width:15px;"/>
            </g>
            <g transform="matrix(0.473826,0,0,0.466364,43.1256,1426.44)">
                <path d="M48,141.5L132.2,141.5" style="fill:none;fill-rule:nonzero;stroke:rgb(70,33,100);stroke-width:15px;"/>
            </g>
            <g transform="matrix(0.473826,0,0,0.466364,43.1256,1426.44)">
                <path d="M48,176L132.2,176" style="fill:none;fill-rule:nonzero;stroke:rgb(70,33,100);stroke-width:15px;"/>
            </g>
            <g transform="matrix(0.473826,0,0,0.466364,43.1256,1426.44)">
                <path d="M309,450.5L186,450.5C179.4,450.5 174,445.1 174,438.5L174,315.5C174,308.9 179.4,303.5 186,303.5L309,303.5C315.6,303.5 321,308.9 321,315.5L321,438.5C321,445.1 315.6,450.5 309,450.5Z" style="fill:rgb(199,208,224);fill-rule:nonzero;"/>
                <path d="M309,458.876L186,458.876C174.793,458.876 165.624,449.707 165.624,438.5L165.624,315.5C165.624,304.293 174.793,295.124 186,295.124L309,295.124C320.207,295.124 329.376,304.293 329.376,315.5L329.376,438.5C329.376,449.707 320.207,458.876 309,458.876ZM309,450.5C315.6,450.5 321,445.1 321,438.5L321,315.5C321,308.9 315.6,303.5 309,303.5L186,303.5C179.4,303.5 174,308.9 174,315.5L174,438.5C174,445.1 179.4,450.5 186,450.5L309,450.5Z"/>
            </g>
            <g transform="matrix(0.473826,0,0,0.466364,43.1256,1426.44)">
                <path d="M207.9,347.8L292.1,347.8" style="fill:none;fill-rule:nonzero;stroke:rgb(70,33,100);stroke-width:15px;"/>
            </g>
            <g transform="matrix(0.473826,0,0,0.466364,43.1256,1426.44)">
                <path d="M207.9,380L292.1,380" style="fill:none;fill-rule:nonzero;stroke:rgb(70,33,100);stroke-width:15px;"/>
            </g>
            <g transform="matrix(0.473826,0,0,0.466364,43.1256,1426.44)">
                <path d="M207.9,414.5L292.1,414.5" style="fill:none;fill-rule:nonzero;stroke:rgb(70,33,100);stroke-width:15px;"/>
            </g>
            <g transform="matrix(0.473826,0,0,0.466364,43.1256,1426.44)">
                <path d="M468.5,297L345.5,297C338.9,297 333.5,291.6 333.5,285L333.5,162C333.5,155.4 338.9,150 345.5,150L468.5,150C475.1,150 480.5,155.4 480.5,162L480.5,285C480.5,291.6 475.1,297 468.5,297Z" style="fill:rgb(199,208,224);fill-rule:nonzero;"/>
                <path d="M468.5,305.376L345.5,305.376C334.293,305.376 325.124,296.207 325.124,285L325.124,162C325.124,150.793 334.293,141.624 345.5,141.624L468.5,141.624C479.707,141.624 488.876,150.793 488.876,162L488.876,285C488.876,296.207 479.707,305.376 468.5,305.376ZM468.5,297C475.1,297 480.5,291.6 480.5,285L480.5,162C480.5,155.4 475.1,150 468.5,150L345.5,150C338.9,150 333.5,155.4 333.5,162L333.5,285C333.5,291.6 338.9,297 345.5,297L468.5,297Z"/>
            </g>
            <g transform="matrix(0.473826,0,0,0.466364,43.1256,1426.44)">
                <path d="M366.5,190.2L450.7,190.2" style="fill:none;fill-rule:nonzero;stroke:rgb(70,33,100);stroke-width:15px;"/>
            </g>
            <g transform="matrix(0.473826,0,0,0.466364,43.1256,1426.44)">
                <path d="M366.5,222.3L450.7,222.3" style="fill:none;fill-rule:nonzero;stroke:rgb(70,33,100);stroke-width:15px;"/>
            </g>
            <g transform="matrix(0.473826,0,0,0.466364,43.1256,1426.44)">
                <path d="M366.5,256.8L450.7,256.8" style="fill:none;fill-rule:nonzero;stroke:rgb(70,33,100);stroke-width:15px;"/>
            </g>
        </g>
    </g>
</svg>
