<?xml version="1.0" encoding="utf-8"?>
<!-- Generator: Adobe Illustrator 18.0.0, SVG Export Plug-In . SVG Version: 6.00 Build 0)  -->
<!DOCTYPE svg PUBLIC "-//W3C//DTD SVG 1.1//EN" "http://www.w3.org/Graphics/SVG/1.1/DTD/svg11.dtd">
<svg version="1.1" id="Layer_1" xmlns="http://www.w3.org/2000/svg" xmlns:xlink="http://www.w3.org/1999/xlink" x="0px" y="0px"
	 viewBox="0 0 298 420" enable-background="new 0 0 298 420" xml:space="preserve">
<path fill="#63A814" d="M27,386L0,82h298l-27,304l-122,34L27,386z"/>
<path fill="#8ACF17" d="M149,393.8l98.5-27.3L270.7,107H149V393.8z"/>
<path id="J_1_" fill="#FFFFFF" d="M55.5,145l3.3,37h142.4l-10.7,123.9l-41.6,11.2l-41.5-11.2l-2.7-29.9H67.2l5.2,58.7l76.4,21.3
	l76.6-21.3l17-189.7H55.5z"/>
<path fill="#EBEBEB" d="M148.9,317.1l-41.5-11.2l-2.7-29.9H67.2l5.2,58.7l76.6,21.3L148.9,317.1z M58.8,182H149v-37H55.5L58.8,182z"
	/>
<path d="M97.5,0v36h-31v20h52V0H97.5z M128.5,0v20.8L151.4,38h-22.9v18h53V37.9L155.8,18h25.7V0H128.5z"/>
<polygon fill="#A7E25A" stroke="#DCE5B7" stroke-width="4" stroke-linecap="round" stroke-linejoin="round" stroke-miterlimit="10" points="
	270.7,121 242.5,121 242.5,92.8 210.5,92.8 210.5,121 182.3,121 182.3,152.9 210.5,152.9 210.5,181.1 242.5,181.1 242.5,152.9 
	270.7,152.9 "/>
<polygon points="246.9,18.6 228.3,18.6 228.3,0 207.3,0 207.3,18.6 188.7,18.6 188.7,39.6 207.3,39.6 207.3,58.1 228.3,58.1 
	228.3,39.6 246.9,39.6 "/>
</svg>
