<?xml version="1.0" encoding="utf-8"?>
<!-- Generator: Adobe Illustrator 18.0.0, SVG Export Plug-In . SVG Version: 6.00 Build 0)  -->
<!DOCTYPE svg PUBLIC "-//W3C//DTD SVG 1.1//EN" "http://www.w3.org/Graphics/SVG/1.1/DTD/svg11.dtd">
<svg version="1.1" id="Layer_2" xmlns="http://www.w3.org/2000/svg" xmlns:xlink="http://www.w3.org/1999/xlink" x="0px" y="0px"
	 viewBox="0 0 500 500" enable-background="new 0 0 500 500" xml:space="preserve">
<g>
	<path fill="#E2E2E2" d="M66.2,493.8c0,0-2.6-1.7-1.4-4.3l9.3-23.7l11.4-29l33.4-40.1c1.8-2.3,4.8,0.2,3,2.5l-27.3,43.1l-14.3,27.4
		l-11.2,21.5C68.3,493.1,66.2,493.8,66.2,493.8z"/>
</g>
<path fill="#8E5A24" d="M115.6,401.7c0,0,57.1,1.5,73.1-7.6c23.9-13.5,53-44.7,82.2-82.1c3.2-4.1,4.3-15.1,4.3-15.1
	s10.4-4.1,12.9-7.5C322.6,242.7,356,190.3,380,151c2.2-3.6-1.6-14.4-1.6-14.4s12-2.8,13.9-5.9c14.6-24.5,23.5-40.3,23.5-40.3
	s42.2-71.4,23.3-77.9c-46.9-16.3-169.5,97.3-169.5,97.3S242,141,209.3,182.1c-3.4,4.2-3.6,18.3-3.6,18.3s-12.2,1.9-15,5.6
	c-37.7,49.2-76.2,105.8-84,139.7C103.6,359.5,115.6,401.7,115.6,401.7z"/>
<path fill="none" stroke="#F4D8BE" stroke-width="4" stroke-linecap="round" stroke-miterlimit="10" d="M125.2,390.6
	c0,0,178.4-321.8,307-368.5"/>
<path fill="#F4D8BE" d="M163.4,358.9c0,0,40.9-28.6,77.3-25.1c3.5,0.3-3.1,12.6-6.6,12.5C217.6,346.2,163.4,358.9,163.4,358.9z"/>
<path fill="#F4D8BE" d="M253.9,210c0,0,29.1,28.6,65.4,25.1c3.5-0.3,14.6-20.2,11.9-17.8C317.3,229.4,253.9,210,253.9,210z"/>
<path fill="#F4D8BE" d="M391,54.8c0,0,17.8,10.7,38.2,3.6c2-0.7,5.6-13.6,4.4-11.9C427.2,55.5,391,54.8,391,54.8z"/>
<path fill="#F4D8BE" d="M270,155.7c0,0-5.1-22.1-2.3-40.6c0.4-2.9,16.1-14.1,13.9-12.2C272.7,110.5,270,155.7,270,155.7z"/>
<path fill="#F4D8BE" d="M348.8,71.4c0,0-4-7.8-4.5-18.4c-0.1-1.7,7-6,6.4-4.4C348.8,53.6,348.8,71.4,348.8,71.4z"/>
<path fill="#F4D8BE" d="M134,351.9c0,0,22.3-40.1,13.6-66.9c-0.9-2.6-12,10.7-11.4,13.3C138.7,310.8,134,351.9,134,351.9z"/>
<path fill="#2B2B2B" d="M77,458.6l-2.8,7.1l-9.3,23.7c-1.2,2.7,1.4,4.3,1.4,4.3s2.1-0.7,3-2.7l11.2-21.5l5.7-11H77z"/>
</svg>
