<?xml version="1.0" encoding="utf-8"?>
<!-- Generator: Adobe Illustrator 18.0.0, SVG Export Plug-In . SVG Version: 6.00 Build 0)  -->
<!DOCTYPE svg PUBLIC "-//W3C//DTD SVG 1.1//EN" "http://www.w3.org/Graphics/SVG/1.1/DTD/svg11.dtd">
<svg version="1.1" id="Layer_1" xmlns="http://www.w3.org/2000/svg" xmlns:xlink="http://www.w3.org/1999/xlink" x="0px" y="0px"
	 viewBox="0 0 500 500" enable-background="new 0 0 500 500" xml:space="preserve">
<path fill="#FFFFFF" d="M365,477.9l-268.5-24c-6.6-0.6-11.5-6.4-10.9-13L122.2,33c0.6-6.6,6.4-11.5,13-10.9l268.5,24
	c6.6,0.6,11.5,6.4,10.9,13L378,467C377.4,473.6,371.6,478.5,365,477.9z"/>
<g>
	<path fill="#EF4343" d="M172.2,74.1c-4.9,0.2-13.7,0.2-26.4-0.1c-4.4,9.9-7.8,14.7-10.4,14.4c-2-0.2-2.8-1.6-2.5-4.3
		c0.3-2.9,2.3-8.4,6.1-16.5c4-8.7,8.1-16,12.2-21.9c4.9-7,8.8-10.4,11.6-10.1l0.2,0c6.4,1.1,10.7,7.5,12.9,19.2
		c1.2,5.7,2.5,11.5,3.7,17.2c2,9.2,2.9,14.4,2.8,15.7c-0.2,2-1.3,3-3.1,3.1C176.6,90.8,174.2,85.2,172.2,74.1z M171,66.7
		c-2.2-13.9-5-21-8.5-21.4c-3.5-0.4-8.2,7-14.1,22.1C158.9,66.4,166.4,66.1,171,66.7z"/>
</g>
<g>
	<path fill="#EF4343" d="M356.5,447c-4.9,0.2-13.7,0.2-26.4-0.1c-4.4,9.9-7.8,14.7-10.4,14.4c-2-0.2-2.8-1.6-2.5-4.3
		c0.3-2.9,2.3-8.4,6.1-16.5c4-8.7,8.1-16,12.2-21.9c4.9-7,8.8-10.4,11.6-10.1l0.2,0c6.4,1.1,10.7,7.5,12.9,19.2
		c1.2,5.7,2.5,11.5,3.7,17.2c2,9.2,2.9,14.4,2.8,15.7c-0.2,2-1.3,3-3.1,3.1C360.9,463.7,358.5,458.2,356.5,447z M355.4,439.7
		c-2.2-13.9-5-21-8.5-21.4c-3.5-0.4-8.2,7-14.1,22.1C343.3,439.3,350.8,439.1,355.4,439.7z"/>
</g>
<path fill="#EF4343" d="M260.6,208.6c0,0-55.3-65.2-69.8-28.7c-30.7,77.1,59.4,145.9,59.4,145.9s88.1-57.2,78.3-133.5
	C323.6,154,260.6,208.6,260.6,208.6z"/>
</svg>
