<?xml version="1.0" encoding="UTF-8" standalone="no"?>
<!DOCTYPE svg PUBLIC "-//W3C//DTD SVG 1.1//EN" "http://www.w3.org/Graphics/SVG/1.1/DTD/svg11.dtd">
<svg width="100%" height="100%" viewBox="0 0 256 256" version="1.1" xmlns="http://www.w3.org/2000/svg" xmlns:xlink="http://www.w3.org/1999/xlink" xml:space="preserve" xmlns:serif="http://www.serif.com/" style="fill-rule:evenodd;clip-rule:evenodd;stroke-linejoin:round;stroke-miterlimit:2;">
    <g transform="matrix(1,0,0,1,-3072,0)">
        <g id="Design-Principles" transform="matrix(1.6,0,0,1.70667,-15165.5,-373.411)">
            <rect x="11398.4" y="218.796" width="160" height="150" style="fill:none;"/>
            <g id="Graphic-Design.svg" transform="matrix(0.311404,0.024515,-0.0261493,0.291941,11478.3,293.867)">
                <g transform="matrix(1,0,0,1,-250,-250)">
                    <g>
                        <path d="M176.6,285.2C176.6,285.2 280,114.8 325.7,75.3C343.5,60 392.6,23.7 408.6,39C425.4,55.1 399.2,114.3 387.6,136C360.1,187.4 226.6,321.3 226.6,321.3L176.6,285.2Z" style="fill:rgb(239,91,66);fill-rule:nonzero;"/>
                        <path d="M235.2,338.8L163.3,286.1C162,285.2 161.8,283.4 162.7,282.1L168,274.8C168.9,273.5 170.7,273.3 172,274.2L243.9,326.9C245.2,327.8 245.4,329.6 244.5,330.9L239.2,338.2C238.3,339.5 236.5,339.7 235.2,338.8Z" style="fill:rgb(247,147,41);fill-rule:nonzero;"/>
                        <path d="M113.7,452.3C113.8,449.4 113.9,445.8 113.9,445.8L133.9,427.6C133.9,427.6 165.9,424.9 172.5,419.7C198.2,399.3 208.9,345.6 208.9,345.6L220.9,328.4L173.6,293.8L163.1,308C163.1,308 108.5,341.4 101.3,365.1C98,376 107.9,405.5 107.9,405.5L98,432.4C98,432.4 98.2,434.3 96.6,434.3C86.9,434 78.9,441.6 78.6,451.3C78.3,461 85.9,469 95.6,469.3C105.4,469.5 113.4,462 113.7,452.3ZM98.5,450.1C101.1,446 104.7,440 109.2,433C113.7,425.9 119,417.8 124.8,409.1C127.7,404.8 130.7,400.3 133.8,395.7C134.5,394.7 135.2,393.7 135.9,392.7C133.1,389.7 131.5,385.7 131.6,381.3C131.9,372.5 139.2,365.5 148,365.8C150,365.9 151.9,366.3 153.7,367.1C156.5,363.1 159.4,359.2 162.1,355.3C168.2,346.8 174,339 179,332.3C184,325.6 188.4,320.2 191.3,316.3C194.3,312.5 196.1,310.3 196.1,310.3C196.1,310.3 194.7,312.7 192.1,316.9C189.5,321 185.9,327 181.4,334C176.9,341.1 171.6,349.2 165.8,357.9C163.2,361.7 160.6,365.7 157.9,369.7C161.4,372.7 163.6,377.3 163.5,382.3C163.2,391.1 155.9,398.1 147.1,397.8C144.5,397.7 142,397 139.9,395.8C139.3,396.7 138.6,397.7 138,398.6C134.9,403.1 131.7,407.4 128.6,411.7C122.5,420.2 116.7,428 111.7,434.7C106.7,441.4 102.3,446.8 99.4,450.7C96.4,454.5 94.6,456.7 94.6,456.7C94.6,456.7 96,454.3 98.5,450.1Z" style="fill:rgb(249,249,251);fill-rule:nonzero;"/>
                    </g>
                </g>
            </g>
            <g transform="matrix(0.625,0,0,0.585937,9798.41,218.796)">
                <circle cx="2635.32" cy="65.82" r="15" style="fill:rgb(239,91,66);"/>
            </g>
            <g transform="matrix(0.3125,0,0,0.292969,10635.6,224.7)">
                <circle cx="2635.32" cy="65.82" r="15" style="fill:rgb(239,91,66);"/>
            </g>
            <g transform="matrix(0.3125,0,0,0.292969,10607.5,251.067)">
                <circle cx="2635.32" cy="65.82" r="15" style="fill:rgb(239,91,66);"/>
            </g>
            <g transform="matrix(0.625,0,0,0.585937,9482.16,218.796)">
                <path d="M3238.32,209.32C3238.32,204.628 3234.51,200.82 3229.82,200.82L3212.82,200.82C3208.13,200.82 3204.32,204.628 3204.32,209.32L3204.32,226.32C3204.32,231.011 3208.13,234.82 3212.82,234.82L3229.82,234.82C3234.51,234.82 3238.32,231.011 3238.32,226.32L3238.32,209.32Z" style="fill:rgb(239,91,66);"/>
            </g>
            <g transform="matrix(0.625,0,0,0.585937,9510.28,218.796)">
                <path d="M3238.32,209.32C3238.32,204.628 3234.51,200.82 3229.82,200.82L3212.82,200.82C3208.13,200.82 3204.32,204.628 3204.32,209.32L3204.32,226.32C3204.32,231.011 3208.13,234.82 3212.82,234.82L3229.82,234.82C3234.51,234.82 3238.32,231.011 3238.32,226.32L3238.32,209.32Z" style="fill:rgb(239,91,66);"/>
            </g>
            <g transform="matrix(0.625,0,0,0.585937,9510.28,193.6)">
                <path d="M3238.32,209.32C3238.32,204.628 3234.51,200.82 3229.82,200.82L3212.82,200.82C3208.13,200.82 3204.32,204.628 3204.32,209.32L3204.32,226.32C3204.32,231.011 3208.13,234.82 3212.82,234.82L3229.82,234.82C3234.51,234.82 3238.32,231.011 3238.32,226.32L3238.32,209.32Z" style="fill:rgb(239,91,66);"/>
            </g>
        </g>
    </g>
</svg>
