<?xml version="1.0" encoding="UTF-8" standalone="no"?>
<!DOCTYPE svg PUBLIC "-//W3C//DTD SVG 1.1//EN" "http://www.w3.org/Graphics/SVG/1.1/DTD/svg11.dtd">
<svg width="100%" height="100%" viewBox="0 0 256 256" version="1.1" xmlns="http://www.w3.org/2000/svg" xmlns:xlink="http://www.w3.org/1999/xlink" xml:space="preserve" xmlns:serif="http://www.serif.com/" style="fill-rule:evenodd;clip-rule:evenodd;stroke-linecap:round;stroke-linejoin:round;stroke-miterlimit:1.5;">
    <g transform="matrix(1,0,0,1,-6656,0)">
        <g transform="matrix(1.6,0,0,1.70667,-11581.5,-373.411)">
            <rect id="learn_to_code" x="11398.4" y="218.796" width="160" height="150" style="fill:none;"/>
            <g id="learn_to_code1" serif:id="learn_to_code">
                <g transform="matrix(0.262579,0,0,0.246167,11436.6,231.653)">
                    <path d="M383.3,257.4C374.8,251.9 369,245.8 365.8,239.1C362.6,232.4 361,222.9 361,210.5L361,166C361,156.8 359.2,151 355.6,148.6C352,146.3 343.4,145.1 329.7,145.1L324,145.3L324,97C328.3,97 332.5,96.9 336.5,96.6L359.2,95.4L373.1,96C406.6,96 423.3,113.8 423.3,149.5L423.3,202C423.3,212 424.8,219.5 427.9,224.3C431,229.1 436.2,232.2 443.6,233.7L443.6,284.9C432.1,287.2 425.8,292.8 424.7,301.7L423.7,310.3C423.4,311.9 423.3,312.8 423.3,313L423.3,365.1C423.3,385.3 418.8,399.3 409.9,407.2C401,415.1 385.1,419 362.3,419L351.2,418.8L336.6,418.2L324.1,417.8L324.1,368.4L332.7,368.6C344.7,368.6 352.4,367.3 355.8,364.7C359.2,362.1 361,356.4 361,347.7L361,304.5C361,291.7 362.5,282.3 365.4,276.1C368.4,270 374.4,263.8 383.3,257.4Z" style="fill:rgb(0,64,36);fill-rule:nonzero;"/>
                    <path d="M443.509,304.807L442.614,312.499C442.563,312.938 442.497,313.375 442.416,313.809C442.39,313.945 442.365,314.089 442.342,314.224L442.342,365.1C442.342,392.404 434.571,410.763 422.541,421.441C411.201,431.507 391.351,438.042 362.3,438.042C362.186,438.042 362.071,438.041 361.957,438.039L350.857,437.839C350.711,437.836 350.564,437.832 350.418,437.826L335.905,437.229L323.491,436.832C313.217,436.503 305.058,428.079 305.058,417.8L305.058,368.4C305.058,363.273 307.126,358.363 310.793,354.78C314.46,351.197 319.417,349.244 324.543,349.363C324.543,349.363 332.903,349.558 332.987,349.557C336.094,349.541 339.399,349.262 341.911,348.99C341.94,348.542 341.958,348.102 341.958,347.7L341.958,304.5C341.958,288.025 344.419,276.012 348.152,268.032C348.204,267.92 348.258,267.808 348.313,267.696C349.947,264.374 352.17,260.968 355.027,257.519C352.407,254.209 350.284,250.796 348.617,247.307C344.49,238.665 341.958,226.494 341.958,210.5L341.958,166C341.958,165.636 341.946,165.245 341.924,164.846C338.667,164.514 334.234,164.16 330.014,164.143L324.668,164.33C319.505,164.511 314.49,162.587 310.774,158.999C307.057,155.41 304.958,150.466 304.958,145.3L304.958,97C304.958,86.483 313.483,77.958 324,77.958C327.81,77.958 331.532,77.877 335.076,77.611C335.215,77.601 335.355,77.592 335.495,77.585L358.195,76.385C358.803,76.352 359.413,76.35 360.021,76.376C360.021,76.376 373.532,76.959 373.498,76.959C396.377,77.04 413.191,84.122 424.649,96.333C435.792,108.209 442.342,125.714 442.342,149.5L442.342,202C442.342,207.301 442.253,211.425 443.896,213.969C444.514,214.926 445.908,214.739 447.383,215.038C456.261,216.837 462.642,224.642 462.642,233.7L462.642,284.9C462.642,293.977 456.235,301.792 447.334,303.572C446.045,303.83 444.387,304.455 443.509,304.807ZM383.3,257.4C374.4,263.8 368.4,270 365.4,276.1C362.5,282.3 361,291.7 361,304.5L361,347.7C361,356.4 359.2,362.1 355.8,364.7C352.4,367.3 344.7,368.6 332.7,368.6L324.1,368.4L324.1,417.8L336.6,418.2L351.2,418.8L362.3,419C385.1,419 401,415.1 409.9,407.2C418.8,399.3 423.3,385.3 423.3,365.1L423.3,313C423.3,312.8 423.4,311.9 423.7,310.3L424.7,301.7C425.8,292.8 432.1,287.2 443.6,284.9L443.6,233.7C436.2,232.2 431,229.1 427.9,224.3C424.8,219.5 423.3,212 423.3,202L423.3,149.5C423.3,113.8 406.6,96 373.1,96L359.2,95.4L336.5,96.6C332.5,96.9 328.3,97 324,97L324,145.3L329.7,145.1C343.4,145.1 352,146.3 355.6,148.6C359.2,151 361,156.8 361,166L361,210.5C361,222.9 362.6,232.4 365.8,239.1C369,245.8 374.8,251.9 383.3,257.4Z" style="fill:rgb(222,222,222);"/>
                </g>
                <g transform="matrix(-0.262579,0,0,0.246167,11520.4,231.653)">
                    <path d="M383.3,257.4C374.8,251.9 369,245.8 365.8,239.1C362.6,232.4 361,222.9 361,210.5L361,166C361,156.8 359.2,151 355.6,148.6C352,146.3 343.4,145.1 329.7,145.1L324,145.3L324,97C328.3,97 332.5,96.9 336.5,96.6L359.2,95.4L373.1,96C406.6,96 423.3,113.8 423.3,149.5L423.3,202C423.3,212 424.8,219.5 427.9,224.3C431,229.1 436.2,232.2 443.6,233.7L443.6,284.9C432.1,287.2 425.8,292.8 424.7,301.7L423.7,310.3C423.4,311.9 423.3,312.8 423.3,313L423.3,365.1C423.3,385.3 418.8,399.3 409.9,407.2C401,415.1 385.1,419 362.3,419L351.2,418.8L336.6,418.2L324.1,417.8L324.1,368.4L332.7,368.6C344.7,368.6 352.4,367.3 355.8,364.7C359.2,362.1 361,356.4 361,347.7L361,304.5C361,291.7 362.5,282.3 365.4,276.1C368.4,270 374.4,263.8 383.3,257.4Z" style="fill:rgb(0,64,36);fill-rule:nonzero;"/>
                    <path d="M341.924,164.846C341.946,165.245 341.958,165.636 341.958,166L341.958,210.5C341.958,226.494 344.49,238.665 348.617,247.307C350.284,250.795 352.407,254.209 355.027,257.519C352.17,260.968 349.947,264.374 348.313,267.696C348.258,267.808 348.204,267.92 348.152,268.032C344.419,276.012 341.958,288.025 341.958,304.5L341.958,347.7C341.958,348.102 341.94,348.542 341.911,348.99C339.378,349.264 336.036,349.546 332.903,349.558L324.543,349.363C319.417,349.244 314.46,351.197 310.793,354.78C307.126,358.363 305.058,363.273 305.058,368.4L305.058,417.8C305.058,428.079 313.217,436.503 323.491,436.832L335.905,437.229L350.418,437.826C350.564,437.832 350.711,437.836 350.857,437.839L361.957,438.039C362.071,438.041 362.186,438.042 362.3,438.042C391.351,438.042 411.201,431.507 422.541,421.441C434.571,410.763 442.342,392.404 442.342,365.1L442.342,314.224C442.365,314.089 442.39,313.945 442.416,313.809C442.497,313.375 442.563,312.938 442.614,312.499C442.614,312.499 443.266,306.896 443.509,304.807C444.387,304.455 446.045,303.83 447.334,303.572C456.235,301.792 462.642,293.977 462.642,284.9L462.642,233.7C462.642,224.642 456.261,216.837 447.383,215.038C445.908,214.739 444.514,214.926 443.896,213.969C442.253,211.425 442.342,207.301 442.342,202L442.342,149.5C442.342,125.714 435.792,108.209 424.649,96.333C413.196,84.127 396.389,77.045 373.532,76.959L360.021,76.376C359.413,76.35 358.803,76.352 358.195,76.385L335.495,77.585C335.355,77.592 335.215,77.601 335.076,77.611C331.532,77.877 327.81,77.958 324,77.958C313.483,77.958 304.958,86.483 304.958,97L304.958,145.3C304.958,150.466 307.057,155.41 310.774,158.999C314.49,162.587 319.505,164.511 324.668,164.33C324.668,164.33 330.014,164.143 330.053,164.143C334.259,164.162 338.676,164.515 341.924,164.846ZM383.3,257.4C374.8,251.9 369,245.8 365.8,239.1C362.6,232.4 361,222.9 361,210.5L361,166C361,156.8 359.2,151 355.6,148.6C352,146.3 343.4,145.1 329.7,145.1L324,145.3L324,97C328.3,97 332.5,96.9 336.5,96.6L359.2,95.4L373.1,96C406.6,96 423.3,113.8 423.3,149.5L423.3,202C423.3,212 424.8,219.5 427.9,224.3C431,229.1 436.2,232.2 443.6,233.7L443.6,284.9C432.1,287.2 425.8,292.8 424.7,301.7L423.7,310.3C423.4,311.9 423.3,312.8 423.3,313L423.3,365.1C423.3,385.3 418.8,399.3 409.9,407.2C401,415.1 385.1,419 362.3,419L351.2,418.8L336.6,418.2L324.1,417.8L324.1,368.4L332.7,368.6C344.7,368.6 352.4,367.3 355.8,364.7C359.2,362.1 361,356.4 361,347.7L361,304.5C361,291.7 362.5,282.3 365.4,276.1C368.4,270 374.4,263.8 383.3,257.4Z" style="fill:rgb(222,222,222);"/>
                </g>
                <g transform="matrix(1,0,0,1,0,2.92969)">
                    <g opacity="0.75">
                        <g transform="matrix(0.381603,0,0,0.357753,9097.71,133.965)">
                            <path d="M6236.24,525.43C6236.24,525.43 6267.4,509.612 6290.73,511.556C6322.73,514.223 6342.48,524.942 6342.48,524.942L6347.57,382.763C6347.57,382.763 6320.24,364.763 6289.57,364.763C6260.24,364.763 6236.91,380.096 6236.91,380.096L6236.24,525.43Z" style="fill:rgb(196,56,18);"/>
                        </g>
                        <g transform="matrix(-0.381603,0,0,0.357753,13859.1,133.965)">
                            <path d="M6236.24,525.43C6236.24,525.43 6266.85,509.066 6290.18,511.01C6322.18,513.677 6343.03,523.304 6343.03,523.304L6347.57,382.763C6347.57,382.763 6320.24,364.763 6289.57,364.763C6260.24,364.763 6236.91,380.096 6236.91,380.096L6236.24,525.43Z" style="fill:rgb(196,56,18);"/>
                        </g>
                    </g>
                </g>
                <g transform="matrix(1,0,0,1,0.371251,0.724729)">
                    <g transform="matrix(0.381603,0,0,0.357753,9097.34,133.24)">
                        <path d="M6236.24,525.43C6236.24,525.43 6266.85,507.428 6290.18,509.372C6322.18,512.039 6343.57,528.763 6343.57,528.763L6347.57,382.763C6347.57,382.763 6320.24,364.763 6289.57,364.763C6260.24,364.763 6236.91,380.096 6236.91,380.096L6236.24,525.43Z" style="fill:rgb(255,98,55);stroke:rgb(255,98,55);stroke-width:6.55px;"/>
                    </g>
                    <g transform="matrix(-0.381603,0,0,0.357753,13858.7,133.24)">
                        <path d="M6236.24,525.43C6236.24,525.43 6266.85,507.428 6290.18,509.372C6322.18,512.039 6343.57,528.763 6343.57,528.763L6347.57,382.763C6347.57,382.763 6320.24,364.763 6289.57,364.763C6260.24,364.763 6236.91,380.096 6236.91,380.096L6236.24,525.43Z" style="fill:rgb(250,122,86);stroke:rgb(255,98,55);stroke-width:6.55px;"/>
                    </g>
                    <g transform="matrix(0.625,0,0,0.585937,7078.04,218.071)">
                        <path d="M7038.52,174.422C7032.68,171.416 7019.34,165.328 7008.55,166.227C6989.02,167.855 6975.95,178.066 6975.95,178.066L6973.51,88.924C6973.51,88.924 6990.2,77.934 7008.93,77.934C7023.93,77.934 7036.36,84.503 7040,86.636C7043.64,84.503 7056.07,77.934 7071.07,77.934C7089.8,77.934 7106.49,88.924 7106.49,88.924L7104.05,178.066C7104.05,178.066 7090.99,167.855 7071.45,166.227C7060.66,165.328 7047.32,171.416 7041.48,174.422L7041.49,176.031C7041.49,176.031 7040.95,175.718 7040,175.202C7039.05,175.718 7038.51,176.031 7038.51,176.031L7038.52,174.422Z" style="fill:none;stroke:rgb(53,11,0);stroke-width:8px;"/>
                    </g>
                    <g transform="matrix(0.353979,0,0,0.331856,9545.45,251.151)">
                        <g transform="matrix(129.679,0,0,129.679,5549.81,164.703)">
                        </g>
                        <text x="5375.39px" y="164.703px" style="font-family:'Dosis-ExtraBold', 'Dosis';font-weight:800;font-size:129.679px;fill:rgb(250,213,86);stroke:rgb(255,98,55);stroke-width:1px;stroke-linecap:butt;stroke-miterlimit:2;">&lt;/&gt;</text>
                    </g>
                </g>
            </g>
        </g>
    </g>
</svg>
