<?xml version="1.0" encoding="UTF-8" standalone="no"?>
<!DOCTYPE svg PUBLIC "-//W3C//DTD SVG 1.1//EN" "http://www.w3.org/Graphics/SVG/1.1/DTD/svg11.dtd">
<svg width="100%" height="100%" viewBox="0 0 256 256" version="1.1" xmlns="http://www.w3.org/2000/svg" xmlns:xlink="http://www.w3.org/1999/xlink" xml:space="preserve" xmlns:serif="http://www.serif.com/" style="fill-rule:evenodd;clip-rule:evenodd;stroke-linejoin:round;stroke-miterlimit:2;">
    <g transform="matrix(1,0,0,1,-6912,0)">
        <g id="Learn-to-Code" transform="matrix(1.6,0,0,1.70667,-11325.5,-373.411)">
            <rect x="11398.4" y="218.796" width="160" height="150" style="fill:none;"/>
            <g transform="matrix(0.262579,0,0,0.246167,11436.6,231.653)">
                <path d="M383.3,257.4C374.8,251.9 369,245.8 365.8,239.1C362.6,232.4 361,222.9 361,210.5L361,166C361,156.8 359.2,151 355.6,148.6C352,146.3 343.4,145.1 329.7,145.1L324,145.3L324,97C328.3,97 332.5,96.9 336.5,96.6L359.2,95.4L373.1,96C406.6,96 423.3,113.8 423.3,149.5L423.3,202C423.3,212 424.8,219.5 427.9,224.3C431,229.1 436.2,232.2 443.6,233.7L443.6,284.9C432.1,287.2 425.8,292.8 424.7,301.7L423.7,310.3C423.4,311.9 423.3,312.8 423.3,313L423.3,365.1C423.3,385.3 418.8,399.3 409.9,407.2C401,415.1 385.1,419 362.3,419L351.2,418.8L336.6,418.2L324.1,417.8L324.1,368.4L332.7,368.6C344.7,368.6 352.4,367.3 355.8,364.7C359.2,362.1 361,356.4 361,347.7L361,304.5C361,291.7 362.5,282.3 365.4,276.1C368.4,270 374.4,263.8 383.3,257.4Z" style="fill:rgb(0,64,36);fill-rule:nonzero;"/>
            </g>
            <g transform="matrix(-0.262579,0,0,0.246167,11520.4,231.653)">
                <path d="M383.3,257.4C374.8,251.9 369,245.8 365.8,239.1C362.6,232.4 361,222.9 361,210.5L361,166C361,156.8 359.2,151 355.6,148.6C352,146.3 343.4,145.1 329.7,145.1L324,145.3L324,97C328.3,97 332.5,96.9 336.5,96.6L359.2,95.4L373.1,96C406.6,96 423.3,113.8 423.3,149.5L423.3,202C423.3,212 424.8,219.5 427.9,224.3C431,229.1 436.2,232.2 443.6,233.7L443.6,284.9C432.1,287.2 425.8,292.8 424.7,301.7L423.7,310.3C423.4,311.9 423.3,312.8 423.3,313L423.3,365.1C423.3,385.3 418.8,399.3 409.9,407.2C401,415.1 385.1,419 362.3,419L351.2,418.8L336.6,418.2L324.1,417.8L324.1,368.4L332.7,368.6C344.7,368.6 352.4,367.3 355.8,364.7C359.2,362.1 361,356.4 361,347.7L361,304.5C361,291.7 362.5,282.3 365.4,276.1C368.4,270 374.4,263.8 383.3,257.4Z" style="fill:rgb(0,64,36);fill-rule:nonzero;"/>
            </g>
            <g transform="matrix(1,0,0,1,0,2.92969)">
                <g opacity="0.75">
                    <g transform="matrix(0.381603,0,0,0.357753,9097.71,133.965)">
                        <path d="M6236.24,525.43C6236.24,525.43 6267.4,509.612 6290.73,511.556C6322.73,514.223 6342.48,524.942 6342.48,524.942L6347.57,382.763C6347.57,382.763 6320.24,364.763 6289.57,364.763C6260.24,364.763 6236.91,380.096 6236.91,380.096L6236.24,525.43Z" style="fill:rgb(196,56,18);"/>
                    </g>
                    <g transform="matrix(-0.381603,0,0,0.357753,13859.1,133.965)">
                        <path d="M6236.24,525.43C6236.24,525.43 6266.85,509.066 6290.18,511.01C6322.18,513.677 6343.03,523.304 6343.03,523.304L6347.57,382.763C6347.57,382.763 6320.24,364.763 6289.57,364.763C6260.24,364.763 6236.91,380.096 6236.91,380.096L6236.24,525.43Z" style="fill:rgb(196,56,18);"/>
                    </g>
                </g>
            </g>
            <g transform="matrix(1,0,0,1,0.371251,0.724729)">
                <g transform="matrix(0.381603,0,0,0.357753,9097.34,133.24)">
                    <path d="M6236.24,525.43C6236.24,525.43 6266.85,507.428 6290.18,509.372C6322.18,512.039 6343.57,528.763 6343.57,528.763L6347.57,382.763C6347.57,382.763 6320.24,364.763 6289.57,364.763C6260.24,364.763 6236.91,380.096 6236.91,380.096L6236.24,525.43Z" style="fill:rgb(255,98,55);"/>
                </g>
                <g transform="matrix(-0.381603,0,0,0.357753,13858.7,133.24)">
                    <path d="M6236.24,525.43C6236.24,525.43 6266.85,507.428 6290.18,509.372C6322.18,512.039 6343.57,528.763 6343.57,528.763L6347.57,382.763C6347.57,382.763 6320.24,364.763 6289.57,364.763C6260.24,364.763 6236.91,380.096 6236.91,380.096L6236.24,525.43Z" style="fill:rgb(250,122,86);"/>
                </g>
                <g transform="matrix(0.353979,0,0,0.331856,9545.45,251.151)">
                    <g transform="matrix(129.679,0,0,129.679,5549.81,164.703)">
                    </g>
                    <text x="5375.39px" y="164.703px" style="font-family:'Dosis-ExtraBold', 'Dosis';font-weight:800;font-size:129.679px;fill:rgb(250,213,86);">&lt;/&gt;</text>
                </g>
            </g>
        </g>
    </g>
</svg>
