<?xml version="1.0" encoding="UTF-8" standalone="no"?>
<!DOCTYPE svg PUBLIC "-//W3C//DTD SVG 1.1//EN" "http://www.w3.org/Graphics/SVG/1.1/DTD/svg11.dtd">
<svg width="100%" height="100%" viewBox="0 0 256 256" version="1.1" xmlns="http://www.w3.org/2000/svg" xmlns:xlink="http://www.w3.org/1999/xlink" xml:space="preserve" xmlns:serif="http://www.serif.com/" style="fill-rule:evenodd;clip-rule:evenodd;stroke-linejoin:round;stroke-miterlimit:2;">
    <g transform="matrix(1,0,0,1,-1280,-1536)">
        <g transform="matrix(1.6,0,0,1.70667,-16957.5,1162.59)">
            <rect id="writing" x="11398.4" y="218.796" width="160" height="150" style="fill:none;"/>
            <g id="writing1" serif:id="writing">
                <g>
                    <g transform="matrix(0.625,0,0,0.585937,10598.4,-681.204)">
                        <path d="M1423.92,1602.9C1423.77,1603.07 1423.66,1603.15 1423.66,1603.15L1423.92,1602.9ZM1482.25,1561.29C1490.51,1554.25 1495.92,1549.76 1495.92,1549.76L1514.54,1562.42C1514.54,1562.42 1449.23,1665.65 1435.57,1668.15C1430.87,1669 1400.74,1648.34 1400.29,1643.63C1399.28,1633.94 1449.73,1589.18 1477.75,1565.14L1469.5,1559.47L1423.92,1602.9C1424.8,1601.96 1427.21,1598.28 1420.01,1591.54L1468.5,1545.85L1482.25,1561.29ZM1370.52,1694.53C1369.12,1681.11 1405.05,1653.24 1405.05,1653.24L1423.66,1665.9C1423.66,1665.9 1399.09,1703.73 1385.38,1706.23C1380.73,1707.09 1371.02,1699.23 1370.52,1694.53ZM1366.52,1697.73L1381.08,1710.04C1381.08,1710.04 1380.68,1752.97 1370.22,1751.42C1352.36,1748.82 1301.46,1782.15 1301.46,1782.15C1301.46,1782.15 1339.14,1736.66 1327.18,1716.24C1321.68,1706.88 1366.52,1697.73 1366.52,1697.73ZM1352.86,1733.21C1354.96,1733.21 1356.61,1731.51 1356.61,1729.45C1356.61,1727.4 1354.91,1725.7 1352.86,1725.7C1350.8,1725.7 1349.1,1727.4 1349.1,1729.45C1349.1,1731.51 1350.8,1733.21 1352.86,1733.21Z" style="fill:rgb(138,81,160);"/>
                        <path d="M1362.93,1690.32C1363.97,1685.62 1366.82,1680.15 1371.08,1674.74C1378.28,1665.6 1389.12,1656.03 1395.33,1650.84C1394.95,1650.39 1394.62,1649.98 1394.36,1649.6C1392.99,1647.61 1392.47,1645.78 1392.33,1644.44C1392.18,1642.9 1392.34,1641 1393.12,1638.83C1394,1636.36 1395.95,1633.03 1398.94,1629.16C1403.29,1623.54 1410.11,1616.29 1418.11,1608.4C1415.86,1606.03 1415.34,1602.6 1416.58,1599.73C1416.11,1599.1 1415.38,1598.16 1414.55,1597.38C1412.93,1595.88 1412.01,1593.77 1412.01,1591.56C1412.01,1589.35 1412.91,1587.23 1414.52,1585.72L1463.01,1540.03C1464.59,1538.55 1466.69,1537.77 1468.85,1537.86C1471.01,1537.96 1473.04,1538.92 1474.47,1540.53L1483.03,1550.13C1487.88,1546.04 1490.82,1543.6 1490.82,1543.6C1493.56,1541.32 1497.47,1541.14 1500.42,1543.14L1519.04,1555.8C1522.6,1558.23 1523.6,1563.05 1521.3,1566.69C1521.3,1566.69 1479.06,1633.41 1455.11,1661.4C1450.41,1666.88 1446.29,1670.98 1443.21,1673.17C1440.83,1674.87 1438.68,1675.72 1437.01,1676.02L1437,1676.03C1435.56,1676.29 1433.11,1676.23 1430.05,1675.08C1429.37,1674.82 1428.61,1674.5 1427.78,1674.11C1423.46,1680.38 1414.38,1693.01 1405.37,1702.06C1399.71,1707.75 1393.83,1711.92 1388.95,1713.55C1388.58,1721.78 1387.18,1742.59 1382.42,1751.49C1379.08,1757.72 1374.16,1760.09 1369.07,1759.34C1364.68,1758.7 1357.99,1761.16 1350.6,1764.28C1330.09,1772.94 1305.85,1788.84 1305.85,1788.84C1302.54,1791.01 1298.14,1790.43 1295.5,1787.48C1292.86,1784.53 1292.78,1780.09 1295.3,1777.04C1295.3,1777.04 1308.2,1761.49 1316.06,1744.85C1318.48,1739.73 1320.43,1734.52 1321.2,1729.68C1321.76,1726.16 1321.8,1722.89 1320.29,1720.3C1318.05,1716.49 1318.13,1712.69 1320.25,1708.95C1321.74,1706.33 1324.94,1703.43 1329.55,1701.03C1339.45,1695.85 1357.05,1691.64 1362.93,1690.32ZM1418.05,1597.47L1419.73,1601.32L1418.15,1597.36C1418.12,1597.4 1418.09,1597.43 1418.05,1597.47ZM1418.31,1597.2L1418.39,1597.12L1421.57,1605.03C1422.17,1604.44 1422.79,1603.85 1423.41,1603.25C1423.36,1602.8 1423.31,1602.34 1423.25,1601.89L1418.4,1597.11L1418.53,1596.99C1418.45,1597.06 1418.38,1597.13 1418.31,1597.2ZM1366.52,1697.73C1366.52,1697.73 1321.68,1706.88 1327.18,1716.24C1339.14,1736.66 1301.46,1782.15 1301.46,1782.15C1301.46,1782.15 1352.36,1748.82 1370.22,1751.42C1380.68,1752.97 1381.08,1710.04 1381.08,1710.04L1366.52,1697.73ZM1484.83,1568.86C1484.36,1569.75 1483.73,1570.55 1482.95,1571.21C1463.56,1587.85 1433.29,1614.51 1417.22,1632.31C1414.24,1635.6 1411.35,1639.6 1409.67,1642.02L1434.63,1659.24C1437.72,1656.14 1445.82,1647.82 1452.3,1639.35C1470.81,1615.16 1494.23,1579.25 1503.61,1564.66C1503.61,1564.66 1496.42,1559.77 1496.42,1559.77C1494.12,1561.7 1491.05,1564.29 1487.44,1567.37C1486.65,1568.05 1485.76,1568.55 1484.83,1568.86ZM1423.92,1602.9L1469.5,1559.47L1477.75,1565.14C1449.73,1589.18 1399.28,1633.94 1400.29,1643.63C1400.74,1648.34 1430.87,1669 1435.57,1668.15C1449.23,1665.65 1514.54,1562.42 1514.54,1562.42L1495.92,1549.76C1495.92,1549.76 1490.51,1554.25 1482.25,1561.29L1468.5,1545.85L1420.01,1591.54C1427.21,1598.28 1424.8,1601.96 1423.92,1602.9ZM1423.92,1602.9L1423.66,1603.15C1423.66,1603.15 1423.77,1603.07 1423.92,1602.9ZM1370.52,1694.53C1371.02,1699.23 1380.73,1707.09 1385.38,1706.23C1399.09,1703.73 1423.66,1665.9 1423.66,1665.9L1405.05,1653.24C1405.05,1653.24 1369.12,1681.11 1370.52,1694.53Z" style="fill:rgb(240,200,255);"/>
                    </g>
                    <g transform="matrix(1,0,0,1,-5.68921,-3.54273)">
                        <g transform="matrix(0.312755,0,0,0.293208,11405.4,223.45)">
                            <path d="M176.6,313C173.8,286.2 245.6,230.5 245.6,230.5L282.8,255.8C282.8,255.8 233.7,331.4 206.3,336.4C197,338.1 177.6,322.4 176.6,313Z" style="fill:rgb(138,81,160);fill-rule:nonzero;"/>
                        </g>
                        <g transform="matrix(0.312755,0,0,0.293208,11405.4,223.45)">
                            <path d="M236.1,211.3C233.3,184.5 427.2,23.7 427.2,23.7L464.4,49C464.4,49 333.9,255.3 306.6,260.3C297.2,262 237,220.7 236.1,211.3Z" style="fill:rgb(138,81,160);fill-rule:nonzero;"/>
                        </g>
                        <g transform="matrix(0.312755,0,0,0.293208,11405.4,223.45)">
                            <path d="M282.8,130.4C282.8,130.4 292.4,123 275.5,107.2L372.4,15.9L414.1,62.7L405.2,64.3L374.4,43.1L282.8,130.4Z" style="fill:rgb(138,81,160);fill-rule:nonzero;"/>
                        </g>
                        <g transform="matrix(0.312755,0,0,0.293208,11405.4,223.45)">
                            <path d="M168.6,319.4C168.6,319.4 79,337.7 90,356.4C113.9,397.2 38.6,488.1 38.6,488.1C38.6,488.1 140.3,421.5 176,426.7C196.9,429.8 197.7,344 197.7,344L168.6,319.4ZM141.3,390.3C137.2,390.3 133.8,386.9 133.8,382.8C133.8,378.7 137.2,375.3 141.3,375.3C145.4,375.3 148.8,378.7 148.8,382.8C148.8,386.9 145.5,390.3 141.3,390.3Z" style="fill:rgb(138,81,160);fill-rule:nonzero;"/>
                        </g>
                    </g>
                </g>
            </g>
        </g>
    </g>
</svg>
