<?xml version="1.0" encoding="utf-8"?>
<!-- Generator: Adobe Illustrator 18.0.0, SVG Export Plug-In . SVG Version: 6.00 Build 0)  -->
<!DOCTYPE svg PUBLIC "-//W3C//DTD SVG 1.1//EN" "http://www.w3.org/Graphics/SVG/1.1/DTD/svg11.dtd">
<svg version="1.1" id="Layer_1" xmlns="http://www.w3.org/2000/svg" xmlns:xlink="http://www.w3.org/1999/xlink" x="0px" y="0px"
	 viewBox="0 0 500 500" enable-background="new 0 0 500 500" xml:space="preserve">
<path fill="#8A51A0" d="M176.6,313c-2.8-26.8,69-82.5,69-82.5l37.2,25.3c0,0-49.1,75.6-76.5,80.6C197,338.1,177.6,322.4,176.6,313z"
	/>
<path fill="#8A51A0" d="M236.1,211.3c-2.8-26.8,191.1-187.6,191.1-187.6L464.4,49c0,0-130.5,206.3-157.8,211.3
	C297.2,262,237,220.7,236.1,211.3z"/>
<g>
	<path fill="#8A51A0" d="M282.8,130.4c0,0,9.6-7.4-7.3-23.2l96.9-91.3l41.7,46.8l-8.9,1.6l-30.8-21.2L282.8,130.4z"/>
</g>
<path fill="#8A51A0" d="M168.6,319.4c0,0-89.6,18.3-78.6,37c23.9,40.8-51.4,131.7-51.4,131.7s101.7-66.6,137.4-61.4
	c20.9,3.1,21.7-82.7,21.7-82.7L168.6,319.4z M141.3,390.3c-4.1,0-7.5-3.4-7.5-7.5s3.4-7.5,7.5-7.5c4.1,0,7.5,3.4,7.5,7.5
	S145.5,390.3,141.3,390.3z"/>
</svg>
