<?xml version="1.0" encoding="UTF-8" standalone="no"?>
<!DOCTYPE svg PUBLIC "-//W3C//DTD SVG 1.1//EN" "http://www.w3.org/Graphics/SVG/1.1/DTD/svg11.dtd">
<svg width="100%" height="100%" viewBox="0 0 256 256" version="1.1" xmlns="http://www.w3.org/2000/svg" xmlns:xlink="http://www.w3.org/1999/xlink" xml:space="preserve" xmlns:serif="http://www.serif.com/" style="fill-rule:evenodd;clip-rule:evenodd;stroke-linecap:round;stroke-linejoin:round;stroke-miterlimit:1.5;">
    <g transform="matrix(1,0,0,1,-3584,0)">
        <g transform="matrix(1.6,0,0,1.70667,-14653.5,-373.411)">
            <rect id="productivity" x="11398.4" y="218.796" width="160" height="150" style="fill:none;"/>
            <g id="productivity1" serif:id="productivity">
                <g>
                    <g transform="matrix(1,0,0,0.875,5.8978,47.5679)">
                        <g transform="matrix(0.625,0,0,0.462582,9300.7,246.433)">
                            <path d="M3431.56,139.604C3431.56,130.283 3426.34,122.715 3419.9,122.715L3396.56,122.715C3390.12,122.715 3384.9,130.283 3384.9,139.604L3384.9,207.16C3384.9,216.481 3390.12,224.048 3396.56,224.048L3419.9,224.048C3426.34,224.048 3431.56,216.481 3431.56,207.16L3431.56,139.604Z" style="fill:rgb(66,191,239);stroke:rgb(0,40,44);stroke-width:9.31px;"/>
                        </g>
                        <g transform="matrix(0.625,0,0,0.693873,9342.36,194.613)">
                            <path d="M3431.56,133.974C3431.56,127.76 3426.34,122.715 3419.9,122.715L3396.56,122.715C3390.12,122.715 3384.9,127.76 3384.9,133.974L3384.9,212.789C3384.9,219.003 3390.12,224.048 3396.56,224.048L3419.9,224.048C3426.34,224.048 3431.56,219.003 3431.56,212.789L3431.56,133.974Z" style="fill:rgb(66,191,239);stroke:rgb(0,40,44);stroke-width:7.86px;"/>
                        </g>
                        <g transform="matrix(0.625,0,0,0.925164,9384.03,142.792)">
                            <path d="M3431.56,131.16C3431.56,126.499 3426.34,122.715 3419.9,122.715L3396.56,122.715C3390.12,122.715 3384.9,126.499 3384.9,131.16L3384.9,215.604C3384.9,220.265 3390.12,224.048 3396.56,224.048L3419.9,224.048C3426.34,224.048 3431.56,220.265 3431.56,215.604L3431.56,131.16Z" style="fill:rgb(66,191,239);stroke:rgb(0,40,44);stroke-width:6.63px;"/>
                        </g>
                    </g>
                    <g transform="matrix(0.494122,-0.358792,0.382712,0.463239,9726.75,1452.88)">
                        <path d="M3369.39,112.45C3367.81,112.333 3366.59,111.008 3366.61,109.425C3366.62,108.4 3366.64,107.244 3366.65,106.226C3366.66,104.671 3367.87,103.387 3369.42,103.268C3386.28,101.976 3475.84,95.11 3492.79,93.811C3494.36,93.691 3495.56,92.388 3495.56,90.82C3495.56,86.999 3495.56,79.987 3495.56,74.624C3495.56,73.411 3496.3,72.317 3497.42,71.853C3498.54,71.388 3499.83,71.645 3500.68,72.503C3509.6,81.42 3527.62,99.434 3533.78,105.594C3534.34,106.156 3534.65,106.919 3534.65,107.715C3534.65,108.511 3534.34,109.274 3533.78,109.836C3527.62,115.996 3509.6,134.01 3500.68,142.927C3499.83,143.785 3498.54,144.042 3497.42,143.577C3496.3,143.113 3495.56,142.019 3495.56,140.806C3495.56,135.447 3495.56,128.439 3495.56,124.617C3495.56,123.046 3494.35,121.742 3492.79,121.625C3475.83,120.365 3386.43,113.717 3369.39,112.45Z" style="fill:rgb(66,191,239);stroke:rgb(0,40,44);stroke-width:8px;"/>
                    </g>
                </g>
            </g>
        </g>
    </g>
</svg>
